<svg xmlns="http://www.w3.org/2000/svg" xmlns:xlink="http://www.w3.org/1999/xlink" width="500" zoomAndPan="magnify" viewBox="0 0 375 374.999991" height="500" preserveAspectRatio="xMidYMid meet" version="1.0"><defs><g/><clipPath id="9663a1c0e4"><path d="M 23.21875 134.464844 L 145.941406 134.464844 L 145.941406 223.605469 L 23.21875 223.605469 Z M 23.21875 134.464844 " clip-rule="nonzero"/></clipPath><clipPath id="093b106b17"><path d="M 0.21875 0.464844 L 122.941406 0.464844 L 122.941406 89.605469 L 0.21875 89.605469 Z M 0.21875 0.464844 " clip-rule="nonzero"/></clipPath><clipPath id="e1223a7c69"><rect x="0" width="123" y="0" height="90"/></clipPath><clipPath id="9d954646ee"><path d="M 0.519531 25 L 54.761719 25 L 54.761719 85 L 0.519531 85 Z M 0.519531 25 " clip-rule="nonzero"/></clipPath><clipPath id="4d65f0e06a"><rect x="0" width="55" y="0" height="110"/></clipPath><clipPath id="fd231faf38"><path d="M 4 30 L 55.640625 30 L 55.640625 102 L 4 102 Z M 4 30 " clip-rule="nonzero"/></clipPath><clipPath id="e78d51f24c"><rect x="0" width="56" y="0" height="132"/></clipPath><clipPath id="9a717946a9"><rect x="0" width="161" y="0" height="16"/></clipPath><clipPath id="6a346e387e"><rect x="0" width="202" y="0" height="79"/></clipPath></defs><g clip-path="url(#9663a1c0e4)"><g transform="matrix(1, 0, 0, 1, 23, 134)"><g clip-path="url(#e1223a7c69)"><g clip-path="url(#093b106b17)"><path fill="#00122f" d="M 0.21875 0.464844 L 122.789062 0.464844 L 122.789062 89.605469 L 0.21875 89.605469 Z M 0.21875 0.464844 " fill-opacity="1" fill-rule="nonzero"/></g></g></g></g><g transform="matrix(1, 0, 0, 1, 83, 129)"><g clip-path="url(#4d65f0e06a)"><g clip-path="url(#9d954646ee)"><g fill="#00122f" fill-opacity="1"><g transform="translate(1.374545, 81.955609)"><g><path d="M 38.078125 -9.148438 L 14.40625 -9.148438 L 14.40625 -12.070312 L 17.152344 -11.078125 L 12.09375 2.921875 L -1.597656 2.921875 L 20.148438 -56.886719 L 32.417969 -56.886719 L 54.078125 2.921875 L 40.390625 2.921875 L 35.332031 -11.078125 L 38.078125 -12.070312 Z M 40.128906 -14.992188 L 45.1875 -0.992188 L 42.441406 0 L 42.441406 -2.921875 L 49.914062 -2.921875 L 49.914062 0 L 47.167969 0.996094 L 27.625 -52.96875 L 30.371094 -53.964844 L 30.371094 -51.042969 L 22.191406 -51.042969 L 22.191406 -53.964844 L 24.9375 -52.964844 L 5.3125 0.996094 L 2.570312 0 L 2.570312 -2.921875 L 10.046875 -2.921875 L 10.046875 0 L 7.300781 -0.992188 L 12.355469 -14.992188 Z M 33.304688 -16.847656 L 23.492188 -44.257812 L 26.242188 -45.242188 L 28.992188 -44.257812 L 19.179688 -16.847656 L 16.429688 -17.832031 L 16.429688 -20.753906 L 36.054688 -20.753906 L 36.054688 -17.832031 Z M 40.203125 -14.914062 L 12.285156 -14.914062 L 26.242188 -53.90625 L 38.804688 -18.816406 Z M 40.203125 -14.914062 "/></g></g></g></g><g fill="#5e9bff" fill-opacity="1"><g transform="translate(1.374545, 81.955609)"><g><path d="M 38.078125 -12.078125 L 14.40625 -12.078125 L 10.046875 0 L 2.5625 0 L 22.1875 -53.96875 L 30.375 -53.96875 L 49.921875 0 L 42.4375 0 Z M 36.0625 -17.828125 L 26.25 -45.25 L 16.4375 -17.828125 Z M 36.0625 -17.828125 "/></g></g></g></g></g><g transform="matrix(1, 0, 0, 1, 61, 112)"><g clip-path="url(#e78d51f24c)"><g clip-path="url(#fd231faf38)"><g fill="#00122f" fill-opacity="1"><g transform="translate(1.130191, 98.34106)"><g><path d="M 53.875 -45.753906 C 53.875 -39.386719 51.679688 -34.082031 47.292969 -29.839844 C 42.9375 -25.632812 36.515625 -23.527344 28.027344 -23.527344 L 15.59375 -23.527344 L 15.59375 -27.007812 L 19.074219 -27.007812 L 19.074219 3.480469 L 3.664062 3.480469 L 3.664062 -68.167969 L 28.027344 -68.167969 C 36.238281 -68.167969 42.582031 -66.097656 47.054688 -61.949219 C 51.601562 -57.734375 53.875 -52.335938 53.875 -45.753906 Z M 46.914062 -45.753906 C 46.914062 -50.3125 45.382812 -54.007812 42.320312 -56.84375 C 39.183594 -59.753906 34.417969 -61.207031 28.027344 -61.207031 L 7.144531 -61.207031 L 7.144531 -64.6875 L 10.625 -64.6875 L 10.625 0 L 7.144531 0 L 7.144531 -3.480469 L 15.59375 -3.480469 L 15.59375 0 L 12.113281 0 L 12.113281 -30.488281 L 28.027344 -30.488281 C 34.640625 -30.488281 39.449219 -31.941406 42.453125 -34.847656 C 45.429688 -37.71875 46.914062 -41.355469 46.914062 -45.753906 Z M 28.027344 -37.449219 C 31.828125 -37.449219 34.507812 -38.164062 36.070312 -39.597656 C 37.546875 -40.949219 38.285156 -43 38.285156 -45.753906 C 38.285156 -48.691406 37.539062 -50.808594 36.042969 -52.109375 C 34.410156 -53.535156 31.738281 -54.246094 28.027344 -54.246094 L 15.59375 -54.246094 L 15.59375 -57.726562 L 19.074219 -57.726562 L 19.074219 -33.96875 L 15.59375 -33.96875 L 15.59375 -37.449219 Z M 28.027344 -30.488281 L 12.113281 -30.488281 L 12.113281 -61.207031 L 28.027344 -61.207031 C 33.476562 -61.207031 37.671875 -59.925781 40.617188 -57.359375 C 43.703125 -54.667969 45.246094 -50.800781 45.246094 -45.753906 C 45.246094 -40.960938 43.753906 -37.195312 40.773438 -34.464844 C 37.882812 -31.8125 33.632812 -30.488281 28.027344 -30.488281 Z M 28.027344 -30.488281 "/></g></g></g></g><g fill="#5e9bff" fill-opacity="1"><g transform="translate(1.130191, 98.34106)"><g><path d="M 50.390625 -45.75 C 50.390625 -40.375 48.550781 -35.90625 44.875 -32.34375 C 41.195312 -28.789062 35.582031 -27.015625 28.03125 -27.015625 L 15.59375 -27.015625 L 15.59375 0 L 7.140625 0 L 7.140625 -64.6875 L 28.03125 -64.6875 C 35.332031 -64.6875 40.882812 -62.921875 44.6875 -59.390625 C 48.488281 -55.867188 50.390625 -51.320312 50.390625 -45.75 Z M 28.03125 -33.96875 C 32.726562 -33.96875 36.191406 -34.988281 38.421875 -37.03125 C 40.648438 -39.070312 41.765625 -41.976562 41.765625 -45.75 C 41.765625 -53.738281 37.1875 -57.734375 28.03125 -57.734375 L 15.59375 -57.734375 L 15.59375 -33.96875 Z M 28.03125 -33.96875 "/></g></g></g></g></g><g fill="#00122f" fill-opacity="1"><g transform="translate(30.635378, 209.958341)"><g><path d="M 53.875 -45.753906 C 53.875 -39.386719 51.679688 -34.082031 47.289062 -29.839844 C 42.933594 -25.628906 36.511719 -23.527344 28.027344 -23.527344 L 15.589844 -23.527344 L 15.589844 -27.007812 L 19.070312 -27.007812 L 19.070312 3.480469 L 3.664062 3.480469 L 3.664062 -68.164062 L 28.027344 -68.164062 C 36.238281 -68.164062 42.578125 -66.09375 47.050781 -61.949219 C 51.597656 -57.734375 53.875 -52.335938 53.875 -45.753906 Z M 46.914062 -45.753906 C 46.914062 -50.308594 45.382812 -54.003906 42.320312 -56.84375 C 39.183594 -59.75 34.417969 -61.203125 28.027344 -61.203125 L 7.144531 -61.203125 L 7.144531 -64.683594 L 10.625 -64.683594 L 10.625 0 L 7.144531 0 L 7.144531 -3.480469 L 15.589844 -3.480469 L 15.589844 0 L 12.109375 0 L 12.109375 -30.488281 L 28.027344 -30.488281 C 34.636719 -30.488281 39.445312 -31.941406 42.453125 -34.84375 C 45.425781 -37.71875 46.914062 -41.355469 46.914062 -45.753906 Z M 28.027344 -37.445312 C 31.828125 -37.445312 34.507812 -38.164062 36.070312 -39.59375 C 37.542969 -40.945312 38.28125 -43 38.28125 -45.753906 C 38.28125 -48.6875 37.535156 -50.804688 36.042969 -52.109375 C 34.40625 -53.53125 31.734375 -54.246094 28.027344 -54.246094 L 15.589844 -54.246094 L 15.589844 -57.726562 L 19.070312 -57.726562 L 19.070312 -33.964844 L 15.589844 -33.964844 L 15.589844 -37.445312 Z M 28.027344 -30.484375 L 12.109375 -30.484375 L 12.109375 -61.207031 L 28.027344 -61.207031 C 33.476562 -61.207031 37.671875 -59.921875 40.617188 -57.355469 C 43.699219 -54.667969 45.242188 -50.800781 45.242188 -45.753906 C 45.242188 -40.957031 43.753906 -37.195312 40.773438 -34.464844 C 37.878906 -31.8125 33.632812 -30.484375 28.027344 -30.484375 Z M 28.027344 -30.484375 "/></g></g></g><g fill="#5e9bff" fill-opacity="1"><g transform="translate(30.635378, 209.958341)"><g><path d="M 50.390625 -45.75 C 50.390625 -40.375 48.550781 -35.90625 44.875 -32.34375 C 41.195312 -28.789062 35.582031 -27.015625 28.03125 -27.015625 L 15.59375 -27.015625 L 15.59375 0 L 7.140625 0 L 7.140625 -64.6875 L 28.03125 -64.6875 C 35.332031 -64.6875 40.882812 -62.921875 44.6875 -59.390625 C 48.488281 -55.867188 50.390625 -51.320312 50.390625 -45.75 Z M 28.03125 -33.96875 C 32.726562 -33.96875 36.191406 -34.988281 38.421875 -37.03125 C 40.648438 -39.070312 41.765625 -41.976562 41.765625 -45.75 C 41.765625 -53.738281 37.1875 -57.734375 28.03125 -57.734375 L 15.59375 -57.734375 L 15.59375 -33.96875 Z M 28.03125 -33.96875 "/></g></g></g><g transform="matrix(1, 0, 0, 1, 152, 199)"><g clip-path="url(#9a717946a9)"><g fill="#00122f" fill-opacity="1"><g transform="translate(0.467861, 11.592478)"><g><path d="M 5.75 -5.21875 C 5.75 -4.601562 5.535156 -4.09375 5.109375 -3.6875 C 4.691406 -3.28125 4.054688 -3.078125 3.203125 -3.078125 L 1.78125 -3.078125 L 1.78125 0 L 0.8125 0 L 0.8125 -7.390625 L 3.203125 -7.390625 C 4.035156 -7.390625 4.664062 -7.1875 5.09375 -6.78125 C 5.53125 -6.375 5.75 -5.851562 5.75 -5.21875 Z M 3.203125 -3.875 C 3.734375 -3.875 4.125 -3.988281 4.375 -4.21875 C 4.632812 -4.457031 4.765625 -4.789062 4.765625 -5.21875 C 4.765625 -6.132812 4.242188 -6.59375 3.203125 -6.59375 L 1.78125 -6.59375 L 1.78125 -3.875 Z M 3.203125 -3.875 "/></g></g></g><g fill="#00122f" fill-opacity="1"><g transform="translate(6.603465, 11.592478)"><g><path d="M 1.78125 -4.859375 C 1.945312 -5.191406 2.1875 -5.445312 2.5 -5.625 C 2.820312 -5.8125 3.207031 -5.90625 3.65625 -5.90625 L 3.65625 -4.921875 L 3.40625 -4.921875 C 2.320312 -4.921875 1.78125 -4.332031 1.78125 -3.15625 L 1.78125 0 L 0.8125 0 L 0.8125 -5.8125 L 1.78125 -5.8125 Z M 1.78125 -4.859375 "/></g></g></g><g fill="#00122f" fill-opacity="1"><g transform="translate(10.556113, 11.592478)"><g><path d="M 6.109375 -3.125 C 6.109375 -2.9375 6.097656 -2.742188 6.078125 -2.546875 L 1.4375 -2.546875 C 1.476562 -1.972656 1.675781 -1.523438 2.03125 -1.203125 C 2.382812 -0.878906 2.816406 -0.71875 3.328125 -0.71875 C 3.742188 -0.71875 4.085938 -0.8125 4.359375 -1 C 4.640625 -1.195312 4.835938 -1.460938 4.953125 -1.796875 L 6 -1.796875 C 5.84375 -1.234375 5.53125 -0.773438 5.0625 -0.421875 C 4.59375 -0.078125 4.015625 0.09375 3.328125 0.09375 C 2.773438 0.09375 2.28125 -0.0234375 1.84375 -0.265625 C 1.414062 -0.515625 1.078125 -0.867188 0.828125 -1.328125 C 0.578125 -1.785156 0.453125 -2.3125 0.453125 -2.90625 C 0.453125 -3.507812 0.570312 -4.035156 0.8125 -4.484375 C 1.050781 -4.941406 1.390625 -5.289062 1.828125 -5.53125 C 2.265625 -5.78125 2.765625 -5.90625 3.328125 -5.90625 C 3.878906 -5.90625 4.363281 -5.785156 4.78125 -5.546875 C 5.207031 -5.304688 5.535156 -4.972656 5.765625 -4.546875 C 5.992188 -4.128906 6.109375 -3.65625 6.109375 -3.125 Z M 5.109375 -3.328125 C 5.109375 -3.691406 5.023438 -4.003906 4.859375 -4.265625 C 4.703125 -4.535156 4.484375 -4.738281 4.203125 -4.875 C 3.929688 -5.007812 3.625 -5.078125 3.28125 -5.078125 C 2.789062 -5.078125 2.375 -4.921875 2.03125 -4.609375 C 1.695312 -4.304688 1.503906 -3.878906 1.453125 -3.328125 Z M 5.109375 -3.328125 "/></g></g></g><g fill="#00122f" fill-opacity="1"><g transform="translate(17.1262, 11.592478)"><g/></g></g><g fill="#00122f" fill-opacity="1"><g transform="translate(19.955572, 11.592478)"><g><path d="M 6.484375 0 L 5.515625 -0.96875 C 5.160156 -0.59375 4.773438 -0.316406 4.359375 -0.140625 C 3.953125 0.0351562 3.492188 0.125 2.984375 0.125 C 2.472656 0.125 2.019531 0.0351562 1.625 -0.140625 C 1.226562 -0.328125 0.921875 -0.585938 0.703125 -0.921875 C 0.492188 -1.265625 0.390625 -1.664062 0.390625 -2.125 C 0.390625 -2.632812 0.535156 -3.082031 0.828125 -3.46875 C 1.117188 -3.863281 1.550781 -4.175781 2.125 -4.40625 C 1.90625 -4.675781 1.742188 -4.921875 1.640625 -5.140625 C 1.546875 -5.367188 1.5 -5.617188 1.5 -5.890625 C 1.5 -6.203125 1.578125 -6.484375 1.734375 -6.734375 C 1.890625 -6.984375 2.113281 -7.175781 2.40625 -7.3125 C 2.707031 -7.457031 3.050781 -7.53125 3.4375 -7.53125 C 3.820312 -7.53125 4.15625 -7.457031 4.4375 -7.3125 C 4.71875 -7.164062 4.925781 -6.957031 5.0625 -6.6875 C 5.207031 -6.425781 5.273438 -6.132812 5.265625 -5.8125 L 4.296875 -5.8125 C 4.304688 -6.09375 4.222656 -6.316406 4.046875 -6.484375 C 3.878906 -6.648438 3.664062 -6.734375 3.40625 -6.734375 C 3.125 -6.734375 2.894531 -6.65625 2.71875 -6.5 C 2.539062 -6.34375 2.453125 -6.140625 2.453125 -5.890625 C 2.453125 -5.679688 2.507812 -5.476562 2.625 -5.28125 C 2.75 -5.082031 2.945312 -4.835938 3.21875 -4.546875 L 5.421875 -2.328125 L 5.609375 -2.625 L 6.328125 -3.828125 L 7.375 -3.828125 L 6.5 -2.328125 C 6.382812 -2.117188 6.242188 -1.894531 6.078125 -1.65625 L 7.75 0 Z M 2.984375 -0.703125 C 3.359375 -0.703125 3.695312 -0.773438 4 -0.921875 C 4.3125 -1.066406 4.609375 -1.296875 4.890625 -1.609375 L 2.71875 -3.796875 C 1.8125 -3.453125 1.359375 -2.90625 1.359375 -2.15625 C 1.359375 -1.738281 1.503906 -1.390625 1.796875 -1.109375 C 2.097656 -0.835938 2.492188 -0.703125 2.984375 -0.703125 Z M 2.984375 -0.703125 "/></g></g></g><g fill="#00122f" fill-opacity="1"><g transform="translate(27.786681, 11.592478)"><g/></g></g><g fill="#00122f" fill-opacity="1"><g transform="translate(30.616054, 11.592478)"><g><path d="M 5.75 -5.21875 C 5.75 -4.601562 5.535156 -4.09375 5.109375 -3.6875 C 4.691406 -3.28125 4.054688 -3.078125 3.203125 -3.078125 L 1.78125 -3.078125 L 1.78125 0 L 0.8125 0 L 0.8125 -7.390625 L 3.203125 -7.390625 C 4.035156 -7.390625 4.664062 -7.1875 5.09375 -6.78125 C 5.53125 -6.375 5.75 -5.851562 5.75 -5.21875 Z M 3.203125 -3.875 C 3.734375 -3.875 4.125 -3.988281 4.375 -4.21875 C 4.632812 -4.457031 4.765625 -4.789062 4.765625 -5.21875 C 4.765625 -6.132812 4.242188 -6.59375 3.203125 -6.59375 L 1.78125 -6.59375 L 1.78125 -3.875 Z M 3.203125 -3.875 "/></g></g></g><g fill="#00122f" fill-opacity="1"><g transform="translate(36.751658, 11.592478)"><g><path d="M 3.34375 0.09375 C 2.800781 0.09375 2.304688 -0.0234375 1.859375 -0.265625 C 1.421875 -0.515625 1.078125 -0.867188 0.828125 -1.328125 C 0.578125 -1.785156 0.453125 -2.3125 0.453125 -2.90625 C 0.453125 -3.5 0.582031 -4.023438 0.84375 -4.484375 C 1.101562 -4.941406 1.453125 -5.289062 1.890625 -5.53125 C 2.335938 -5.78125 2.835938 -5.90625 3.390625 -5.90625 C 3.941406 -5.90625 4.4375 -5.78125 4.875 -5.53125 C 5.320312 -5.289062 5.675781 -4.941406 5.9375 -4.484375 C 6.195312 -4.035156 6.328125 -3.507812 6.328125 -2.90625 C 6.328125 -2.3125 6.191406 -1.785156 5.921875 -1.328125 C 5.660156 -0.867188 5.300781 -0.515625 4.84375 -0.265625 C 4.394531 -0.0234375 3.894531 0.09375 3.34375 0.09375 Z M 3.34375 -0.75 C 3.6875 -0.75 4.007812 -0.828125 4.3125 -0.984375 C 4.625 -1.148438 4.875 -1.394531 5.0625 -1.71875 C 5.25 -2.050781 5.34375 -2.445312 5.34375 -2.90625 C 5.34375 -3.375 5.25 -3.769531 5.0625 -4.09375 C 4.875 -4.425781 4.632812 -4.671875 4.34375 -4.828125 C 4.050781 -4.984375 3.726562 -5.0625 3.375 -5.0625 C 3.019531 -5.0625 2.695312 -4.984375 2.40625 -4.828125 C 2.113281 -4.671875 1.878906 -4.425781 1.703125 -4.09375 C 1.523438 -3.769531 1.4375 -3.375 1.4375 -2.90625 C 1.4375 -2.4375 1.519531 -2.039062 1.6875 -1.71875 C 1.863281 -1.394531 2.097656 -1.148438 2.390625 -0.984375 C 2.679688 -0.828125 3 -0.75 3.34375 -0.75 Z M 3.34375 -0.75 "/></g></g></g><g fill="#00122f" fill-opacity="1"><g transform="translate(43.533678, 11.592478)"><g><path d="M 2.875 0.09375 C 2.425781 0.09375 2.023438 0.0195312 1.671875 -0.125 C 1.316406 -0.28125 1.035156 -0.492188 0.828125 -0.765625 C 0.628906 -1.035156 0.519531 -1.347656 0.5 -1.703125 L 1.5 -1.703125 C 1.519531 -1.410156 1.648438 -1.171875 1.890625 -0.984375 C 2.140625 -0.804688 2.460938 -0.71875 2.859375 -0.71875 C 3.222656 -0.71875 3.507812 -0.796875 3.71875 -0.953125 C 3.9375 -1.117188 4.046875 -1.328125 4.046875 -1.578125 C 4.046875 -1.828125 3.929688 -2.015625 3.703125 -2.140625 C 3.484375 -2.265625 3.132812 -2.390625 2.65625 -2.515625 C 2.226562 -2.628906 1.878906 -2.742188 1.609375 -2.859375 C 1.335938 -2.972656 1.101562 -3.144531 0.90625 -3.375 C 0.707031 -3.601562 0.609375 -3.90625 0.609375 -4.28125 C 0.609375 -4.570312 0.695312 -4.84375 0.875 -5.09375 C 1.050781 -5.34375 1.300781 -5.539062 1.625 -5.6875 C 1.957031 -5.832031 2.332031 -5.90625 2.75 -5.90625 C 3.382812 -5.90625 3.898438 -5.738281 4.296875 -5.40625 C 4.691406 -5.082031 4.90625 -4.640625 4.9375 -4.078125 L 3.96875 -4.078125 C 3.945312 -4.378906 3.828125 -4.617188 3.609375 -4.796875 C 3.390625 -4.984375 3.09375 -5.078125 2.71875 -5.078125 C 2.363281 -5.078125 2.082031 -5.003906 1.875 -4.859375 C 1.675781 -4.710938 1.578125 -4.519531 1.578125 -4.28125 C 1.578125 -4.09375 1.640625 -3.9375 1.765625 -3.8125 C 1.890625 -3.6875 2.046875 -3.585938 2.234375 -3.515625 C 2.421875 -3.441406 2.679688 -3.359375 3.015625 -3.265625 C 3.429688 -3.148438 3.769531 -3.035156 4.03125 -2.921875 C 4.289062 -2.816406 4.515625 -2.65625 4.703125 -2.4375 C 4.890625 -2.21875 4.984375 -1.929688 4.984375 -1.578125 C 4.984375 -1.265625 4.894531 -0.976562 4.71875 -0.71875 C 4.539062 -0.46875 4.289062 -0.269531 3.96875 -0.125 C 3.65625 0.0195312 3.289062 0.09375 2.875 0.09375 Z M 2.875 0.09375 "/></g></g></g><g fill="#00122f" fill-opacity="1"><g transform="translate(49.065267, 11.592478)"><g><path d="M 1.984375 -5.015625 L 1.984375 -1.59375 C 1.984375 -1.3125 2.046875 -1.109375 2.171875 -0.984375 C 2.296875 -0.867188 2.503906 -0.8125 2.796875 -0.8125 L 3.5 -0.8125 L 3.5 0 L 2.640625 0 C 2.097656 0 1.691406 -0.117188 1.421875 -0.359375 C 1.160156 -0.609375 1.03125 -1.019531 1.03125 -1.59375 L 1.03125 -5.015625 L 0.28125 -5.015625 L 0.28125 -5.8125 L 1.03125 -5.8125 L 1.03125 -7.265625 L 1.984375 -7.265625 L 1.984375 -5.8125 L 3.5 -5.8125 L 3.5 -5.015625 Z M 1.984375 -5.015625 "/></g></g></g><g fill="#00122f" fill-opacity="1"><g transform="translate(52.922546, 11.592478)"><g/></g></g><g fill="#00122f" fill-opacity="1"><g transform="translate(55.751918, 11.592478)"><g><path d="M 5.1875 -1.640625 L 1.953125 -1.640625 L 1.359375 0 L 0.34375 0 L 3.015625 -7.34375 L 4.125 -7.34375 L 6.796875 0 L 5.78125 0 Z M 4.90625 -2.421875 L 3.5625 -6.15625 L 2.234375 -2.421875 Z M 4.90625 -2.421875 "/></g></g></g><g fill="#00122f" fill-opacity="1"><g transform="translate(62.894234, 11.592478)"><g><path d="M 8.546875 -5.8125 L 6.734375 0 L 5.734375 0 L 4.34375 -4.609375 L 2.9375 0 L 1.953125 0 L 0.125 -5.8125 L 1.109375 -5.8125 L 2.453125 -0.9375 L 3.890625 -5.8125 L 4.875 -5.8125 L 6.28125 -0.921875 L 7.59375 -5.8125 Z M 8.546875 -5.8125 "/></g></g></g><g fill="#00122f" fill-opacity="1"><g transform="translate(71.583693, 11.592478)"><g><path d="M 0.453125 -2.921875 C 0.453125 -3.515625 0.570312 -4.035156 0.8125 -4.484375 C 1.050781 -4.929688 1.378906 -5.28125 1.796875 -5.53125 C 2.222656 -5.78125 2.691406 -5.90625 3.203125 -5.90625 C 3.710938 -5.90625 4.15625 -5.796875 4.53125 -5.578125 C 4.90625 -5.359375 5.1875 -5.082031 5.375 -4.75 L 5.375 -5.8125 L 6.34375 -5.8125 L 6.34375 0 L 5.375 0 L 5.375 -1.078125 C 5.175781 -0.742188 4.890625 -0.460938 4.515625 -0.234375 C 4.140625 -0.015625 3.703125 0.09375 3.203125 0.09375 C 2.679688 0.09375 2.210938 -0.03125 1.796875 -0.28125 C 1.378906 -0.539062 1.050781 -0.898438 0.8125 -1.359375 C 0.570312 -1.816406 0.453125 -2.335938 0.453125 -2.921875 Z M 5.375 -2.90625 C 5.375 -3.34375 5.285156 -3.722656 5.109375 -4.046875 C 4.929688 -4.378906 4.691406 -4.628906 4.390625 -4.796875 C 4.085938 -4.972656 3.757812 -5.0625 3.40625 -5.0625 C 3.039062 -5.0625 2.707031 -4.976562 2.40625 -4.8125 C 2.113281 -4.644531 1.878906 -4.394531 1.703125 -4.0625 C 1.523438 -3.738281 1.4375 -3.359375 1.4375 -2.921875 C 1.4375 -2.472656 1.523438 -2.082031 1.703125 -1.75 C 1.878906 -1.425781 2.113281 -1.175781 2.40625 -1 C 2.707031 -0.832031 3.039062 -0.75 3.40625 -0.75 C 3.757812 -0.75 4.085938 -0.832031 4.390625 -1 C 4.691406 -1.175781 4.929688 -1.425781 5.109375 -1.75 C 5.285156 -2.082031 5.375 -2.46875 5.375 -2.90625 Z M 5.375 -2.90625 "/></g></g></g><g fill="#00122f" fill-opacity="1"><g transform="translate(78.747204, 11.592478)"><g><path d="M 1.78125 -4.859375 C 1.945312 -5.191406 2.1875 -5.445312 2.5 -5.625 C 2.820312 -5.8125 3.207031 -5.90625 3.65625 -5.90625 L 3.65625 -4.921875 L 3.40625 -4.921875 C 2.320312 -4.921875 1.78125 -4.332031 1.78125 -3.15625 L 1.78125 0 L 0.8125 0 L 0.8125 -5.8125 L 1.78125 -5.8125 Z M 1.78125 -4.859375 "/></g></g></g><g fill="#00122f" fill-opacity="1"><g transform="translate(82.699852, 11.592478)"><g><path d="M 0.453125 -2.921875 C 0.453125 -3.515625 0.570312 -4.035156 0.8125 -4.484375 C 1.050781 -4.929688 1.378906 -5.28125 1.796875 -5.53125 C 2.222656 -5.78125 2.695312 -5.90625 3.21875 -5.90625 C 3.675781 -5.90625 4.097656 -5.800781 4.484375 -5.59375 C 4.867188 -5.382812 5.164062 -5.109375 5.375 -4.765625 L 5.375 -7.84375 L 6.34375 -7.84375 L 6.34375 0 L 5.375 0 L 5.375 -1.09375 C 5.175781 -0.75 4.890625 -0.460938 4.515625 -0.234375 C 4.148438 -0.015625 3.710938 0.09375 3.203125 0.09375 C 2.691406 0.09375 2.222656 -0.03125 1.796875 -0.28125 C 1.378906 -0.539062 1.050781 -0.898438 0.8125 -1.359375 C 0.570312 -1.816406 0.453125 -2.335938 0.453125 -2.921875 Z M 5.375 -2.90625 C 5.375 -3.34375 5.285156 -3.722656 5.109375 -4.046875 C 4.929688 -4.378906 4.691406 -4.628906 4.390625 -4.796875 C 4.085938 -4.972656 3.757812 -5.0625 3.40625 -5.0625 C 3.039062 -5.0625 2.707031 -4.976562 2.40625 -4.8125 C 2.113281 -4.644531 1.878906 -4.394531 1.703125 -4.0625 C 1.523438 -3.738281 1.4375 -3.359375 1.4375 -2.921875 C 1.4375 -2.472656 1.523438 -2.082031 1.703125 -1.75 C 1.878906 -1.425781 2.113281 -1.175781 2.40625 -1 C 2.707031 -0.832031 3.039062 -0.75 3.40625 -0.75 C 3.757812 -0.75 4.085938 -0.832031 4.390625 -1 C 4.691406 -1.175781 4.929688 -1.425781 5.109375 -1.75 C 5.285156 -2.082031 5.375 -2.46875 5.375 -2.90625 Z M 5.375 -2.90625 "/></g></g></g><g fill="#00122f" fill-opacity="1"><g transform="translate(89.863362, 11.592478)"><g/></g></g><g fill="#00122f" fill-opacity="1"><g transform="translate(92.692735, 11.592478)"><g><path d="M 0.453125 -3.703125 C 0.453125 -4.421875 0.613281 -5.066406 0.9375 -5.640625 C 1.269531 -6.210938 1.710938 -6.660156 2.265625 -6.984375 C 2.828125 -7.316406 3.453125 -7.484375 4.140625 -7.484375 C 4.941406 -7.484375 5.644531 -7.285156 6.25 -6.890625 C 6.851562 -6.503906 7.289062 -5.957031 7.5625 -5.25 L 6.40625 -5.25 C 6.207031 -5.6875 5.914062 -6.023438 5.53125 -6.265625 C 5.144531 -6.503906 4.679688 -6.625 4.140625 -6.625 C 3.628906 -6.625 3.164062 -6.503906 2.75 -6.265625 C 2.34375 -6.023438 2.019531 -5.6875 1.78125 -5.25 C 1.550781 -4.8125 1.4375 -4.296875 1.4375 -3.703125 C 1.4375 -3.109375 1.550781 -2.59375 1.78125 -2.15625 C 2.019531 -1.71875 2.34375 -1.375 2.75 -1.125 C 3.164062 -0.882812 3.628906 -0.765625 4.140625 -0.765625 C 4.679688 -0.765625 5.144531 -0.882812 5.53125 -1.125 C 5.914062 -1.363281 6.207031 -1.707031 6.40625 -2.15625 L 7.5625 -2.15625 C 7.289062 -1.445312 6.851562 -0.898438 6.25 -0.515625 C 5.644531 -0.128906 4.941406 0.0625 4.140625 0.0625 C 3.453125 0.0625 2.828125 -0.0976562 2.265625 -0.421875 C 1.710938 -0.742188 1.269531 -1.1875 0.9375 -1.75 C 0.613281 -2.320312 0.453125 -2.972656 0.453125 -3.703125 Z M 0.453125 -3.703125 "/></g></g></g><g fill="#00122f" fill-opacity="1"><g transform="translate(100.873548, 11.592478)"><g><path d="M 3.34375 0.09375 C 2.800781 0.09375 2.304688 -0.0234375 1.859375 -0.265625 C 1.421875 -0.515625 1.078125 -0.867188 0.828125 -1.328125 C 0.578125 -1.785156 0.453125 -2.3125 0.453125 -2.90625 C 0.453125 -3.5 0.582031 -4.023438 0.84375 -4.484375 C 1.101562 -4.941406 1.453125 -5.289062 1.890625 -5.53125 C 2.335938 -5.78125 2.835938 -5.90625 3.390625 -5.90625 C 3.941406 -5.90625 4.4375 -5.78125 4.875 -5.53125 C 5.320312 -5.289062 5.675781 -4.941406 5.9375 -4.484375 C 6.195312 -4.035156 6.328125 -3.507812 6.328125 -2.90625 C 6.328125 -2.3125 6.191406 -1.785156 5.921875 -1.328125 C 5.660156 -0.867188 5.300781 -0.515625 4.84375 -0.265625 C 4.394531 -0.0234375 3.894531 0.09375 3.34375 0.09375 Z M 3.34375 -0.75 C 3.6875 -0.75 4.007812 -0.828125 4.3125 -0.984375 C 4.625 -1.148438 4.875 -1.394531 5.0625 -1.71875 C 5.25 -2.050781 5.34375 -2.445312 5.34375 -2.90625 C 5.34375 -3.375 5.25 -3.769531 5.0625 -4.09375 C 4.875 -4.425781 4.632812 -4.671875 4.34375 -4.828125 C 4.050781 -4.984375 3.726562 -5.0625 3.375 -5.0625 C 3.019531 -5.0625 2.695312 -4.984375 2.40625 -4.828125 C 2.113281 -4.671875 1.878906 -4.425781 1.703125 -4.09375 C 1.523438 -3.769531 1.4375 -3.375 1.4375 -2.90625 C 1.4375 -2.4375 1.519531 -2.039062 1.6875 -1.71875 C 1.863281 -1.394531 2.097656 -1.148438 2.390625 -0.984375 C 2.679688 -0.828125 3 -0.75 3.34375 -0.75 Z M 3.34375 -0.75 "/></g></g></g><g fill="#00122f" fill-opacity="1"><g transform="translate(107.655569, 11.592478)"><g><path d="M 3.640625 -5.90625 C 4.347656 -5.90625 4.921875 -5.691406 5.359375 -5.265625 C 5.796875 -4.835938 6.015625 -4.222656 6.015625 -3.421875 L 6.015625 0 L 5.0625 0 L 5.0625 -3.28125 C 5.0625 -3.863281 4.914062 -4.304688 4.625 -4.609375 C 4.332031 -4.921875 3.9375 -5.078125 3.4375 -5.078125 C 2.9375 -5.078125 2.535156 -4.914062 2.234375 -4.59375 C 1.929688 -4.28125 1.78125 -3.816406 1.78125 -3.203125 L 1.78125 0 L 0.8125 0 L 0.8125 -5.8125 L 1.78125 -5.8125 L 1.78125 -4.984375 C 1.96875 -5.273438 2.222656 -5.5 2.546875 -5.65625 C 2.878906 -5.820312 3.242188 -5.90625 3.640625 -5.90625 Z M 3.640625 -5.90625 "/></g></g></g><g fill="#00122f" fill-opacity="1"><g transform="translate(114.437589, 11.592478)"><g><path d="M 2.875 0.09375 C 2.425781 0.09375 2.023438 0.0195312 1.671875 -0.125 C 1.316406 -0.28125 1.035156 -0.492188 0.828125 -0.765625 C 0.628906 -1.035156 0.519531 -1.347656 0.5 -1.703125 L 1.5 -1.703125 C 1.519531 -1.410156 1.648438 -1.171875 1.890625 -0.984375 C 2.140625 -0.804688 2.460938 -0.71875 2.859375 -0.71875 C 3.222656 -0.71875 3.507812 -0.796875 3.71875 -0.953125 C 3.9375 -1.117188 4.046875 -1.328125 4.046875 -1.578125 C 4.046875 -1.828125 3.929688 -2.015625 3.703125 -2.140625 C 3.484375 -2.265625 3.132812 -2.390625 2.65625 -2.515625 C 2.226562 -2.628906 1.878906 -2.742188 1.609375 -2.859375 C 1.335938 -2.972656 1.101562 -3.144531 0.90625 -3.375 C 0.707031 -3.601562 0.609375 -3.90625 0.609375 -4.28125 C 0.609375 -4.570312 0.695312 -4.84375 0.875 -5.09375 C 1.050781 -5.34375 1.300781 -5.539062 1.625 -5.6875 C 1.957031 -5.832031 2.332031 -5.90625 2.75 -5.90625 C 3.382812 -5.90625 3.898438 -5.738281 4.296875 -5.40625 C 4.691406 -5.082031 4.90625 -4.640625 4.9375 -4.078125 L 3.96875 -4.078125 C 3.945312 -4.378906 3.828125 -4.617188 3.609375 -4.796875 C 3.390625 -4.984375 3.09375 -5.078125 2.71875 -5.078125 C 2.363281 -5.078125 2.082031 -5.003906 1.875 -4.859375 C 1.675781 -4.710938 1.578125 -4.519531 1.578125 -4.28125 C 1.578125 -4.09375 1.640625 -3.9375 1.765625 -3.8125 C 1.890625 -3.6875 2.046875 -3.585938 2.234375 -3.515625 C 2.421875 -3.441406 2.679688 -3.359375 3.015625 -3.265625 C 3.429688 -3.148438 3.769531 -3.035156 4.03125 -2.921875 C 4.289062 -2.816406 4.515625 -2.65625 4.703125 -2.4375 C 4.890625 -2.21875 4.984375 -1.929688 4.984375 -1.578125 C 4.984375 -1.265625 4.894531 -0.976562 4.71875 -0.71875 C 4.539062 -0.46875 4.289062 -0.269531 3.96875 -0.125 C 3.65625 0.0195312 3.289062 0.09375 2.875 0.09375 Z M 2.875 0.09375 "/></g></g></g><g fill="#00122f" fill-opacity="1"><g transform="translate(119.969178, 11.592478)"><g><path d="M 5.96875 -5.8125 L 5.96875 0 L 5 0 L 5 -0.859375 C 4.8125 -0.554688 4.550781 -0.320312 4.21875 -0.15625 C 3.894531 0 3.535156 0.078125 3.140625 0.078125 C 2.691406 0.078125 2.285156 -0.015625 1.921875 -0.203125 C 1.566406 -0.390625 1.285156 -0.664062 1.078125 -1.03125 C 0.867188 -1.40625 0.765625 -1.863281 0.765625 -2.40625 L 0.765625 -5.8125 L 1.71875 -5.8125 L 1.71875 -2.53125 C 1.71875 -1.957031 1.859375 -1.515625 2.140625 -1.203125 C 2.429688 -0.898438 2.832031 -0.75 3.34375 -0.75 C 3.851562 -0.75 4.253906 -0.90625 4.546875 -1.21875 C 4.847656 -1.539062 5 -2.003906 5 -2.609375 L 5 -5.8125 Z M 5.96875 -5.8125 "/></g></g></g><g fill="#00122f" fill-opacity="1"><g transform="translate(126.751199, 11.592478)"><g><path d="M 1.78125 -7.84375 L 1.78125 0 L 0.8125 0 L 0.8125 -7.84375 Z M 1.78125 -7.84375 "/></g></g></g><g fill="#00122f" fill-opacity="1"><g transform="translate(129.358034, 11.592478)"><g><path d="M 1.984375 -5.015625 L 1.984375 -1.59375 C 1.984375 -1.3125 2.046875 -1.109375 2.171875 -0.984375 C 2.296875 -0.867188 2.503906 -0.8125 2.796875 -0.8125 L 3.5 -0.8125 L 3.5 0 L 2.640625 0 C 2.097656 0 1.691406 -0.117188 1.421875 -0.359375 C 1.160156 -0.609375 1.03125 -1.019531 1.03125 -1.59375 L 1.03125 -5.015625 L 0.28125 -5.015625 L 0.28125 -5.8125 L 1.03125 -5.8125 L 1.03125 -7.265625 L 1.984375 -7.265625 L 1.984375 -5.8125 L 3.5 -5.8125 L 3.5 -5.015625 Z M 1.984375 -5.015625 "/></g></g></g><g fill="#00122f" fill-opacity="1"><g transform="translate(133.215312, 11.592478)"><g><path d="M 0.453125 -2.921875 C 0.453125 -3.515625 0.570312 -4.035156 0.8125 -4.484375 C 1.050781 -4.929688 1.378906 -5.28125 1.796875 -5.53125 C 2.222656 -5.78125 2.691406 -5.90625 3.203125 -5.90625 C 3.710938 -5.90625 4.15625 -5.796875 4.53125 -5.578125 C 4.90625 -5.359375 5.1875 -5.082031 5.375 -4.75 L 5.375 -5.8125 L 6.34375 -5.8125 L 6.34375 0 L 5.375 0 L 5.375 -1.078125 C 5.175781 -0.742188 4.890625 -0.460938 4.515625 -0.234375 C 4.140625 -0.015625 3.703125 0.09375 3.203125 0.09375 C 2.679688 0.09375 2.210938 -0.03125 1.796875 -0.28125 C 1.378906 -0.539062 1.050781 -0.898438 0.8125 -1.359375 C 0.570312 -1.816406 0.453125 -2.335938 0.453125 -2.921875 Z M 5.375 -2.90625 C 5.375 -3.34375 5.285156 -3.722656 5.109375 -4.046875 C 4.929688 -4.378906 4.691406 -4.628906 4.390625 -4.796875 C 4.085938 -4.972656 3.757812 -5.0625 3.40625 -5.0625 C 3.039062 -5.0625 2.707031 -4.976562 2.40625 -4.8125 C 2.113281 -4.644531 1.878906 -4.394531 1.703125 -4.0625 C 1.523438 -3.738281 1.4375 -3.359375 1.4375 -2.921875 C 1.4375 -2.472656 1.523438 -2.082031 1.703125 -1.75 C 1.878906 -1.425781 2.113281 -1.175781 2.40625 -1 C 2.707031 -0.832031 3.039062 -0.75 3.40625 -0.75 C 3.757812 -0.75 4.085938 -0.832031 4.390625 -1 C 4.691406 -1.175781 4.929688 -1.425781 5.109375 -1.75 C 5.285156 -2.082031 5.375 -2.46875 5.375 -2.90625 Z M 5.375 -2.90625 "/></g></g></g><g fill="#00122f" fill-opacity="1"><g transform="translate(140.378823, 11.592478)"><g><path d="M 3.640625 -5.90625 C 4.347656 -5.90625 4.921875 -5.691406 5.359375 -5.265625 C 5.796875 -4.835938 6.015625 -4.222656 6.015625 -3.421875 L 6.015625 0 L 5.0625 0 L 5.0625 -3.28125 C 5.0625 -3.863281 4.914062 -4.304688 4.625 -4.609375 C 4.332031 -4.921875 3.9375 -5.078125 3.4375 -5.078125 C 2.9375 -5.078125 2.535156 -4.914062 2.234375 -4.59375 C 1.929688 -4.28125 1.78125 -3.816406 1.78125 -3.203125 L 1.78125 0 L 0.8125 0 L 0.8125 -5.8125 L 1.78125 -5.8125 L 1.78125 -4.984375 C 1.96875 -5.273438 2.222656 -5.5 2.546875 -5.65625 C 2.878906 -5.820312 3.242188 -5.90625 3.640625 -5.90625 Z M 3.640625 -5.90625 "/></g></g></g><g fill="#00122f" fill-opacity="1"><g transform="translate(147.160843, 11.592478)"><g><path d="M 0.453125 -2.90625 C 0.453125 -3.507812 0.570312 -4.035156 0.8125 -4.484375 C 1.050781 -4.929688 1.382812 -5.28125 1.8125 -5.53125 C 2.238281 -5.78125 2.726562 -5.90625 3.28125 -5.90625 C 4 -5.90625 4.585938 -5.726562 5.046875 -5.375 C 5.503906 -5.03125 5.8125 -4.550781 5.96875 -3.9375 L 4.921875 -3.9375 C 4.828125 -4.289062 4.632812 -4.566406 4.34375 -4.765625 C 4.0625 -4.972656 3.707031 -5.078125 3.28125 -5.078125 C 2.726562 -5.078125 2.28125 -4.890625 1.9375 -4.515625 C 1.601562 -4.140625 1.4375 -3.601562 1.4375 -2.90625 C 1.4375 -2.207031 1.601562 -1.664062 1.9375 -1.28125 C 2.28125 -0.90625 2.726562 -0.71875 3.28125 -0.71875 C 3.707031 -0.71875 4.0625 -0.816406 4.34375 -1.015625 C 4.625 -1.210938 4.816406 -1.492188 4.921875 -1.859375 L 5.96875 -1.859375 C 5.8125 -1.265625 5.5 -0.789062 5.03125 -0.4375 C 4.5625 -0.0820312 3.976562 0.09375 3.28125 0.09375 C 2.726562 0.09375 2.238281 -0.0234375 1.8125 -0.265625 C 1.382812 -0.515625 1.050781 -0.863281 0.8125 -1.3125 C 0.570312 -1.769531 0.453125 -2.300781 0.453125 -2.90625 Z M 0.453125 -2.90625 "/></g></g></g><g fill="#00122f" fill-opacity="1"><g transform="translate(153.593172, 11.592478)"><g><path d="M 5.8125 -5.8125 L 2.3125 2.734375 L 1.328125 2.734375 L 2.46875 -0.0625 L 0.125 -5.8125 L 1.203125 -5.8125 L 3.015625 -1.109375 L 4.8125 -5.8125 Z M 5.8125 -5.8125 "/></g></g></g></g></g><g transform="matrix(1, 0, 0, 1, 152, 122)"><g clip-path="url(#6a346e387e)"><g fill="#00122f" fill-opacity="1"><g transform="translate(0.467861, 39.186179)"><g><path d="M 22.46875 -17.921875 C 22.46875 -16.390625 22.113281 -14.988281 21.40625 -13.71875 C 20.707031 -12.445312 19.628906 -11.421875 18.171875 -10.640625 C 16.722656 -9.867188 14.921875 -9.484375 12.765625 -9.484375 L 8.765625 -9.484375 L 8.765625 0 L 2.328125 0 L 2.328125 -26.421875 L 12.765625 -26.421875 C 14.867188 -26.421875 16.644531 -26.054688 18.09375 -25.328125 C 19.550781 -24.597656 20.644531 -23.59375 21.375 -22.3125 C 22.101562 -21.039062 22.46875 -19.578125 22.46875 -17.921875 Z M 12.265625 -14.609375 C 13.492188 -14.609375 14.410156 -14.894531 15.015625 -15.46875 C 15.617188 -16.050781 15.921875 -16.867188 15.921875 -17.921875 C 15.921875 -18.972656 15.617188 -19.785156 15.015625 -20.359375 C 14.410156 -20.941406 13.492188 -21.234375 12.265625 -21.234375 L 8.765625 -21.234375 L 8.765625 -14.609375 Z M 12.265625 -14.609375 "/></g></g></g><g fill="#00122f" fill-opacity="1"><g transform="translate(23.950221, 39.186179)"><g><path d="M 22.46875 -17.921875 C 22.46875 -16.390625 22.113281 -14.988281 21.40625 -13.71875 C 20.707031 -12.445312 19.628906 -11.421875 18.171875 -10.640625 C 16.722656 -9.867188 14.921875 -9.484375 12.765625 -9.484375 L 8.765625 -9.484375 L 8.765625 0 L 2.328125 0 L 2.328125 -26.421875 L 12.765625 -26.421875 C 14.867188 -26.421875 16.644531 -26.054688 18.09375 -25.328125 C 19.550781 -24.597656 20.644531 -23.59375 21.375 -22.3125 C 22.101562 -21.039062 22.46875 -19.578125 22.46875 -17.921875 Z M 12.265625 -14.609375 C 13.492188 -14.609375 14.410156 -14.894531 15.015625 -15.46875 C 15.617188 -16.050781 15.921875 -16.867188 15.921875 -17.921875 C 15.921875 -18.972656 15.617188 -19.785156 15.015625 -20.359375 C 14.410156 -20.941406 13.492188 -21.234375 12.265625 -21.234375 L 8.765625 -21.234375 L 8.765625 -14.609375 Z M 12.265625 -14.609375 "/></g></g></g><g fill="#00122f" fill-opacity="1"><g transform="translate(47.432582, 39.186179)"><g><path d="M 18.78125 -4.671875 L 8.921875 -4.671875 L 7.34375 0 L 0.609375 0 L 10.15625 -26.421875 L 17.609375 -26.421875 L 27.171875 0 L 20.359375 0 Z M 17.125 -9.640625 L 13.859375 -19.3125 L 10.609375 -9.640625 Z M 17.125 -9.640625 "/></g></g></g><g fill="#00122f" fill-opacity="1"><g transform="translate(75.181197, 39.186179)"><g/></g></g><g fill="#00122f" fill-opacity="1"><g transform="translate(0.467861, 67.018853)"><g><path d="M 1 -10.640625 C 1 -12.734375 1.453125 -14.597656 2.359375 -16.234375 C 3.265625 -17.878906 4.523438 -19.160156 6.140625 -20.078125 C 7.765625 -20.992188 9.609375 -21.453125 11.671875 -21.453125 C 14.179688 -21.453125 16.332031 -20.785156 18.125 -19.453125 C 19.925781 -18.128906 21.128906 -16.316406 21.734375 -14.015625 L 16.046875 -14.015625 C 15.617188 -14.898438 15.015625 -15.570312 14.234375 -16.03125 C 13.460938 -16.5 12.585938 -16.734375 11.609375 -16.734375 C 10.015625 -16.734375 8.722656 -16.179688 7.734375 -15.078125 C 6.742188 -13.972656 6.25 -12.492188 6.25 -10.640625 C 6.25 -8.785156 6.742188 -7.300781 7.734375 -6.1875 C 8.722656 -5.082031 10.015625 -4.53125 11.609375 -4.53125 C 12.585938 -4.53125 13.460938 -4.757812 14.234375 -5.21875 C 15.015625 -5.6875 15.617188 -6.363281 16.046875 -7.25 L 21.734375 -7.25 C 21.128906 -4.957031 19.925781 -3.148438 18.125 -1.828125 C 16.332031 -0.503906 14.179688 0.15625 11.671875 0.15625 C 9.609375 0.15625 7.765625 -0.300781 6.140625 -1.21875 C 4.523438 -2.132812 3.265625 -3.410156 2.359375 -5.046875 C 1.453125 -6.679688 1 -8.546875 1 -10.640625 Z M 1 -10.640625 "/></g></g></g><g fill="#00122f" fill-opacity="1"><g transform="translate(23.487915, 67.018853)"><g><path d="M 9.546875 0.234375 C 7.898438 0.234375 6.414062 -0.113281 5.09375 -0.8125 C 3.769531 -1.519531 2.726562 -2.523438 1.96875 -3.828125 C 1.21875 -5.140625 0.84375 -6.675781 0.84375 -8.4375 C 0.84375 -10.164062 1.222656 -11.6875 1.984375 -13 C 2.753906 -14.320312 3.800781 -15.335938 5.125 -16.046875 C 6.457031 -16.753906 7.953125 -17.109375 9.609375 -17.109375 C 11.265625 -17.109375 12.753906 -16.753906 14.078125 -16.046875 C 15.410156 -15.335938 16.457031 -14.320312 17.21875 -13 C 17.988281 -11.6875 18.375 -10.164062 18.375 -8.4375 C 18.375 -6.695312 17.984375 -5.164062 17.203125 -3.84375 C 16.429688 -2.53125 15.375 -1.519531 14.03125 -0.8125 C 12.695312 -0.113281 11.203125 0.234375 9.546875 0.234375 Z M 9.546875 -4.234375 C 10.535156 -4.234375 11.375 -4.59375 12.0625 -5.3125 C 12.757812 -6.039062 13.109375 -7.082031 13.109375 -8.4375 C 13.109375 -9.78125 12.769531 -10.8125 12.09375 -11.53125 C 11.425781 -12.257812 10.597656 -12.625 9.609375 -12.625 C 8.597656 -12.625 7.757812 -12.265625 7.09375 -11.546875 C 6.4375 -10.835938 6.109375 -9.800781 6.109375 -8.4375 C 6.109375 -7.082031 6.429688 -6.039062 7.078125 -5.3125 C 7.734375 -4.59375 8.554688 -4.234375 9.546875 -4.234375 Z M 9.546875 -4.234375 "/></g></g></g><g fill="#00122f" fill-opacity="1"><g transform="translate(42.731714, 67.018853)"><g><path d="M 12.140625 -17.046875 C 14.117188 -17.046875 15.695312 -16.40625 16.875 -15.125 C 18.050781 -13.84375 18.640625 -12.082031 18.640625 -9.84375 L 18.640625 0 L 13.515625 0 L 13.515625 -9.15625 C 13.515625 -10.28125 13.21875 -11.15625 12.625 -11.78125 C 12.039062 -12.40625 11.257812 -12.71875 10.28125 -12.71875 C 9.289062 -12.71875 8.503906 -12.40625 7.921875 -11.78125 C 7.335938 -11.15625 7.046875 -10.28125 7.046875 -9.15625 L 7.046875 0 L 1.875 0 L 1.875 -16.859375 L 7.046875 -16.859375 L 7.046875 -14.625 C 7.566406 -15.375 8.269531 -15.960938 9.15625 -16.390625 C 10.039062 -16.828125 11.035156 -17.046875 12.140625 -17.046875 Z M 12.140625 -17.046875 "/></g></g></g><g fill="#00122f" fill-opacity="1"><g transform="translate(63.09329, 67.018853)"><g><path d="M 8.734375 0.234375 C 7.265625 0.234375 5.953125 -0.015625 4.796875 -0.515625 C 3.648438 -1.015625 2.742188 -1.703125 2.078125 -2.578125 C 1.421875 -3.453125 1.050781 -4.4375 0.96875 -5.53125 L 6.078125 -5.53125 C 6.140625 -4.945312 6.410156 -4.472656 6.890625 -4.109375 C 7.367188 -3.742188 7.960938 -3.5625 8.671875 -3.5625 C 9.316406 -3.5625 9.816406 -3.6875 10.171875 -3.9375 C 10.523438 -4.195312 10.703125 -4.523438 10.703125 -4.921875 C 10.703125 -5.410156 10.445312 -5.769531 9.9375 -6 C 9.4375 -6.226562 8.625 -6.484375 7.5 -6.765625 C 6.289062 -7.046875 5.28125 -7.34375 4.46875 -7.65625 C 3.664062 -7.96875 2.972656 -8.460938 2.390625 -9.140625 C 1.804688 -9.816406 1.515625 -10.726562 1.515625 -11.875 C 1.515625 -12.84375 1.78125 -13.722656 2.3125 -14.515625 C 2.84375 -15.316406 3.625 -15.945312 4.65625 -16.40625 C 5.695312 -16.875 6.9375 -17.109375 8.375 -17.109375 C 10.488281 -17.109375 12.15625 -16.582031 13.375 -15.53125 C 14.59375 -14.488281 15.289062 -13.097656 15.46875 -11.359375 L 10.703125 -11.359375 C 10.617188 -11.941406 10.359375 -12.40625 9.921875 -12.75 C 9.492188 -13.09375 8.925781 -13.265625 8.21875 -13.265625 C 7.613281 -13.265625 7.148438 -13.148438 6.828125 -12.921875 C 6.503906 -12.691406 6.34375 -12.375 6.34375 -11.96875 C 6.34375 -11.476562 6.597656 -11.113281 7.109375 -10.875 C 7.628906 -10.632812 8.429688 -10.394531 9.515625 -10.15625 C 10.765625 -9.832031 11.78125 -9.515625 12.5625 -9.203125 C 13.351562 -8.890625 14.046875 -8.382812 14.640625 -7.6875 C 15.234375 -6.988281 15.539062 -6.054688 15.5625 -4.890625 C 15.5625 -3.910156 15.285156 -3.03125 14.734375 -2.25 C 14.179688 -1.476562 13.382812 -0.867188 12.34375 -0.421875 C 11.300781 0.015625 10.097656 0.234375 8.734375 0.234375 Z M 8.734375 0.234375 "/></g></g></g><g fill="#00122f" fill-opacity="1"><g transform="translate(79.950498, 67.018853)"><g><path d="M 18.53125 -16.859375 L 18.53125 0 L 13.359375 0 L 13.359375 -2.296875 C 12.835938 -1.546875 12.125 -0.941406 11.21875 -0.484375 C 10.320312 -0.0351562 9.332031 0.1875 8.25 0.1875 C 6.957031 0.1875 5.816406 -0.0976562 4.828125 -0.671875 C 3.847656 -1.253906 3.082031 -2.085938 2.53125 -3.171875 C 1.988281 -4.265625 1.71875 -5.546875 1.71875 -7.015625 L 1.71875 -16.859375 L 6.859375 -16.859375 L 6.859375 -7.703125 C 6.859375 -6.578125 7.148438 -5.703125 7.734375 -5.078125 C 8.316406 -4.453125 9.101562 -4.140625 10.09375 -4.140625 C 11.101562 -4.140625 11.898438 -4.453125 12.484375 -5.078125 C 13.066406 -5.703125 13.359375 -6.578125 13.359375 -7.703125 L 13.359375 -16.859375 Z M 18.53125 -16.859375 "/></g></g></g><g fill="#00122f" fill-opacity="1"><g transform="translate(100.312074, 67.018853)"><g><path d="M 7.046875 -22.359375 L 7.046875 0 L 1.875 0 L 1.875 -22.359375 Z M 7.046875 -22.359375 "/></g></g></g><g fill="#00122f" fill-opacity="1"><g transform="translate(109.224042, 67.018853)"><g><path d="M 11.265625 -4.375 L 11.265625 0 L 8.640625 0 C 6.765625 0 5.300781 -0.457031 4.25 -1.375 C 3.207031 -2.289062 2.6875 -3.785156 2.6875 -5.859375 L 2.6875 -12.578125 L 0.640625 -12.578125 L 0.640625 -16.859375 L 2.6875 -16.859375 L 2.6875 -20.96875 L 7.859375 -20.96875 L 7.859375 -16.859375 L 11.234375 -16.859375 L 11.234375 -12.578125 L 7.859375 -12.578125 L 7.859375 -5.796875 C 7.859375 -5.296875 7.976562 -4.929688 8.21875 -4.703125 C 8.457031 -4.484375 8.859375 -4.375 9.421875 -4.375 Z M 11.265625 -4.375 "/></g></g></g><g fill="#00122f" fill-opacity="1"><g transform="translate(121.489315, 67.018853)"><g><path d="M 0.84375 -8.46875 C 0.84375 -10.195312 1.171875 -11.710938 1.828125 -13.015625 C 2.484375 -14.328125 3.375 -15.335938 4.5 -16.046875 C 5.625 -16.753906 6.882812 -17.109375 8.28125 -17.109375 C 9.46875 -17.109375 10.507812 -16.863281 11.40625 -16.375 C 12.300781 -15.894531 12.992188 -15.257812 13.484375 -14.46875 L 13.484375 -16.859375 L 18.640625 -16.859375 L 18.640625 0 L 13.484375 0 L 13.484375 -2.390625 C 12.972656 -1.597656 12.269531 -0.960938 11.375 -0.484375 C 10.476562 -0.00390625 9.4375 0.234375 8.25 0.234375 C 6.875 0.234375 5.625 -0.117188 4.5 -0.828125 C 3.375 -1.546875 2.484375 -2.5625 1.828125 -3.875 C 1.171875 -5.195312 0.84375 -6.726562 0.84375 -8.46875 Z M 13.484375 -8.4375 C 13.484375 -9.71875 13.125 -10.726562 12.40625 -11.46875 C 11.6875 -12.21875 10.816406 -12.59375 9.796875 -12.59375 C 8.765625 -12.59375 7.890625 -12.222656 7.171875 -11.484375 C 6.460938 -10.753906 6.109375 -9.75 6.109375 -8.46875 C 6.109375 -7.175781 6.460938 -6.148438 7.171875 -5.390625 C 7.890625 -4.640625 8.765625 -4.265625 9.796875 -4.265625 C 10.816406 -4.265625 11.6875 -4.632812 12.40625 -5.375 C 13.125 -6.125 13.484375 -7.144531 13.484375 -8.4375 Z M 13.484375 -8.4375 "/></g></g></g><g fill="#00122f" fill-opacity="1"><g transform="translate(142.00194, 67.018853)"><g><path d="M 12.140625 -17.046875 C 14.117188 -17.046875 15.695312 -16.40625 16.875 -15.125 C 18.050781 -13.84375 18.640625 -12.082031 18.640625 -9.84375 L 18.640625 0 L 13.515625 0 L 13.515625 -9.15625 C 13.515625 -10.28125 13.21875 -11.15625 12.625 -11.78125 C 12.039062 -12.40625 11.257812 -12.71875 10.28125 -12.71875 C 9.289062 -12.71875 8.503906 -12.40625 7.921875 -11.78125 C 7.335938 -11.15625 7.046875 -10.28125 7.046875 -9.15625 L 7.046875 0 L 1.875 0 L 1.875 -16.859375 L 7.046875 -16.859375 L 7.046875 -14.625 C 7.566406 -15.375 8.269531 -15.960938 9.15625 -16.390625 C 10.039062 -16.828125 11.035156 -17.046875 12.140625 -17.046875 Z M 12.140625 -17.046875 "/></g></g></g><g fill="#00122f" fill-opacity="1"><g transform="translate(162.363516, 67.018853)"><g><path d="M 0.84375 -8.4375 C 0.84375 -10.1875 1.195312 -11.710938 1.90625 -13.015625 C 2.625 -14.328125 3.625 -15.335938 4.90625 -16.046875 C 6.1875 -16.753906 7.65625 -17.109375 9.3125 -17.109375 C 11.425781 -17.109375 13.191406 -16.550781 14.609375 -15.4375 C 16.023438 -14.332031 16.957031 -12.773438 17.40625 -10.765625 L 11.90625 -10.765625 C 11.445312 -12.046875 10.550781 -12.6875 9.21875 -12.6875 C 8.269531 -12.6875 7.515625 -12.316406 6.953125 -11.578125 C 6.390625 -10.847656 6.109375 -9.800781 6.109375 -8.4375 C 6.109375 -7.0625 6.390625 -6.003906 6.953125 -5.265625 C 7.515625 -4.535156 8.269531 -4.171875 9.21875 -4.171875 C 10.550781 -4.171875 11.445312 -4.816406 11.90625 -6.109375 L 17.40625 -6.109375 C 16.957031 -4.128906 16.019531 -2.578125 14.59375 -1.453125 C 13.164062 -0.328125 11.40625 0.234375 9.3125 0.234375 C 7.65625 0.234375 6.1875 -0.113281 4.90625 -0.8125 C 3.625 -1.519531 2.625 -2.523438 1.90625 -3.828125 C 1.195312 -5.140625 0.84375 -6.675781 0.84375 -8.4375 Z M 0.84375 -8.4375 "/></g></g></g><g fill="#00122f" fill-opacity="1"><g transform="translate(180.640586, 67.018853)"><g><path d="M 19.09375 -16.859375 L 8.515625 8.015625 L 2.96875 8.015625 L 6.828125 -0.578125 L -0.03125 -16.859375 L 5.734375 -16.859375 L 9.640625 -6.3125 L 13.515625 -16.859375 Z M 19.09375 -16.859375 "/></g></g></g></g></g></svg>