<svg width="339" height="403" viewBox="0 0 339 403" fill="none" xmlns="http://www.w3.org/2000/svg">
<path d="M44.9482 241.886V245.12" stroke="white" stroke-width="0.5" stroke-linecap="round"/>
<path d="M147.5 0L235.402 133.5H59.5984L147.5 0Z" fill="white"/>
<path d="M148 40L209.488 133H86.5122L148 40Z" fill="#448BBD"/>
<path d="M33.2727 248V154.909H64.7273C72.0303 154.909 78 156.227 82.6364 158.864C87.303 161.47 90.7576 165 93 169.455C95.2424 173.909 96.3636 178.879 96.3636 184.364C96.3636 189.848 95.2424 194.833 93 199.318C90.7879 203.803 87.3636 207.379 82.7273 210.045C78.0909 212.682 72.1515 214 64.9091 214H42.3636V204H64.5455C69.5455 204 73.5606 203.136 76.5909 201.409C79.6212 199.682 81.8182 197.348 83.1818 194.409C84.5758 191.439 85.2727 188.091 85.2727 184.364C85.2727 180.636 84.5758 177.303 83.1818 174.364C81.8182 171.424 79.6061 169.121 76.5455 167.455C73.4849 165.758 69.4242 164.909 64.3636 164.909H44.5455V248H33.2727Z" fill="white"/>
<line x1="36.5481" y1="245.786" x2="45.5481" y2="226.786" stroke="#20F4FF"/>
<path d="M37.9181 245.541H45.2188" stroke="#20F4FF" stroke-linecap="round"/>
<path d="M44.9724 228.907V245.387" stroke="#20F4FF" stroke-linecap="round"/>
<path d="M37.4561 245.511C37.4764 245.511 37.5275 245.521 37.6196 245.521C37.8542 245.521 37.9686 245.224 38.1331 245.075C38.3028 244.921 38.3901 244.68 38.5285 244.464C38.6624 244.255 38.8007 244.023 39.0658 243.467C39.2701 243.038 39.6561 242.331 39.8804 241.889C40.1046 241.446 40.1656 241.293 40.3394 240.93C40.5131 240.567 40.7977 239.998 40.9952 239.547C41.1927 239.096 41.2943 238.781 41.2908 238.766C41.2872 238.751 41.1754 239.046 40.8942 239.599C40.6129 240.153 40.1656 240.956 39.8946 241.43C39.5509 242.032 39.4482 242.204 39.4328 242.25C39.4122 242.312 39.5394 241.654 39.8257 240.61C39.985 240.03 40.234 239.363 40.3646 238.997C40.4952 238.631 40.5156 238.591 40.4041 238.976C40.2926 239.362 40.0486 240.175 39.9026 240.701C39.7565 241.227 39.7159 241.44 39.7102 241.484C39.7045 241.528 39.735 241.396 40.0252 240.652C40.3153 239.907 40.8643 238.555 41.1725 237.767C41.4807 236.979 41.5315 236.796 41.5577 237.104C41.5839 237.411 41.5839 238.214 41.655 238.48C41.7262 238.747 41.8685 238.452 42.1401 237.69C42.4116 236.928 42.8081 235.708 43.0225 235.06C43.2369 234.411 43.2572 234.37 43.1863 234.751C43.1155 235.131 42.9528 235.935 42.9351 235.779C42.9174 235.623 43.0496 234.485 43.1481 233.771C43.2467 233.058 43.3077 232.804 43.3341 232.79C43.3604 232.776 43.3502 233.009 43.3348 233.181C43.3093 233.465 43.5757 231.485 43.6218 231.413C43.6701 231.337 43.7399 231.739 43.8014 231.991C43.8193 232.064 43.8628 232.009 43.8836 231.952C43.9044 231.895 43.9146 231.834 43.9503 231.706C43.986 231.578 44.047 231.385 44.0937 231.647C44.1404 231.908 44.1709 232.63 44.1866 232.895C44.2023 233.16 44.2023 232.947 44.2125 232.903C44.2226 232.859 44.2429 232.991 44.2483 233.877C44.2537 234.764 44.2436 236.4 44.2231 237.152C44.2026 237.904 44.1721 237.721 44.1513 237.245C44.1305 236.77 44.1203 236.007 44.1202 235.564C44.12 235.12 44.1302 235.018 44.0744 235.774C44.0187 236.53 43.8967 238.146 43.8542 238.659C43.8436 238.786 43.9857 237.312 44.1091 237.354C44.6788 237.55 44.1105 239.735 44.1151 240.046C44.1197 240.358 44.1604 239.148 44.1305 239.369C44.1006 239.589 43.999 241.277 43.9568 241.927C43.9429 242.142 43.9762 241.742 44.0476 242.281C44.1122 242.768 44.1801 243.695 44.222 244.019C44.2639 244.343 44.2639 244.038 44.2588 243.962C44.2341 243.594 44.141 244.637 44.0744 244.679C44.0292 244.707 43.9977 244.477 43.8446 243.442C43.6915 242.408 43.4272 240.507 43.225 240.326C43.0228 240.145 42.8906 241.741 42.8581 241.953C42.8256 242.165 42.8968 240.945 42.9538 240.205C43.0108 239.465 43.0514 239.241 43.0825 238.958C43.1136 238.675 43.134 238.34 43.1445 238.197C43.1549 238.055 43.1549 238.116 43.0431 238.788C42.9313 239.46 42.7076 240.741 42.5873 241.487C42.4671 242.233 42.4569 242.406 42.4618 242.205C42.4667 242.005 42.4871 241.425 42.5941 240.344C42.7012 239.263 42.8943 237.697 42.8312 237.694C42.768 237.69 42.4427 239.297 42.4022 239.296C42.3617 239.294 42.6158 237.637 42.5333 237.424C42.4507 237.211 42.0238 238.492 41.8038 239.177C41.5839 239.862 41.5839 239.913 41.5839 239.868C41.5839 239.823 41.5839 239.681 41.7669 238.774C41.9498 237.867 42.3158 236.2 42.4992 235.377C42.6827 234.554 42.6725 234.625 42.4487 235.271C42.2249 235.918 41.7878 237.138 41.5626 237.71C41.3374 238.283 41.3374 238.171 41.3781 237.971C41.4188 237.771 41.5001 237.487 41.7402 236.867C41.9803 236.248 42.3768 235.302 42.5099 235.43C42.643 235.558 42.5006 236.788 42.4222 237.442C42.3438 238.096 42.3337 238.137 42.5317 237.609C42.7298 237.081 43.1364 235.983 43.3459 235.535C43.5554 235.086 43.5554 235.32 43.4741 235.832C43.3927 236.343 43.2301 237.126 43.1514 237.402C43.1317 237.471 43.2356 236.563 43.4513 235.634C43.5275 235.305 43.5246 235.264 43.4992 235.471C43.4738 235.679 43.4229 236.137 43.3154 236.708C43.2079 237.279 43.0453 237.95 42.9818 238.097C42.9183 238.245 42.959 237.848 43.107 237.105C43.255 236.362 43.5092 235.285 43.6553 234.592C43.8015 233.9 43.832 233.625 43.8528 233.362C43.8928 232.855 43.9247 232.492 43.9913 232.21C44.1498 231.54 44.1715 231.351 44.2328 231.131C44.3276 230.79 44.3563 230.571 44.3614 230.458C44.3624 230.436 44.3766 230.487 44.1633 231.479C43.95 232.471 43.5129 234.402 43.2826 235.458C43.0523 236.514 43.0422 236.636 43.0319 236.674C43.0215 236.711 43.0114 236.66 43.0112 237.59C43.0111 238.519 43.0212 240.43 43.0316 241.435C43.0419 242.44 43.052 242.481 43.1437 242.049C43.2353 241.618 43.4081 240.713 43.5022 240.308C43.5964 239.903 43.6065 240.025 43.5813 240.367C43.556 240.71 43.495 241.269 43.4636 240.977C43.4322 240.686 43.4322 239.527 43.3915 239.672C43.3508 239.817 43.2695 241.301 43.2276 241.969C43.1857 242.637 43.1857 242.444 43.2264 242.075C43.2671 241.706 43.3484 241.168 43.4004 241.409C43.4525 241.649 43.4728 242.686 43.4782 243.261C43.4844 243.917 43.463 244.082 43.4426 244.211C43.4104 244.414 42.6762 244.207 41.8978 244.089C41.1253 243.972 40.6095 244.011 40.4198 244.032C40.3416 244.04 40.3012 244.052 40.3514 244.088C40.5269 244.213 41.026 244.309 41.6004 244.406C42.2182 244.511 42.4972 244.597 42.5133 244.617C42.6107 244.742 41.9766 244.638 41.3629 244.587C40.541 244.519 40.044 244.442 40.0333 244.519C40.0179 244.631 40.401 244.678 41.1462 244.801C41.6843 244.89 42.5622 244.924 42.9872 244.971C43.4121 245.017 43.3613 245.048 43.2233 245.074C43.0853 245.1 42.8617 245.12 42.3043 245.1C41.7468 245.08 40.8624 245.019 40.5746 244.982C40.2867 244.946 40.6222 244.936 40.8306 244.92C41.039 244.905 41.1101 244.885 40.7605 244.869C39.6391 244.819 38.8524 244.782 38.9136 244.664C39.0084 244.482 39.3435 244.209 39.7276 243.722C40.4599 242.795 40.5156 242.359 40.4654 242.414C40.0939 242.819 39.8594 243.312 39.7569 243.507C39.6882 243.637 39.8366 243.236 40.139 242.426C40.2716 242.07 40.3905 241.839 40.6158 241.47C40.8412 241.1 41.1766 240.602 41.3393 240.417C41.4374 240.305 41.2574 241.222 40.9798 242.223C40.9321 242.396 41.2632 241.605 41.6175 240.614C41.7326 240.292 41.7379 240.345 41.6617 240.849C41.5854 241.353 41.4329 242.308 41.4001 242.734C41.3673 243.16 41.4588 243.028 41.6584 242.538C41.858 242.048 42.163 241.205 42.3201 240.79C42.4772 240.376 42.4772 240.417 42.4162 240.89C42.3552 241.363 42.2332 242.268 42.1958 242.709C42.1584 243.149 42.2092 243.099 42.271 243.016C42.4123 242.829 42.5789 242.453 42.7431 242.099C42.7928 241.991 42.8259 242.059 42.8364 242.146C42.8981 242.661 42.6935 243.26 42.6365 243.446C42.5677 243.671 42.6621 242.975 42.6621 242.959C42.6621 242.721 42.6112 243.507 42.5342 243.712C42.5036 243.794 42.508 243.836 42.4369 243.776C42.2015 243.576 42.0056 243.324 41.8673 243.211C41.7448 243.111 41.5746 243.077 41.3444 243.097C41.0579 243.123 40.7334 243.292 40.4868 243.41C40.4458 243.43 40.6579 243.059 40.9301 242.664C41.1461 242.349 40.6804 243.651 40.665 243.678C40.4902 243.975 40.8135 242.955 40.8393 242.77C40.8726 242.532 40.5984 243.128 40.5522 243.144C40.5162 243.156 40.5365 242.987 40.5162 242.98C40.1569 242.858 39.9636 243.722 39.6033 244.097C39.5296 244.174 39.4799 244.226 39.4537 244.135C39.249 243.426 39.6013 242.802 39.6433 242.599C39.6859 242.394 39.3268 243.36 39.0189 244.027C38.8997 244.286 38.8737 244.389 38.8478 244.462C38.8219 244.535 38.8016 244.575 38.7962 244.439C38.7784 243.987 38.8725 243.347 38.975 242.839C39.0494 242.471 38.3189 244.565 38.354 244.419C38.5043 243.79 38.8312 243.121 38.8324 243.005C38.8408 242.217 38.2163 244.38 38.1649 244.427C37.8762 244.69 38.3592 243.572 38.4313 243.288C38.4803 243.095 38.2681 243.988 38.1601 244.327C38.1272 244.431 38.1639 244.402 38.2 244.356C38.2811 244.252 38.3999 244.105 38.635 243.839C39.0339 243.388 39.3342 242.924 39.5338 242.546C39.7994 242.042 39.8896 241.762 39.9557 241.524C40.0323 241.248 40.1539 240.645 40.3287 240.062C40.5036 239.478 40.717 238.929 40.8321 238.626C41.0072 238.165 41.1625 237.903 41.581 237.142C41.8492 236.655 42.2733 235.763 42.5696 235.115C42.866 234.466 43.0083 234.08 43.1019 233.845C43.1956 233.61 43.2362 233.539 43.3089 233.404" stroke="#20F4FF" stroke-linecap="round"/>
<path d="M39.828 241.66C39.828 241.547 39.8483 241.322 39.9201 241.06C39.9481 240.958 39.6059 241.561 39.0259 242.557C38.8196 242.911 38.8016 242.963 38.8013 242.943C38.7995 242.831 38.8829 242.626 38.975 242.401C39.0703 242.168 39.4146 241.481 39.6829 240.923C39.4226 241.585 39.0893 242.357 38.9867 242.557C38.9452 242.645 38.9248 242.706 38.9039 242.676" stroke="#20F4FF" stroke-linecap="round"/>
<path d="M42.2616 238.764C42.4452 238.469 42.7945 237.934 43.3117 237.156C43.4941 236.882 43.6343 236.512 43.7994 236.05C43.9645 235.587 44.1271 235.028 44.2211 234.668C44.3512 234.171 44.3563 233.644 44.3614 233.039C44.3665 232.809 44.3766 232.738 44.3819 232.641C44.3871 232.543 44.3871 232.421 44.3871 232.295" stroke="#20F4FF" stroke-linecap="round"/>
<path d="M44.8184 228.198V230.94" stroke="#20F4FF" stroke-linecap="round"/>
<path d="M45.1265 228.167V229.893" stroke="#20F4FF" stroke-linecap="round"/>
<path d="M46.1663 226.072C45.9968 226.91 45.9026 227.417 45.9067 227.596C46.0248 226.62 46.0342 226.384 46.0483 226.215C46.0531 226.129 46.0531 226.045 46.0531 225.959" stroke="white" stroke-linecap="round"/>
<path d="M45.9117 226.327C45.9117 226.383 45.9023 226.916 45.8975 227.759C45.8934 228.486 45.996 228.954 46.0248 229.339C46.0362 229.491 45.9968 228.827 45.9497 228.273C45.8822 227.479 45.9023 226.931 45.8882 226.776C45.8467 226.32 45.7985 225.865 45.7845 225.855C45.6801 225.781 45.6857 226.539 45.6386 227.274C45.6178 227.599 45.6005 227.88 45.5772 228.061C45.5539 228.018 45.5072 227.7 45.4831 227.35C45.4591 227 45.4591 226.626 45.4591 226.242" stroke="white" stroke-linecap="round"/>
<path d="M45.9401 225.81V230.647" stroke="white" stroke-linecap="round"/>
<path d="M45.3743 226.772V229.459" stroke="white" stroke-linecap="round"/>
<path d="M45.4309 227.366V230.704" stroke="white" stroke-linecap="round"/>
<path d="M45.4591 230.704V242.923" stroke="white" stroke-linecap="round"/>
<path d="M45.3459 242.768C45.3459 242.992 45.3459 243.216 45.3459 243.952C45.3459 244.688 45.3459 245.929 45.3459 245.58C45.3459 245.23 45.3459 243.251 45.3459 242.908C45.3459 242.565 45.3459 243.919 45.3459 245.313" stroke="white" stroke-linecap="round"/>
<path d="M45.4591 244.154V247.378" stroke="white" stroke-linecap="round"/>
<path d="M45.1763 231.482V246.388" stroke="white" stroke-linecap="round"/>
<path d="M45.0066 225.747V231.687" stroke="white" stroke-linecap="round"/>
<path d="M45.0631 231.701V246.919" stroke="white" stroke-linecap="round"/>
<path d="M36.5958 245.774V246.024" stroke="#20F4FF" stroke-linecap="round"/>
<path d="M36.9636 246.523H44.0176" stroke="#20F4FF" stroke-linecap="round"/>
<path d="M36.9373 247.416H44.07" stroke="#20F4FF" stroke-linecap="round"/>
<path d="M43.7679 245.249V247.206" stroke="#20F4FF" stroke-linecap="round"/>
<path d="M44.0044 245.814V247.522" stroke="#20F4FF" stroke-linecap="round"/>
<path d="M37.9488 244.605C37.8534 244.787 37.7581 244.97 37.6569 245.146C37.4588 245.491 37.3272 245.704 37.2814 245.867C37.2493 245.982 37.214 246.165 37.1982 246.233C37.1825 246.3 37.1911 246.248 37.2433 246.074C37.2954 245.9 37.3908 245.605 37.4421 245.44C37.4934 245.276 37.4977 245.25 37.4089 245.368C37.3201 245.487 37.1381 245.752 37.0399 245.899C36.8953 246.115 36.8325 246.242 36.7515 246.393C36.6796 246.528 36.6135 246.689 36.5829 246.705C36.4862 246.754 36.6959 246.406 36.7555 246.248C36.767 246.217 36.7794 246.187 36.7861 246.191C36.8957 246.254 36.7361 246.509 36.616 246.922C36.5734 247.069 36.5695 247.236 36.5456 247.355C36.5389 247.377 36.5346 247.403 36.528 247.425C36.5215 247.447 36.5128 247.464 36.4907 247.508" stroke="#20F4FF" stroke-linecap="round"/>
<path d="M35.4004 247.364H36.8716" stroke="#20F4FF" stroke-linecap="round"/>
<path d="M35.2428 247.403H39.617" stroke="#20F4FF" stroke-linecap="round"/>
<path d="M36.6481 245.439C36.6385 245.446 36.6289 245.452 36.5027 245.62C36.3765 245.787 36.134 246.116 36.0027 246.298C35.8274 246.541 35.7557 246.641 35.6638 246.783C35.4426 247.099 35.4041 247.176 35.362 247.247C35.3523 247.264 35.3427 247.28 35.3329 247.315" stroke="#20F4FF" stroke-linecap="round"/>
<path d="M35.4779 247.431H43.079" stroke="#20F4FF" stroke-linecap="round"/>
<path d="M35.1008 247.576H44.1719" stroke="#20F4FF" stroke-linecap="round"/>
<path d="M119.273 248V154.909H150.727C158.03 154.909 164 156.227 168.636 158.864C173.303 161.47 176.758 165 179 169.455C181.242 173.909 182.364 178.879 182.364 184.364C182.364 189.848 181.242 194.833 179 199.318C176.788 203.803 173.364 207.379 168.727 210.045C164.091 212.682 158.152 214 150.909 214H128.364V204H150.545C155.545 204 159.561 203.136 162.591 201.409C165.621 199.682 167.818 197.348 169.182 194.409C170.576 191.439 171.273 188.091 171.273 184.364C171.273 180.636 170.576 177.303 169.182 174.364C167.818 171.424 165.606 169.121 162.545 167.455C159.485 165.758 155.424 164.909 150.364 164.909H130.545V248H119.273Z" fill="white"/>
<line x1="122.548" y1="245.786" x2="131.548" y2="226.786" stroke="#20F4FF"/>
<path d="M123.918 245.541H131.219" stroke="#20F4FF" stroke-linecap="round"/>
<path d="M130.972 228.907V245.387" stroke="#20F4FF" stroke-linecap="round"/>
<path d="M123.456 245.511C123.476 245.511 123.528 245.521 123.62 245.521C123.854 245.521 123.969 245.224 124.133 245.075C124.303 244.921 124.39 244.68 124.529 244.464C124.662 244.255 124.801 244.023 125.066 243.467C125.27 243.038 125.656 242.331 125.88 241.889C126.105 241.446 126.166 241.293 126.339 240.93C126.513 240.567 126.798 239.998 126.995 239.547C127.193 239.096 127.294 238.781 127.291 238.766C127.287 238.751 127.175 239.046 126.894 239.599C126.613 240.153 126.166 240.956 125.895 241.43C125.551 242.032 125.448 242.204 125.433 242.25C125.412 242.312 125.539 241.654 125.826 240.61C125.985 240.03 126.234 239.363 126.365 238.997C126.495 238.631 126.516 238.591 126.404 238.976C126.293 239.362 126.049 240.175 125.903 240.701C125.757 241.227 125.716 241.44 125.71 241.484C125.704 241.528 125.735 241.396 126.025 240.652C126.315 239.907 126.864 238.555 127.172 237.767C127.481 236.979 127.532 236.796 127.558 237.104C127.584 237.411 127.584 238.214 127.655 238.48C127.726 238.747 127.869 238.452 128.14 237.69C128.412 236.928 128.808 235.708 129.022 235.06C129.237 234.411 129.257 234.37 129.186 234.751C129.115 235.131 128.953 235.935 128.935 235.779C128.917 235.623 129.05 234.485 129.148 233.771C129.247 233.058 129.308 232.804 129.334 232.79C129.36 232.776 129.35 233.009 129.335 233.181C129.309 233.465 129.576 231.485 129.622 231.413C129.67 231.337 129.74 231.739 129.801 231.991C129.819 232.064 129.863 232.009 129.884 231.952C129.904 231.895 129.915 231.834 129.95 231.706C129.986 231.578 130.047 231.385 130.094 231.647C130.14 231.908 130.171 232.63 130.187 232.895C130.202 233.16 130.202 232.947 130.212 232.903C130.223 232.859 130.243 232.991 130.248 233.877C130.254 234.764 130.244 236.4 130.223 237.152C130.203 237.904 130.172 237.721 130.151 237.245C130.131 236.77 130.12 236.007 130.12 235.564C130.12 235.12 130.13 235.018 130.074 235.774C130.019 236.53 129.897 238.146 129.854 238.659C129.844 238.786 129.986 237.312 130.109 237.354C130.679 237.55 130.11 239.735 130.115 240.046C130.12 240.358 130.16 239.148 130.131 239.369C130.101 239.589 129.999 241.277 129.957 241.927C129.943 242.142 129.976 241.742 130.048 242.281C130.112 242.768 130.18 243.695 130.222 244.019C130.264 244.343 130.264 244.038 130.259 243.962C130.234 243.594 130.141 244.637 130.074 244.679C130.029 244.707 129.998 244.477 129.845 243.442C129.692 242.408 129.427 240.507 129.225 240.326C129.023 240.145 128.891 241.741 128.858 241.953C128.826 242.165 128.897 240.945 128.954 240.205C129.011 239.465 129.051 239.241 129.083 238.958C129.114 238.675 129.134 238.34 129.144 238.197C129.155 238.055 129.155 238.116 129.043 238.788C128.931 239.46 128.708 240.741 128.587 241.487C128.467 242.233 128.457 242.406 128.462 242.205C128.467 242.005 128.487 241.425 128.594 240.344C128.701 239.263 128.894 237.697 128.831 237.694C128.768 237.69 128.443 239.297 128.402 239.296C128.362 239.294 128.616 237.637 128.533 237.424C128.451 237.211 128.024 238.492 127.804 239.177C127.584 239.862 127.584 239.913 127.584 239.868C127.584 239.823 127.584 239.681 127.767 238.774C127.95 237.867 128.316 236.2 128.499 235.377C128.683 234.554 128.673 234.625 128.449 235.271C128.225 235.918 127.788 237.138 127.563 237.71C127.337 238.283 127.337 238.171 127.378 237.971C127.419 237.771 127.5 237.487 127.74 236.867C127.98 236.248 128.377 235.302 128.51 235.43C128.643 235.558 128.501 236.788 128.422 237.442C128.344 238.096 128.334 238.137 128.532 237.609C128.73 237.081 129.136 235.983 129.346 235.535C129.555 235.086 129.555 235.32 129.474 235.832C129.393 236.343 129.23 237.126 129.151 237.402C129.132 237.471 129.236 236.563 129.451 235.634C129.528 235.305 129.525 235.264 129.499 235.471C129.474 235.679 129.423 236.137 129.315 236.708C129.208 237.279 129.045 237.95 128.982 238.097C128.918 238.245 128.959 237.848 129.107 237.105C129.255 236.362 129.509 235.285 129.655 234.592C129.802 233.9 129.832 233.625 129.853 233.362C129.893 232.855 129.925 232.492 129.991 232.21C130.15 231.54 130.171 231.351 130.233 231.131C130.328 230.79 130.356 230.571 130.361 230.458C130.362 230.436 130.377 230.487 130.163 231.479C129.95 232.471 129.513 234.402 129.283 235.458C129.052 236.514 129.042 236.636 129.032 236.674C129.022 236.711 129.011 236.66 129.011 237.59C129.011 238.519 129.021 240.43 129.032 241.435C129.042 242.44 129.052 242.481 129.144 242.049C129.235 241.618 129.408 240.713 129.502 240.308C129.596 239.903 129.607 240.025 129.581 240.367C129.556 240.71 129.495 241.269 129.464 240.977C129.432 240.686 129.432 239.527 129.392 239.672C129.351 239.817 129.27 241.301 129.228 241.969C129.186 242.637 129.186 242.444 129.226 242.075C129.267 241.706 129.348 241.168 129.4 241.409C129.452 241.649 129.473 242.686 129.478 243.261C129.484 243.917 129.463 244.082 129.443 244.211C129.41 244.414 128.676 244.207 127.898 244.089C127.125 243.972 126.61 244.011 126.42 244.032C126.342 244.04 126.301 244.052 126.351 244.088C126.527 244.213 127.026 244.309 127.6 244.406C128.218 244.511 128.497 244.597 128.513 244.617C128.611 244.742 127.977 244.638 127.363 244.587C126.541 244.519 126.044 244.442 126.033 244.519C126.018 244.631 126.401 244.678 127.146 244.801C127.684 244.89 128.562 244.924 128.987 244.971C129.412 245.017 129.361 245.048 129.223 245.074C129.085 245.1 128.862 245.12 128.304 245.1C127.747 245.08 126.862 245.019 126.575 244.982C126.287 244.946 126.622 244.936 126.831 244.92C127.039 244.905 127.11 244.885 126.76 244.869C125.639 244.819 124.852 244.782 124.914 244.664C125.008 244.482 125.343 244.209 125.728 243.722C126.46 242.795 126.516 242.359 126.465 242.414C126.094 242.819 125.859 243.312 125.757 243.507C125.688 243.637 125.837 243.236 126.139 242.426C126.272 242.07 126.391 241.839 126.616 241.47C126.841 241.1 127.177 240.602 127.339 240.417C127.437 240.305 127.257 241.222 126.98 242.223C126.932 242.396 127.263 241.605 127.617 240.614C127.733 240.292 127.738 240.345 127.662 240.849C127.585 241.353 127.433 242.308 127.4 242.734C127.367 243.16 127.459 243.028 127.658 242.538C127.858 242.048 128.163 241.205 128.32 240.79C128.477 240.376 128.477 240.417 128.416 240.89C128.355 241.363 128.233 242.268 128.196 242.709C128.158 243.149 128.209 243.099 128.271 243.016C128.412 242.829 128.579 242.453 128.743 242.099C128.793 241.991 128.826 242.059 128.836 242.146C128.898 242.661 128.693 243.26 128.636 243.446C128.568 243.671 128.662 242.975 128.662 242.959C128.662 242.721 128.611 243.507 128.534 243.712C128.504 243.794 128.508 243.836 128.437 243.776C128.201 243.576 128.006 243.324 127.867 243.211C127.745 243.111 127.575 243.077 127.344 243.097C127.058 243.123 126.733 243.292 126.487 243.41C126.446 243.43 126.658 243.059 126.93 242.664C127.146 242.349 126.68 243.651 126.665 243.678C126.49 243.975 126.813 242.955 126.839 242.77C126.873 242.532 126.598 243.128 126.552 243.144C126.516 243.156 126.537 242.987 126.516 242.98C126.157 242.858 125.964 243.722 125.603 244.097C125.53 244.174 125.48 244.226 125.454 244.135C125.249 243.426 125.601 242.802 125.643 242.599C125.686 242.394 125.327 243.36 125.019 244.027C124.9 244.286 124.874 244.389 124.848 244.462C124.822 244.535 124.802 244.575 124.796 244.439C124.778 243.987 124.872 243.347 124.975 242.839C125.049 242.471 124.319 244.565 124.354 244.419C124.504 243.79 124.831 243.121 124.832 243.005C124.841 242.217 124.216 244.38 124.165 244.427C123.876 244.69 124.359 243.572 124.431 243.288C124.48 243.095 124.268 243.988 124.16 244.327C124.127 244.431 124.164 244.402 124.2 244.356C124.281 244.252 124.4 244.105 124.635 243.839C125.034 243.388 125.334 242.924 125.534 242.546C125.799 242.042 125.89 241.762 125.956 241.524C126.032 241.248 126.154 240.645 126.329 240.062C126.504 239.478 126.717 238.929 126.832 238.626C127.007 238.165 127.162 237.903 127.581 237.142C127.849 236.655 128.273 235.763 128.57 235.115C128.866 234.466 129.008 234.08 129.102 233.845C129.196 233.61 129.236 233.539 129.309 233.404" stroke="#20F4FF" stroke-linecap="round"/>
<path d="M125.828 241.66C125.828 241.547 125.848 241.322 125.92 241.06C125.948 240.958 125.606 241.561 125.026 242.557C124.82 242.911 124.802 242.963 124.801 242.943C124.8 242.831 124.883 242.626 124.975 242.401C125.07 242.168 125.415 241.481 125.683 240.923C125.423 241.585 125.089 242.357 124.987 242.557C124.945 242.645 124.925 242.706 124.904 242.676" stroke="#20F4FF" stroke-linecap="round"/>
<path d="M128.262 238.764C128.445 238.469 128.795 237.934 129.312 237.156C129.494 236.882 129.634 236.512 129.799 236.05C129.965 235.587 130.127 235.028 130.221 234.668C130.351 234.171 130.356 233.644 130.362 233.039C130.367 232.809 130.377 232.738 130.382 232.641C130.387 232.543 130.387 232.421 130.387 232.295" stroke="#20F4FF" stroke-linecap="round"/>
<path d="M130.818 228.198V230.94" stroke="#20F4FF" stroke-linecap="round"/>
<path d="M131.126 228.167V229.893" stroke="#20F4FF" stroke-linecap="round"/>
<path d="M132.166 226.072C131.997 226.91 131.903 227.417 131.907 227.596C132.025 226.62 132.034 226.384 132.048 226.215C132.053 226.129 132.053 226.045 132.053 225.959" stroke="white" stroke-linecap="round"/>
<path d="M131.912 226.327C131.912 226.383 131.902 226.916 131.897 227.759C131.893 228.486 131.996 228.954 132.025 229.339C132.036 229.491 131.997 228.827 131.95 228.273C131.882 227.479 131.902 226.931 131.888 226.776C131.847 226.32 131.798 225.865 131.784 225.855C131.68 225.781 131.686 226.539 131.638 227.274C131.618 227.599 131.6 227.88 131.577 228.061C131.554 228.018 131.507 227.7 131.483 227.35C131.459 227 131.459 226.626 131.459 226.242" stroke="white" stroke-linecap="round"/>
<path d="M131.94 225.81V230.647" stroke="white" stroke-linecap="round"/>
<path d="M131.374 226.772V229.459" stroke="white" stroke-linecap="round"/>
<path d="M131.431 227.366V230.704" stroke="white" stroke-linecap="round"/>
<path d="M131.459 230.704V242.923" stroke="white" stroke-linecap="round"/>
<path d="M131.346 242.768C131.346 242.992 131.346 243.216 131.346 243.952C131.346 244.688 131.346 245.929 131.346 245.58C131.346 245.23 131.346 243.251 131.346 242.908C131.346 242.565 131.346 243.919 131.346 245.313" stroke="white" stroke-linecap="round"/>
<path d="M131.459 244.154V247.378" stroke="white" stroke-linecap="round"/>
<path d="M131.176 231.482V246.388" stroke="white" stroke-linecap="round"/>
<path d="M131.007 225.747V231.687" stroke="white" stroke-linecap="round"/>
<path d="M131.063 231.701V246.919" stroke="white" stroke-linecap="round"/>
<path d="M122.596 245.774V246.024" stroke="#20F4FF" stroke-linecap="round"/>
<path d="M122.964 246.523H130.018" stroke="#20F4FF" stroke-linecap="round"/>
<path d="M122.937 247.416H130.07" stroke="#20F4FF" stroke-linecap="round"/>
<path d="M129.768 245.249V247.206" stroke="#20F4FF" stroke-linecap="round"/>
<path d="M130.004 245.814V247.522" stroke="#20F4FF" stroke-linecap="round"/>
<path d="M123.949 244.605C123.853 244.787 123.758 244.97 123.657 245.146C123.459 245.491 123.327 245.704 123.281 245.867C123.249 245.982 123.214 246.165 123.198 246.233C123.182 246.3 123.191 246.248 123.243 246.074C123.295 245.9 123.391 245.605 123.442 245.44C123.493 245.276 123.498 245.25 123.409 245.368C123.32 245.487 123.138 245.752 123.04 245.899C122.895 246.115 122.833 246.242 122.752 246.393C122.68 246.528 122.614 246.689 122.583 246.705C122.486 246.754 122.696 246.406 122.755 246.248C122.767 246.217 122.779 246.187 122.786 246.191C122.896 246.254 122.736 246.509 122.616 246.922C122.573 247.069 122.57 247.236 122.546 247.355C122.539 247.377 122.535 247.403 122.528 247.425C122.521 247.447 122.513 247.464 122.491 247.508" stroke="#20F4FF" stroke-linecap="round"/>
<path d="M121.4 247.364H122.872" stroke="#20F4FF" stroke-linecap="round"/>
<path d="M121.243 247.403H125.617" stroke="#20F4FF" stroke-linecap="round"/>
<path d="M122.648 245.439C122.639 245.446 122.629 245.452 122.503 245.62C122.377 245.787 122.134 246.116 122.003 246.298C121.828 246.541 121.756 246.641 121.664 246.783C121.443 247.099 121.404 247.176 121.362 247.247C121.352 247.264 121.343 247.28 121.333 247.315" stroke="#20F4FF" stroke-linecap="round"/>
<path d="M121.478 247.431H129.079" stroke="#20F4FF" stroke-linecap="round"/>
<path d="M121.101 247.576H130.172" stroke="#20F4FF" stroke-linecap="round"/>
<path d="M209.091 249H197.273L231.455 155.909H243.091L277.273 249H265.455L237.636 170.636H236.909L209.091 249ZM213.455 212.636H261.091V222.636H213.455V212.636Z" fill="white"/>
<path d="M205.681 226.859H216.332" stroke="#20F4FF" stroke-linecap="round"/>
<path d="M257.971 227.548H269.023" stroke="#20F4FF" stroke-linecap="round"/>
<path d="M197.533 248.822L206 227" stroke="#20F4FF"/>
<line x1="198" y1="248.5" x2="209" y2="248.5" stroke="#20F4FF"/>
<line x1="208.53" y1="248.829" x2="216.53" y2="226.829" stroke="#20F4FF"/>
<path d="M207.956 234.871C207.938 234.889 207.92 234.907 207.57 235.145C207.22 235.383 206.539 235.84 206.129 236.102C205.72 236.365 205.603 236.419 205.588 236.388C205.573 236.358 205.663 236.241 206.13 235.334C206.598 234.426 207.441 232.731 207.889 231.777C208.336 230.824 208.363 230.662 208.364 230.597C208.364 230.532 208.337 230.568 207.938 231.46C207.538 232.353 206.767 234.102 206.293 235.254C205.82 236.406 205.668 236.908 205.576 237.341C205.484 237.775 205.457 238.125 205.479 238.26C205.501 238.395 205.572 238.306 206.304 236.811C207.036 235.317 208.426 232.42 209.165 230.865C209.903 229.311 209.948 229.185 209.922 229.201C209.896 229.217 209.797 229.378 209.123 230.834C208.449 232.289 207.202 235.033 206.529 236.581C205.855 238.129 205.793 238.398 206.666 237.362C207.539 236.326 209.351 233.976 209.705 234.129C210.06 234.282 208.903 237.008 208.321 238.394C207.738 239.781 207.765 239.745 208.443 238.184C209.12 236.623 210.447 233.538 211.127 232.061C211.806 230.584 211.797 230.808 211.761 231.135C211.725 231.461 211.662 231.882 211.374 233.041C211.086 234.2 210.575 236.083 210.298 237.152C210.022 238.22 209.995 238.418 209.99 238.497C209.985 238.576 210.003 238.531 210.075 238.396C210.147 238.261 210.272 238.037 210.83 236.706C211.388 235.376 212.375 232.945 212.533 232.756C212.691 232.567 211.992 234.692 211.632 235.661C211.271 236.631 211.271 236.38 211.285 236.161C211.298 235.942 211.325 235.762 211.37 235.558C211.416 235.353 211.478 235.129 211.543 234.898" stroke="#20F4FF" stroke-linecap="round"/>
<path d="M205.973 231.148C205.999 231.256 206.09 231.492 206.217 231.619C206.245 231.648 206.289 231.637 206.37 231.597C206.451 231.556 206.577 231.476 206.812 231.219C207.047 230.962 207.388 230.532 207.689 230.184C208.222 229.569 208.571 229.283 208.68 229.246C208.716 229.234 208.717 229.317 208.565 229.753C208.412 230.189 208.107 230.996 207.946 231.43C207.784 231.863 207.775 231.899 207.802 231.868C207.829 231.837 207.892 231.739 208.058 231.401C208.225 231.063 208.494 230.489 208.682 230.032C208.998 229.264 209.07 228.857 209.017 228.762C208.936 228.619 208.35 228.801 207.694 228.91C207.319 228.972 207.106 228.929 206.952 228.897C206.888 228.884 206.852 228.875 206.919 228.857C206.985 228.839 207.156 228.812 208.127 228.802C209.098 228.793 210.864 228.802 211.792 228.802C212.821 228.802 212.982 228.702 213.353 228.563C213.567 228.482 213.77 228.422 213.975 228.421C214.127 228.421 213.781 228.747 213.56 229.014C213.486 229.103 213.384 229.199 212.885 229.917C212.386 230.636 211.489 231.972 210.646 233.517C209.803 235.062 209.04 236.775 208.832 237.168C208.623 237.562 208.99 236.584 209.27 235.911C209.549 235.237 209.728 234.896 210.018 234.433C210.307 233.971 210.702 233.397 211.008 232.985C211.315 232.572 211.521 232.339 211.645 232.278C211.769 232.216 211.805 232.332 211.824 232.513C211.842 232.695 211.842 232.937 211.811 233.245C211.779 233.554 211.717 233.921 211.514 234.6C211.311 235.278 210.97 236.255 210.786 236.777C210.601 237.298 210.583 237.334 210.839 236.604C211.094 235.873 211.623 234.376 211.99 233.416C212.357 232.456 212.545 232.08 212.633 231.939C212.674 231.874 212.487 232.52 212.09 233.438C211.759 234.2 211.471 234.535 211.444 234.585C211.428 234.613 211.488 234.392 211.668 233.888C211.803 233.512 211.992 232.882 212.246 232.236C212.5 231.589 212.805 230.944 212.648 231.091C212.492 231.238 211.864 232.197 211.464 232.781C211.065 233.365 210.912 233.545 210.775 233.686C210.639 233.828 210.522 233.927 210.861 233.475C211.2 233.024 211.998 232.02 212.477 231.395C212.955 230.77 213.089 230.555 213.127 230.538C213.286 230.468 213.038 230.984 213.132 231.035C213.424 231.192 213.716 230.588 213.866 230.433C214.066 230.227 213.42 231.192 213.008 231.545C212.901 231.637 212.777 231.699 212.762 231.615C212.747 231.531 212.837 231.289 212.999 230.886C213.162 230.483 213.395 229.927 213.529 229.592C213.782 228.956 213.907 228.658 214.038 228.422C214.146 228.229 214.369 228.114 214.478 227.974C214.578 227.844 214.704 227.77 214.74 227.742C214.747 227.737 214.705 227.805 213.808 228.783C212.911 229.761 211.153 231.662 210.028 232.964C208.903 234.267 208.463 234.912 208.228 235.263C207.993 235.613 207.975 235.649 208.36 234.901C208.745 234.153 209.535 232.619 209.95 231.793C210.365 230.968 210.383 230.896 209.855 231.684C209.326 232.472 208.25 234.122 207.592 235.089C206.935 236.055 206.729 236.288 206.784 235.713C206.839 235.139 207.162 233.749 207.332 232.956C207.503 232.164 207.512 232.012 207.346 232.162C207.181 232.312 206.84 232.769 206.377 233.511C205.915 234.254 205.341 235.267 205.054 235.592C204.768 235.917 204.786 235.522 204.97 234.727C205.154 233.932 205.504 232.748 205.625 232.358C205.747 231.968 205.631 232.407 205.355 233.154C205.08 233.9 204.65 234.94 204.41 235.503C204.17 236.066 204.135 236.12 204.116 236.13C204.088 236.145 204.322 235.546 204.742 234.624C205.058 233.932 205.401 233.523 205.613 233.364C205.676 233.316 205.71 233.5 205.714 233.709C205.719 233.917 205.71 234.186 205.508 235.064C205.306 235.943 204.912 237.422 204.722 238.171C204.532 238.92 204.559 238.893 204.802 238.296C205.044 237.7 205.501 236.534 205.818 235.803C206.134 235.073 206.295 234.813 206.379 234.706C206.462 234.599 206.462 234.652 206.421 234.815C206.381 234.977 206.3 235.246 206.035 235.873C205.769 236.5 205.32 237.478 204.776 238.461C204.231 239.445 203.603 240.404 203.266 240.93C202.929 241.455 202.902 241.518 203.09 240.829C203.278 240.139 203.682 238.695 203.643 238.647C203.604 238.598 203.111 239.988 202.799 240.811C202.486 241.635 202.37 241.85 202.278 242.042C202.187 242.233 202.124 242.395 202.329 241.814C202.535 241.234 203.01 239.907 203.255 239.245C203.5 238.584 203.5 238.629 203.132 239.495C202.764 240.361 202.029 242.047 202.35 241.893C202.67 241.739 204.069 239.695 204.808 238.597C205.546 237.499 205.582 237.409 205.336 238.058C205.09 238.706 204.561 240.096 204.23 241.064C203.899 242.031 203.783 242.533 203.723 242.814C203.663 243.095 203.663 243.14 203.735 243.127C203.806 243.114 203.95 243.043 204.678 242.391C205.407 241.74 206.716 240.512 207.462 239.825C208.208 239.138 208.352 239.031 208.417 239.056C208.482 239.081 208.464 239.243 208.401 239.492C208.338 239.741 208.23 240.072 207.874 240.84C207.518 241.607 206.918 242.8 206.613 243.392C206.308 243.984 206.317 243.939 206.599 243.315C206.882 242.691 207.438 241.489 208.016 240.462C208.593 239.435 209.176 238.619 209.643 238.037C210.109 237.456 210.44 237.133 210.593 237.034C210.746 236.935 210.711 237.069 210.221 238.12C209.732 239.172 208.79 241.136 208.292 242.165C207.793 243.195 207.767 243.231 208.174 242.698C208.582 242.165 209.425 241.062 209.877 240.462C210.329 239.862 210.365 239.8 210.402 239.708" stroke="#20F4FF" stroke-width="3" stroke-linecap="round"/>
<path d="M209.641 241.236C209.506 241.443 209.372 241.649 208.89 242.562C208.408 243.475 207.583 245.09 207.176 245.872C206.769 246.654 206.805 246.555 206.85 246.455C206.896 246.355 206.95 246.256 207.166 245.775C207.382 245.294 207.758 244.433 207.984 243.936C208.26 243.326 208.354 243.148 208.368 243.098C208.374 243.077 208.337 243.236 208.157 243.717C207.978 244.199 207.646 245.042 207.47 245.503C207.295 245.964 207.286 246.018 207.295 246.059C207.332 246.235 207.485 246.39 207.539 246.494C207.579 246.572 207.72 246.31 207.896 246.008C208.202 245.482 208.408 244.925 208.521 244.644C208.547 244.58 208.366 245.162 208.026 245.986C207.904 246.282 207.875 246.326 207.866 245.883C207.856 245.44 207.865 244.507 207.973 243.367C208.081 242.228 208.287 240.91 208.398 239.993C208.509 239.076 208.518 238.601 208.518 238.338C208.518 238.075 208.509 238.04 208.464 238.026C208.419 238.012 208.338 238.021 208.077 238.24C207.345 238.856 206.879 239.361 206.815 239.348C206.67 239.318 206.922 238.561 207.085 237.728C207.145 237.424 207.141 237.361 206.778 237.638C206.415 237.915 205.688 238.534 205.292 238.861C204.895 239.189 204.85 239.207 204.818 239.167C204.726 239.052 204.75 238.702 204.763 238.251C204.777 237.797 204.831 237.433 204.804 237.248C204.726 236.708 203.663 238.174 203.568 238.197C203.318 238.258 203.616 237.364 203.703 237.106C203.775 236.896 203.213 238.015 202.92 238.505C202.884 238.591 202.866 238.673 202.852 238.866C202.847 239.015 202.847 239.266 202.847 239.524" stroke="#20F4FF" stroke-width="3" stroke-linecap="round"/>
<path d="M202.657 241.535C202.657 241.616 202.657 241.697 202.523 242.101C202.388 242.506 202.119 243.233 201.927 243.714C201.646 244.419 201.48 244.732 201.354 245.025C200.98 245.893 200.846 246.091 200.719 246.313C200.7 246.346 200.665 245.986 200.683 245.434C200.7 244.894 200.891 244.499 200.986 244.245C201.066 244.032 201.126 243.819 201.163 243.696C201.19 243.604 200.83 244.186 200.499 244.796C200.136 245.468 200.086 245.925 199.931 246.235C199.77 246.558 199.669 246.743 199.506 246.911C199.463 246.955 199.416 246.987 199.375 247.024C199.333 247.06 199.298 247.096 199.736 247.124C200.175 247.151 201.09 247.169 201.673 247.151C202.257 247.134 202.481 247.08 202.641 247.03C202.801 246.98 202.891 246.935 203.287 246.656C203.683 246.377 204.382 245.866 204.774 245.572C205.166 245.277 205.229 245.214 205.283 245.164C205.338 245.114 205.383 245.078 205.168 244.965C204.954 244.852 204.479 244.664 204.131 244.554C203.586 244.381 203.265 244.389 203.004 244.433C202.6 244.503 202.323 244.696 202.161 244.804C201.915 244.968 201.707 245.194 201.589 245.375C201.54 245.45 201.561 245.52 201.579 245.565C201.648 245.738 201.976 245.828 202.794 245.901C203.493 245.963 204.033 246.181 204.286 246.276C204.602 246.395 204.857 246.716 205.246 247.064C205.435 247.232 205.564 247.341 205.686 247.368C205.993 247.437 206.378 247.152 206.62 247.083C206.764 247.042 206.95 247.052 207.118 247.079C207.204 247.097 207.286 247.124 207.371 247.151C207.421 247.16 207.484 247.16 207.549 247.133" stroke="#20F4FF" stroke-width="3" stroke-linecap="round"/>
<path d="M262.363 229.061C262.389 229.19 262.505 229.807 262.685 230.716C262.78 231.195 262.968 231.69 263.169 232.376C263.37 233.062 263.6 233.92 264.071 234.887C264.542 235.854 265.246 236.904 265.628 237.49C266.167 238.316 266.269 238.592 266.392 238.8C266.423 238.852 266.45 238.903 266.482 238.955C266.515 239.007 266.553 239.058 266.496 237.574C266.439 236.089 266.285 233.067 266.296 232.138C266.3 231.761 266.798 234.115 266.999 234.088C267.387 234.037 267.084 232.564 267.039 231.637C266.995 230.711 266.892 230.032 266.948 229.945C267.228 229.511 267.613 231.193 267.91 231.658C268.115 231.979 268.286 232.216 268.434 232.474C268.877 233.244 269.424 234.116 269.573 234.531C269.671 234.932 269.85 235.678 270.026 236.625C270.046 236.795 270.046 236.884 270.085 237.054" stroke="#20F4FF" stroke-width="3" stroke-linecap="round"/>
<path d="M269.774 236.628C269.774 236.884 269.774 237.272 269.838 237.922C269.877 238.32 270.03 238.842 270.243 239.579C270.457 240.317 270.751 241.252 270.935 241.797C271.257 242.754 271.442 243.183 271.584 243.61C271.706 243.975 271.972 244.694 272.095 245.047C272.166 245.247 272.269 245.614 272.419 245.907C272.483 246.032 272.606 246.172 272.697 246.218C272.853 246.297 272.543 245.773 272.222 245.265C271.564 244.226 271.003 243.573 270.9 243.489C270.847 243.446 270.797 243.393 270.265 242.131C269.733 240.869 268.721 238.398 268.194 237.099C267.666 235.8 267.653 235.749 267.653 235.838C267.653 235.927 267.666 236.157 267.756 236.967C267.845 237.778 268.012 239.16 268.098 240.065C268.22 241.351 268.171 241.839 268.151 242.077C268.139 242.225 268.145 242.431 267.613 241.166C267.082 239.902 266.019 237.161 265.452 235.673C264.886 234.185 264.847 234.031 265.052 234.682C265.256 235.332 265.704 236.792 266.383 238.331C267.062 239.871 267.958 241.446 268.478 242.424C268.997 243.401 269.112 243.734 268.941 243.483C268.77 243.232 268.309 242.387 267.425 240.934C266.541 239.481 265.248 237.445 264.351 235.762C263.454 234.08 262.993 232.812 262.782 232.293C262.57 231.775 262.621 232.044 262.814 232.726C263.007 233.409 263.339 234.497 263.53 234.597C263.721 234.697 263.759 233.775 263.83 233.102C263.944 232.023 264.225 231.353 264.463 230.869C264.792 230.202 265.207 229.904 265.66 229.663C265.746 229.618 265.803 229.618 265.816 229.586C265.83 229.553 265.804 229.502 265.727 229.463C265.357 229.275 265.016 229.307 264.473 229.294C264.1 229.285 265.362 229.217 265.955 229.184C266.314 229.178 266.967 229.178 267.336 229.171C267.704 229.165 267.768 229.152 267.951 229.139" stroke="#20F4FF" stroke-width="3" stroke-linecap="round"/>
<path d="M266.398 229.217C266.322 229.217 265.642 229.357 264.64 229.571C264.09 229.688 263.8 229.708 263.064 229.727C262.468 229.743 261.821 229.734 261.588 229.676C261.381 229.592 261.225 229.527 261.116 229.463C261.057 229.437 260.993 229.424 260.927 229.411" stroke="#20F4FF" stroke-width="3" stroke-linecap="round"/>
<path d="M260.927 229.527C260.966 229.861 261.198 230.765 261.489 231.632C261.652 232.117 261.832 232.424 261.948 232.604C262.119 232.87 262.4 233.391 262.832 234.126C263.308 234.934 263.398 235.515 263.449 235.631C263.51 235.768 263.591 236.12 263.695 236.605C263.772 236.969 263.901 237.567 264.121 238.265C264.278 238.766 264.354 239.289 264.548 239.839C264.788 240.522 265.039 241.217 265.233 241.611C265.493 242.14 265.841 242.834 266.184 243.692C266.482 244.439 266.696 245.136 266.78 245.434C266.816 245.562 266.851 245.693 266.934 245.803C267.212 246.167 267.962 245.514 268.356 245.41C268.677 245.325 268.971 245.358 269.429 245.287C269.54 245.267 269.617 245.255 269.855 245.248C270.093 245.241 270.49 245.241 270.899 245.241" stroke="#20F4FF" stroke-width="3" stroke-linecap="round"/>
<path d="M268.688 245.668C268.688 245.681 268.688 245.694 268.72 245.713C268.81 245.768 269.676 245.785 270.904 245.778C271.725 245.774 272.399 245.771 272.702 245.791C272.774 245.797 272.825 245.81 272.922 245.817C273.019 245.823 273.16 245.823 273.305 245.823" stroke="#20F4FF" stroke-width="3" stroke-linecap="round"/>
<path d="M273.771 245.707C273.771 245.604 273.719 245.372 273.455 244.073C273.306 243.337 273.013 242.136 272.836 241.432C272.558 240.329 272.413 240.134 272.213 239.67C271.714 238.513 271.508 237.974 271.378 237.573C271.153 236.875 270.757 235.918 270.66 235.633C270.539 235.275 270.254 234.78 270.149 234.52C270.029 234.219 269.839 233.875 269.703 233.602C269.602 233.397 269.529 233.188 269.367 232.852C269.247 232.603 269.064 232.181 268.927 231.747C268.756 231.202 268.546 230.835 268.365 230.35C268.145 229.877 268.028 229.579 267.97 229.45C267.95 229.385 267.95 229.321 267.912 229.178" stroke="#20F4FF" stroke-width="3" stroke-linecap="round"/>
<path d="M267.989 228.441C267.989 228.466 268.002 228.543 268.028 228.666C268.041 228.725 268.054 228.776 268.067 228.828C268.08 228.88 268.092 228.931 268.106 228.984" stroke="#20F4FF" stroke-width="3" stroke-linecap="round"/>
<path d="M268.106 228.829V237.559" stroke="#20F4FF" stroke-width="3" stroke-linecap="round"/>
<path d="M271.365 245.319C271.597 245.59 271.829 245.822 272.14 246.197C272.392 246.501 272.683 246.547 273 246.593C273.315 246.638 273.524 246.664 273.828 246.703C273.88 246.709 273.861 246.779 273.746 246.851C273.181 247.199 272.969 247.155 272.258 247.175C271.61 247.192 270.381 247.181 269.709 247.188C268.728 247.197 268.211 247.271 267.855 247.304C267.512 247.336 267.021 247.362 266.71 247.35C266.501 247.341 266.451 246.86 266.251 246.459C265.806 245.571 265.843 245.23 265.778 244.926C265.639 244.275 265.506 244.091 265.384 243.788C265.145 243.195 264.924 242.527 264.815 242.293C264.718 242.086 264.614 241.828 264.459 241.324C264.357 240.995 264.291 240.768 264.142 240.361C263.968 239.883 263.8 239.423 263.747 239.17C263.68 238.847 263.554 238.518 263.45 238.207C263.316 237.803 263.178 237.418 263.036 237.107C262.92 236.853 262.804 236.539 262.706 236.241C262.58 235.855 262.352 235.233 262.228 234.934C262.062 234.535 261.963 234.197 261.853 233.887C261.757 233.616 261.524 233.114 261.368 232.716C261.282 232.5 261.187 232.231 260.896 231.477C260.745 231.083 260.696 230.809 260.514 230.286C260.419 230.011 260.294 229.761 260.249 229.451C260.191 229.296 260.139 229.165 260.107 229.062C260.087 229.01 260.062 228.959 260.035 228.906" stroke="#20F4FF" stroke-width="3" stroke-linecap="round"/>
<path d="M273.266 245.474C273.382 245.577 273.563 245.887 273.667 246.088C273.861 246.275 274.067 246.482 274.454 246.856C274.559 246.961 274.648 247.05 274.818 247.065" stroke="#20F4FF" stroke-width="3" stroke-linecap="round"/>
<path d="M273.941 242.829C273.95 242.845 274.098 243.049 274.324 243.358C274.428 243.5 274.454 243.563 274.477 243.624C274.568 243.863 274.556 244.262 274.586 244.403C274.624 244.58 274.654 244.664 274.661 244.747C274.664 244.784 274.684 244.831 274.708 244.867C274.715 244.878 274.727 244.857 274.733 244.833C274.748 244.781 274.748 244.543 274.751 244.21C274.751 244.084 274.757 244.046 274.759 243.967C274.761 243.889 274.761 243.77 274.837 243.895C274.913 244.02 275.066 244.392 275.148 244.599C275.242 244.834 275.256 244.882 275.269 244.887C275.321 244.905 275.252 244.683 275.176 244.394C275.127 244.208 275.032 243.952 274.982 243.841C274.932 243.729 274.924 243.771 274.924 243.816C274.923 244.016 274.987 244.296 275.005 244.406C275.01 244.441 274.971 244.217 274.877 243.915C274.821 243.735 274.733 243.504 274.681 243.367C274.616 243.195 274.557 243.018 274.497 242.792C274.471 242.692 274.433 242.438 274.377 242.071C274.349 241.886 274.309 241.77 274.249 241.546C274.205 241.382 274.176 241.267 274.161 241.195C274.139 241.089 274.185 241.483 274.219 241.624C274.24 241.711 274.27 241.786 274.315 241.878C274.371 241.994 274.419 242.136 274.469 242.249C274.534 242.401 274.564 242.575 274.605 242.687C274.632 242.76 274.684 242.854 274.735 242.977C274.806 243.147 274.91 243.441 274.962 243.605C275.002 243.733 275.064 243.908 275.094 244.026C275.122 244.133 275.141 244.22 275.152 244.337C275.163 244.456 275.205 244.536 275.233 244.636C275.266 244.757 275.346 245.047 275.402 245.243C275.439 245.372 275.461 245.45 275.493 245.527C275.543 245.647 275.568 245.778 275.615 245.932C275.688 246.142 275.705 246.206 275.718 246.246C275.722 246.266 275.722 246.282 275.748 246.325" stroke="#20F4FF" stroke-width="0.5" stroke-linecap="round"/>
<path d="M275.696 246.159C275.692 246.151 275.688 246.142 275.631 245.99C275.574 245.837 275.464 245.542 275.405 245.376C275.346 245.211 275.342 245.186 275.308 245.046C275.274 244.906 275.211 244.653 275.176 244.482C275.125 244.233 275.128 244.131 275.126 244.118C275.114 244.044 275.171 244.301 275.222 244.423C275.358 244.746 275.453 245.031 275.493 245.134C275.535 245.238 275.564 245.322 275.666 245.55C275.712 245.652 275.73 245.74 275.758 245.813C275.785 245.884 275.807 245.979 275.826 246.056C275.851 246.154 275.897 246.27 275.918 246.353C275.943 246.449 275.991 246.513 276.019 246.592C276.044 246.664 276.08 246.731 276.108 246.812C276.137 246.895 276.174 246.961 276.234 247.121C276.296 247.288 276.324 247.409 276.362 247.527C276.391 247.615 276.435 247.784 276.484 247.914C276.515 247.995 276.525 248.076 276.542 248.155C276.584 248.28 276.653 248.443 276.668 248.479C276.674 248.499 276.678 248.52 276.708 248.58" stroke="#20F4FF" stroke-width="0.5" stroke-linecap="round"/>
<path d="M275.056 244.148C275.06 244.182 275.128 244.419 275.248 244.689C275.301 244.81 275.346 244.912 275.391 245.031C275.438 245.158 275.479 245.219 275.504 245.288C275.535 245.37 275.572 245.471 275.604 245.544C275.641 245.626 275.683 245.749 275.709 245.826C275.732 245.894 275.765 245.979 275.801 246.058C275.839 246.141 275.897 246.223 275.929 246.302C275.967 246.395 276.012 246.487 276.042 246.577C276.073 246.67 276.106 246.778 276.138 246.884C276.183 247.036 276.234 247.14 276.264 247.241C276.306 247.381 276.354 247.516 276.388 247.6C276.44 247.726 276.482 247.875 276.525 248.052C276.591 248.329 276.623 248.422 276.674 248.554C276.683 248.584 276.683 248.601 276.687 248.618C276.691 248.635 276.7 248.652 276.708 248.682" stroke="#20F4FF" stroke-width="0.5" stroke-linecap="round"/>
<path d="M265.59 248.593H276.631" stroke="#20F4FF" stroke-width="0.5" stroke-linecap="round"/>
<path d="M265.676 248.638H267.444" stroke="#20F4FF" stroke-width="0.5" stroke-linecap="round"/>
<path d="M265.638 248.74H276.872" stroke="#20F4FF" stroke-width="0.5" stroke-linecap="round"/>
<path d="M276.692 248.445C276.658 248.433 276.59 248.382 276.496 248.307C276.33 248.175 276.202 247.994 276.097 247.899C276.075 247.88 276.056 247.869 276.037 247.865C276.018 247.86 275.997 247.865 275.975 247.88C275.927 247.913 275.886 248.001 275.858 248.078C275.826 248.164 276.017 247.874 276.035 247.824C276.049 247.784 275.916 248.026 275.799 248.199C275.763 248.252 275.787 248.241 275.806 248.226C275.885 248.165 275.974 248.066 276.115 247.88C276.201 247.797 276.252 247.711 276.295 247.596C276.308 247.57 276.321 247.553 276.334 247.536" stroke="#20F4FF" stroke-width="0.5" stroke-linecap="round"/>
<path d="M276.257 247.331C276.261 247.369 276.303 247.488 276.367 247.617C276.405 247.692 276.436 247.787 276.493 247.892C276.593 248.074 276.611 248.159 276.632 248.23C276.658 248.316 276.705 248.356 276.724 248.364C276.81 248.403 276.641 248.126 276.615 248.038C276.591 247.954 276.547 247.861 276.5 247.769C276.452 247.675 276.389 247.541 276.319 247.415C276.308 247.391 276.308 247.374 276.301 247.357C276.295 247.34 276.282 247.323 276.269 247.293" stroke="#20F4FF" stroke-width="0.5" stroke-linecap="round"/>
<path d="M263.844 243.386C263.844 243.415 263.853 243.509 263.87 243.59C263.889 243.68 263.925 243.791 264.002 244.032C264.041 244.155 264.07 244.248 264.102 244.331C264.134 244.414 264.169 244.521 264.201 244.607C264.236 244.702 264.28 244.832 264.31 244.944C264.344 245.07 264.369 245.136 264.393 245.236C264.423 245.367 264.476 245.546 264.514 245.676C264.552 245.801 264.57 245.866 264.613 245.969C264.66 246.054 264.685 246.105 264.707 246.15C264.719 246.178 264.736 246.216 264.754 246.293" stroke="#20F4FF" stroke-width="0.5" stroke-linecap="round"/>
<path d="M265.596 248.292C265.596 248.249 265.579 248.155 265.545 248.076C265.512 247.999 265.456 247.933 265.425 247.871C265.393 247.804 265.349 247.733 265.314 247.662C265.275 247.581 265.255 247.494 265.244 247.408C265.232 247.316 265.182 247.246 265.156 247.178C265.127 247.099 265.08 247.028 265.054 246.945C265.025 246.85 264.998 246.768 264.981 246.689C264.973 246.648 264.964 246.61 264.958 246.571C264.956 246.55 264.956 246.525 264.943 246.498" stroke="#20F4FF" stroke-width="0.5" stroke-linecap="round"/>
<path d="M265.173 247.229C265.199 247.279 265.241 247.399 265.261 247.486C265.294 247.637 265.344 247.698 265.389 247.815C265.429 247.921 265.438 248.001 265.455 248.076C265.459 248.095 265.464 248.116 265.466 248.159C265.468 248.201 265.468 248.265 265.481 248.343" stroke="#20F4FF" stroke-width="0.5" stroke-linecap="round"/>
<path d="M264.081 243.334C264.005 243.275 263.902 243.156 263.84 243.025C263.801 242.943 263.761 242.878 263.708 242.81C263.623 242.7 263.595 242.617 263.567 242.551C263.533 242.471 263.471 242.37 263.43 242.284C263.399 242.219 263.347 242.072 263.309 241.932C263.267 241.784 263.223 241.64 263.185 241.495C263.152 241.37 263.125 241.26 263.099 241.161C263.077 241.077 263.048 240.974 262.978 240.803C262.958 240.743 262.941 240.683 262.92 240.617C262.911 240.589 262.907 240.572 262.903 240.555" stroke="#20F4FF" stroke-width="0.5" stroke-linecap="round"/>
<path d="M258.51 227.789L266 249" stroke="#20F4FF"/>
<line x1="269.471" y1="228.832" x2="274.471" y2="242.832" stroke="#20F4FF"/>
<line x1="119.553" y1="247.776" x2="130.553" y2="225.776" stroke="#20F4FF"/>
<path d="M125.77 238.654C125.77 238.585 125.801 238.338 126.106 237.398C126.235 237.001 126.467 236.78 126.499 236.615C126.522 236.497 126.067 237.092 125.66 237.639C125.512 237.838 125.491 237.886 125.479 237.883C125.423 237.868 125.583 237.433 125.792 236.852C125.88 236.607 125.955 236.471 126.09 236.165C126.431 235.395 126.653 234.879 126.688 234.898C126.847 234.983 126.623 235.473 126.511 235.834C126.479 235.935 126.483 235.865 126.748 235.349C127.013 234.834 127.535 233.875 127.811 233.346C128.088 232.817 128.103 232.748 128.111 232.736C128.129 232.707 128.027 233.07 127.826 233.557C127.636 234.018 127.429 234.25 127.379 234.274C127.361 234.282 127.382 234.19 127.532 233.756C127.682 233.321 127.966 232.523 128.116 232.085C128.266 231.647 128.274 231.593 128.278 231.588C128.406 231.437 128.004 232.417 127.94 232.578C127.876 232.737 128.139 232.041 128.341 231.587C128.542 231.132 128.803 230.61 128.946 230.318C129.088 230.026 129.103 229.98 129.115 229.972C129.235 229.886 129.073 230.551 129.061 230.712C129.021 231.238 129.382 229.64 129.463 229.461C129.486 229.411 129.491 229.451 129.479 229.51C129.452 229.646 129.406 229.754 129.382 229.785C129.413 229.478 129.522 228.887 129.603 228.574C129.623 228.507 129.638 228.476 129.654 228.421" stroke="#20F4FF" stroke-width="0.5" stroke-linecap="round"/>
<path d="M129.723 228.886C129.708 229.103 129.669 229.289 129.37 230.126C129.095 230.894 128.502 232.33 128.16 233.242C127.817 234.154 127.725 234.492 127.674 234.624C127.623 234.756 127.615 234.671 127.615 234.574C127.615 234.369 127.669 234.059 127.846 233.427C127.968 232.989 128.222 232.334 128.349 231.979C128.475 231.623 128.483 231.592 128.18 232.302C127.877 233.011 127.263 234.462 126.943 235.098C126.623 235.734 126.615 235.511 126.653 235.197C126.691 234.883 126.776 234.484 126.873 234.128C126.97 233.773 127.078 233.474 127.129 233.358C127.181 233.242 127.173 233.319 127 233.834C126.828 234.35 126.49 235.301 126.324 235.734C126.157 236.167 126.173 236.052 126.384 235.593C126.595 235.135 127.002 234.337 127.219 233.899C127.436 233.461 127.452 233.407 127.46 233.398C127.468 233.39 127.468 233.428 127.18 234.035C126.892 234.642 126.316 235.816 125.92 236.579C125.524 237.341 125.324 237.655 125.21 237.844C125.096 238.033 125.073 238.087 125.08 238.046C125.087 238.004 125.126 237.866 125.379 237.269C125.633 236.672 126.101 235.621 126.381 235.022C126.718 234.298 126.839 234.127 126.867 234.1C126.89 234.075 126.855 234.264 126.529 235.118C126.203 235.971 125.566 237.545 125.249 238.309C124.932 239.074 124.955 238.982 124.998 238.869C125.041 238.756 125.102 238.626 125.302 238.321C125.503 238.015 125.841 237.54 125.942 237.475C126.043 237.41 125.897 237.771 125.588 238.336C125.278 238.902 124.81 239.662 124.577 239.992C124.343 240.322 124.359 240.199 124.436 239.867C124.513 239.535 124.651 238.998 124.825 238.468C125 237.938 125.207 237.432 125.368 237.083C125.614 236.546 125.816 236.298 125.932 236.232C126.045 236.167 125.987 236.667 125.845 237.265C125.754 237.645 125.572 238.163 125.396 238.627C125.221 239.092 125.045 239.483 124.946 239.716C124.847 239.948 124.832 240.009 125.124 239.393C125.415 238.776 126.014 237.479 126.168 237.248C126.323 237.017 126.016 237.892 125.827 238.408C125.589 239.059 125.499 239.258 125.475 239.305C125.465 239.326 125.467 239.168 125.567 238.736C125.667 238.305 125.867 237.561 125.919 237.331C125.972 237.101 125.873 237.408 125.606 238.003C125.34 238.599 124.91 239.474 124.75 239.786C124.59 240.099 124.713 239.822 125.198 239.047C125.684 238.271 126.528 237.005 126.974 236.341C127.421 235.677 127.444 235.654 127.468 235.631" stroke="#20F4FF" stroke-width="0.5" stroke-linecap="round"/>
<path d="M127.328 235.538C127.313 235.538 127.228 235.545 127.077 235.584C126.999 235.604 126.934 235.668 126.722 235.93C126.51 236.192 126.157 236.66 125.963 236.92C125.77 237.181 125.747 237.219 125.739 237.22C125.701 237.222 125.785 237.066 126.016 236.681C126.203 236.369 126.554 235.835 126.739 235.585C126.925 235.336 126.94 235.389 126.933 235.494C126.925 235.598 126.894 235.752 126.771 236.149C126.648 236.547 126.433 237.184 126.165 237.834C125.897 238.485 125.582 239.129 125.363 239.55C125.143 239.97 125.028 240.147 124.888 240.326C124.748 240.505 124.587 240.682 124.504 240.726C124.42 240.772 124.567 240.147 124.83 239.392C125.008 238.881 125.172 238.524 125.227 238.337C125.23 238.327 125.174 238.488 124.851 239.139C124.528 239.79 123.937 240.926 123.625 241.534C123.313 242.142 123.297 242.188 123.293 242.196C123.289 242.205 123.297 242.174 123.447 241.824C123.596 241.475 123.888 240.807 124.103 240.367C124.319 239.927 124.449 239.735 124.455 239.805C124.461 239.875 124.338 240.213 124.079 240.713C123.82 241.213 123.429 241.866 123.304 241.972C123.032 242.202 123.567 240.974 123.73 240.66C123.807 240.511 123.907 240.401 123.951 240.399C123.995 240.397 123.987 240.512 123.853 240.932C123.718 241.352 123.457 242.074 123.315 242.461C123.173 242.848 123.158 242.878 123.142 242.933" stroke="#20F4FF" stroke-width="0.5" stroke-linecap="round"/>
<path d="M123.898 241.736C123.89 241.751 123.882 241.766 123.656 242.204C123.429 242.642 122.984 243.501 122.724 244.04C122.464 244.579 122.403 244.77 122.379 244.812C122.355 244.853 122.37 244.738 122.555 244.276C122.739 243.813 123.092 243.008 123.324 242.512C123.635 241.845 123.85 241.489 123.951 241.314C123.964 241.292 123.884 241.591 123.744 241.921C123.605 242.251 123.406 242.65 123.257 242.917C123.034 243.317 122.898 243.487 122.913 243.515C122.935 243.555 123.051 243.381 123.359 242.892C123.668 242.403 124.182 241.536 124.458 241.078C124.735 240.619 124.758 240.596 124.762 240.604C124.785 240.645 124.535 241.019 124.018 241.807C123.712 242.273 123.271 242.84 122.996 243.194C122.72 243.548 122.613 243.663 122.562 243.665C122.44 243.669 122.556 243.272 122.664 242.867C122.73 242.619 122.864 242.3 122.989 242.038C123.114 241.776 123.236 241.584 123.3 241.501C123.363 241.417 123.363 241.448 123.098 242.016C122.833 242.585 122.304 243.69 122.035 244.229C121.766 244.767 121.773 244.706 121.816 244.544C121.858 244.382 121.935 244.121 122.043 243.852C122.265 243.304 122.525 242.907 122.66 242.756C122.693 242.72 122.696 242.827 122.527 243.304C122.358 243.781 122.028 244.641 121.839 245.114C121.65 245.588 121.612 245.649 121.596 245.642C121.518 245.61 121.703 245.173 121.95 244.535C122.08 244.2 122.259 243.859 122.338 243.704C122.417 243.549 122.402 243.595 122.206 243.968C122.01 244.341 121.634 245.039 121.379 245.484C121.124 245.928 121.001 246.097 120.961 246.141C120.934 246.171 121.068 245.946 121.291 245.703C121.724 245.233 122.099 244.93 122.184 244.922C122.314 244.909 122.138 245.262 121.992 245.593C121.891 245.821 121.707 246.155 121.628 246.295C121.444 246.618 122.161 245.101 122.162 245.061C122.164 244.943 121.947 245.527 121.795 245.805C121.643 246.083 121.505 246.267 121.403 246.392C121.301 246.518 121.24 246.579 121.177 246.643" stroke="#20F4FF" stroke-width="0.5" stroke-linecap="round"/>
<path d="M121.293 246.154C121.255 246.208 120.931 246.516 120.739 246.674C120.684 246.719 120.881 246.373 121.032 246.125C121.078 246.049 121.084 246.091 121.064 246.176C120.953 246.672 120.727 246.952 120.7 246.949C120.561 246.932 120.804 246.689 120.839 246.67C120.971 246.596 120.697 247.076 120.604 247.177C120.579 247.203 120.572 247.14 120.568 247.131C120.564 247.123 120.557 247.161 120.537 247.2C120.518 247.239 120.487 247.278 120.409 247.34" stroke="#20F4FF" stroke-width="0.5" stroke-linecap="round"/>
<path d="M119.758 247.666H128.433" stroke="#20F4FF" stroke-width="0.5" stroke-linecap="round"/>
<path d="M130.09 227.206V229.206" stroke="#20F4FF" stroke-width="0.5" stroke-linecap="round"/>
<path d="M130.09 227.439C130.09 227.638 130.09 228.079 130.09 228.341C130.09 228.265 130.09 227.767 130.09 227.713C130.09 227.659 130.09 228.066 130.09 228.485" stroke="#20F4FF" stroke-width="0.5" stroke-linecap="round"/>
<path d="M130.28 227.691C130.26 227.573 130.218 227.233 130.218 227.133C130.218 227.372 130.213 227.628 130.205 227.765C130.203 227.855 130.203 227.988 130.203 228.125" stroke="#20F4FF" stroke-width="0.5" stroke-linecap="round"/>
<line x1="33.5489" y1="247.784" x2="44.5489" y2="224.784" stroke="#20F4FF"/>
<path d="M36.8016 244.916C36.8016 244.891 36.8515 244.716 37.332 243.835C37.7334 243.099 38.5729 241.845 39.0338 241.096C39.4947 240.348 39.582 240.161 39.0723 240.732C38.5627 241.302 37.4535 242.636 36.9007 243.254C36.348 243.872 36.3854 243.735 36.9531 242.636C37.5207 241.538 38.6174 239.481 39.1886 238.391C39.7598 237.3 39.7723 237.238 39.4796 237.985C39.1869 238.732 38.5887 240.289 38.2058 241.242C37.8228 242.194 37.6733 242.493 37.8579 241.862C38.0426 241.231 38.5661 239.66 39.0351 238.459C39.5042 237.257 39.903 236.472 40.1084 236.093C40.3139 235.713 40.3139 235.763 40.0709 236.393C39.8278 237.023 39.3418 238.232 39.2908 238.35C39.2398 238.468 39.6386 237.459 40.0559 236.515C40.4732 235.571 40.897 234.724 41.1153 234.312C41.3336 233.9 41.3336 233.95 41.1404 234.424C40.9472 234.899 40.5609 235.796 40.3868 236.165C40.2927 236.364 40.6878 235.381 41.2729 234.142C41.4917 233.679 41.5216 233.538 41.5409 233.493C41.5486 233.475 41.5228 233.735 41.2044 234.579C40.9522 235.248 40.4 236.358 40.3858 236.537C40.2348 238.446 41.6353 234.631 41.6857 234.581C41.6949 234.571 41.6863 234.63 41.0131 235.802C40.3399 236.974 39.0064 239.268 38.2945 240.536C37.496 241.959 37.4689 242.209 37.4438 242.328C37.4187 242.484 37.3934 242.624 37.3745 242.731C37.3681 242.788 37.3681 242.85 37.3681 242.914" stroke="#20F4FF" stroke-width="0.5" stroke-linecap="round"/>
<path d="M36.8394 244.916C36.8144 244.941 36.677 245.053 36.3947 245.292C36.0389 245.592 35.5957 246.096 35.1743 246.624C34.851 247.156 34.6995 247.42 34.6618 247.496C34.6489 247.485 34.6489 247.373 34.6489 247.257" stroke="#20F4FF" stroke-width="0.5" stroke-linecap="round"/>
<path d="M33.516 247.711H36.4995" stroke="#20F4FF" stroke-width="0.5" stroke-linecap="round"/>
<path d="M34.7245 246.993C34.9122 246.566 35.3019 246.076 35.9213 245.35C36.356 244.84 37.1264 244.125 37.4182 243.902C37.5272 243.819 37.1185 244.573 36.6105 245.157C35.9764 245.885 35.4058 246.337 35.1917 246.432C35.1325 246.459 35.152 246.315 35.439 245.753C35.726 245.19 36.2744 244.181 36.5756 243.592C36.9404 242.879 36.9776 242.676 37.0154 242.625C37.0457 242.584 36.9784 242.875 36.691 243.457C36.4725 243.899 36.0297 244.599 35.8426 244.891C35.4925 245.435 36.9146 243.079 36.9525 243.009C37.4752 242.044 35.8318 245.256 35.9634 245.087C36.1373 244.863 36.6717 244.167 37.2822 243.298C37.4798 243.016 37.5064 243.102 37.4006 243.389C37.2949 243.677 37.0705 244.176 36.9924 244.283C36.6403 244.766 37.1918 243.444 37.1982 243.362C37.2031 243.299 36.5807 244.253 35.9491 244.969C35.889 245.037 36.3144 244.003 36.5018 243.609C36.6173 243.366 36.0263 244.279 35.5076 244.994C35.481 245.031 36.0108 244.077 36.3239 243.578C36.637 243.079 36.7367 242.979 36.7818 242.971C37.3341 242.877 35.973 244.56 35.7759 244.934C35.7711 244.943 35.794 244.855 36.0063 244.392C36.2185 243.93 36.6173 243.095 36.9786 242.397C37.6245 241.148 38.0721 240.374 38.0362 240.302C37.6369 239.499 37.0294 241.879 36.9965 241.833C36.819 241.584 37.35 240.691 37.6221 239.98C37.8942 239.269 38.1559 238.721 38.2783 238.494C38.3497 238.362 37.9762 239.343 37.6527 240.228C37.6311 240.287 38.1892 239.468 38.614 238.821C39.0389 238.173 39.3879 237.699 39.5552 237.499C39.7225 237.299 39.6975 237.386 39.6162 237.531C39.4163 237.886 39.1069 238.354 38.7681 238.919C38.5897 239.217 38.3546 239.509 38.8061 238.81C39.2576 238.11 40.3917 236.403 40.9946 235.473C41.5976 234.544 41.635 234.444 41.6106 234.499C41.4929 234.762 41.2596 235.245 40.8523 235.878C40.6076 236.259 40.2331 236.724 40.0531 236.918C39.9224 237.059 40.2723 236.087 40.8762 234.784C41.1001 234.302 41.181 234.192 41.2133 234.16C41.2456 234.127 41.2331 234.177 40.9961 234.601C40.7592 235.026 40.298 235.823 39.9234 236.415C39.5487 237.006 39.2746 237.368 39.1707 237.467C39.0669 237.566 39.1416 237.391 39.5416 236.734C39.9415 236.077 40.6644 234.943 41.0492 234.328C41.434 233.712 41.459 233.65 41.4656 233.655C41.5283 233.706 41.1353 234.461 40.6321 235.492C40.4441 235.878 40.3781 235.976 40.346 235.965C40.2141 235.92 40.5881 235.078 40.9038 234.277C40.9742 234.098 40.366 234.843 40.1266 235.033C39.7577 235.324 40.8275 233.778 41.2239 233.25C41.371 233.058 41.4084 233.02 41.303 233.269C41.1976 233.518 40.9484 234.054 40.616 234.681" stroke="#20F4FF" stroke-width="0.5" stroke-linecap="round"/>
<path d="M36.575 241.479C36.3624 241.991 35.9096 243.15 35.7821 243.486C35.7695 243.543 35.757 243.605 35.7319 243.706C35.7068 243.807 35.6694 243.944 35.6309 244.198" stroke="#20F4FF" stroke-width="0.5" stroke-linecap="round"/>
<path d="M35.3287 245.52C35.2033 245.808 35.0897 246.149 35.1206 246.2C35.3683 246.606 35.8559 245.384 36.0763 245.063C36.1335 244.979 36.1347 245.102 36.1095 245.204C35.9587 245.57 35.8325 245.834 35.7885 246.004C35.7695 246.086 35.757 246.161 35.7441 246.2" stroke="#20F4FF" stroke-width="0.5" stroke-linecap="round"/>
<path d="M39.7474 238.911C39.7474 238.861 39.7474 238.138 39.7537 237.024C39.7566 236.496 39.7977 236.331 39.7979 236.305C39.7981 236.278 39.7482 236.429 39.4298 236.923C39.1115 237.417 38.5132 238.301 38.2362 238.707C37.9592 239.113 38.0215 239.014 38.0972 238.913C38.4517 238.439 39.0639 237.694 39.5369 237.146C39.636 237.021 39.4491 237.208 39.3341 237.323C39.2191 237.438 39.1817 237.475 39.1432 237.514" stroke="#20F4FF" stroke-width="0.5" stroke-linecap="round"/>
<path d="M41.7963 232.698C41.8839 232.586 42.0848 232.16 42.7943 230.69C42.9446 230.378 43.0161 230.296 43.0358 230.276C43.057 230.254 42.9051 230.507 42.5546 231.063C42.2999 231.468 41.9051 232.131 41.656 232.528C41.3316 233.044 41.18 233.251 41.1107 233.377C41.0989 233.399 41.2162 233.191 41.629 232.634C41.9528 232.198 42.4655 231.417 42.7165 231.094C42.8853 230.877 42.5301 231.947 41.9949 233.206C41.7439 233.797 42.8285 231.025 42.8286 231.011C42.831 230.843 42.404 231.912 41.9003 232.781C41.746 233.047 41.7457 232.927 41.8394 232.639C42.0853 231.882 42.4991 230.953 42.7267 230.479C43.1838 229.526 42.1868 231.666 42.1677 231.698C42.0856 231.836 42.5486 230.716 43.0018 229.721C43.1406 229.417 43.1559 229.549 43.1434 229.706C43.131 229.864 43.106 230.051 43.087 230.172C43.0679 230.293 43.0554 230.343 43.0426 230.395" stroke="#20F4FF" stroke-width="0.5" stroke-linecap="round"/>
<path d="M43.6846 230.244C43.6846 230.144 43.6846 230.044 43.6846 229.463C43.6846 228.882 43.6846 227.823 43.6846 227.857C43.6846 227.89 43.6846 229.05 43.6846 230.244Z" stroke="#20F4FF" stroke-width="0.5" stroke-linecap="round"/>
<path d="M43.4957 229.828C43.4202 229.539 43.3953 229.288 43.3575 229.042C43.313 228.752 43.0682 229.576 42.9927 229.627C42.967 229.429 42.9795 229.212 42.9984 229.111C43.0048 229.061 43.0048 229.011 43.0048 228.96" stroke="#20F4FF" stroke-width="0.5" stroke-linecap="round"/>
<path d="M43.9111 226.618V229.375" stroke="#20F4FF" stroke-width="0.5" stroke-linecap="round"/>
<path d="M44.2133 226.052V231.037" stroke="#20F4FF" stroke-width="0.5" stroke-linecap="round"/>
<path d="M43.458 228.657C43.458 228.633 43.458 228.608 43.458 228.551C43.458 228.033 42.6146 230.419 42.5895 230.464C42.3162 230.949 42.7899 228.85 42.9221 228.358C42.9548 228.237 42.967 228.39 42.7115 229.234C42.456 230.077 41.945 231.61 41.7005 232.325C41.456 233.04 41.4934 232.89 41.7245 232.309C41.9556 231.727 42.3794 230.717 42.5914 230.272C42.8035 229.827 42.791 229.976 42.554 230.701C42.317 231.426 41.8559 232.723 41.5934 233.434C41.331 234.145 41.2811 234.233 41.3801 234.066C42.0644 232.911 42.2113 232.573 42.2742 232.585C42.3397 232.597 42.3121 232.821 42.1503 233.602C41.9885 234.384 41.652 235.767 41.4163 236.63C41.0957 237.802 40.803 238.311 40.583 238.713C40.3978 239.051 40.3237 239.282 40.2796 239.301C40.251 239.314 40.2977 239.159 40.5349 238.652C40.772 238.146 41.2207 237.249 41.4518 236.811C41.683 236.374 41.6829 236.424 41.6705 236.555C41.658 236.687 41.6331 236.899 41.4707 237.65C41.3083 238.401 41.0092 239.684 40.8489 240.439C40.6886 241.194 40.6761 241.381 40.7382 241.415C40.9302 241.52 41.2407 241.009 41.6981 240.333C42.0182 239.86 42.4171 239.059 42.6728 238.605C42.9285 238.15 43.0033 238.051 43.0418 238.087C43.0803 238.122 43.0803 238.297 42.9806 238.898C42.8809 239.499 42.6815 240.521 42.5725 241.016C42.4636 241.511 42.4511 241.449 42.4447 241.336C42.4383 241.223 42.4383 241.061 42.4383 240.894" stroke="#20F4FF" stroke-width="0.5" stroke-linecap="round"/>
<path d="M45.3357 225.613C45.3357 225.587 45.3181 225.338 45.2692 225.217C45.188 225.016 45.1399 225.515 45.1221 225.542C44.9898 225.743 45.0864 225.008 45.0687 224.959C45.0568 224.926 45.0242 225.078 44.993 225.181C44.9782 225.229 44.9707 225.274 44.9662 225.186C44.9616 225.099 44.9616 224.878 44.9616 224.827C44.9616 224.755 44.9705 225.061 44.9838 225.079C45.0997 225.236 44.9616 224.759 44.9572 224.718C44.944 224.81 44.9349 224.945 44.9305 225.051C44.9261 225.105 44.9173 225.158 44.9082 225.239" stroke="white" stroke-width="0.5" stroke-linecap="round"/>
<path d="M44.9082 225.106C44.9082 225.37 44.9082 225.78 44.9082 225.921C44.9082 226.053 44.9082 225.241 44.9082 225.162C44.9082 225.084 44.9082 225.489 44.9082 225.495C44.9082 225.502 44.9082 225.096 44.9082 225.063C44.9082 225.031 44.9082 225.383 44.9082 225.402C44.9082 225.421 44.9082 225.094 44.9082 225.037C44.9082 224.979 44.9082 225.199 44.9082 225.189C44.9082 225.179 44.9082 224.932 44.9082 225.017C44.9082 225.101 44.9082 225.525 44.9082 225.961" stroke="white" stroke-width="0.5" stroke-linecap="round"/>
<path d="M44.8414 242.661V244.826" stroke="white" stroke-width="0.5" stroke-linecap="round"/>
<path d="M44.7612 243.089V248.861" stroke="white" stroke-width="0.5" stroke-linecap="round"/>
<path d="M130.937 225.025V228.259" stroke="white" stroke-width="0.5" stroke-linecap="round"/>
<path d="M45.0952 224.678V226.014" stroke="white" stroke-width="0.5" stroke-linecap="round"/>
<path d="M44.8815 224.758V225.934" stroke="white" stroke-width="0.5" stroke-linecap="round"/>
<path d="M44.8815 224.812V226.255" stroke="white" stroke-width="0.5" stroke-linecap="round"/>
<path d="M44.8547 224.865C44.8547 225.041 44.8547 225.538 44.8547 225.897C44.8547 225.85 44.8547 225.339 44.8547 225.313C44.8547 225.288 44.8547 225.764 44.8547 226.201" stroke="white" stroke-width="0.5" stroke-linecap="round"/>
<path d="M44.828 225.025C44.828 225.184 44.828 225.53 44.828 225.72C44.828 225.795 44.828 225.221 44.828 225.201C44.828 225.182 44.828 225.579 44.828 225.536C44.828 225.494 44.828 225 44.828 225.006C44.828 225.011 44.828 225.532 44.828 226.014" stroke="white" stroke-width="0.5" stroke-linecap="round"/>
<path d="M45.0685 231.579V233.209" stroke="white" stroke-width="0.5" stroke-linecap="round"/>
<path d="M44.7745 231.98V243.229" stroke="white" stroke-width="0.5" stroke-linecap="round"/>
<path d="M130.83 225.533C130.83 225.639 130.83 225.745 130.83 226.258C130.83 226.771 130.83 227.688 130.83 227.609C130.83 227.531 130.83 226.428 130.83 226.447C130.83 226.465 130.83 227.638 130.83 227.682C130.83 227.727 130.83 226.607 130.83 227.176C130.83 227.746 130.83 230.038 130.83 230.69C130.83 231.342 130.83 230.284 130.83 230.427C130.83 230.57 130.83 231.945 130.83 232.076C130.83 232.207 130.83 231.052 130.83 231.184C130.83 231.317 130.83 232.772 130.83 232.851C130.83 232.931 130.83 231.59 130.83 231.68C130.83 231.77 130.83 233.331 130.83 234.06C130.83 234.789 130.83 234.639 130.83 234.485" stroke="white" stroke-width="0.5" stroke-linecap="round"/>
<path d="M130.77 230.998V240.27" stroke="white" stroke-width="0.5" stroke-linecap="round"/>
<path d="M130.997 239.889V242.721" stroke="white" stroke-width="0.5" stroke-linecap="round"/>
<path d="M131.024 240.183C131.024 240.298 131.024 240.412 131.024 240.917C131.024 241.421 131.024 242.312 131.024 242.175C131.024 242.039 131.024 240.848 131.024 240.354C131.024 239.86 131.024 240.098 131.024 240.343" stroke="white" stroke-width="0.5" stroke-linecap="round"/>
<path d="M130.81 240.049C130.81 240.146 130.81 240.243 130.81 240.827C130.81 241.41 130.81 242.477 130.81 242.445C130.81 242.413 130.81 241.249 130.81 240.98C130.81 240.711 130.81 241.372 130.81 241.66C130.81 241.948 130.81 241.842 130.81 241.733" stroke="white" stroke-width="0.5" stroke-linecap="round"/>
<path d="M130.89 240.317C130.89 240.405 130.89 240.493 130.89 241.006C130.89 241.518 130.89 242.453 130.89 242.414C130.89 242.376 130.89 241.335 130.89 240.343" stroke="white" stroke-width="0.5" stroke-linecap="round"/>
<path d="M130.81 240.049V244.966" stroke="white" stroke-width="0.5" stroke-linecap="round"/>
<path d="M130.783 239.942V248.6" stroke="white" stroke-width="0.5" stroke-linecap="round"/>
<path d="M257.964 227.153H268.589" stroke="#20F4FF" stroke-width="0.5" stroke-linecap="round"/>
<path d="M258.136 226.78H268.761" stroke="#20F4FF" stroke-width="0.5" stroke-linecap="round"/>
<path d="M268.79 226.952C268.79 227.076 268.96 227.589 269.062 227.937C269.129 228.166 269.211 228.311 269.239 228.34C269.387 228.489 269.116 227.73 269.053 227.536C269.017 227.427 269.143 227.879 269.291 228.143C269.383 228.306 269.449 228.464 269.541 228.67C269.593 228.77 269.641 228.866 269.684 228.952C269.708 228.991 269.737 229.019 269.766 229.048" stroke="#20F4FF" stroke-width="0.5" stroke-linecap="round"/>
<path d="M269.421 228.589C269.459 228.656 269.574 228.789 269.631 228.852C269.725 228.953 269.574 228.485 269.512 228.264C269.469 228.034 269.412 227.881 269.354 227.719C269.335 227.671 269.307 227.614 269.249 227.527" stroke="#20F4FF" stroke-width="0.5" stroke-linecap="round"/>
<path d="M257.993 226.866H258.481" stroke="#20F4FF" stroke-width="0.5" stroke-linecap="round"/>
<path d="M257.935 226.981H258.825" stroke="#20F4FF" stroke-width="0.5" stroke-linecap="round"/>
<path d="M257.103 226.751C257.179 226.932 257.217 227.162 257.298 227.473C257.354 227.684 257.428 227.832 257.519 228.071C257.612 228.315 257.61 228.54 257.648 228.703C257.657 228.742 257.667 228.78 257.677 228.761C257.915 228.305 257.467 227.442 257.428 227.311C257.345 227.033 257.657 228.033 257.715 228.22C257.75 228.334 257.82 228.473 257.858 228.574C257.987 228.912 257.543 227.595 257.433 227.293C257.41 227.23 257.399 227.192 257.395 227.192C257.212 227.17 257.542 227.774 257.843 228.514C258.174 229.363 258.328 229.689 258.361 229.77C258.375 229.814 258.385 229.861 258.395 229.939" stroke="white" stroke-width="0.5" stroke-linecap="round"/>
<path d="M22.892 293H19.8977C19.7206 292.139 19.4107 291.382 18.968 290.73C18.5334 290.078 18.0021 289.531 17.3743 289.088C16.7545 288.637 16.0663 288.299 15.3097 288.074C14.553 287.848 13.7642 287.736 12.9432 287.736C11.446 287.736 10.0897 288.114 8.87429 288.871C7.6669 289.627 6.70502 290.742 5.98864 292.215C5.2803 293.688 4.92614 295.495 4.92614 297.636C4.92614 299.777 5.2803 301.585 5.98864 303.058C6.70502 304.531 7.6669 305.645 8.87429 306.402C10.0897 307.159 11.446 307.537 12.9432 307.537C13.7642 307.537 14.553 307.424 15.3097 307.199C16.0663 306.973 16.7545 306.639 17.3743 306.197C18.0021 305.746 18.5334 305.195 18.968 304.543C19.4107 303.883 19.7206 303.126 19.8977 302.273H22.892C22.6667 303.536 22.2562 304.667 21.6605 305.665C21.0649 306.664 20.3243 307.513 19.4389 308.213C18.5535 308.905 17.5594 309.433 16.4567 309.795C15.362 310.157 14.1908 310.338 12.9432 310.338C10.8343 310.338 8.95881 309.823 7.31676 308.793C5.67472 307.762 4.38281 306.297 3.44105 304.398C2.49929 302.498 2.02841 300.244 2.02841 297.636C2.02841 295.028 2.49929 292.775 3.44105 290.875C4.38281 288.975 5.67472 287.51 7.31676 286.48C8.95881 285.45 10.8343 284.935 12.9432 284.935C14.1908 284.935 15.362 285.116 16.4567 285.478C17.5594 285.84 18.5535 286.371 19.4389 287.072C20.3243 287.764 21.0649 288.609 21.6605 289.607C22.2562 290.597 22.6667 291.728 22.892 293ZM58.1568 297.636C58.1568 300.244 57.6859 302.498 56.7441 304.398C55.8024 306.297 54.5105 307.762 52.8684 308.793C51.2264 309.823 49.3509 310.338 47.242 310.338C45.1331 310.338 43.2576 309.823 41.6156 308.793C39.9735 307.762 38.6816 306.297 37.7399 304.398C36.7981 302.498 36.3272 300.244 36.3272 297.636C36.3272 295.028 36.7981 292.775 37.7399 290.875C38.6816 288.975 39.9735 287.51 41.6156 286.48C43.2576 285.45 45.1331 284.935 47.242 284.935C49.3509 284.935 51.2264 285.45 52.8684 286.48C54.5105 287.51 55.8024 288.975 56.7441 290.875C57.6859 292.775 58.1568 295.028 58.1568 297.636ZM55.2591 297.636C55.2591 295.495 54.9009 293.688 54.1845 292.215C53.4761 290.742 52.5143 289.627 51.2988 288.871C50.0914 288.114 48.7392 287.736 47.242 287.736C45.7449 287.736 44.3886 288.114 43.1731 288.871C41.9657 289.627 41.0038 290.742 40.2875 292.215C39.5791 293.688 39.225 295.495 39.225 297.636C39.225 299.777 39.5791 301.585 40.2875 303.058C41.0038 304.531 41.9657 305.645 43.1731 306.402C44.3886 307.159 45.7449 307.537 47.242 307.537C48.7392 307.537 50.0914 307.159 51.2988 306.402C52.5143 305.645 53.4761 304.531 54.1845 303.058C54.9009 301.585 55.2591 299.777 55.2591 297.636ZM92.362 285.273V310H89.4643L75.9899 290.585H75.7484V310H72.7541V285.273H75.6518L89.1745 304.736H89.416V285.273H92.362ZM121.439 291.455C121.294 290.231 120.706 289.281 119.676 288.605C118.646 287.929 117.382 287.591 115.885 287.591C114.79 287.591 113.832 287.768 113.011 288.122C112.198 288.476 111.563 288.963 111.104 289.583C110.653 290.203 110.428 290.907 110.428 291.696C110.428 292.356 110.585 292.924 110.898 293.398C111.22 293.865 111.631 294.256 112.13 294.57C112.629 294.875 113.152 295.129 113.7 295.33C114.247 295.523 114.75 295.68 115.209 295.801L117.72 296.477C118.364 296.646 119.08 296.88 119.869 297.178C120.666 297.475 121.427 297.882 122.151 298.397C122.884 298.904 123.487 299.556 123.962 300.353C124.437 301.15 124.675 302.128 124.675 303.287C124.675 304.623 124.325 305.83 123.624 306.909C122.932 307.988 121.918 308.845 120.582 309.481C119.254 310.117 117.64 310.435 115.74 310.435C113.969 310.435 112.436 310.149 111.14 309.577C109.852 309.006 108.838 308.209 108.097 307.187C107.365 306.165 106.95 304.977 106.854 303.625H109.945C110.025 304.559 110.339 305.331 110.886 305.943C111.442 306.547 112.142 306.998 112.987 307.295C113.84 307.585 114.758 307.73 115.74 307.73C116.883 307.73 117.909 307.545 118.819 307.175C119.728 306.796 120.449 306.273 120.98 305.605C121.511 304.929 121.777 304.14 121.777 303.239C121.777 302.418 121.548 301.75 121.089 301.234C120.63 300.719 120.026 300.301 119.278 299.979C118.529 299.657 117.72 299.375 116.851 299.134L113.808 298.264C111.876 297.709 110.347 296.916 109.22 295.886C108.093 294.855 107.53 293.507 107.53 291.841C107.53 290.456 107.904 289.249 108.653 288.219C109.409 287.18 110.424 286.375 111.695 285.804C112.975 285.224 114.404 284.935 115.982 284.935C117.575 284.935 118.992 285.22 120.232 285.792C121.471 286.355 122.453 287.128 123.178 288.11C123.91 289.092 124.296 290.207 124.337 291.455H121.439ZM155.388 285.273H158.382V301.645C158.382 303.335 157.983 304.844 157.187 306.173C156.398 307.493 155.283 308.535 153.842 309.3C152.401 310.056 150.711 310.435 148.771 310.435C146.831 310.435 145.141 310.056 143.7 309.3C142.259 308.535 141.14 307.493 140.344 306.173C139.555 304.844 139.16 303.335 139.16 301.645V285.273H142.155V301.403C142.155 302.611 142.42 303.685 142.952 304.627C143.483 305.561 144.239 306.297 145.221 306.837C146.211 307.368 147.395 307.634 148.771 307.634C150.148 307.634 151.331 307.368 152.321 306.837C153.311 306.297 154.068 305.561 154.591 304.627C155.122 303.685 155.388 302.611 155.388 301.403V285.273ZM173.924 310V285.273H176.918V307.344H188.413V310H173.924ZM201.259 287.929V285.273H219.805V287.929H212.029V310H209.035V287.929H201.259ZM236.983 285.273V310H233.988V285.273H236.983ZM272.157 285.273V310H269.259L255.785 290.585H255.543V310H252.549V285.273H255.447L268.969 304.736H269.211V285.273H272.157ZM304.615 293C304.349 292.187 303.999 291.459 303.564 290.815C303.137 290.163 302.626 289.607 302.031 289.148C301.443 288.69 300.775 288.339 300.026 288.098C299.278 287.857 298.457 287.736 297.563 287.736C296.098 287.736 294.766 288.114 293.567 288.871C292.368 289.627 291.414 290.742 290.705 292.215C289.997 293.688 289.643 295.495 289.643 297.636C289.643 299.777 290.001 301.585 290.718 303.058C291.434 304.531 292.404 305.645 293.627 306.402C294.851 307.159 296.227 307.537 297.757 307.537C299.173 307.537 300.421 307.235 301.499 306.631C302.586 306.02 303.431 305.158 304.035 304.048C304.647 302.929 304.953 301.613 304.953 300.099L305.87 300.293H298.433V297.636H307.85V300.293C307.85 302.329 307.416 304.1 306.546 305.605C305.685 307.11 304.494 308.277 302.972 309.107C301.459 309.928 299.721 310.338 297.757 310.338C295.567 310.338 293.643 309.823 291.985 308.793C290.335 307.762 289.047 306.297 288.122 304.398C287.204 302.498 286.745 300.244 286.745 297.636C286.745 295.68 287.007 293.922 287.53 292.36C288.061 290.79 288.81 289.454 289.776 288.352C290.742 287.249 291.885 286.404 293.205 285.816C294.525 285.228 295.978 284.935 297.563 284.935C298.867 284.935 300.083 285.132 301.21 285.526C302.345 285.913 303.355 286.464 304.24 287.18C305.134 287.889 305.878 288.738 306.474 289.728C307.07 290.71 307.48 291.801 307.705 293H304.615Z" fill="white"/>
<path d="M150.5 76L187.306 132.25H113.694L150.5 76Z" fill="#3064A0"/>
</svg>
