<svg width="339" height="403" viewBox="0 0 339 403" fill="none" xmlns="http://www.w3.org/2000/svg">
<path d="M35.9482 241.886V245.12" stroke="white" stroke-width="0.5" stroke-linecap="round"/>
<path d="M138.5 0L226.402 133.5H50.5984L138.5 0Z" fill="white"/>
<path d="M139 40L200.488 133H77.5122L139 40Z" fill="#448BBD"/>
<path d="M24.2727 248V154.909H55.7273C63.0303 154.909 69 156.227 73.6364 158.864C78.303 161.47 81.7576 165 84 169.455C86.2424 173.909 87.3636 178.879 87.3636 184.364C87.3636 189.848 86.2424 194.833 84 199.318C81.7879 203.803 78.3636 207.379 73.7273 210.045C69.0909 212.682 63.1515 214 55.9091 214H33.3636V204H55.5455C60.5455 204 64.5606 203.136 67.5909 201.409C70.6212 199.682 72.8182 197.348 74.1818 194.409C75.5758 191.439 76.2727 188.091 76.2727 184.364C76.2727 180.636 75.5758 177.303 74.1818 174.364C72.8182 171.424 70.6061 169.121 67.5455 167.455C64.4849 165.758 60.4242 164.909 55.3636 164.909H35.5455V248H24.2727Z" fill="white"/>
<line x1="27.5481" y1="245.786" x2="36.5481" y2="226.786" stroke="#20F4FF"/>
<path d="M28.9181 245.541H36.2188" stroke="#20F4FF" stroke-linecap="round"/>
<path d="M35.9724 228.907V245.387" stroke="#20F4FF" stroke-linecap="round"/>
<path d="M28.4561 245.511C28.4764 245.511 28.5275 245.521 28.6196 245.521C28.8542 245.521 28.9686 245.224 29.1331 245.075C29.3028 244.921 29.3901 244.68 29.5285 244.464C29.6624 244.255 29.8007 244.023 30.0658 243.467C30.2701 243.038 30.6561 242.331 30.8804 241.889C31.1046 241.446 31.1656 241.293 31.3394 240.93C31.5131 240.567 31.7977 239.998 31.9952 239.547C32.1927 239.096 32.2943 238.781 32.2908 238.766C32.2872 238.751 32.1754 239.046 31.8942 239.599C31.6129 240.153 31.1656 240.956 30.8946 241.43C30.5509 242.032 30.4482 242.204 30.4328 242.25C30.4122 242.312 30.5394 241.654 30.8257 240.61C30.985 240.03 31.234 239.363 31.3646 238.997C31.4952 238.631 31.5156 238.591 31.4041 238.976C31.2926 239.362 31.0486 240.175 30.9026 240.701C30.7565 241.227 30.7159 241.44 30.7102 241.484C30.7045 241.528 30.735 241.396 31.0252 240.652C31.3153 239.907 31.8643 238.555 32.1725 237.767C32.4807 236.979 32.5315 236.796 32.5577 237.104C32.5839 237.411 32.5839 238.214 32.655 238.48C32.7262 238.747 32.8685 238.452 33.1401 237.69C33.4116 236.928 33.8081 235.708 34.0225 235.06C34.2369 234.411 34.2572 234.37 34.1863 234.751C34.1155 235.131 33.9528 235.935 33.9351 235.779C33.9174 235.623 34.0496 234.485 34.1481 233.771C34.2467 233.058 34.3077 232.804 34.3341 232.79C34.3604 232.776 34.3502 233.009 34.3348 233.181C34.3093 233.465 34.5757 231.485 34.6218 231.413C34.6701 231.337 34.7399 231.739 34.8014 231.991C34.8193 232.064 34.8628 232.009 34.8836 231.952C34.9044 231.895 34.9146 231.834 34.9503 231.706C34.986 231.578 35.047 231.385 35.0937 231.647C35.1404 231.908 35.1709 232.63 35.1866 232.895C35.2023 233.16 35.2023 232.947 35.2125 232.903C35.2226 232.859 35.2429 232.991 35.2483 233.877C35.2537 234.764 35.2436 236.4 35.2231 237.152C35.2026 237.904 35.1721 237.721 35.1513 237.245C35.1305 236.77 35.1203 236.007 35.1202 235.564C35.12 235.12 35.1302 235.018 35.0744 235.774C35.0187 236.53 34.8967 238.146 34.8542 238.659C34.8436 238.786 34.9857 237.312 35.1091 237.354C35.6788 237.55 35.1105 239.735 35.1151 240.046C35.1197 240.358 35.1604 239.148 35.1305 239.369C35.1006 239.589 34.999 241.277 34.9568 241.927C34.9429 242.142 34.9762 241.742 35.0476 242.281C35.1122 242.768 35.1801 243.695 35.222 244.019C35.2639 244.343 35.2639 244.038 35.2588 243.962C35.2341 243.594 35.141 244.637 35.0744 244.679C35.0292 244.707 34.9977 244.477 34.8446 243.442C34.6915 242.408 34.4272 240.507 34.225 240.326C34.0228 240.145 33.8906 241.741 33.8581 241.953C33.8256 242.165 33.8968 240.945 33.9538 240.205C34.0108 239.465 34.0514 239.241 34.0825 238.958C34.1136 238.675 34.134 238.34 34.1445 238.197C34.1549 238.055 34.1549 238.116 34.0431 238.788C33.9313 239.46 33.7076 240.741 33.5873 241.487C33.4671 242.233 33.4569 242.406 33.4618 242.205C33.4667 242.005 33.4871 241.425 33.5941 240.344C33.7012 239.263 33.8943 237.697 33.8312 237.694C33.768 237.69 33.4427 239.297 33.4022 239.296C33.3617 239.294 33.6158 237.637 33.5333 237.424C33.4507 237.211 33.0238 238.492 32.8038 239.177C32.5839 239.862 32.5839 239.913 32.5839 239.868C32.5839 239.823 32.5839 239.681 32.7669 238.774C32.9498 237.867 33.3158 236.2 33.4992 235.377C33.6827 234.554 33.6725 234.625 33.4487 235.271C33.2249 235.918 32.7878 237.138 32.5626 237.71C32.3374 238.283 32.3374 238.171 32.3781 237.971C32.4188 237.771 32.5001 237.487 32.7402 236.867C32.9803 236.248 33.3768 235.302 33.5099 235.43C33.643 235.558 33.5006 236.788 33.4222 237.442C33.3438 238.096 33.3337 238.137 33.5317 237.609C33.7298 237.081 34.1364 235.983 34.3459 235.535C34.5554 235.086 34.5554 235.32 34.4741 235.832C34.3927 236.343 34.2301 237.126 34.1514 237.402C34.1317 237.471 34.2356 236.563 34.4513 235.634C34.5275 235.305 34.5246 235.264 34.4992 235.471C34.4738 235.679 34.4229 236.137 34.3154 236.708C34.2079 237.279 34.0453 237.95 33.9818 238.097C33.9183 238.245 33.959 237.848 34.107 237.105C34.255 236.362 34.5092 235.285 34.6553 234.592C34.8015 233.9 34.832 233.625 34.8528 233.362C34.8928 232.855 34.9247 232.492 34.9913 232.21C35.1498 231.54 35.1715 231.351 35.2328 231.131C35.3276 230.79 35.3563 230.571 35.3614 230.458C35.3624 230.436 35.3766 230.487 35.1633 231.479C34.95 232.471 34.5129 234.402 34.2826 235.458C34.0523 236.514 34.0422 236.636 34.0319 236.674C34.0215 236.711 34.0114 236.66 34.0112 237.59C34.0111 238.519 34.0212 240.43 34.0316 241.435C34.0419 242.44 34.052 242.481 34.1437 242.049C34.2353 241.618 34.4081 240.713 34.5022 240.308C34.5964 239.903 34.6065 240.025 34.5813 240.367C34.556 240.71 34.495 241.269 34.4636 240.977C34.4322 240.686 34.4322 239.527 34.3915 239.672C34.3508 239.817 34.2695 241.301 34.2276 241.969C34.1857 242.637 34.1857 242.444 34.2264 242.075C34.2671 241.706 34.3484 241.168 34.4004 241.409C34.4525 241.649 34.4728 242.686 34.4782 243.261C34.4844 243.917 34.463 244.082 34.4426 244.211C34.4104 244.414 33.6762 244.207 32.8978 244.089C32.1253 243.972 31.6095 244.011 31.4198 244.032C31.3416 244.04 31.3012 244.052 31.3514 244.088C31.5269 244.213 32.026 244.309 32.6004 244.406C33.2182 244.511 33.4972 244.597 33.5133 244.617C33.6107 244.742 32.9766 244.638 32.3629 244.587C31.541 244.519 31.044 244.442 31.0333 244.519C31.0179 244.631 31.401 244.678 32.1462 244.801C32.6843 244.89 33.5622 244.924 33.9872 244.971C34.4121 245.017 34.3613 245.048 34.2233 245.074C34.0853 245.1 33.8617 245.12 33.3043 245.1C32.7468 245.08 31.8624 245.019 31.5746 244.982C31.2867 244.946 31.6222 244.936 31.8306 244.92C32.039 244.905 32.1101 244.885 31.7605 244.869C30.6391 244.819 29.8524 244.782 29.9136 244.664C30.0084 244.482 30.3435 244.209 30.7276 243.722C31.4599 242.795 31.5156 242.359 31.4654 242.414C31.0939 242.819 30.8594 243.312 30.7569 243.507C30.6882 243.637 30.8366 243.236 31.139 242.426C31.2716 242.07 31.3905 241.839 31.6158 241.47C31.8412 241.1 32.1766 240.602 32.3393 240.417C32.4374 240.305 32.2574 241.222 31.9798 242.223C31.9321 242.396 32.2632 241.605 32.6175 240.614C32.7326 240.292 32.7379 240.345 32.6617 240.849C32.5854 241.353 32.4329 242.308 32.4001 242.734C32.3673 243.16 32.4588 243.028 32.6584 242.538C32.858 242.048 33.163 241.205 33.3201 240.79C33.4772 240.376 33.4772 240.417 33.4162 240.89C33.3552 241.363 33.2332 242.268 33.1958 242.709C33.1584 243.149 33.2092 243.099 33.271 243.016C33.4123 242.829 33.5789 242.453 33.7431 242.099C33.7928 241.991 33.8259 242.059 33.8364 242.146C33.8981 242.661 33.6935 243.26 33.6365 243.446C33.5677 243.671 33.6621 242.975 33.6621 242.959C33.6621 242.721 33.6112 243.507 33.5342 243.712C33.5036 243.794 33.508 243.836 33.4369 243.776C33.2015 243.576 33.0056 243.324 32.8673 243.211C32.7448 243.111 32.5746 243.077 32.3444 243.097C32.0579 243.123 31.7334 243.292 31.4868 243.41C31.4458 243.43 31.6579 243.059 31.9301 242.664C32.1461 242.349 31.6804 243.651 31.665 243.678C31.4902 243.975 31.8135 242.955 31.8393 242.77C31.8726 242.532 31.5984 243.128 31.5522 243.144C31.5162 243.156 31.5365 242.987 31.5162 242.98C31.1569 242.858 30.9636 243.722 30.6033 244.097C30.5296 244.174 30.4799 244.226 30.4537 244.135C30.249 243.426 30.6013 242.802 30.6433 242.599C30.6859 242.394 30.3268 243.36 30.0189 244.027C29.8997 244.286 29.8737 244.389 29.8478 244.462C29.8219 244.535 29.8016 244.575 29.7962 244.439C29.7784 243.987 29.8725 243.347 29.975 242.839C30.0494 242.471 29.3189 244.565 29.354 244.419C29.5043 243.79 29.8312 243.121 29.8324 243.005C29.8408 242.217 29.2163 244.38 29.1649 244.427C28.8762 244.69 29.3592 243.572 29.4313 243.288C29.4803 243.095 29.2681 243.988 29.1601 244.327C29.1272 244.431 29.1639 244.402 29.2 244.356C29.2811 244.252 29.3999 244.105 29.635 243.839C30.0339 243.388 30.3342 242.924 30.5338 242.546C30.7994 242.042 30.8896 241.762 30.9557 241.524C31.0323 241.248 31.1539 240.645 31.3287 240.062C31.5036 239.478 31.717 238.929 31.8321 238.626C32.0072 238.165 32.1625 237.903 32.581 237.142C32.8492 236.655 33.2733 235.763 33.5696 235.115C33.866 234.466 34.0083 234.08 34.1019 233.845C34.1956 233.61 34.2362 233.539 34.3089 233.404" stroke="#20F4FF" stroke-linecap="round"/>
<path d="M30.828 241.66C30.828 241.547 30.8483 241.322 30.9201 241.06C30.9481 240.958 30.6059 241.561 30.0259 242.557C29.8196 242.911 29.8016 242.963 29.8013 242.943C29.7995 242.831 29.8829 242.626 29.975 242.401C30.0703 242.168 30.4146 241.481 30.6829 240.923C30.4226 241.585 30.0893 242.357 29.9867 242.557C29.9452 242.645 29.9248 242.706 29.9039 242.676" stroke="#20F4FF" stroke-linecap="round"/>
<path d="M33.2616 238.764C33.4452 238.469 33.7945 237.934 34.3117 237.156C34.4941 236.882 34.6343 236.512 34.7994 236.05C34.9645 235.587 35.1271 235.028 35.2211 234.668C35.3512 234.171 35.3563 233.644 35.3614 233.039C35.3665 232.809 35.3766 232.738 35.3819 232.641C35.3871 232.543 35.3871 232.421 35.3871 232.295" stroke="#20F4FF" stroke-linecap="round"/>
<path d="M35.8184 228.198V230.94" stroke="#20F4FF" stroke-linecap="round"/>
<path d="M36.1265 228.167V229.893" stroke="#20F4FF" stroke-linecap="round"/>
<path d="M37.1663 226.072C36.9968 226.91 36.9026 227.417 36.9067 227.596C37.0248 226.62 37.0342 226.384 37.0483 226.215C37.0531 226.129 37.0531 226.045 37.0531 225.959" stroke="white" stroke-linecap="round"/>
<path d="M36.9117 226.327C36.9117 226.383 36.9023 226.916 36.8975 227.759C36.8934 228.486 36.996 228.954 37.0248 229.339C37.0362 229.491 36.9968 228.827 36.9497 228.273C36.8822 227.479 36.9023 226.931 36.8882 226.776C36.8467 226.32 36.7985 225.865 36.7845 225.855C36.6801 225.781 36.6857 226.539 36.6386 227.274C36.6178 227.599 36.6005 227.88 36.5772 228.061C36.5539 228.018 36.5072 227.7 36.4831 227.35C36.4591 227 36.4591 226.626 36.4591 226.242" stroke="white" stroke-linecap="round"/>
<path d="M36.9401 225.81V230.647" stroke="white" stroke-linecap="round"/>
<path d="M36.3743 226.772V229.459" stroke="white" stroke-linecap="round"/>
<path d="M36.4309 227.366V230.704" stroke="white" stroke-linecap="round"/>
<path d="M36.4591 230.704V242.923" stroke="white" stroke-linecap="round"/>
<path d="M36.3459 242.768C36.3459 242.992 36.3459 243.216 36.3459 243.952C36.3459 244.688 36.3459 245.929 36.3459 245.58C36.3459 245.23 36.3459 243.251 36.3459 242.908C36.3459 242.565 36.3459 243.919 36.3459 245.313" stroke="white" stroke-linecap="round"/>
<path d="M36.4591 244.154V247.378" stroke="white" stroke-linecap="round"/>
<path d="M36.1763 231.482V246.388" stroke="white" stroke-linecap="round"/>
<path d="M36.0066 225.747V231.687" stroke="white" stroke-linecap="round"/>
<path d="M36.0631 231.701V246.919" stroke="white" stroke-linecap="round"/>
<path d="M27.5958 245.774V246.024" stroke="#20F4FF" stroke-linecap="round"/>
<path d="M27.9636 246.523H35.0176" stroke="#20F4FF" stroke-linecap="round"/>
<path d="M27.9373 247.416H35.07" stroke="#20F4FF" stroke-linecap="round"/>
<path d="M34.7679 245.249V247.206" stroke="#20F4FF" stroke-linecap="round"/>
<path d="M35.0044 245.814V247.522" stroke="#20F4FF" stroke-linecap="round"/>
<path d="M28.9488 244.605C28.8534 244.787 28.7581 244.97 28.6569 245.146C28.4588 245.491 28.3272 245.704 28.2814 245.867C28.2493 245.982 28.214 246.165 28.1982 246.233C28.1825 246.3 28.1911 246.248 28.2433 246.074C28.2954 245.9 28.3908 245.605 28.4421 245.44C28.4934 245.276 28.4977 245.25 28.4089 245.368C28.3201 245.487 28.1381 245.752 28.0399 245.899C27.8953 246.115 27.8325 246.242 27.7515 246.393C27.6796 246.528 27.6135 246.689 27.5829 246.705C27.4862 246.754 27.6959 246.406 27.7555 246.248C27.767 246.217 27.7794 246.187 27.7861 246.191C27.8957 246.254 27.7361 246.509 27.616 246.922C27.5734 247.069 27.5695 247.236 27.5456 247.355C27.5389 247.377 27.5346 247.403 27.528 247.425C27.5215 247.447 27.5128 247.464 27.4907 247.508" stroke="#20F4FF" stroke-linecap="round"/>
<path d="M26.4004 247.364H27.8716" stroke="#20F4FF" stroke-linecap="round"/>
<path d="M26.2428 247.403H30.617" stroke="#20F4FF" stroke-linecap="round"/>
<path d="M27.6481 245.439C27.6385 245.446 27.6289 245.452 27.5027 245.62C27.3765 245.787 27.134 246.116 27.0027 246.298C26.8274 246.541 26.7557 246.641 26.6638 246.783C26.4426 247.099 26.4041 247.176 26.362 247.247C26.3523 247.264 26.3427 247.28 26.3329 247.315" stroke="#20F4FF" stroke-linecap="round"/>
<path d="M26.4779 247.431H34.079" stroke="#20F4FF" stroke-linecap="round"/>
<path d="M26.1008 247.576H35.1719" stroke="#20F4FF" stroke-linecap="round"/>
<path d="M110.273 248V154.909H141.727C149.03 154.909 155 156.227 159.636 158.864C164.303 161.47 167.758 165 170 169.455C172.242 173.909 173.364 178.879 173.364 184.364C173.364 189.848 172.242 194.833 170 199.318C167.788 203.803 164.364 207.379 159.727 210.045C155.091 212.682 149.152 214 141.909 214H119.364V204H141.545C146.545 204 150.561 203.136 153.591 201.409C156.621 199.682 158.818 197.348 160.182 194.409C161.576 191.439 162.273 188.091 162.273 184.364C162.273 180.636 161.576 177.303 160.182 174.364C158.818 171.424 156.606 169.121 153.545 167.455C150.485 165.758 146.424 164.909 141.364 164.909H121.545V248H110.273Z" fill="white"/>
<line x1="113.548" y1="245.786" x2="122.548" y2="226.786" stroke="#20F4FF"/>
<path d="M114.918 245.541H122.219" stroke="#20F4FF" stroke-linecap="round"/>
<path d="M121.972 228.907V245.387" stroke="#20F4FF" stroke-linecap="round"/>
<path d="M114.456 245.511C114.476 245.511 114.528 245.521 114.62 245.521C114.854 245.521 114.969 245.224 115.133 245.075C115.303 244.921 115.39 244.68 115.529 244.464C115.662 244.255 115.801 244.023 116.066 243.467C116.27 243.038 116.656 242.331 116.88 241.889C117.105 241.446 117.166 241.293 117.339 240.93C117.513 240.567 117.798 239.998 117.995 239.547C118.193 239.096 118.294 238.781 118.291 238.766C118.287 238.751 118.175 239.046 117.894 239.599C117.613 240.153 117.166 240.956 116.895 241.43C116.551 242.032 116.448 242.204 116.433 242.25C116.412 242.312 116.539 241.654 116.826 240.61C116.985 240.03 117.234 239.363 117.365 238.997C117.495 238.631 117.516 238.591 117.404 238.976C117.293 239.362 117.049 240.175 116.903 240.701C116.757 241.227 116.716 241.44 116.71 241.484C116.704 241.528 116.735 241.396 117.025 240.652C117.315 239.907 117.864 238.555 118.172 237.767C118.481 236.979 118.532 236.796 118.558 237.104C118.584 237.411 118.584 238.214 118.655 238.48C118.726 238.747 118.869 238.452 119.14 237.69C119.412 236.928 119.808 235.708 120.022 235.06C120.237 234.411 120.257 234.37 120.186 234.751C120.115 235.131 119.953 235.935 119.935 235.779C119.917 235.623 120.05 234.485 120.148 233.771C120.247 233.058 120.308 232.804 120.334 232.79C120.36 232.776 120.35 233.009 120.335 233.181C120.309 233.465 120.576 231.485 120.622 231.413C120.67 231.337 120.74 231.739 120.801 231.991C120.819 232.064 120.863 232.009 120.884 231.952C120.904 231.895 120.915 231.834 120.95 231.706C120.986 231.578 121.047 231.385 121.094 231.647C121.14 231.908 121.171 232.63 121.187 232.895C121.202 233.16 121.202 232.947 121.212 232.903C121.223 232.859 121.243 232.991 121.248 233.877C121.254 234.764 121.244 236.4 121.223 237.152C121.203 237.904 121.172 237.721 121.151 237.245C121.131 236.77 121.12 236.007 121.12 235.564C121.12 235.12 121.13 235.018 121.074 235.774C121.019 236.53 120.897 238.146 120.854 238.659C120.844 238.786 120.986 237.312 121.109 237.354C121.679 237.55 121.11 239.735 121.115 240.046C121.12 240.358 121.16 239.148 121.131 239.369C121.101 239.589 120.999 241.277 120.957 241.927C120.943 242.142 120.976 241.742 121.048 242.281C121.112 242.768 121.18 243.695 121.222 244.019C121.264 244.343 121.264 244.038 121.259 243.962C121.234 243.594 121.141 244.637 121.074 244.679C121.029 244.707 120.998 244.477 120.845 243.442C120.692 242.408 120.427 240.507 120.225 240.326C120.023 240.145 119.891 241.741 119.858 241.953C119.826 242.165 119.897 240.945 119.954 240.205C120.011 239.465 120.051 239.241 120.083 238.958C120.114 238.675 120.134 238.34 120.144 238.197C120.155 238.055 120.155 238.116 120.043 238.788C119.931 239.46 119.708 240.741 119.587 241.487C119.467 242.233 119.457 242.406 119.462 242.205C119.467 242.005 119.487 241.425 119.594 240.344C119.701 239.263 119.894 237.697 119.831 237.694C119.768 237.69 119.443 239.297 119.402 239.296C119.362 239.294 119.616 237.637 119.533 237.424C119.451 237.211 119.024 238.492 118.804 239.177C118.584 239.862 118.584 239.913 118.584 239.868C118.584 239.823 118.584 239.681 118.767 238.774C118.95 237.867 119.316 236.2 119.499 235.377C119.683 234.554 119.673 234.625 119.449 235.271C119.225 235.918 118.788 237.138 118.563 237.71C118.337 238.283 118.337 238.171 118.378 237.971C118.419 237.771 118.5 237.487 118.74 236.867C118.98 236.248 119.377 235.302 119.51 235.43C119.643 235.558 119.501 236.788 119.422 237.442C119.344 238.096 119.334 238.137 119.532 237.609C119.73 237.081 120.136 235.983 120.346 235.535C120.555 235.086 120.555 235.32 120.474 235.832C120.393 236.343 120.23 237.126 120.151 237.402C120.132 237.471 120.236 236.563 120.451 235.634C120.528 235.305 120.525 235.264 120.499 235.471C120.474 235.679 120.423 236.137 120.315 236.708C120.208 237.279 120.045 237.95 119.982 238.097C119.918 238.245 119.959 237.848 120.107 237.105C120.255 236.362 120.509 235.285 120.655 234.592C120.802 233.9 120.832 233.625 120.853 233.362C120.893 232.855 120.925 232.492 120.991 232.21C121.15 231.54 121.171 231.351 121.233 231.131C121.328 230.79 121.356 230.571 121.361 230.458C121.362 230.436 121.377 230.487 121.163 231.479C120.95 232.471 120.513 234.402 120.283 235.458C120.052 236.514 120.042 236.636 120.032 236.674C120.022 236.711 120.011 236.66 120.011 237.59C120.011 238.519 120.021 240.43 120.032 241.435C120.042 242.44 120.052 242.481 120.144 242.049C120.235 241.618 120.408 240.713 120.502 240.308C120.596 239.903 120.607 240.025 120.581 240.367C120.556 240.71 120.495 241.269 120.464 240.977C120.432 240.686 120.432 239.527 120.392 239.672C120.351 239.817 120.27 241.301 120.228 241.969C120.186 242.637 120.186 242.444 120.226 242.075C120.267 241.706 120.348 241.168 120.4 241.409C120.452 241.649 120.473 242.686 120.478 243.261C120.484 243.917 120.463 244.082 120.443 244.211C120.41 244.414 119.676 244.207 118.898 244.089C118.125 243.972 117.61 244.011 117.42 244.032C117.342 244.04 117.301 244.052 117.351 244.088C117.527 244.213 118.026 244.309 118.6 244.406C119.218 244.511 119.497 244.597 119.513 244.617C119.611 244.742 118.977 244.638 118.363 244.587C117.541 244.519 117.044 244.442 117.033 244.519C117.018 244.631 117.401 244.678 118.146 244.801C118.684 244.89 119.562 244.924 119.987 244.971C120.412 245.017 120.361 245.048 120.223 245.074C120.085 245.1 119.862 245.12 119.304 245.1C118.747 245.08 117.862 245.019 117.575 244.982C117.287 244.946 117.622 244.936 117.831 244.92C118.039 244.905 118.11 244.885 117.76 244.869C116.639 244.819 115.852 244.782 115.914 244.664C116.008 244.482 116.343 244.209 116.728 243.722C117.46 242.795 117.516 242.359 117.465 242.414C117.094 242.819 116.859 243.312 116.757 243.507C116.688 243.637 116.837 243.236 117.139 242.426C117.272 242.07 117.391 241.839 117.616 241.47C117.841 241.1 118.177 240.602 118.339 240.417C118.437 240.305 118.257 241.222 117.98 242.223C117.932 242.396 118.263 241.605 118.617 240.614C118.733 240.292 118.738 240.345 118.662 240.849C118.585 241.353 118.433 242.308 118.4 242.734C118.367 243.16 118.459 243.028 118.658 242.538C118.858 242.048 119.163 241.205 119.32 240.79C119.477 240.376 119.477 240.417 119.416 240.89C119.355 241.363 119.233 242.268 119.196 242.709C119.158 243.149 119.209 243.099 119.271 243.016C119.412 242.829 119.579 242.453 119.743 242.099C119.793 241.991 119.826 242.059 119.836 242.146C119.898 242.661 119.693 243.26 119.636 243.446C119.568 243.671 119.662 242.975 119.662 242.959C119.662 242.721 119.611 243.507 119.534 243.712C119.504 243.794 119.508 243.836 119.437 243.776C119.201 243.576 119.006 243.324 118.867 243.211C118.745 243.111 118.575 243.077 118.344 243.097C118.058 243.123 117.733 243.292 117.487 243.41C117.446 243.43 117.658 243.059 117.93 242.664C118.146 242.349 117.68 243.651 117.665 243.678C117.49 243.975 117.813 242.955 117.839 242.77C117.873 242.532 117.598 243.128 117.552 243.144C117.516 243.156 117.537 242.987 117.516 242.98C117.157 242.858 116.964 243.722 116.603 244.097C116.53 244.174 116.48 244.226 116.454 244.135C116.249 243.426 116.601 242.802 116.643 242.599C116.686 242.394 116.327 243.36 116.019 244.027C115.9 244.286 115.874 244.389 115.848 244.462C115.822 244.535 115.802 244.575 115.796 244.439C115.778 243.987 115.872 243.347 115.975 242.839C116.049 242.471 115.319 244.565 115.354 244.419C115.504 243.79 115.831 243.121 115.832 243.005C115.841 242.217 115.216 244.38 115.165 244.427C114.876 244.69 115.359 243.572 115.431 243.288C115.48 243.095 115.268 243.988 115.16 244.327C115.127 244.431 115.164 244.402 115.2 244.356C115.281 244.252 115.4 244.105 115.635 243.839C116.034 243.388 116.334 242.924 116.534 242.546C116.799 242.042 116.89 241.762 116.956 241.524C117.032 241.248 117.154 240.645 117.329 240.062C117.504 239.478 117.717 238.929 117.832 238.626C118.007 238.165 118.162 237.903 118.581 237.142C118.849 236.655 119.273 235.763 119.57 235.115C119.866 234.466 120.008 234.08 120.102 233.845C120.196 233.61 120.236 233.539 120.309 233.404" stroke="#20F4FF" stroke-linecap="round"/>
<path d="M116.828 241.66C116.828 241.547 116.848 241.322 116.92 241.06C116.948 240.958 116.606 241.561 116.026 242.557C115.82 242.911 115.802 242.963 115.801 242.943C115.8 242.831 115.883 242.626 115.975 242.401C116.07 242.168 116.415 241.481 116.683 240.923C116.423 241.585 116.089 242.357 115.987 242.557C115.945 242.645 115.925 242.706 115.904 242.676" stroke="#20F4FF" stroke-linecap="round"/>
<path d="M119.262 238.764C119.445 238.469 119.795 237.934 120.312 237.156C120.494 236.882 120.634 236.512 120.799 236.05C120.965 235.587 121.127 235.028 121.221 234.668C121.351 234.171 121.356 233.644 121.362 233.039C121.367 232.809 121.377 232.738 121.382 232.641C121.387 232.543 121.387 232.421 121.387 232.295" stroke="#20F4FF" stroke-linecap="round"/>
<path d="M121.818 228.198V230.94" stroke="#20F4FF" stroke-linecap="round"/>
<path d="M122.126 228.167V229.893" stroke="#20F4FF" stroke-linecap="round"/>
<path d="M123.166 226.072C122.997 226.91 122.903 227.417 122.907 227.596C123.025 226.62 123.034 226.384 123.048 226.215C123.053 226.129 123.053 226.045 123.053 225.959" stroke="white" stroke-linecap="round"/>
<path d="M122.912 226.327C122.912 226.383 122.902 226.916 122.897 227.759C122.893 228.486 122.996 228.954 123.025 229.339C123.036 229.491 122.997 228.827 122.95 228.273C122.882 227.479 122.902 226.931 122.888 226.776C122.847 226.32 122.798 225.865 122.784 225.855C122.68 225.781 122.686 226.539 122.638 227.274C122.618 227.599 122.6 227.88 122.577 228.061C122.554 228.018 122.507 227.7 122.483 227.35C122.459 227 122.459 226.626 122.459 226.242" stroke="white" stroke-linecap="round"/>
<path d="M122.94 225.81V230.647" stroke="white" stroke-linecap="round"/>
<path d="M122.374 226.772V229.459" stroke="white" stroke-linecap="round"/>
<path d="M122.431 227.366V230.704" stroke="white" stroke-linecap="round"/>
<path d="M122.459 230.704V242.923" stroke="white" stroke-linecap="round"/>
<path d="M122.346 242.768C122.346 242.992 122.346 243.216 122.346 243.952C122.346 244.688 122.346 245.929 122.346 245.58C122.346 245.23 122.346 243.251 122.346 242.908C122.346 242.565 122.346 243.919 122.346 245.313" stroke="white" stroke-linecap="round"/>
<path d="M122.459 244.154V247.378" stroke="white" stroke-linecap="round"/>
<path d="M122.176 231.482V246.388" stroke="white" stroke-linecap="round"/>
<path d="M122.007 225.747V231.687" stroke="white" stroke-linecap="round"/>
<path d="M122.063 231.701V246.919" stroke="white" stroke-linecap="round"/>
<path d="M113.596 245.774V246.024" stroke="#20F4FF" stroke-linecap="round"/>
<path d="M113.964 246.523H121.018" stroke="#20F4FF" stroke-linecap="round"/>
<path d="M113.937 247.416H121.07" stroke="#20F4FF" stroke-linecap="round"/>
<path d="M120.768 245.249V247.206" stroke="#20F4FF" stroke-linecap="round"/>
<path d="M121.004 245.814V247.522" stroke="#20F4FF" stroke-linecap="round"/>
<path d="M114.949 244.605C114.853 244.787 114.758 244.97 114.657 245.146C114.459 245.491 114.327 245.704 114.281 245.867C114.249 245.982 114.214 246.165 114.198 246.233C114.182 246.3 114.191 246.248 114.243 246.074C114.295 245.9 114.391 245.605 114.442 245.44C114.493 245.276 114.498 245.25 114.409 245.368C114.32 245.487 114.138 245.752 114.04 245.899C113.895 246.115 113.833 246.242 113.752 246.393C113.68 246.528 113.614 246.689 113.583 246.705C113.486 246.754 113.696 246.406 113.755 246.248C113.767 246.217 113.779 246.187 113.786 246.191C113.896 246.254 113.736 246.509 113.616 246.922C113.573 247.069 113.57 247.236 113.546 247.355C113.539 247.377 113.535 247.403 113.528 247.425C113.521 247.447 113.513 247.464 113.491 247.508" stroke="#20F4FF" stroke-linecap="round"/>
<path d="M112.4 247.364H113.872" stroke="#20F4FF" stroke-linecap="round"/>
<path d="M112.243 247.403H116.617" stroke="#20F4FF" stroke-linecap="round"/>
<path d="M113.648 245.439C113.639 245.446 113.629 245.452 113.503 245.62C113.377 245.787 113.134 246.116 113.003 246.298C112.828 246.541 112.756 246.641 112.664 246.783C112.443 247.099 112.404 247.176 112.362 247.247C112.352 247.264 112.343 247.28 112.333 247.315" stroke="#20F4FF" stroke-linecap="round"/>
<path d="M112.478 247.431H120.079" stroke="#20F4FF" stroke-linecap="round"/>
<path d="M112.101 247.576H121.172" stroke="#20F4FF" stroke-linecap="round"/>
<path d="M200.091 249H188.273L222.455 155.909H234.091L268.273 249H256.455L228.636 170.636H227.909L200.091 249ZM204.455 212.636H252.091V222.636H204.455V212.636Z" fill="white"/>
<path d="M196.681 226.859H207.332" stroke="#20F4FF" stroke-linecap="round"/>
<path d="M248.971 227.548H260.023" stroke="#20F4FF" stroke-linecap="round"/>
<path d="M188.533 248.822L197 227" stroke="#20F4FF"/>
<line x1="189" y1="248.5" x2="200" y2="248.5" stroke="#20F4FF"/>
<line x1="199.53" y1="248.829" x2="207.53" y2="226.829" stroke="#20F4FF"/>
<path d="M198.956 234.871C198.938 234.889 198.92 234.907 198.57 235.145C198.22 235.383 197.539 235.84 197.129 236.102C196.72 236.365 196.603 236.419 196.588 236.388C196.573 236.358 196.663 236.241 197.13 235.334C197.598 234.426 198.441 232.731 198.889 231.777C199.336 230.824 199.363 230.662 199.364 230.597C199.364 230.532 199.337 230.568 198.938 231.46C198.538 232.353 197.767 234.102 197.293 235.254C196.82 236.406 196.668 236.908 196.576 237.341C196.484 237.775 196.457 238.125 196.479 238.26C196.501 238.395 196.572 238.306 197.304 236.811C198.036 235.317 199.426 232.42 200.165 230.865C200.903 229.311 200.948 229.185 200.922 229.201C200.896 229.217 200.797 229.378 200.123 230.834C199.449 232.289 198.202 235.033 197.529 236.581C196.855 238.129 196.793 238.398 197.666 237.362C198.539 236.326 200.351 233.976 200.705 234.129C201.06 234.282 199.903 237.008 199.321 238.394C198.738 239.781 198.765 239.745 199.443 238.184C200.12 236.623 201.447 233.538 202.127 232.061C202.806 230.584 202.797 230.808 202.761 231.135C202.725 231.461 202.662 231.882 202.374 233.041C202.086 234.2 201.575 236.083 201.298 237.152C201.022 238.22 200.995 238.418 200.99 238.497C200.985 238.576 201.003 238.531 201.075 238.396C201.147 238.261 201.272 238.037 201.83 236.706C202.388 235.376 203.375 232.945 203.533 232.756C203.691 232.567 202.992 234.692 202.632 235.661C202.271 236.631 202.271 236.38 202.285 236.161C202.298 235.942 202.325 235.762 202.37 235.558C202.416 235.353 202.478 235.129 202.543 234.898" stroke="#20F4FF" stroke-linecap="round"/>
<path d="M196.973 231.148C196.999 231.256 197.09 231.492 197.217 231.619C197.245 231.648 197.289 231.637 197.37 231.597C197.451 231.556 197.577 231.476 197.812 231.219C198.047 230.962 198.388 230.532 198.689 230.184C199.222 229.569 199.571 229.283 199.68 229.246C199.716 229.234 199.717 229.317 199.565 229.753C199.412 230.189 199.107 230.996 198.946 231.43C198.784 231.863 198.775 231.899 198.802 231.868C198.829 231.837 198.892 231.739 199.058 231.401C199.225 231.063 199.494 230.489 199.682 230.032C199.998 229.264 200.07 228.857 200.017 228.762C199.936 228.619 199.35 228.801 198.694 228.91C198.319 228.972 198.106 228.929 197.952 228.897C197.888 228.884 197.852 228.875 197.919 228.857C197.985 228.839 198.156 228.812 199.127 228.802C200.098 228.793 201.864 228.802 202.792 228.802C203.821 228.802 203.982 228.702 204.353 228.563C204.567 228.482 204.77 228.422 204.975 228.421C205.127 228.421 204.781 228.747 204.56 229.014C204.486 229.103 204.384 229.199 203.885 229.917C203.386 230.636 202.489 231.972 201.646 233.517C200.803 235.062 200.04 236.775 199.832 237.168C199.623 237.562 199.99 236.584 200.27 235.911C200.549 235.237 200.728 234.896 201.018 234.433C201.307 233.971 201.702 233.397 202.008 232.985C202.315 232.572 202.521 232.339 202.645 232.278C202.769 232.216 202.805 232.332 202.824 232.513C202.842 232.695 202.842 232.937 202.811 233.245C202.779 233.554 202.717 233.921 202.514 234.6C202.311 235.278 201.97 236.255 201.786 236.777C201.601 237.298 201.583 237.334 201.839 236.604C202.094 235.873 202.623 234.376 202.99 233.416C203.357 232.456 203.545 232.08 203.633 231.939C203.674 231.874 203.487 232.52 203.09 233.438C202.759 234.2 202.471 234.535 202.444 234.585C202.428 234.613 202.488 234.392 202.668 233.888C202.803 233.512 202.992 232.882 203.246 232.236C203.5 231.589 203.805 230.944 203.648 231.091C203.492 231.238 202.864 232.197 202.464 232.781C202.065 233.365 201.912 233.545 201.775 233.686C201.639 233.828 201.522 233.927 201.861 233.475C202.2 233.024 202.998 232.02 203.477 231.395C203.955 230.77 204.089 230.555 204.127 230.538C204.286 230.468 204.038 230.984 204.132 231.035C204.424 231.192 204.716 230.588 204.866 230.433C205.066 230.227 204.42 231.192 204.008 231.545C203.901 231.637 203.777 231.699 203.762 231.615C203.747 231.531 203.837 231.289 203.999 230.886C204.162 230.483 204.395 229.927 204.529 229.592C204.782 228.956 204.907 228.658 205.038 228.422C205.146 228.229 205.369 228.114 205.478 227.974C205.578 227.844 205.704 227.77 205.74 227.742C205.747 227.737 205.705 227.805 204.808 228.783C203.911 229.761 202.153 231.662 201.028 232.964C199.903 234.267 199.463 234.912 199.228 235.263C198.993 235.613 198.975 235.649 199.36 234.901C199.745 234.153 200.535 232.619 200.95 231.793C201.365 230.968 201.383 230.896 200.855 231.684C200.326 232.472 199.25 234.122 198.592 235.089C197.935 236.055 197.729 236.288 197.784 235.713C197.839 235.139 198.162 233.749 198.332 232.956C198.503 232.164 198.512 232.012 198.346 232.162C198.181 232.312 197.84 232.769 197.377 233.511C196.915 234.254 196.341 235.267 196.054 235.592C195.768 235.917 195.786 235.522 195.97 234.727C196.154 233.932 196.504 232.748 196.625 232.358C196.747 231.968 196.631 232.407 196.355 233.154C196.08 233.9 195.65 234.94 195.41 235.503C195.17 236.066 195.135 236.12 195.116 236.13C195.088 236.145 195.322 235.546 195.742 234.624C196.058 233.932 196.401 233.523 196.613 233.364C196.676 233.316 196.71 233.5 196.714 233.709C196.719 233.917 196.71 234.186 196.508 235.064C196.306 235.943 195.912 237.422 195.722 238.171C195.532 238.92 195.559 238.893 195.802 238.296C196.044 237.7 196.501 236.534 196.818 235.803C197.134 235.073 197.295 234.813 197.379 234.706C197.462 234.599 197.462 234.652 197.421 234.815C197.381 234.977 197.3 235.246 197.035 235.873C196.769 236.5 196.32 237.478 195.776 238.461C195.231 239.445 194.603 240.404 194.266 240.93C193.929 241.455 193.902 241.518 194.09 240.829C194.278 240.139 194.682 238.695 194.643 238.647C194.604 238.598 194.111 239.988 193.799 240.811C193.486 241.635 193.37 241.85 193.278 242.042C193.187 242.233 193.124 242.395 193.329 241.814C193.535 241.234 194.01 239.907 194.255 239.245C194.5 238.584 194.5 238.629 194.132 239.495C193.764 240.361 193.029 242.047 193.35 241.893C193.67 241.739 195.069 239.695 195.808 238.597C196.546 237.499 196.582 237.409 196.336 238.058C196.09 238.706 195.561 240.096 195.23 241.064C194.899 242.031 194.783 242.533 194.723 242.814C194.663 243.095 194.663 243.14 194.735 243.127C194.806 243.114 194.95 243.043 195.678 242.391C196.407 241.74 197.716 240.512 198.462 239.825C199.208 239.138 199.352 239.031 199.417 239.056C199.482 239.081 199.464 239.243 199.401 239.492C199.338 239.741 199.23 240.072 198.874 240.84C198.518 241.607 197.918 242.8 197.613 243.392C197.308 243.984 197.317 243.939 197.599 243.315C197.882 242.691 198.438 241.489 199.016 240.462C199.593 239.435 200.176 238.619 200.643 238.037C201.109 237.456 201.44 237.133 201.593 237.034C201.746 236.935 201.711 237.069 201.221 238.12C200.732 239.172 199.79 241.136 199.292 242.165C198.793 243.195 198.767 243.231 199.174 242.698C199.582 242.165 200.425 241.062 200.877 240.462C201.329 239.862 201.365 239.8 201.402 239.708" stroke="#20F4FF" stroke-width="3" stroke-linecap="round"/>
<path d="M200.641 241.236C200.506 241.443 200.372 241.649 199.89 242.562C199.408 243.475 198.583 245.09 198.176 245.872C197.769 246.654 197.805 246.555 197.85 246.455C197.896 246.355 197.95 246.256 198.166 245.775C198.382 245.294 198.758 244.433 198.984 243.936C199.26 243.326 199.354 243.148 199.368 243.098C199.374 243.077 199.337 243.236 199.157 243.717C198.978 244.199 198.646 245.042 198.47 245.503C198.295 245.964 198.286 246.018 198.295 246.059C198.332 246.235 198.485 246.39 198.539 246.494C198.579 246.572 198.72 246.31 198.896 246.008C199.202 245.482 199.408 244.925 199.521 244.644C199.547 244.58 199.366 245.162 199.026 245.986C198.904 246.282 198.875 246.326 198.866 245.883C198.856 245.44 198.865 244.507 198.973 243.367C199.081 242.228 199.287 240.91 199.398 239.993C199.509 239.076 199.518 238.601 199.518 238.338C199.518 238.075 199.509 238.04 199.464 238.026C199.419 238.012 199.338 238.021 199.077 238.24C198.345 238.856 197.879 239.361 197.815 239.348C197.67 239.318 197.922 238.561 198.085 237.728C198.145 237.424 198.141 237.361 197.778 237.638C197.415 237.915 196.688 238.534 196.292 238.861C195.895 239.189 195.85 239.207 195.818 239.167C195.726 239.052 195.75 238.702 195.763 238.251C195.777 237.797 195.831 237.433 195.804 237.248C195.726 236.708 194.663 238.174 194.568 238.197C194.318 238.258 194.616 237.364 194.703 237.106C194.775 236.896 194.213 238.015 193.92 238.505C193.884 238.591 193.866 238.673 193.852 238.866C193.847 239.015 193.847 239.266 193.847 239.524" stroke="#20F4FF" stroke-width="3" stroke-linecap="round"/>
<path d="M193.657 241.535C193.657 241.616 193.657 241.697 193.523 242.101C193.388 242.506 193.119 243.233 192.927 243.714C192.646 244.419 192.48 244.732 192.354 245.025C191.98 245.893 191.846 246.091 191.719 246.313C191.7 246.346 191.665 245.986 191.683 245.434C191.7 244.894 191.891 244.499 191.986 244.245C192.066 244.032 192.126 243.819 192.163 243.696C192.19 243.604 191.83 244.186 191.499 244.796C191.136 245.468 191.086 245.925 190.931 246.235C190.77 246.558 190.669 246.743 190.506 246.911C190.463 246.955 190.416 246.987 190.375 247.024C190.333 247.06 190.298 247.096 190.736 247.124C191.175 247.151 192.09 247.169 192.673 247.151C193.257 247.134 193.481 247.08 193.641 247.03C193.801 246.98 193.891 246.935 194.287 246.656C194.683 246.377 195.382 245.866 195.774 245.572C196.166 245.277 196.229 245.214 196.283 245.164C196.338 245.114 196.383 245.078 196.168 244.965C195.954 244.852 195.479 244.664 195.131 244.554C194.586 244.381 194.265 244.389 194.004 244.433C193.6 244.503 193.323 244.696 193.161 244.804C192.915 244.968 192.707 245.194 192.589 245.375C192.54 245.45 192.561 245.52 192.579 245.565C192.648 245.738 192.976 245.828 193.794 245.901C194.493 245.963 195.033 246.181 195.286 246.276C195.602 246.395 195.857 246.716 196.246 247.064C196.435 247.232 196.564 247.341 196.686 247.368C196.993 247.437 197.378 247.152 197.62 247.083C197.764 247.042 197.95 247.052 198.118 247.079C198.204 247.097 198.286 247.124 198.371 247.151C198.421 247.16 198.484 247.16 198.549 247.133" stroke="#20F4FF" stroke-width="3" stroke-linecap="round"/>
<path d="M253.363 229.061C253.389 229.19 253.505 229.807 253.685 230.716C253.78 231.195 253.968 231.69 254.169 232.376C254.37 233.062 254.6 233.92 255.071 234.887C255.542 235.854 256.246 236.904 256.628 237.49C257.167 238.316 257.269 238.592 257.392 238.8C257.423 238.852 257.45 238.903 257.482 238.955C257.515 239.007 257.553 239.058 257.496 237.574C257.439 236.089 257.285 233.067 257.296 232.138C257.3 231.761 257.798 234.115 257.999 234.088C258.387 234.037 258.084 232.564 258.039 231.637C257.995 230.711 257.892 230.032 257.948 229.945C258.228 229.511 258.613 231.193 258.91 231.658C259.115 231.979 259.286 232.216 259.434 232.474C259.877 233.244 260.424 234.116 260.573 234.531C260.671 234.932 260.85 235.678 261.026 236.625C261.046 236.795 261.046 236.884 261.085 237.054" stroke="#20F4FF" stroke-width="3" stroke-linecap="round"/>
<path d="M260.774 236.628C260.774 236.884 260.774 237.272 260.838 237.922C260.877 238.32 261.03 238.842 261.243 239.579C261.457 240.317 261.751 241.252 261.935 241.797C262.257 242.754 262.442 243.183 262.584 243.61C262.706 243.975 262.972 244.694 263.095 245.047C263.166 245.247 263.269 245.614 263.419 245.907C263.483 246.032 263.606 246.172 263.697 246.218C263.853 246.297 263.543 245.773 263.222 245.265C262.564 244.226 262.003 243.573 261.9 243.489C261.847 243.446 261.797 243.393 261.265 242.131C260.733 240.869 259.721 238.398 259.194 237.099C258.666 235.8 258.653 235.749 258.653 235.838C258.653 235.927 258.666 236.157 258.756 236.967C258.845 237.778 259.012 239.16 259.098 240.065C259.22 241.351 259.171 241.839 259.151 242.077C259.139 242.225 259.145 242.431 258.613 241.166C258.082 239.902 257.019 237.161 256.452 235.673C255.886 234.185 255.847 234.031 256.052 234.682C256.256 235.332 256.704 236.792 257.383 238.331C258.062 239.871 258.958 241.446 259.478 242.424C259.997 243.401 260.112 243.734 259.941 243.483C259.77 243.232 259.309 242.387 258.425 240.934C257.541 239.481 256.248 237.445 255.351 235.762C254.454 234.08 253.993 232.812 253.782 232.293C253.57 231.775 253.621 232.044 253.814 232.726C254.007 233.409 254.339 234.497 254.53 234.597C254.721 234.697 254.759 233.775 254.83 233.102C254.944 232.023 255.225 231.353 255.463 230.869C255.792 230.202 256.207 229.904 256.66 229.663C256.746 229.618 256.803 229.618 256.816 229.586C256.83 229.553 256.804 229.502 256.727 229.463C256.357 229.275 256.016 229.307 255.473 229.294C255.1 229.285 256.362 229.217 256.955 229.184C257.314 229.178 257.967 229.178 258.336 229.171C258.704 229.165 258.768 229.152 258.951 229.139" stroke="#20F4FF" stroke-width="3" stroke-linecap="round"/>
<path d="M257.398 229.217C257.322 229.217 256.642 229.357 255.64 229.571C255.09 229.688 254.8 229.708 254.064 229.727C253.468 229.743 252.821 229.734 252.588 229.676C252.381 229.592 252.225 229.527 252.116 229.463C252.057 229.437 251.993 229.424 251.927 229.411" stroke="#20F4FF" stroke-width="3" stroke-linecap="round"/>
<path d="M251.927 229.527C251.966 229.861 252.198 230.765 252.489 231.632C252.652 232.117 252.832 232.424 252.948 232.604C253.119 232.87 253.4 233.391 253.832 234.126C254.308 234.934 254.398 235.515 254.449 235.631C254.51 235.768 254.591 236.12 254.695 236.605C254.772 236.969 254.901 237.567 255.121 238.265C255.278 238.766 255.354 239.289 255.548 239.839C255.788 240.522 256.039 241.217 256.233 241.611C256.493 242.14 256.841 242.834 257.184 243.692C257.482 244.439 257.696 245.136 257.78 245.434C257.816 245.562 257.851 245.693 257.934 245.803C258.212 246.167 258.962 245.514 259.356 245.41C259.677 245.325 259.971 245.358 260.429 245.287C260.54 245.267 260.617 245.255 260.855 245.248C261.093 245.241 261.49 245.241 261.899 245.241" stroke="#20F4FF" stroke-width="3" stroke-linecap="round"/>
<path d="M259.688 245.668C259.688 245.681 259.688 245.694 259.72 245.713C259.81 245.768 260.676 245.785 261.904 245.778C262.725 245.774 263.399 245.771 263.702 245.791C263.774 245.797 263.825 245.81 263.922 245.817C264.019 245.823 264.16 245.823 264.305 245.823" stroke="#20F4FF" stroke-width="3" stroke-linecap="round"/>
<path d="M264.771 245.707C264.771 245.604 264.719 245.372 264.455 244.073C264.306 243.337 264.013 242.136 263.836 241.432C263.558 240.329 263.413 240.134 263.213 239.67C262.714 238.513 262.508 237.974 262.378 237.573C262.153 236.875 261.757 235.918 261.66 235.633C261.539 235.275 261.254 234.78 261.149 234.52C261.029 234.219 260.839 233.875 260.703 233.602C260.602 233.397 260.529 233.188 260.367 232.852C260.247 232.603 260.064 232.181 259.927 231.747C259.756 231.202 259.546 230.835 259.365 230.35C259.145 229.877 259.028 229.579 258.97 229.45C258.95 229.385 258.95 229.321 258.912 229.178" stroke="#20F4FF" stroke-width="3" stroke-linecap="round"/>
<path d="M258.989 228.441C258.989 228.466 259.002 228.543 259.028 228.666C259.041 228.725 259.054 228.776 259.067 228.828C259.08 228.88 259.092 228.931 259.106 228.984" stroke="#20F4FF" stroke-width="3" stroke-linecap="round"/>
<path d="M259.106 228.829V237.559" stroke="#20F4FF" stroke-width="3" stroke-linecap="round"/>
<path d="M262.365 245.319C262.597 245.59 262.829 245.822 263.14 246.197C263.392 246.501 263.683 246.547 264 246.593C264.315 246.638 264.524 246.664 264.828 246.703C264.88 246.709 264.861 246.779 264.746 246.851C264.181 247.199 263.969 247.155 263.258 247.175C262.61 247.192 261.381 247.181 260.709 247.188C259.728 247.197 259.211 247.271 258.855 247.304C258.512 247.336 258.021 247.362 257.71 247.35C257.501 247.341 257.451 246.86 257.251 246.459C256.806 245.571 256.843 245.23 256.778 244.926C256.639 244.275 256.506 244.091 256.384 243.788C256.145 243.195 255.924 242.527 255.815 242.293C255.718 242.086 255.614 241.828 255.459 241.324C255.357 240.995 255.291 240.768 255.142 240.361C254.968 239.883 254.8 239.423 254.747 239.17C254.68 238.847 254.554 238.518 254.45 238.207C254.316 237.803 254.178 237.418 254.036 237.107C253.92 236.853 253.804 236.539 253.706 236.241C253.58 235.855 253.352 235.233 253.228 234.934C253.062 234.535 252.963 234.197 252.853 233.887C252.757 233.616 252.524 233.114 252.368 232.716C252.282 232.5 252.187 232.231 251.896 231.477C251.745 231.083 251.696 230.809 251.514 230.286C251.419 230.011 251.294 229.761 251.249 229.451C251.191 229.296 251.139 229.165 251.107 229.062C251.087 229.01 251.062 228.959 251.035 228.906" stroke="#20F4FF" stroke-width="3" stroke-linecap="round"/>
<path d="M264.266 245.474C264.382 245.577 264.563 245.887 264.667 246.088C264.861 246.275 265.067 246.482 265.454 246.856C265.559 246.961 265.648 247.05 265.818 247.065" stroke="#20F4FF" stroke-width="3" stroke-linecap="round"/>
<path d="M264.941 242.829C264.95 242.845 265.098 243.049 265.324 243.358C265.428 243.5 265.454 243.563 265.477 243.624C265.568 243.863 265.556 244.262 265.586 244.403C265.624 244.58 265.654 244.664 265.661 244.747C265.664 244.784 265.684 244.831 265.708 244.867C265.715 244.878 265.727 244.857 265.733 244.833C265.748 244.781 265.748 244.543 265.751 244.21C265.751 244.084 265.757 244.046 265.759 243.967C265.761 243.889 265.761 243.77 265.837 243.895C265.913 244.02 266.066 244.392 266.148 244.599C266.242 244.834 266.256 244.882 266.269 244.887C266.321 244.905 266.252 244.683 266.176 244.394C266.127 244.208 266.032 243.952 265.982 243.841C265.932 243.729 265.924 243.771 265.924 243.816C265.923 244.016 265.987 244.296 266.005 244.406C266.01 244.441 265.971 244.217 265.877 243.915C265.821 243.735 265.733 243.504 265.681 243.367C265.616 243.195 265.557 243.018 265.497 242.792C265.471 242.692 265.433 242.438 265.377 242.071C265.349 241.886 265.309 241.77 265.249 241.546C265.205 241.382 265.176 241.267 265.161 241.195C265.139 241.089 265.185 241.483 265.219 241.624C265.24 241.711 265.27 241.786 265.315 241.878C265.371 241.994 265.419 242.136 265.469 242.249C265.534 242.401 265.564 242.575 265.605 242.687C265.632 242.76 265.684 242.854 265.735 242.977C265.806 243.147 265.91 243.441 265.962 243.605C266.002 243.733 266.064 243.908 266.094 244.026C266.122 244.133 266.141 244.22 266.152 244.337C266.163 244.456 266.205 244.536 266.233 244.636C266.266 244.757 266.346 245.047 266.402 245.243C266.439 245.372 266.461 245.45 266.493 245.527C266.543 245.647 266.568 245.778 266.615 245.932C266.688 246.142 266.705 246.206 266.718 246.246C266.722 246.266 266.722 246.282 266.748 246.325" stroke="#20F4FF" stroke-width="0.5" stroke-linecap="round"/>
<path d="M266.696 246.159C266.692 246.151 266.688 246.142 266.631 245.99C266.574 245.837 266.464 245.542 266.405 245.376C266.346 245.211 266.342 245.186 266.308 245.046C266.274 244.906 266.211 244.653 266.176 244.482C266.125 244.233 266.128 244.131 266.126 244.118C266.114 244.044 266.171 244.301 266.222 244.423C266.358 244.746 266.453 245.031 266.493 245.134C266.535 245.238 266.564 245.322 266.666 245.55C266.712 245.652 266.73 245.74 266.758 245.813C266.785 245.884 266.807 245.979 266.826 246.056C266.851 246.154 266.897 246.27 266.918 246.353C266.943 246.449 266.991 246.513 267.019 246.592C267.044 246.664 267.08 246.731 267.108 246.812C267.137 246.895 267.174 246.961 267.234 247.121C267.296 247.288 267.324 247.409 267.362 247.527C267.391 247.615 267.435 247.784 267.484 247.914C267.515 247.995 267.525 248.076 267.542 248.155C267.584 248.28 267.653 248.443 267.668 248.479C267.674 248.499 267.678 248.52 267.708 248.58" stroke="#20F4FF" stroke-width="0.5" stroke-linecap="round"/>
<path d="M266.056 244.148C266.06 244.182 266.128 244.419 266.248 244.689C266.301 244.81 266.346 244.912 266.391 245.031C266.438 245.158 266.479 245.219 266.504 245.288C266.535 245.37 266.572 245.471 266.604 245.544C266.641 245.626 266.683 245.749 266.709 245.826C266.732 245.894 266.765 245.979 266.801 246.058C266.839 246.141 266.897 246.223 266.929 246.302C266.967 246.395 267.012 246.487 267.042 246.577C267.073 246.67 267.106 246.778 267.138 246.884C267.183 247.036 267.234 247.14 267.264 247.241C267.306 247.381 267.354 247.516 267.388 247.6C267.44 247.726 267.482 247.875 267.525 248.052C267.591 248.329 267.623 248.422 267.674 248.554C267.683 248.584 267.683 248.601 267.687 248.618C267.691 248.635 267.7 248.652 267.708 248.682" stroke="#20F4FF" stroke-width="0.5" stroke-linecap="round"/>
<path d="M256.59 248.593H267.631" stroke="#20F4FF" stroke-width="0.5" stroke-linecap="round"/>
<path d="M256.676 248.638H258.444" stroke="#20F4FF" stroke-width="0.5" stroke-linecap="round"/>
<path d="M256.638 248.74H267.872" stroke="#20F4FF" stroke-width="0.5" stroke-linecap="round"/>
<path d="M267.692 248.445C267.658 248.433 267.59 248.382 267.496 248.307C267.33 248.175 267.202 247.994 267.097 247.899C267.075 247.88 267.056 247.869 267.037 247.865C267.018 247.86 266.997 247.865 266.975 247.88C266.927 247.913 266.886 248.001 266.858 248.078C266.826 248.164 267.017 247.874 267.035 247.824C267.049 247.784 266.916 248.026 266.799 248.199C266.763 248.252 266.787 248.241 266.806 248.226C266.885 248.165 266.974 248.066 267.115 247.88C267.201 247.797 267.252 247.711 267.295 247.596C267.308 247.57 267.321 247.553 267.334 247.536" stroke="#20F4FF" stroke-width="0.5" stroke-linecap="round"/>
<path d="M267.257 247.331C267.261 247.369 267.303 247.488 267.367 247.617C267.405 247.692 267.436 247.787 267.493 247.892C267.593 248.074 267.611 248.159 267.632 248.23C267.658 248.316 267.705 248.356 267.724 248.364C267.81 248.403 267.641 248.126 267.615 248.038C267.591 247.954 267.547 247.861 267.5 247.769C267.452 247.675 267.389 247.541 267.319 247.415C267.308 247.391 267.308 247.374 267.301 247.357C267.295 247.34 267.282 247.323 267.269 247.293" stroke="#20F4FF" stroke-width="0.5" stroke-linecap="round"/>
<path d="M254.844 243.386C254.844 243.415 254.853 243.509 254.87 243.59C254.889 243.68 254.925 243.791 255.002 244.032C255.041 244.155 255.07 244.248 255.102 244.331C255.134 244.414 255.169 244.521 255.201 244.607C255.236 244.702 255.28 244.832 255.31 244.944C255.344 245.07 255.369 245.136 255.393 245.236C255.423 245.367 255.476 245.546 255.514 245.676C255.552 245.801 255.57 245.866 255.613 245.969C255.66 246.054 255.685 246.105 255.707 246.15C255.719 246.178 255.736 246.216 255.754 246.293" stroke="#20F4FF" stroke-width="0.5" stroke-linecap="round"/>
<path d="M256.596 248.292C256.596 248.249 256.579 248.155 256.545 248.076C256.512 247.999 256.456 247.933 256.425 247.871C256.393 247.804 256.349 247.733 256.314 247.662C256.275 247.581 256.255 247.494 256.244 247.408C256.232 247.316 256.182 247.246 256.156 247.178C256.127 247.099 256.08 247.028 256.054 246.945C256.025 246.85 255.998 246.768 255.981 246.689C255.973 246.648 255.964 246.61 255.958 246.571C255.956 246.55 255.956 246.525 255.943 246.498" stroke="#20F4FF" stroke-width="0.5" stroke-linecap="round"/>
<path d="M256.173 247.229C256.199 247.279 256.241 247.399 256.261 247.486C256.294 247.637 256.344 247.698 256.389 247.815C256.429 247.921 256.438 248.001 256.455 248.076C256.459 248.095 256.464 248.116 256.466 248.159C256.468 248.201 256.468 248.265 256.481 248.343" stroke="#20F4FF" stroke-width="0.5" stroke-linecap="round"/>
<path d="M255.081 243.334C255.005 243.275 254.902 243.156 254.84 243.025C254.801 242.943 254.761 242.878 254.708 242.81C254.623 242.7 254.595 242.617 254.567 242.551C254.533 242.471 254.471 242.37 254.43 242.284C254.399 242.219 254.347 242.072 254.309 241.932C254.267 241.784 254.223 241.64 254.185 241.495C254.152 241.37 254.125 241.26 254.099 241.161C254.077 241.077 254.048 240.974 253.978 240.803C253.958 240.743 253.941 240.683 253.92 240.617C253.911 240.589 253.907 240.572 253.903 240.555" stroke="#20F4FF" stroke-width="0.5" stroke-linecap="round"/>
<path d="M249.51 227.789L257 249" stroke="#20F4FF"/>
<line x1="260.471" y1="228.832" x2="265.471" y2="242.832" stroke="#20F4FF"/>
<line x1="110.553" y1="247.776" x2="121.553" y2="225.776" stroke="#20F4FF"/>
<path d="M116.77 238.654C116.77 238.585 116.801 238.338 117.106 237.398C117.235 237.001 117.467 236.78 117.499 236.615C117.522 236.497 117.067 237.092 116.66 237.639C116.512 237.838 116.491 237.886 116.479 237.883C116.423 237.868 116.583 237.433 116.792 236.852C116.88 236.607 116.955 236.471 117.09 236.165C117.431 235.395 117.653 234.879 117.688 234.898C117.847 234.983 117.623 235.473 117.511 235.834C117.479 235.935 117.483 235.865 117.748 235.349C118.013 234.834 118.535 233.875 118.811 233.346C119.088 232.817 119.103 232.748 119.111 232.736C119.129 232.707 119.027 233.07 118.826 233.557C118.636 234.018 118.429 234.25 118.379 234.274C118.361 234.282 118.382 234.19 118.532 233.756C118.682 233.321 118.966 232.523 119.116 232.085C119.266 231.647 119.274 231.593 119.278 231.588C119.406 231.437 119.004 232.417 118.94 232.578C118.876 232.737 119.139 232.041 119.341 231.587C119.542 231.132 119.803 230.61 119.946 230.318C120.088 230.026 120.103 229.98 120.115 229.972C120.235 229.886 120.073 230.551 120.061 230.712C120.021 231.238 120.382 229.64 120.463 229.461C120.486 229.411 120.491 229.451 120.479 229.51C120.452 229.646 120.406 229.754 120.382 229.785C120.413 229.478 120.522 228.887 120.603 228.574C120.623 228.507 120.638 228.476 120.654 228.421" stroke="#20F4FF" stroke-width="0.5" stroke-linecap="round"/>
<path d="M120.723 228.886C120.708 229.103 120.669 229.289 120.37 230.126C120.095 230.894 119.502 232.33 119.16 233.242C118.817 234.154 118.725 234.492 118.674 234.624C118.623 234.756 118.615 234.671 118.615 234.574C118.615 234.369 118.669 234.059 118.846 233.427C118.968 232.989 119.222 232.334 119.349 231.979C119.475 231.623 119.483 231.592 119.18 232.302C118.877 233.011 118.263 234.462 117.943 235.098C117.623 235.734 117.615 235.511 117.653 235.197C117.691 234.883 117.776 234.484 117.873 234.128C117.97 233.773 118.078 233.474 118.129 233.358C118.181 233.242 118.173 233.319 118 233.834C117.828 234.35 117.49 235.301 117.324 235.734C117.157 236.167 117.173 236.052 117.384 235.593C117.595 235.135 118.002 234.337 118.219 233.899C118.436 233.461 118.452 233.407 118.46 233.398C118.468 233.39 118.468 233.428 118.18 234.035C117.892 234.642 117.316 235.816 116.92 236.579C116.524 237.341 116.324 237.655 116.21 237.844C116.096 238.033 116.073 238.087 116.08 238.046C116.087 238.004 116.126 237.866 116.379 237.269C116.633 236.672 117.101 235.621 117.381 235.022C117.718 234.298 117.839 234.127 117.867 234.1C117.89 234.075 117.855 234.264 117.529 235.118C117.203 235.971 116.566 237.545 116.249 238.309C115.932 239.074 115.955 238.982 115.998 238.869C116.041 238.756 116.102 238.626 116.302 238.321C116.503 238.015 116.841 237.54 116.942 237.475C117.043 237.41 116.897 237.771 116.588 238.336C116.278 238.902 115.81 239.662 115.577 239.992C115.343 240.322 115.359 240.199 115.436 239.867C115.513 239.535 115.651 238.998 115.825 238.468C116 237.938 116.207 237.432 116.368 237.083C116.614 236.546 116.816 236.298 116.932 236.232C117.045 236.167 116.987 236.667 116.845 237.265C116.754 237.645 116.572 238.163 116.396 238.627C116.221 239.092 116.045 239.483 115.946 239.716C115.847 239.948 115.832 240.009 116.124 239.393C116.415 238.776 117.014 237.479 117.168 237.248C117.323 237.017 117.016 237.892 116.827 238.408C116.589 239.059 116.499 239.258 116.475 239.305C116.465 239.326 116.467 239.168 116.567 238.736C116.667 238.305 116.867 237.561 116.919 237.331C116.972 237.101 116.873 237.408 116.606 238.003C116.34 238.599 115.91 239.474 115.75 239.786C115.59 240.099 115.713 239.822 116.198 239.047C116.684 238.271 117.528 237.005 117.974 236.341C118.421 235.677 118.444 235.654 118.468 235.631" stroke="#20F4FF" stroke-width="0.5" stroke-linecap="round"/>
<path d="M118.328 235.538C118.313 235.538 118.228 235.545 118.077 235.584C117.999 235.604 117.934 235.668 117.722 235.93C117.51 236.192 117.157 236.66 116.963 236.92C116.77 237.181 116.747 237.219 116.739 237.22C116.701 237.222 116.785 237.066 117.016 236.681C117.203 236.369 117.554 235.835 117.739 235.585C117.925 235.336 117.94 235.389 117.933 235.494C117.925 235.598 117.894 235.752 117.771 236.149C117.648 236.547 117.433 237.184 117.165 237.834C116.897 238.485 116.582 239.129 116.363 239.55C116.143 239.97 116.028 240.147 115.888 240.326C115.748 240.505 115.587 240.682 115.504 240.726C115.42 240.772 115.567 240.147 115.83 239.392C116.008 238.881 116.172 238.524 116.227 238.337C116.23 238.327 116.174 238.488 115.851 239.139C115.528 239.79 114.937 240.926 114.625 241.534C114.313 242.142 114.297 242.188 114.293 242.196C114.289 242.205 114.297 242.174 114.447 241.824C114.596 241.475 114.888 240.807 115.103 240.367C115.319 239.927 115.449 239.735 115.455 239.805C115.461 239.875 115.338 240.213 115.079 240.713C114.82 241.213 114.429 241.866 114.304 241.972C114.032 242.202 114.567 240.974 114.73 240.66C114.807 240.511 114.907 240.401 114.951 240.399C114.995 240.397 114.987 240.512 114.853 240.932C114.718 241.352 114.457 242.074 114.315 242.461C114.173 242.848 114.158 242.878 114.142 242.933" stroke="#20F4FF" stroke-width="0.5" stroke-linecap="round"/>
<path d="M114.898 241.736C114.89 241.751 114.882 241.766 114.656 242.204C114.429 242.642 113.984 243.501 113.724 244.04C113.464 244.579 113.403 244.77 113.379 244.812C113.355 244.853 113.37 244.738 113.555 244.276C113.739 243.813 114.092 243.008 114.324 242.512C114.635 241.845 114.85 241.489 114.951 241.314C114.964 241.292 114.884 241.591 114.744 241.921C114.605 242.251 114.406 242.65 114.257 242.917C114.034 243.317 113.898 243.487 113.913 243.515C113.935 243.555 114.051 243.381 114.359 242.892C114.668 242.403 115.182 241.536 115.458 241.078C115.735 240.619 115.758 240.596 115.762 240.604C115.785 240.645 115.535 241.019 115.018 241.807C114.712 242.273 114.271 242.84 113.996 243.194C113.72 243.548 113.613 243.663 113.562 243.665C113.44 243.669 113.556 243.272 113.664 242.867C113.73 242.619 113.864 242.3 113.989 242.038C114.114 241.776 114.236 241.584 114.3 241.501C114.363 241.417 114.363 241.448 114.098 242.016C113.833 242.585 113.304 243.69 113.035 244.229C112.766 244.767 112.773 244.706 112.816 244.544C112.858 244.382 112.935 244.121 113.043 243.852C113.265 243.304 113.525 242.907 113.66 242.756C113.693 242.72 113.696 242.827 113.527 243.304C113.358 243.781 113.028 244.641 112.839 245.114C112.65 245.588 112.612 245.649 112.596 245.642C112.518 245.61 112.703 245.173 112.95 244.535C113.08 244.2 113.259 243.859 113.338 243.704C113.417 243.549 113.402 243.595 113.206 243.968C113.01 244.341 112.634 245.039 112.379 245.484C112.124 245.928 112.001 246.097 111.961 246.141C111.934 246.171 112.068 245.946 112.291 245.703C112.724 245.233 113.099 244.93 113.184 244.922C113.314 244.909 113.138 245.262 112.992 245.593C112.891 245.821 112.707 246.155 112.628 246.295C112.444 246.618 113.161 245.101 113.162 245.061C113.164 244.943 112.947 245.527 112.795 245.805C112.643 246.083 112.505 246.267 112.403 246.392C112.301 246.518 112.24 246.579 112.177 246.643" stroke="#20F4FF" stroke-width="0.5" stroke-linecap="round"/>
<path d="M112.293 246.154C112.255 246.208 111.931 246.516 111.739 246.674C111.684 246.719 111.881 246.373 112.032 246.125C112.078 246.049 112.084 246.091 112.064 246.176C111.953 246.672 111.727 246.952 111.7 246.949C111.561 246.932 111.804 246.689 111.839 246.67C111.971 246.596 111.697 247.076 111.604 247.177C111.579 247.203 111.572 247.14 111.568 247.131C111.564 247.123 111.557 247.161 111.537 247.2C111.518 247.239 111.487 247.278 111.409 247.34" stroke="#20F4FF" stroke-width="0.5" stroke-linecap="round"/>
<path d="M110.758 247.666H119.433" stroke="#20F4FF" stroke-width="0.5" stroke-linecap="round"/>
<path d="M121.09 227.206V229.206" stroke="#20F4FF" stroke-width="0.5" stroke-linecap="round"/>
<path d="M121.09 227.439C121.09 227.638 121.09 228.079 121.09 228.341C121.09 228.265 121.09 227.767 121.09 227.713C121.09 227.659 121.09 228.066 121.09 228.485" stroke="#20F4FF" stroke-width="0.5" stroke-linecap="round"/>
<path d="M121.28 227.691C121.26 227.573 121.218 227.233 121.218 227.133C121.218 227.372 121.213 227.628 121.205 227.765C121.203 227.855 121.203 227.988 121.203 228.125" stroke="#20F4FF" stroke-width="0.5" stroke-linecap="round"/>
<line x1="24.5489" y1="247.784" x2="35.5489" y2="224.784" stroke="#20F4FF"/>
<path d="M27.8016 244.916C27.8016 244.891 27.8515 244.716 28.332 243.835C28.7334 243.099 29.5729 241.845 30.0338 241.096C30.4947 240.348 30.582 240.161 30.0723 240.732C29.5627 241.302 28.4535 242.636 27.9007 243.254C27.348 243.872 27.3854 243.735 27.9531 242.636C28.5207 241.538 29.6174 239.481 30.1886 238.391C30.7598 237.3 30.7723 237.238 30.4796 237.985C30.1869 238.732 29.5887 240.289 29.2058 241.242C28.8228 242.194 28.6733 242.493 28.8579 241.862C29.0426 241.231 29.5661 239.66 30.0351 238.459C30.5042 237.257 30.903 236.472 31.1084 236.093C31.3139 235.713 31.3139 235.763 31.0709 236.393C30.8278 237.023 30.3418 238.232 30.2908 238.35C30.2398 238.468 30.6386 237.459 31.0559 236.515C31.4732 235.571 31.897 234.724 32.1153 234.312C32.3336 233.9 32.3336 233.95 32.1404 234.424C31.9472 234.899 31.5609 235.796 31.3868 236.165C31.2927 236.364 31.6878 235.381 32.2729 234.142C32.4917 233.679 32.5216 233.538 32.5409 233.493C32.5486 233.475 32.5228 233.735 32.2044 234.579C31.9522 235.248 31.4 236.358 31.3858 236.537C31.2348 238.446 32.6353 234.631 32.6857 234.581C32.6949 234.571 32.6863 234.63 32.0131 235.802C31.3399 236.974 30.0064 239.268 29.2945 240.536C28.496 241.959 28.4689 242.209 28.4438 242.328C28.4187 242.484 28.3934 242.624 28.3745 242.731C28.3681 242.788 28.3681 242.85 28.3681 242.914" stroke="#20F4FF" stroke-width="0.5" stroke-linecap="round"/>
<path d="M27.8394 244.916C27.8144 244.941 27.677 245.053 27.3947 245.292C27.0389 245.592 26.5957 246.096 26.1743 246.624C25.851 247.156 25.6995 247.42 25.6618 247.496C25.6489 247.485 25.6489 247.373 25.6489 247.257" stroke="#20F4FF" stroke-width="0.5" stroke-linecap="round"/>
<path d="M24.516 247.711H27.4995" stroke="#20F4FF" stroke-width="0.5" stroke-linecap="round"/>
<path d="M25.7245 246.993C25.9122 246.566 26.3019 246.076 26.9213 245.35C27.356 244.84 28.1264 244.125 28.4182 243.902C28.5272 243.819 28.1185 244.573 27.6105 245.157C26.9764 245.885 26.4058 246.337 26.1917 246.432C26.1325 246.459 26.152 246.315 26.439 245.753C26.726 245.19 27.2744 244.181 27.5756 243.592C27.9404 242.879 27.9776 242.676 28.0154 242.625C28.0457 242.584 27.9784 242.875 27.691 243.457C27.4725 243.899 27.0297 244.599 26.8426 244.891C26.4925 245.435 27.9146 243.079 27.9525 243.009C28.4752 242.044 26.8318 245.256 26.9634 245.087C27.1373 244.863 27.6717 244.167 28.2822 243.298C28.4798 243.016 28.5064 243.102 28.4006 243.389C28.2949 243.677 28.0705 244.176 27.9924 244.283C27.6403 244.766 28.1918 243.444 28.1982 243.362C28.2031 243.299 27.5807 244.253 26.9491 244.969C26.889 245.037 27.3144 244.003 27.5018 243.609C27.6173 243.366 27.0263 244.279 26.5076 244.994C26.481 245.031 27.0108 244.077 27.3239 243.578C27.637 243.079 27.7367 242.979 27.7818 242.971C28.3341 242.877 26.973 244.56 26.7759 244.934C26.7711 244.943 26.794 244.855 27.0063 244.392C27.2185 243.93 27.6173 243.095 27.9786 242.397C28.6245 241.148 29.0721 240.374 29.0362 240.302C28.6369 239.499 28.0294 241.879 27.9965 241.833C27.819 241.584 28.35 240.691 28.6221 239.98C28.8942 239.269 29.1559 238.721 29.2783 238.494C29.3497 238.362 28.9762 239.343 28.6527 240.228C28.6311 240.287 29.1892 239.468 29.614 238.821C30.0389 238.173 30.3879 237.699 30.5552 237.499C30.7225 237.299 30.6975 237.386 30.6162 237.531C30.4163 237.886 30.1069 238.354 29.7681 238.919C29.5897 239.217 29.3546 239.509 29.8061 238.81C30.2576 238.11 31.3917 236.403 31.9946 235.473C32.5976 234.544 32.635 234.444 32.6106 234.499C32.4929 234.762 32.2596 235.245 31.8523 235.878C31.6076 236.259 31.2331 236.724 31.0531 236.918C30.9224 237.059 31.2723 236.087 31.8762 234.784C32.1001 234.302 32.181 234.192 32.2133 234.16C32.2456 234.127 32.2331 234.177 31.9961 234.601C31.7592 235.026 31.298 235.823 30.9234 236.415C30.5487 237.006 30.2746 237.368 30.1707 237.467C30.0669 237.566 30.1416 237.391 30.5416 236.734C30.9415 236.077 31.6644 234.943 32.0492 234.328C32.434 233.712 32.459 233.65 32.4656 233.655C32.5283 233.706 32.1353 234.461 31.6321 235.492C31.4441 235.878 31.3781 235.976 31.346 235.965C31.2141 235.92 31.5881 235.078 31.9038 234.277C31.9742 234.098 31.366 234.843 31.1266 235.033C30.7577 235.324 31.8275 233.778 32.2239 233.25C32.371 233.058 32.4084 233.02 32.303 233.269C32.1976 233.518 31.9484 234.054 31.616 234.681" stroke="#20F4FF" stroke-width="0.5" stroke-linecap="round"/>
<path d="M27.575 241.479C27.3624 241.991 26.9096 243.15 26.7821 243.486C26.7695 243.543 26.757 243.605 26.7319 243.706C26.7068 243.807 26.6694 243.944 26.6309 244.198" stroke="#20F4FF" stroke-width="0.5" stroke-linecap="round"/>
<path d="M26.3287 245.52C26.2033 245.808 26.0897 246.149 26.1206 246.2C26.3683 246.606 26.8559 245.384 27.0763 245.063C27.1335 244.979 27.1347 245.102 27.1095 245.204C26.9587 245.57 26.8325 245.834 26.7885 246.004C26.7695 246.086 26.757 246.161 26.7441 246.2" stroke="#20F4FF" stroke-width="0.5" stroke-linecap="round"/>
<path d="M30.7474 238.911C30.7474 238.861 30.7474 238.138 30.7537 237.024C30.7566 236.496 30.7977 236.331 30.7979 236.305C30.7981 236.278 30.7482 236.429 30.4298 236.923C30.1115 237.417 29.5132 238.301 29.2362 238.707C28.9592 239.113 29.0215 239.014 29.0972 238.913C29.4517 238.439 30.0639 237.694 30.5369 237.146C30.636 237.021 30.4491 237.208 30.3341 237.323C30.2191 237.438 30.1817 237.475 30.1432 237.514" stroke="#20F4FF" stroke-width="0.5" stroke-linecap="round"/>
<path d="M32.7963 232.698C32.8839 232.586 33.0848 232.16 33.7943 230.69C33.9446 230.378 34.0161 230.296 34.0358 230.276C34.057 230.254 33.9051 230.507 33.5546 231.063C33.2999 231.468 32.9051 232.131 32.656 232.528C32.3316 233.044 32.18 233.251 32.1107 233.377C32.0989 233.399 32.2162 233.191 32.629 232.634C32.9528 232.198 33.4655 231.417 33.7165 231.094C33.8853 230.877 33.5301 231.947 32.9949 233.206C32.7439 233.797 33.8285 231.025 33.8286 231.011C33.831 230.843 33.404 231.912 32.9003 232.781C32.746 233.047 32.7457 232.927 32.8394 232.639C33.0853 231.882 33.4991 230.953 33.7267 230.479C34.1838 229.526 33.1868 231.666 33.1677 231.698C33.0856 231.836 33.5486 230.716 34.0018 229.721C34.1406 229.417 34.1559 229.549 34.1434 229.706C34.131 229.864 34.106 230.051 34.087 230.172C34.0679 230.293 34.0554 230.343 34.0426 230.395" stroke="#20F4FF" stroke-width="0.5" stroke-linecap="round"/>
<path d="M34.6846 230.244C34.6846 230.144 34.6846 230.044 34.6846 229.463C34.6846 228.882 34.6846 227.823 34.6846 227.857C34.6846 227.89 34.6846 229.05 34.6846 230.244Z" stroke="#20F4FF" stroke-width="0.5" stroke-linecap="round"/>
<path d="M34.4957 229.828C34.4202 229.539 34.3953 229.288 34.3575 229.042C34.313 228.752 34.0682 229.576 33.9927 229.627C33.967 229.429 33.9795 229.212 33.9984 229.111C34.0048 229.061 34.0048 229.011 34.0048 228.96" stroke="#20F4FF" stroke-width="0.5" stroke-linecap="round"/>
<path d="M34.9111 226.618V229.375" stroke="#20F4FF" stroke-width="0.5" stroke-linecap="round"/>
<path d="M35.2133 226.052V231.037" stroke="#20F4FF" stroke-width="0.5" stroke-linecap="round"/>
<path d="M34.458 228.657C34.458 228.633 34.458 228.608 34.458 228.551C34.458 228.033 33.6146 230.419 33.5895 230.464C33.3162 230.949 33.7899 228.85 33.9221 228.358C33.9548 228.237 33.967 228.39 33.7115 229.234C33.456 230.077 32.945 231.61 32.7005 232.325C32.456 233.04 32.4934 232.89 32.7245 232.309C32.9556 231.727 33.3794 230.717 33.5914 230.272C33.8035 229.827 33.791 229.976 33.554 230.701C33.317 231.426 32.8559 232.723 32.5934 233.434C32.331 234.145 32.2811 234.233 32.3801 234.066C33.0644 232.911 33.2113 232.573 33.2742 232.585C33.3397 232.597 33.3121 232.821 33.1503 233.602C32.9885 234.384 32.652 235.767 32.4163 236.63C32.0957 237.802 31.803 238.311 31.583 238.713C31.3978 239.051 31.3237 239.282 31.2796 239.301C31.251 239.314 31.2977 239.159 31.5349 238.652C31.772 238.146 32.2207 237.249 32.4518 236.811C32.683 236.374 32.6829 236.424 32.6705 236.555C32.658 236.687 32.6331 236.899 32.4707 237.65C32.3083 238.401 32.0092 239.684 31.8489 240.439C31.6886 241.194 31.6761 241.381 31.7382 241.415C31.9302 241.52 32.2407 241.009 32.6981 240.333C33.0182 239.86 33.4171 239.059 33.6728 238.605C33.9285 238.15 34.0033 238.051 34.0418 238.087C34.0803 238.122 34.0803 238.297 33.9806 238.898C33.8809 239.499 33.6815 240.521 33.5725 241.016C33.4636 241.511 33.4511 241.449 33.4447 241.336C33.4383 241.223 33.4383 241.061 33.4383 240.894" stroke="#20F4FF" stroke-width="0.5" stroke-linecap="round"/>
<path d="M36.3357 225.613C36.3357 225.587 36.3181 225.338 36.2692 225.217C36.188 225.016 36.1399 225.515 36.1221 225.542C35.9898 225.743 36.0864 225.008 36.0687 224.959C36.0568 224.926 36.0242 225.078 35.993 225.181C35.9782 225.229 35.9707 225.274 35.9662 225.186C35.9616 225.099 35.9616 224.878 35.9616 224.827C35.9616 224.755 35.9705 225.061 35.9838 225.079C36.0997 225.236 35.9616 224.759 35.9572 224.718C35.944 224.81 35.9349 224.945 35.9305 225.051C35.9261 225.105 35.9173 225.158 35.9082 225.239" stroke="white" stroke-width="0.5" stroke-linecap="round"/>
<path d="M35.9082 225.106C35.9082 225.37 35.9082 225.78 35.9082 225.921C35.9082 226.053 35.9082 225.241 35.9082 225.162C35.9082 225.084 35.9082 225.489 35.9082 225.495C35.9082 225.502 35.9082 225.096 35.9082 225.063C35.9082 225.031 35.9082 225.383 35.9082 225.402C35.9082 225.421 35.9082 225.094 35.9082 225.037C35.9082 224.979 35.9082 225.199 35.9082 225.189C35.9082 225.179 35.9082 224.932 35.9082 225.017C35.9082 225.101 35.9082 225.525 35.9082 225.961" stroke="white" stroke-width="0.5" stroke-linecap="round"/>
<path d="M35.8414 242.661V244.826" stroke="white" stroke-width="0.5" stroke-linecap="round"/>
<path d="M35.7612 243.089V248.861" stroke="white" stroke-width="0.5" stroke-linecap="round"/>
<path d="M121.937 225.025V228.259" stroke="white" stroke-width="0.5" stroke-linecap="round"/>
<path d="M36.0952 224.678V226.014" stroke="white" stroke-width="0.5" stroke-linecap="round"/>
<path d="M35.8815 224.758V225.934" stroke="white" stroke-width="0.5" stroke-linecap="round"/>
<path d="M35.8815 224.812V226.255" stroke="white" stroke-width="0.5" stroke-linecap="round"/>
<path d="M35.8547 224.865C35.8547 225.041 35.8547 225.538 35.8547 225.897C35.8547 225.85 35.8547 225.339 35.8547 225.313C35.8547 225.288 35.8547 225.764 35.8547 226.201" stroke="white" stroke-width="0.5" stroke-linecap="round"/>
<path d="M35.828 225.025C35.828 225.184 35.828 225.53 35.828 225.72C35.828 225.795 35.828 225.221 35.828 225.201C35.828 225.182 35.828 225.579 35.828 225.536C35.828 225.494 35.828 225 35.828 225.006C35.828 225.011 35.828 225.532 35.828 226.014" stroke="white" stroke-width="0.5" stroke-linecap="round"/>
<path d="M36.0685 231.579V233.209" stroke="white" stroke-width="0.5" stroke-linecap="round"/>
<path d="M35.7745 231.98V243.229" stroke="white" stroke-width="0.5" stroke-linecap="round"/>
<path d="M121.83 225.533C121.83 225.639 121.83 225.745 121.83 226.258C121.83 226.771 121.83 227.688 121.83 227.609C121.83 227.531 121.83 226.428 121.83 226.447C121.83 226.465 121.83 227.638 121.83 227.682C121.83 227.727 121.83 226.607 121.83 227.176C121.83 227.746 121.83 230.038 121.83 230.69C121.83 231.342 121.83 230.284 121.83 230.427C121.83 230.57 121.83 231.945 121.83 232.076C121.83 232.207 121.83 231.052 121.83 231.184C121.83 231.317 121.83 232.772 121.83 232.851C121.83 232.931 121.83 231.59 121.83 231.68C121.83 231.77 121.83 233.331 121.83 234.06C121.83 234.789 121.83 234.639 121.83 234.485" stroke="white" stroke-width="0.5" stroke-linecap="round"/>
<path d="M121.77 230.998V240.27" stroke="white" stroke-width="0.5" stroke-linecap="round"/>
<path d="M121.997 239.889V242.721" stroke="white" stroke-width="0.5" stroke-linecap="round"/>
<path d="M122.024 240.183C122.024 240.298 122.024 240.412 122.024 240.917C122.024 241.421 122.024 242.312 122.024 242.175C122.024 242.039 122.024 240.848 122.024 240.354C122.024 239.86 122.024 240.098 122.024 240.343" stroke="white" stroke-width="0.5" stroke-linecap="round"/>
<path d="M121.81 240.049C121.81 240.146 121.81 240.243 121.81 240.827C121.81 241.41 121.81 242.477 121.81 242.445C121.81 242.413 121.81 241.249 121.81 240.98C121.81 240.711 121.81 241.372 121.81 241.66C121.81 241.948 121.81 241.842 121.81 241.733" stroke="white" stroke-width="0.5" stroke-linecap="round"/>
<path d="M121.89 240.317C121.89 240.405 121.89 240.493 121.89 241.006C121.89 241.518 121.89 242.453 121.89 242.414C121.89 242.376 121.89 241.335 121.89 240.343" stroke="white" stroke-width="0.5" stroke-linecap="round"/>
<path d="M121.81 240.049V244.966" stroke="white" stroke-width="0.5" stroke-linecap="round"/>
<path d="M121.783 239.942V248.6" stroke="white" stroke-width="0.5" stroke-linecap="round"/>
<path d="M248.964 227.153H259.589" stroke="#20F4FF" stroke-width="0.5" stroke-linecap="round"/>
<path d="M249.136 226.78H259.761" stroke="#20F4FF" stroke-width="0.5" stroke-linecap="round"/>
<path d="M259.79 226.952C259.79 227.076 259.96 227.589 260.062 227.937C260.129 228.166 260.211 228.311 260.239 228.34C260.387 228.489 260.116 227.73 260.053 227.536C260.017 227.427 260.143 227.879 260.291 228.143C260.383 228.306 260.449 228.464 260.541 228.67C260.593 228.77 260.641 228.866 260.684 228.952C260.708 228.991 260.737 229.019 260.766 229.048" stroke="#20F4FF" stroke-width="0.5" stroke-linecap="round"/>
<path d="M260.421 228.589C260.459 228.656 260.574 228.789 260.631 228.852C260.725 228.953 260.574 228.485 260.512 228.264C260.469 228.034 260.412 227.881 260.354 227.719C260.335 227.671 260.307 227.614 260.249 227.527" stroke="#20F4FF" stroke-width="0.5" stroke-linecap="round"/>
<path d="M248.993 226.866H249.481" stroke="#20F4FF" stroke-width="0.5" stroke-linecap="round"/>
<path d="M248.935 226.981H249.825" stroke="#20F4FF" stroke-width="0.5" stroke-linecap="round"/>
<path d="M248.103 226.751C248.179 226.932 248.217 227.162 248.298 227.473C248.354 227.684 248.428 227.832 248.519 228.071C248.612 228.315 248.61 228.54 248.648 228.703C248.657 228.742 248.667 228.78 248.677 228.761C248.915 228.305 248.467 227.442 248.428 227.311C248.345 227.033 248.657 228.033 248.715 228.22C248.75 228.334 248.82 228.473 248.858 228.574C248.987 228.912 248.543 227.595 248.433 227.293C248.41 227.23 248.399 227.192 248.395 227.192C248.212 227.17 248.542 227.774 248.843 228.514C249.174 229.363 249.328 229.689 249.361 229.77C249.375 229.814 249.385 229.861 249.395 229.939" stroke="white" stroke-width="0.5" stroke-linecap="round"/>
<path d="M21.5455 289H18.7273C18.5606 288.189 18.2689 287.477 17.8523 286.864C17.4432 286.25 16.9432 285.735 16.3523 285.318C15.7689 284.894 15.1212 284.576 14.4091 284.364C13.697 284.152 12.9545 284.045 12.1818 284.045C10.7727 284.045 9.49621 284.402 8.35227 285.114C7.21591 285.826 6.31061 286.875 5.63636 288.261C4.9697 289.648 4.63636 291.348 4.63636 293.364C4.63636 295.379 4.9697 297.08 5.63636 298.466C6.31061 299.852 7.21591 300.902 8.35227 301.614C9.49621 302.326 10.7727 302.682 12.1818 302.682C12.9545 302.682 13.697 302.576 14.4091 302.364C15.1212 302.152 15.7689 301.837 16.3523 301.42C16.9432 300.996 17.4432 300.477 17.8523 299.864C18.2689 299.242 18.5606 298.53 18.7273 297.727H21.5455C21.3333 298.917 20.947 299.981 20.3864 300.92C19.8258 301.86 19.1288 302.659 18.2955 303.318C17.4621 303.97 16.5265 304.466 15.4886 304.807C14.4583 305.148 13.3561 305.318 12.1818 305.318C10.197 305.318 8.43182 304.833 6.88636 303.864C5.34091 302.894 4.125 301.515 3.23864 299.727C2.35227 297.939 1.90909 295.818 1.90909 293.364C1.90909 290.909 2.35227 288.788 3.23864 287C4.125 285.212 5.34091 283.833 6.88636 282.864C8.43182 281.894 10.197 281.409 12.1818 281.409C13.3561 281.409 14.4583 281.58 15.4886 281.92C16.5265 282.261 17.4621 282.761 18.2955 283.42C19.1288 284.072 19.8258 284.867 20.3864 285.807C20.947 286.739 21.3333 287.803 21.5455 289ZM54.7358 293.364C54.7358 295.818 54.2926 297.939 53.4062 299.727C52.5199 301.515 51.304 302.894 49.7585 303.864C48.2131 304.833 46.4479 305.318 44.4631 305.318C42.4782 305.318 40.7131 304.833 39.1676 303.864C37.6222 302.894 36.4063 301.515 35.5199 299.727C34.6335 297.939 34.1903 295.818 34.1903 293.364C34.1903 290.909 34.6335 288.788 35.5199 287C36.4063 285.212 37.6222 283.833 39.1676 282.864C40.7131 281.894 42.4782 281.409 44.4631 281.409C46.4479 281.409 48.2131 281.894 49.7585 282.864C51.304 283.833 52.5199 285.212 53.4062 287C54.2926 288.788 54.7358 290.909 54.7358 293.364ZM52.0085 293.364C52.0085 291.348 51.6714 289.648 50.9972 288.261C50.3305 286.875 49.4252 285.826 48.2812 285.114C47.1449 284.402 45.8722 284.045 44.4631 284.045C43.054 284.045 41.7775 284.402 40.6335 285.114C39.4972 285.826 38.5919 286.875 37.9176 288.261C37.2509 289.648 36.9176 291.348 36.9176 293.364C36.9176 295.379 37.2509 297.08 37.9176 298.466C38.5919 299.852 39.4972 300.902 40.6335 301.614C41.7775 302.326 43.054 302.682 44.4631 302.682C45.8722 302.682 47.1449 302.326 48.2812 301.614C49.4252 300.902 50.3305 299.852 50.9972 298.466C51.6714 297.08 52.0085 295.379 52.0085 293.364ZM86.929 281.727V305H84.2017L71.5199 286.727H71.2926V305H68.4744V281.727H71.2017L83.929 300.045H84.1562V281.727H86.929ZM114.295 287.545C114.159 286.394 113.606 285.5 112.636 284.864C111.667 284.227 110.477 283.909 109.068 283.909C108.038 283.909 107.136 284.076 106.364 284.409C105.598 284.742 105 285.201 104.568 285.784C104.144 286.367 103.932 287.03 103.932 287.773C103.932 288.394 104.08 288.928 104.375 289.375C104.678 289.814 105.064 290.182 105.534 290.477C106.004 290.765 106.496 291.004 107.011 291.193C107.527 291.375 108 291.523 108.432 291.636L110.795 292.273C111.402 292.432 112.076 292.652 112.818 292.932C113.568 293.212 114.284 293.595 114.966 294.08C115.655 294.557 116.223 295.17 116.67 295.92C117.117 296.67 117.341 297.591 117.341 298.682C117.341 299.939 117.011 301.076 116.352 302.091C115.701 303.106 114.746 303.913 113.489 304.511C112.239 305.11 110.72 305.409 108.932 305.409C107.265 305.409 105.822 305.14 104.602 304.602C103.39 304.064 102.436 303.314 101.739 302.352C101.049 301.39 100.659 300.273 100.568 299H103.477C103.553 299.879 103.848 300.606 104.364 301.182C104.886 301.75 105.545 302.174 106.341 302.455C107.144 302.727 108.008 302.864 108.932 302.864C110.008 302.864 110.973 302.689 111.83 302.341C112.686 301.985 113.364 301.492 113.864 300.864C114.364 300.227 114.614 299.485 114.614 298.636C114.614 297.864 114.398 297.235 113.966 296.75C113.534 296.265 112.966 295.871 112.261 295.568C111.557 295.265 110.795 295 109.977 294.773L107.114 293.955C105.295 293.432 103.856 292.686 102.795 291.716C101.735 290.746 101.205 289.477 101.205 287.909C101.205 286.606 101.557 285.47 102.261 284.5C102.973 283.523 103.928 282.765 105.125 282.227C106.33 281.682 107.674 281.409 109.159 281.409C110.659 281.409 111.992 281.678 113.159 282.216C114.326 282.746 115.25 283.473 115.932 284.398C116.621 285.322 116.985 286.371 117.023 287.545H114.295ZM146.247 281.727H149.065V297.136C149.065 298.727 148.69 300.148 147.94 301.398C147.198 302.64 146.149 303.621 144.793 304.341C143.437 305.053 141.846 305.409 140.02 305.409C138.194 305.409 136.603 305.053 135.247 304.341C133.891 303.621 132.838 302.64 132.088 301.398C131.346 300.148 130.974 298.727 130.974 297.136V281.727H133.793V296.909C133.793 298.045 134.043 299.057 134.543 299.943C135.043 300.822 135.755 301.515 136.679 302.023C137.611 302.523 138.724 302.773 140.02 302.773C141.315 302.773 142.429 302.523 143.361 302.023C144.293 301.515 145.005 300.822 145.497 299.943C145.997 299.057 146.247 298.045 146.247 296.909V281.727ZM163.693 305V281.727H166.511V302.5H177.33V305H163.693ZM189.42 284.227V281.727H206.875V284.227H199.557V305H196.739V284.227H189.42ZM223.043 281.727V305H220.224V281.727H223.043ZM256.148 281.727V305H253.42L240.739 286.727H240.511V305H237.693V281.727H240.42L253.148 300.045H253.375V281.727H256.148ZM286.696 289C286.446 288.235 286.116 287.549 285.707 286.943C285.306 286.33 284.825 285.807 284.264 285.375C283.711 284.943 283.082 284.614 282.378 284.386C281.673 284.159 280.901 284.045 280.06 284.045C278.681 284.045 277.427 284.402 276.298 285.114C275.17 285.826 274.272 286.875 273.605 288.261C272.938 289.648 272.605 291.348 272.605 293.364C272.605 295.379 272.942 297.08 273.616 298.466C274.291 299.852 275.204 300.902 276.355 301.614C277.507 302.326 278.802 302.682 280.241 302.682C281.575 302.682 282.749 302.398 283.764 301.83C284.787 301.254 285.582 300.443 286.151 299.398C286.726 298.345 287.014 297.106 287.014 295.682L287.878 295.864H280.878V293.364H289.741V295.864C289.741 297.78 289.332 299.447 288.514 300.864C287.704 302.28 286.582 303.379 285.151 304.159C283.726 304.932 282.09 305.318 280.241 305.318C278.181 305.318 276.37 304.833 274.81 303.864C273.257 302.894 272.045 301.515 271.173 299.727C270.31 297.939 269.878 295.818 269.878 293.364C269.878 291.523 270.124 289.867 270.616 288.398C271.116 286.92 271.821 285.663 272.73 284.625C273.639 283.587 274.715 282.792 275.957 282.239C277.2 281.686 278.567 281.409 280.06 281.409C281.287 281.409 282.431 281.595 283.491 281.966C284.56 282.33 285.51 282.848 286.344 283.523C287.185 284.189 287.885 284.989 288.446 285.92C289.007 286.845 289.393 287.871 289.605 289H286.696Z" fill="white"/>
<path d="M141.5 76L178.306 132.25H104.694L141.5 76Z" fill="#3064A0"/>
</svg>
