<svg width="339" height="403" viewBox="0 0 339 403" fill="none" xmlns="http://www.w3.org/2000/svg">
<path d="M43.9482 241.886V245.12" stroke="white" stroke-width="0.5" stroke-linecap="round"/>
<path d="M146.5 0L234.402 133.5H58.5984L146.5 0Z" fill="white"/>
<path d="M147 40L208.488 133H85.5122L147 40Z" fill="#448BBD"/>
<path d="M32.2727 248V154.909H63.7273C71.0303 154.909 77 156.227 81.6364 158.864C86.303 161.47 89.7576 165 92 169.455C94.2424 173.909 95.3636 178.879 95.3636 184.364C95.3636 189.848 94.2424 194.833 92 199.318C89.7879 203.803 86.3636 207.379 81.7273 210.045C77.0909 212.682 71.1515 214 63.9091 214H41.3636V204H63.5455C68.5455 204 72.5606 203.136 75.5909 201.409C78.6212 199.682 80.8182 197.348 82.1818 194.409C83.5758 191.439 84.2727 188.091 84.2727 184.364C84.2727 180.636 83.5758 177.303 82.1818 174.364C80.8182 171.424 78.6061 169.121 75.5455 167.455C72.4849 165.758 68.4242 164.909 63.3636 164.909H43.5455V248H32.2727Z" fill="white"/>
<line x1="35.5481" y1="245.786" x2="44.5481" y2="226.786" stroke="#20F4FF"/>
<path d="M36.9181 245.541H44.2188" stroke="#20F4FF" stroke-linecap="round"/>
<path d="M43.9724 228.907V245.387" stroke="#20F4FF" stroke-linecap="round"/>
<path d="M36.4561 245.511C36.4764 245.511 36.5275 245.521 36.6196 245.521C36.8542 245.521 36.9686 245.224 37.1331 245.075C37.3028 244.921 37.3901 244.68 37.5285 244.464C37.6624 244.255 37.8007 244.023 38.0658 243.467C38.2701 243.038 38.6561 242.331 38.8804 241.889C39.1046 241.446 39.1656 241.293 39.3394 240.93C39.5131 240.567 39.7977 239.998 39.9952 239.547C40.1927 239.096 40.2943 238.781 40.2908 238.766C40.2872 238.751 40.1754 239.046 39.8942 239.599C39.6129 240.153 39.1656 240.956 38.8946 241.43C38.5509 242.032 38.4482 242.204 38.4328 242.25C38.4122 242.312 38.5394 241.654 38.8257 240.61C38.985 240.03 39.234 239.363 39.3646 238.997C39.4952 238.631 39.5156 238.591 39.4041 238.976C39.2926 239.362 39.0486 240.175 38.9026 240.701C38.7565 241.227 38.7159 241.44 38.7102 241.484C38.7045 241.528 38.735 241.396 39.0252 240.652C39.3153 239.907 39.8643 238.555 40.1725 237.767C40.4807 236.979 40.5315 236.796 40.5577 237.104C40.5839 237.411 40.5839 238.214 40.655 238.48C40.7262 238.747 40.8685 238.452 41.1401 237.69C41.4116 236.928 41.8081 235.708 42.0225 235.06C42.2369 234.411 42.2572 234.37 42.1863 234.751C42.1155 235.131 41.9528 235.935 41.9351 235.779C41.9174 235.623 42.0496 234.485 42.1481 233.771C42.2467 233.058 42.3077 232.804 42.3341 232.79C42.3604 232.776 42.3502 233.009 42.3348 233.181C42.3093 233.465 42.5757 231.485 42.6218 231.413C42.6701 231.337 42.7399 231.739 42.8014 231.991C42.8193 232.064 42.8628 232.009 42.8836 231.952C42.9044 231.895 42.9146 231.834 42.9503 231.706C42.986 231.578 43.047 231.385 43.0937 231.647C43.1404 231.908 43.1709 232.63 43.1866 232.895C43.2023 233.16 43.2023 232.947 43.2125 232.903C43.2226 232.859 43.2429 232.991 43.2483 233.877C43.2537 234.764 43.2436 236.4 43.2231 237.152C43.2026 237.904 43.1721 237.721 43.1513 237.245C43.1305 236.77 43.1203 236.007 43.1202 235.564C43.12 235.12 43.1302 235.018 43.0744 235.774C43.0187 236.53 42.8967 238.146 42.8542 238.659C42.8436 238.786 42.9857 237.312 43.1091 237.354C43.6788 237.55 43.1105 239.735 43.1151 240.046C43.1197 240.358 43.1604 239.148 43.1305 239.369C43.1006 239.589 42.999 241.277 42.9568 241.927C42.9429 242.142 42.9762 241.742 43.0476 242.281C43.1122 242.768 43.1801 243.695 43.222 244.019C43.2639 244.343 43.2639 244.038 43.2588 243.962C43.2341 243.594 43.141 244.637 43.0744 244.679C43.0292 244.707 42.9977 244.477 42.8446 243.442C42.6915 242.408 42.4272 240.507 42.225 240.326C42.0228 240.145 41.8906 241.741 41.8581 241.953C41.8256 242.165 41.8968 240.945 41.9538 240.205C42.0108 239.465 42.0514 239.241 42.0825 238.958C42.1136 238.675 42.134 238.34 42.1445 238.197C42.1549 238.055 42.1549 238.116 42.0431 238.788C41.9313 239.46 41.7076 240.741 41.5873 241.487C41.4671 242.233 41.4569 242.406 41.4618 242.205C41.4667 242.005 41.4871 241.425 41.5941 240.344C41.7012 239.263 41.8943 237.697 41.8312 237.694C41.768 237.69 41.4427 239.297 41.4022 239.296C41.3617 239.294 41.6158 237.637 41.5333 237.424C41.4507 237.211 41.0238 238.492 40.8038 239.177C40.5839 239.862 40.5839 239.913 40.5839 239.868C40.5839 239.823 40.5839 239.681 40.7669 238.774C40.9498 237.867 41.3158 236.2 41.4992 235.377C41.6827 234.554 41.6725 234.625 41.4487 235.271C41.2249 235.918 40.7878 237.138 40.5626 237.71C40.3374 238.283 40.3374 238.171 40.3781 237.971C40.4188 237.771 40.5001 237.487 40.7402 236.867C40.9803 236.248 41.3768 235.302 41.5099 235.43C41.643 235.558 41.5006 236.788 41.4222 237.442C41.3438 238.096 41.3337 238.137 41.5317 237.609C41.7298 237.081 42.1364 235.983 42.3459 235.535C42.5554 235.086 42.5554 235.32 42.4741 235.832C42.3927 236.343 42.2301 237.126 42.1514 237.402C42.1317 237.471 42.2356 236.563 42.4513 235.634C42.5275 235.305 42.5246 235.264 42.4992 235.471C42.4738 235.679 42.4229 236.137 42.3154 236.708C42.2079 237.279 42.0453 237.95 41.9818 238.097C41.9183 238.245 41.959 237.848 42.107 237.105C42.255 236.362 42.5092 235.285 42.6553 234.592C42.8015 233.9 42.832 233.625 42.8528 233.362C42.8928 232.855 42.9247 232.492 42.9913 232.21C43.1498 231.54 43.1715 231.351 43.2328 231.131C43.3276 230.79 43.3563 230.571 43.3614 230.458C43.3624 230.436 43.3766 230.487 43.1633 231.479C42.95 232.471 42.5129 234.402 42.2826 235.458C42.0523 236.514 42.0422 236.636 42.0319 236.674C42.0215 236.711 42.0114 236.66 42.0112 237.59C42.0111 238.519 42.0212 240.43 42.0316 241.435C42.0419 242.44 42.052 242.481 42.1437 242.049C42.2353 241.618 42.4081 240.713 42.5022 240.308C42.5964 239.903 42.6065 240.025 42.5813 240.367C42.556 240.71 42.495 241.269 42.4636 240.977C42.4322 240.686 42.4322 239.527 42.3915 239.672C42.3508 239.817 42.2695 241.301 42.2276 241.969C42.1857 242.637 42.1857 242.444 42.2264 242.075C42.2671 241.706 42.3484 241.168 42.4004 241.409C42.4525 241.649 42.4728 242.686 42.4782 243.261C42.4844 243.917 42.463 244.082 42.4426 244.211C42.4104 244.414 41.6762 244.207 40.8978 244.089C40.1253 243.972 39.6095 244.011 39.4198 244.032C39.3416 244.04 39.3012 244.052 39.3514 244.088C39.5269 244.213 40.026 244.309 40.6004 244.406C41.2182 244.511 41.4972 244.597 41.5133 244.617C41.6107 244.742 40.9766 244.638 40.3629 244.587C39.541 244.519 39.044 244.442 39.0333 244.519C39.0179 244.631 39.401 244.678 40.1462 244.801C40.6843 244.89 41.5622 244.924 41.9872 244.971C42.4121 245.017 42.3613 245.048 42.2233 245.074C42.0853 245.1 41.8617 245.12 41.3043 245.1C40.7468 245.08 39.8624 245.019 39.5746 244.982C39.2867 244.946 39.6222 244.936 39.8306 244.92C40.039 244.905 40.1101 244.885 39.7605 244.869C38.6391 244.819 37.8524 244.782 37.9136 244.664C38.0084 244.482 38.3435 244.209 38.7276 243.722C39.4599 242.795 39.5156 242.359 39.4654 242.414C39.0939 242.819 38.8594 243.312 38.7569 243.507C38.6882 243.637 38.8366 243.236 39.139 242.426C39.2716 242.07 39.3905 241.839 39.6158 241.47C39.8412 241.1 40.1766 240.602 40.3393 240.417C40.4374 240.305 40.2574 241.222 39.9798 242.223C39.9321 242.396 40.2632 241.605 40.6175 240.614C40.7326 240.292 40.7379 240.345 40.6617 240.849C40.5854 241.353 40.4329 242.308 40.4001 242.734C40.3673 243.16 40.4588 243.028 40.6584 242.538C40.858 242.048 41.163 241.205 41.3201 240.79C41.4772 240.376 41.4772 240.417 41.4162 240.89C41.3552 241.363 41.2332 242.268 41.1958 242.709C41.1584 243.149 41.2092 243.099 41.271 243.016C41.4123 242.829 41.5789 242.453 41.7431 242.099C41.7928 241.991 41.8259 242.059 41.8364 242.146C41.8981 242.661 41.6935 243.26 41.6365 243.446C41.5677 243.671 41.6621 242.975 41.6621 242.959C41.6621 242.721 41.6112 243.507 41.5342 243.712C41.5036 243.794 41.508 243.836 41.4369 243.776C41.2015 243.576 41.0056 243.324 40.8673 243.211C40.7448 243.111 40.5746 243.077 40.3444 243.097C40.0579 243.123 39.7334 243.292 39.4868 243.41C39.4458 243.43 39.6579 243.059 39.9301 242.664C40.1461 242.349 39.6804 243.651 39.665 243.678C39.4902 243.975 39.8135 242.955 39.8393 242.77C39.8726 242.532 39.5984 243.128 39.5522 243.144C39.5162 243.156 39.5365 242.987 39.5162 242.98C39.1569 242.858 38.9636 243.722 38.6033 244.097C38.5296 244.174 38.4799 244.226 38.4537 244.135C38.249 243.426 38.6013 242.802 38.6433 242.599C38.6859 242.394 38.3268 243.36 38.0189 244.027C37.8997 244.286 37.8737 244.389 37.8478 244.462C37.8219 244.535 37.8016 244.575 37.7962 244.439C37.7784 243.987 37.8725 243.347 37.975 242.839C38.0494 242.471 37.3189 244.565 37.354 244.419C37.5043 243.79 37.8312 243.121 37.8324 243.005C37.8408 242.217 37.2163 244.38 37.1649 244.427C36.8762 244.69 37.3592 243.572 37.4313 243.288C37.4803 243.095 37.2681 243.988 37.1601 244.327C37.1272 244.431 37.1639 244.402 37.2 244.356C37.2811 244.252 37.3999 244.105 37.635 243.839C38.0339 243.388 38.3342 242.924 38.5338 242.546C38.7994 242.042 38.8896 241.762 38.9557 241.524C39.0323 241.248 39.1539 240.645 39.3287 240.062C39.5036 239.478 39.717 238.929 39.8321 238.626C40.0072 238.165 40.1625 237.903 40.581 237.142C40.8492 236.655 41.2733 235.763 41.5696 235.115C41.866 234.466 42.0083 234.08 42.1019 233.845C42.1956 233.61 42.2362 233.539 42.3089 233.404" stroke="#20F4FF" stroke-linecap="round"/>
<path d="M38.828 241.66C38.828 241.547 38.8483 241.322 38.9201 241.06C38.9481 240.958 38.6059 241.561 38.0259 242.557C37.8196 242.911 37.8016 242.963 37.8013 242.943C37.7995 242.831 37.8829 242.626 37.975 242.401C38.0703 242.168 38.4146 241.481 38.6829 240.923C38.4226 241.585 38.0893 242.357 37.9867 242.557C37.9452 242.645 37.9248 242.706 37.9039 242.676" stroke="#20F4FF" stroke-linecap="round"/>
<path d="M41.2616 238.764C41.4452 238.469 41.7945 237.934 42.3117 237.156C42.4941 236.882 42.6343 236.512 42.7994 236.05C42.9645 235.587 43.1271 235.028 43.2211 234.668C43.3512 234.171 43.3563 233.644 43.3614 233.039C43.3665 232.809 43.3766 232.738 43.3819 232.641C43.3871 232.543 43.3871 232.421 43.3871 232.295" stroke="#20F4FF" stroke-linecap="round"/>
<path d="M43.8184 228.198V230.94" stroke="#20F4FF" stroke-linecap="round"/>
<path d="M44.1265 228.167V229.893" stroke="#20F4FF" stroke-linecap="round"/>
<path d="M45.1663 226.072C44.9968 226.91 44.9026 227.417 44.9067 227.596C45.0248 226.62 45.0342 226.384 45.0483 226.215C45.0531 226.129 45.0531 226.045 45.0531 225.959" stroke="white" stroke-linecap="round"/>
<path d="M44.9117 226.327C44.9117 226.383 44.9023 226.916 44.8975 227.759C44.8934 228.486 44.996 228.954 45.0248 229.339C45.0362 229.491 44.9968 228.827 44.9497 228.273C44.8822 227.479 44.9023 226.931 44.8882 226.776C44.8467 226.32 44.7985 225.865 44.7845 225.855C44.6801 225.781 44.6857 226.539 44.6386 227.274C44.6178 227.599 44.6005 227.88 44.5772 228.061C44.5539 228.018 44.5072 227.7 44.4831 227.35C44.4591 227 44.4591 226.626 44.4591 226.242" stroke="white" stroke-linecap="round"/>
<path d="M44.9401 225.81V230.647" stroke="white" stroke-linecap="round"/>
<path d="M44.3743 226.772V229.459" stroke="white" stroke-linecap="round"/>
<path d="M44.4309 227.366V230.704" stroke="white" stroke-linecap="round"/>
<path d="M44.4591 230.704V242.923" stroke="white" stroke-linecap="round"/>
<path d="M44.3459 242.768C44.3459 242.992 44.3459 243.216 44.3459 243.952C44.3459 244.688 44.3459 245.929 44.3459 245.58C44.3459 245.23 44.3459 243.251 44.3459 242.908C44.3459 242.565 44.3459 243.919 44.3459 245.313" stroke="white" stroke-linecap="round"/>
<path d="M44.4591 244.154V247.378" stroke="white" stroke-linecap="round"/>
<path d="M44.1763 231.482V246.388" stroke="white" stroke-linecap="round"/>
<path d="M44.0066 225.747V231.687" stroke="white" stroke-linecap="round"/>
<path d="M44.0631 231.701V246.919" stroke="white" stroke-linecap="round"/>
<path d="M35.5958 245.774V246.024" stroke="#20F4FF" stroke-linecap="round"/>
<path d="M35.9636 246.523H43.0176" stroke="#20F4FF" stroke-linecap="round"/>
<path d="M35.9373 247.416H43.07" stroke="#20F4FF" stroke-linecap="round"/>
<path d="M42.7679 245.249V247.206" stroke="#20F4FF" stroke-linecap="round"/>
<path d="M43.0044 245.814V247.522" stroke="#20F4FF" stroke-linecap="round"/>
<path d="M36.9488 244.605C36.8534 244.787 36.7581 244.97 36.6569 245.146C36.4588 245.491 36.3272 245.704 36.2814 245.867C36.2493 245.982 36.214 246.165 36.1982 246.233C36.1825 246.3 36.1911 246.248 36.2433 246.074C36.2954 245.9 36.3908 245.605 36.4421 245.44C36.4934 245.276 36.4977 245.25 36.4089 245.368C36.3201 245.487 36.1381 245.752 36.0399 245.899C35.8953 246.115 35.8325 246.242 35.7515 246.393C35.6796 246.528 35.6135 246.689 35.5829 246.705C35.4862 246.754 35.6959 246.406 35.7555 246.248C35.767 246.217 35.7794 246.187 35.7861 246.191C35.8957 246.254 35.7361 246.509 35.616 246.922C35.5734 247.069 35.5695 247.236 35.5456 247.355C35.5389 247.377 35.5346 247.403 35.528 247.425C35.5215 247.447 35.5128 247.464 35.4907 247.508" stroke="#20F4FF" stroke-linecap="round"/>
<path d="M34.4004 247.364H35.8716" stroke="#20F4FF" stroke-linecap="round"/>
<path d="M34.2428 247.403H38.617" stroke="#20F4FF" stroke-linecap="round"/>
<path d="M35.6481 245.439C35.6385 245.446 35.6289 245.452 35.5027 245.62C35.3765 245.787 35.134 246.116 35.0027 246.298C34.8274 246.541 34.7557 246.641 34.6638 246.783C34.4426 247.099 34.4041 247.176 34.362 247.247C34.3523 247.264 34.3427 247.28 34.3329 247.315" stroke="#20F4FF" stroke-linecap="round"/>
<path d="M34.4779 247.431H42.079" stroke="#20F4FF" stroke-linecap="round"/>
<path d="M34.1008 247.576H43.1719" stroke="#20F4FF" stroke-linecap="round"/>
<path d="M118.273 248V154.909H149.727C157.03 154.909 163 156.227 167.636 158.864C172.303 161.47 175.758 165 178 169.455C180.242 173.909 181.364 178.879 181.364 184.364C181.364 189.848 180.242 194.833 178 199.318C175.788 203.803 172.364 207.379 167.727 210.045C163.091 212.682 157.152 214 149.909 214H127.364V204H149.545C154.545 204 158.561 203.136 161.591 201.409C164.621 199.682 166.818 197.348 168.182 194.409C169.576 191.439 170.273 188.091 170.273 184.364C170.273 180.636 169.576 177.303 168.182 174.364C166.818 171.424 164.606 169.121 161.545 167.455C158.485 165.758 154.424 164.909 149.364 164.909H129.545V248H118.273Z" fill="white"/>
<line x1="121.548" y1="245.786" x2="130.548" y2="226.786" stroke="#20F4FF"/>
<path d="M122.918 245.541H130.219" stroke="#20F4FF" stroke-linecap="round"/>
<path d="M129.972 228.907V245.387" stroke="#20F4FF" stroke-linecap="round"/>
<path d="M122.456 245.511C122.476 245.511 122.528 245.521 122.62 245.521C122.854 245.521 122.969 245.224 123.133 245.075C123.303 244.921 123.39 244.68 123.529 244.464C123.662 244.255 123.801 244.023 124.066 243.467C124.27 243.038 124.656 242.331 124.88 241.889C125.105 241.446 125.166 241.293 125.339 240.93C125.513 240.567 125.798 239.998 125.995 239.547C126.193 239.096 126.294 238.781 126.291 238.766C126.287 238.751 126.175 239.046 125.894 239.599C125.613 240.153 125.166 240.956 124.895 241.43C124.551 242.032 124.448 242.204 124.433 242.25C124.412 242.312 124.539 241.654 124.826 240.61C124.985 240.03 125.234 239.363 125.365 238.997C125.495 238.631 125.516 238.591 125.404 238.976C125.293 239.362 125.049 240.175 124.903 240.701C124.757 241.227 124.716 241.44 124.71 241.484C124.704 241.528 124.735 241.396 125.025 240.652C125.315 239.907 125.864 238.555 126.172 237.767C126.481 236.979 126.532 236.796 126.558 237.104C126.584 237.411 126.584 238.214 126.655 238.48C126.726 238.747 126.869 238.452 127.14 237.69C127.412 236.928 127.808 235.708 128.022 235.06C128.237 234.411 128.257 234.37 128.186 234.751C128.115 235.131 127.953 235.935 127.935 235.779C127.917 235.623 128.05 234.485 128.148 233.771C128.247 233.058 128.308 232.804 128.334 232.79C128.36 232.776 128.35 233.009 128.335 233.181C128.309 233.465 128.576 231.485 128.622 231.413C128.67 231.337 128.74 231.739 128.801 231.991C128.819 232.064 128.863 232.009 128.884 231.952C128.904 231.895 128.915 231.834 128.95 231.706C128.986 231.578 129.047 231.385 129.094 231.647C129.14 231.908 129.171 232.63 129.187 232.895C129.202 233.16 129.202 232.947 129.212 232.903C129.223 232.859 129.243 232.991 129.248 233.877C129.254 234.764 129.244 236.4 129.223 237.152C129.203 237.904 129.172 237.721 129.151 237.245C129.131 236.77 129.12 236.007 129.12 235.564C129.12 235.12 129.13 235.018 129.074 235.774C129.019 236.53 128.897 238.146 128.854 238.659C128.844 238.786 128.986 237.312 129.109 237.354C129.679 237.55 129.11 239.735 129.115 240.046C129.12 240.358 129.16 239.148 129.131 239.369C129.101 239.589 128.999 241.277 128.957 241.927C128.943 242.142 128.976 241.742 129.048 242.281C129.112 242.768 129.18 243.695 129.222 244.019C129.264 244.343 129.264 244.038 129.259 243.962C129.234 243.594 129.141 244.637 129.074 244.679C129.029 244.707 128.998 244.477 128.845 243.442C128.692 242.408 128.427 240.507 128.225 240.326C128.023 240.145 127.891 241.741 127.858 241.953C127.826 242.165 127.897 240.945 127.954 240.205C128.011 239.465 128.051 239.241 128.083 238.958C128.114 238.675 128.134 238.34 128.144 238.197C128.155 238.055 128.155 238.116 128.043 238.788C127.931 239.46 127.708 240.741 127.587 241.487C127.467 242.233 127.457 242.406 127.462 242.205C127.467 242.005 127.487 241.425 127.594 240.344C127.701 239.263 127.894 237.697 127.831 237.694C127.768 237.69 127.443 239.297 127.402 239.296C127.362 239.294 127.616 237.637 127.533 237.424C127.451 237.211 127.024 238.492 126.804 239.177C126.584 239.862 126.584 239.913 126.584 239.868C126.584 239.823 126.584 239.681 126.767 238.774C126.95 237.867 127.316 236.2 127.499 235.377C127.683 234.554 127.673 234.625 127.449 235.271C127.225 235.918 126.788 237.138 126.563 237.71C126.337 238.283 126.337 238.171 126.378 237.971C126.419 237.771 126.5 237.487 126.74 236.867C126.98 236.248 127.377 235.302 127.51 235.43C127.643 235.558 127.501 236.788 127.422 237.442C127.344 238.096 127.334 238.137 127.532 237.609C127.73 237.081 128.136 235.983 128.346 235.535C128.555 235.086 128.555 235.32 128.474 235.832C128.393 236.343 128.23 237.126 128.151 237.402C128.132 237.471 128.236 236.563 128.451 235.634C128.528 235.305 128.525 235.264 128.499 235.471C128.474 235.679 128.423 236.137 128.315 236.708C128.208 237.279 128.045 237.95 127.982 238.097C127.918 238.245 127.959 237.848 128.107 237.105C128.255 236.362 128.509 235.285 128.655 234.592C128.802 233.9 128.832 233.625 128.853 233.362C128.893 232.855 128.925 232.492 128.991 232.21C129.15 231.54 129.171 231.351 129.233 231.131C129.328 230.79 129.356 230.571 129.361 230.458C129.362 230.436 129.377 230.487 129.163 231.479C128.95 232.471 128.513 234.402 128.283 235.458C128.052 236.514 128.042 236.636 128.032 236.674C128.022 236.711 128.011 236.66 128.011 237.59C128.011 238.519 128.021 240.43 128.032 241.435C128.042 242.44 128.052 242.481 128.144 242.049C128.235 241.618 128.408 240.713 128.502 240.308C128.596 239.903 128.607 240.025 128.581 240.367C128.556 240.71 128.495 241.269 128.464 240.977C128.432 240.686 128.432 239.527 128.392 239.672C128.351 239.817 128.27 241.301 128.228 241.969C128.186 242.637 128.186 242.444 128.226 242.075C128.267 241.706 128.348 241.168 128.4 241.409C128.452 241.649 128.473 242.686 128.478 243.261C128.484 243.917 128.463 244.082 128.443 244.211C128.41 244.414 127.676 244.207 126.898 244.089C126.125 243.972 125.61 244.011 125.42 244.032C125.342 244.04 125.301 244.052 125.351 244.088C125.527 244.213 126.026 244.309 126.6 244.406C127.218 244.511 127.497 244.597 127.513 244.617C127.611 244.742 126.977 244.638 126.363 244.587C125.541 244.519 125.044 244.442 125.033 244.519C125.018 244.631 125.401 244.678 126.146 244.801C126.684 244.89 127.562 244.924 127.987 244.971C128.412 245.017 128.361 245.048 128.223 245.074C128.085 245.1 127.862 245.12 127.304 245.1C126.747 245.08 125.862 245.019 125.575 244.982C125.287 244.946 125.622 244.936 125.831 244.92C126.039 244.905 126.11 244.885 125.76 244.869C124.639 244.819 123.852 244.782 123.914 244.664C124.008 244.482 124.343 244.209 124.728 243.722C125.46 242.795 125.516 242.359 125.465 242.414C125.094 242.819 124.859 243.312 124.757 243.507C124.688 243.637 124.837 243.236 125.139 242.426C125.272 242.07 125.391 241.839 125.616 241.47C125.841 241.1 126.177 240.602 126.339 240.417C126.437 240.305 126.257 241.222 125.98 242.223C125.932 242.396 126.263 241.605 126.617 240.614C126.733 240.292 126.738 240.345 126.662 240.849C126.585 241.353 126.433 242.308 126.4 242.734C126.367 243.16 126.459 243.028 126.658 242.538C126.858 242.048 127.163 241.205 127.32 240.79C127.477 240.376 127.477 240.417 127.416 240.89C127.355 241.363 127.233 242.268 127.196 242.709C127.158 243.149 127.209 243.099 127.271 243.016C127.412 242.829 127.579 242.453 127.743 242.099C127.793 241.991 127.826 242.059 127.836 242.146C127.898 242.661 127.693 243.26 127.636 243.446C127.568 243.671 127.662 242.975 127.662 242.959C127.662 242.721 127.611 243.507 127.534 243.712C127.504 243.794 127.508 243.836 127.437 243.776C127.201 243.576 127.006 243.324 126.867 243.211C126.745 243.111 126.575 243.077 126.344 243.097C126.058 243.123 125.733 243.292 125.487 243.41C125.446 243.43 125.658 243.059 125.93 242.664C126.146 242.349 125.68 243.651 125.665 243.678C125.49 243.975 125.813 242.955 125.839 242.77C125.873 242.532 125.598 243.128 125.552 243.144C125.516 243.156 125.537 242.987 125.516 242.98C125.157 242.858 124.964 243.722 124.603 244.097C124.53 244.174 124.48 244.226 124.454 244.135C124.249 243.426 124.601 242.802 124.643 242.599C124.686 242.394 124.327 243.36 124.019 244.027C123.9 244.286 123.874 244.389 123.848 244.462C123.822 244.535 123.802 244.575 123.796 244.439C123.778 243.987 123.872 243.347 123.975 242.839C124.049 242.471 123.319 244.565 123.354 244.419C123.504 243.79 123.831 243.121 123.832 243.005C123.841 242.217 123.216 244.38 123.165 244.427C122.876 244.69 123.359 243.572 123.431 243.288C123.48 243.095 123.268 243.988 123.16 244.327C123.127 244.431 123.164 244.402 123.2 244.356C123.281 244.252 123.4 244.105 123.635 243.839C124.034 243.388 124.334 242.924 124.534 242.546C124.799 242.042 124.89 241.762 124.956 241.524C125.032 241.248 125.154 240.645 125.329 240.062C125.504 239.478 125.717 238.929 125.832 238.626C126.007 238.165 126.162 237.903 126.581 237.142C126.849 236.655 127.273 235.763 127.57 235.115C127.866 234.466 128.008 234.08 128.102 233.845C128.196 233.61 128.236 233.539 128.309 233.404" stroke="#20F4FF" stroke-linecap="round"/>
<path d="M124.828 241.66C124.828 241.547 124.848 241.322 124.92 241.06C124.948 240.958 124.606 241.561 124.026 242.557C123.82 242.911 123.802 242.963 123.801 242.943C123.8 242.831 123.883 242.626 123.975 242.401C124.07 242.168 124.415 241.481 124.683 240.923C124.423 241.585 124.089 242.357 123.987 242.557C123.945 242.645 123.925 242.706 123.904 242.676" stroke="#20F4FF" stroke-linecap="round"/>
<path d="M127.262 238.764C127.445 238.469 127.795 237.934 128.312 237.156C128.494 236.882 128.634 236.512 128.799 236.05C128.965 235.587 129.127 235.028 129.221 234.668C129.351 234.171 129.356 233.644 129.362 233.039C129.367 232.809 129.377 232.738 129.382 232.641C129.387 232.543 129.387 232.421 129.387 232.295" stroke="#20F4FF" stroke-linecap="round"/>
<path d="M129.818 228.198V230.94" stroke="#20F4FF" stroke-linecap="round"/>
<path d="M130.126 228.167V229.893" stroke="#20F4FF" stroke-linecap="round"/>
<path d="M131.166 226.072C130.997 226.91 130.903 227.417 130.907 227.596C131.025 226.62 131.034 226.384 131.048 226.215C131.053 226.129 131.053 226.045 131.053 225.959" stroke="white" stroke-linecap="round"/>
<path d="M130.912 226.327C130.912 226.383 130.902 226.916 130.897 227.759C130.893 228.486 130.996 228.954 131.025 229.339C131.036 229.491 130.997 228.827 130.95 228.273C130.882 227.479 130.902 226.931 130.888 226.776C130.847 226.32 130.798 225.865 130.784 225.855C130.68 225.781 130.686 226.539 130.638 227.274C130.618 227.599 130.6 227.88 130.577 228.061C130.554 228.018 130.507 227.7 130.483 227.35C130.459 227 130.459 226.626 130.459 226.242" stroke="white" stroke-linecap="round"/>
<path d="M130.94 225.81V230.647" stroke="white" stroke-linecap="round"/>
<path d="M130.374 226.772V229.459" stroke="white" stroke-linecap="round"/>
<path d="M130.431 227.366V230.704" stroke="white" stroke-linecap="round"/>
<path d="M130.459 230.704V242.923" stroke="white" stroke-linecap="round"/>
<path d="M130.346 242.768C130.346 242.992 130.346 243.216 130.346 243.952C130.346 244.688 130.346 245.929 130.346 245.58C130.346 245.23 130.346 243.251 130.346 242.908C130.346 242.565 130.346 243.919 130.346 245.313" stroke="white" stroke-linecap="round"/>
<path d="M130.459 244.154V247.378" stroke="white" stroke-linecap="round"/>
<path d="M130.176 231.482V246.388" stroke="white" stroke-linecap="round"/>
<path d="M130.007 225.747V231.687" stroke="white" stroke-linecap="round"/>
<path d="M130.063 231.701V246.919" stroke="white" stroke-linecap="round"/>
<path d="M121.596 245.774V246.024" stroke="#20F4FF" stroke-linecap="round"/>
<path d="M121.964 246.523H129.018" stroke="#20F4FF" stroke-linecap="round"/>
<path d="M121.937 247.416H129.07" stroke="#20F4FF" stroke-linecap="round"/>
<path d="M128.768 245.249V247.206" stroke="#20F4FF" stroke-linecap="round"/>
<path d="M129.004 245.814V247.522" stroke="#20F4FF" stroke-linecap="round"/>
<path d="M122.949 244.605C122.853 244.787 122.758 244.97 122.657 245.146C122.459 245.491 122.327 245.704 122.281 245.867C122.249 245.982 122.214 246.165 122.198 246.233C122.182 246.3 122.191 246.248 122.243 246.074C122.295 245.9 122.391 245.605 122.442 245.44C122.493 245.276 122.498 245.25 122.409 245.368C122.32 245.487 122.138 245.752 122.04 245.899C121.895 246.115 121.833 246.242 121.752 246.393C121.68 246.528 121.614 246.689 121.583 246.705C121.486 246.754 121.696 246.406 121.755 246.248C121.767 246.217 121.779 246.187 121.786 246.191C121.896 246.254 121.736 246.509 121.616 246.922C121.573 247.069 121.57 247.236 121.546 247.355C121.539 247.377 121.535 247.403 121.528 247.425C121.521 247.447 121.513 247.464 121.491 247.508" stroke="#20F4FF" stroke-linecap="round"/>
<path d="M120.4 247.364H121.872" stroke="#20F4FF" stroke-linecap="round"/>
<path d="M120.243 247.403H124.617" stroke="#20F4FF" stroke-linecap="round"/>
<path d="M121.648 245.439C121.639 245.446 121.629 245.452 121.503 245.62C121.377 245.787 121.134 246.116 121.003 246.298C120.828 246.541 120.756 246.641 120.664 246.783C120.443 247.099 120.404 247.176 120.362 247.247C120.352 247.264 120.343 247.28 120.333 247.315" stroke="#20F4FF" stroke-linecap="round"/>
<path d="M120.478 247.431H128.079" stroke="#20F4FF" stroke-linecap="round"/>
<path d="M120.101 247.576H129.172" stroke="#20F4FF" stroke-linecap="round"/>
<path d="M208.091 249H196.273L230.455 155.909H242.091L276.273 249H264.455L236.636 170.636H235.909L208.091 249ZM212.455 212.636H260.091V222.636H212.455V212.636Z" fill="white"/>
<path d="M204.681 226.859H215.332" stroke="#20F4FF" stroke-linecap="round"/>
<path d="M256.971 227.548H268.023" stroke="#20F4FF" stroke-linecap="round"/>
<path d="M196.533 248.822L205 227" stroke="#20F4FF"/>
<line x1="197" y1="248.5" x2="208" y2="248.5" stroke="#20F4FF"/>
<line x1="207.53" y1="248.829" x2="215.53" y2="226.829" stroke="#20F4FF"/>
<path d="M206.956 234.871C206.938 234.889 206.92 234.907 206.57 235.145C206.22 235.383 205.539 235.84 205.129 236.102C204.72 236.365 204.603 236.419 204.588 236.388C204.573 236.358 204.663 236.241 205.13 235.334C205.598 234.426 206.441 232.731 206.889 231.777C207.336 230.824 207.363 230.662 207.364 230.597C207.364 230.532 207.337 230.568 206.938 231.46C206.538 232.353 205.767 234.102 205.293 235.254C204.82 236.406 204.668 236.908 204.576 237.341C204.484 237.775 204.457 238.125 204.479 238.26C204.501 238.395 204.572 238.306 205.304 236.811C206.036 235.317 207.426 232.42 208.165 230.865C208.903 229.311 208.948 229.185 208.922 229.201C208.896 229.217 208.797 229.378 208.123 230.834C207.449 232.289 206.202 235.033 205.529 236.581C204.855 238.129 204.793 238.398 205.666 237.362C206.539 236.326 208.351 233.976 208.705 234.129C209.06 234.282 207.903 237.008 207.321 238.394C206.738 239.781 206.765 239.745 207.443 238.184C208.12 236.623 209.447 233.538 210.127 232.061C210.806 230.584 210.797 230.808 210.761 231.135C210.725 231.461 210.662 231.882 210.374 233.041C210.086 234.2 209.575 236.083 209.298 237.152C209.022 238.22 208.995 238.418 208.99 238.497C208.985 238.576 209.003 238.531 209.075 238.396C209.147 238.261 209.272 238.037 209.83 236.706C210.388 235.376 211.375 232.945 211.533 232.756C211.691 232.567 210.992 234.692 210.632 235.661C210.271 236.631 210.271 236.38 210.285 236.161C210.298 235.942 210.325 235.762 210.37 235.558C210.416 235.353 210.478 235.129 210.543 234.898" stroke="#20F4FF" stroke-linecap="round"/>
<path d="M204.973 231.148C204.999 231.256 205.09 231.492 205.217 231.619C205.245 231.648 205.289 231.637 205.37 231.597C205.451 231.556 205.577 231.476 205.812 231.219C206.047 230.962 206.388 230.532 206.689 230.184C207.222 229.569 207.571 229.283 207.68 229.246C207.716 229.234 207.717 229.317 207.565 229.753C207.412 230.189 207.107 230.996 206.946 231.43C206.784 231.863 206.775 231.899 206.802 231.868C206.829 231.837 206.892 231.739 207.058 231.401C207.225 231.063 207.494 230.489 207.682 230.032C207.998 229.264 208.07 228.857 208.017 228.762C207.936 228.619 207.35 228.801 206.694 228.91C206.319 228.972 206.106 228.929 205.952 228.897C205.888 228.884 205.852 228.875 205.919 228.857C205.985 228.839 206.156 228.812 207.127 228.802C208.098 228.793 209.864 228.802 210.792 228.802C211.821 228.802 211.982 228.702 212.353 228.563C212.567 228.482 212.77 228.422 212.975 228.421C213.127 228.421 212.781 228.747 212.56 229.014C212.486 229.103 212.384 229.199 211.885 229.917C211.386 230.636 210.489 231.972 209.646 233.517C208.803 235.062 208.04 236.775 207.832 237.168C207.623 237.562 207.99 236.584 208.27 235.911C208.549 235.237 208.728 234.896 209.018 234.433C209.307 233.971 209.702 233.397 210.008 232.985C210.315 232.572 210.521 232.339 210.645 232.278C210.769 232.216 210.805 232.332 210.824 232.513C210.842 232.695 210.842 232.937 210.811 233.245C210.779 233.554 210.717 233.921 210.514 234.6C210.311 235.278 209.97 236.255 209.786 236.777C209.601 237.298 209.583 237.334 209.839 236.604C210.094 235.873 210.623 234.376 210.99 233.416C211.357 232.456 211.545 232.08 211.633 231.939C211.674 231.874 211.487 232.52 211.09 233.438C210.759 234.2 210.471 234.535 210.444 234.585C210.428 234.613 210.488 234.392 210.668 233.888C210.803 233.512 210.992 232.882 211.246 232.236C211.5 231.589 211.805 230.944 211.648 231.091C211.492 231.238 210.864 232.197 210.464 232.781C210.065 233.365 209.912 233.545 209.775 233.686C209.639 233.828 209.522 233.927 209.861 233.475C210.2 233.024 210.998 232.02 211.477 231.395C211.955 230.77 212.089 230.555 212.127 230.538C212.286 230.468 212.038 230.984 212.132 231.035C212.424 231.192 212.716 230.588 212.866 230.433C213.066 230.227 212.42 231.192 212.008 231.545C211.901 231.637 211.777 231.699 211.762 231.615C211.747 231.531 211.837 231.289 211.999 230.886C212.162 230.483 212.395 229.927 212.529 229.592C212.782 228.956 212.907 228.658 213.038 228.422C213.146 228.229 213.369 228.114 213.478 227.974C213.578 227.844 213.704 227.77 213.74 227.742C213.747 227.737 213.705 227.805 212.808 228.783C211.911 229.761 210.153 231.662 209.028 232.964C207.903 234.267 207.463 234.912 207.228 235.263C206.993 235.613 206.975 235.649 207.36 234.901C207.745 234.153 208.535 232.619 208.95 231.793C209.365 230.968 209.383 230.896 208.855 231.684C208.326 232.472 207.25 234.122 206.592 235.089C205.935 236.055 205.729 236.288 205.784 235.713C205.839 235.139 206.162 233.749 206.332 232.956C206.503 232.164 206.512 232.012 206.346 232.162C206.181 232.312 205.84 232.769 205.377 233.511C204.915 234.254 204.341 235.267 204.054 235.592C203.768 235.917 203.786 235.522 203.97 234.727C204.154 233.932 204.504 232.748 204.625 232.358C204.747 231.968 204.631 232.407 204.355 233.154C204.08 233.9 203.65 234.94 203.41 235.503C203.17 236.066 203.135 236.12 203.116 236.13C203.088 236.145 203.322 235.546 203.742 234.624C204.058 233.932 204.401 233.523 204.613 233.364C204.676 233.316 204.71 233.5 204.714 233.709C204.719 233.917 204.71 234.186 204.508 235.064C204.306 235.943 203.912 237.422 203.722 238.171C203.532 238.92 203.559 238.893 203.802 238.296C204.044 237.7 204.501 236.534 204.818 235.803C205.134 235.073 205.295 234.813 205.379 234.706C205.462 234.599 205.462 234.652 205.421 234.815C205.381 234.977 205.3 235.246 205.035 235.873C204.769 236.5 204.32 237.478 203.776 238.461C203.231 239.445 202.603 240.404 202.266 240.93C201.929 241.455 201.902 241.518 202.09 240.829C202.278 240.139 202.682 238.695 202.643 238.647C202.604 238.598 202.111 239.988 201.799 240.811C201.486 241.635 201.37 241.85 201.278 242.042C201.187 242.233 201.124 242.395 201.329 241.814C201.535 241.234 202.01 239.907 202.255 239.245C202.5 238.584 202.5 238.629 202.132 239.495C201.764 240.361 201.029 242.047 201.35 241.893C201.67 241.739 203.069 239.695 203.808 238.597C204.546 237.499 204.582 237.409 204.336 238.058C204.09 238.706 203.561 240.096 203.23 241.064C202.899 242.031 202.783 242.533 202.723 242.814C202.663 243.095 202.663 243.14 202.735 243.127C202.806 243.114 202.95 243.043 203.678 242.391C204.407 241.74 205.716 240.512 206.462 239.825C207.208 239.138 207.352 239.031 207.417 239.056C207.482 239.081 207.464 239.243 207.401 239.492C207.338 239.741 207.23 240.072 206.874 240.84C206.518 241.607 205.918 242.8 205.613 243.392C205.308 243.984 205.317 243.939 205.599 243.315C205.882 242.691 206.438 241.489 207.016 240.462C207.593 239.435 208.176 238.619 208.643 238.037C209.109 237.456 209.44 237.133 209.593 237.034C209.746 236.935 209.711 237.069 209.221 238.12C208.732 239.172 207.79 241.136 207.292 242.165C206.793 243.195 206.767 243.231 207.174 242.698C207.582 242.165 208.425 241.062 208.877 240.462C209.329 239.862 209.365 239.8 209.402 239.708" stroke="#20F4FF" stroke-width="3" stroke-linecap="round"/>
<path d="M208.641 241.236C208.506 241.443 208.372 241.649 207.89 242.562C207.408 243.475 206.583 245.09 206.176 245.872C205.769 246.654 205.805 246.555 205.85 246.455C205.896 246.355 205.95 246.256 206.166 245.775C206.382 245.294 206.758 244.433 206.984 243.936C207.26 243.326 207.354 243.148 207.368 243.098C207.374 243.077 207.337 243.236 207.157 243.717C206.978 244.199 206.646 245.042 206.47 245.503C206.295 245.964 206.286 246.018 206.295 246.059C206.332 246.235 206.485 246.39 206.539 246.494C206.579 246.572 206.72 246.31 206.896 246.008C207.202 245.482 207.408 244.925 207.521 244.644C207.547 244.58 207.366 245.162 207.026 245.986C206.904 246.282 206.875 246.326 206.866 245.883C206.856 245.44 206.865 244.507 206.973 243.367C207.081 242.228 207.287 240.91 207.398 239.993C207.509 239.076 207.518 238.601 207.518 238.338C207.518 238.075 207.509 238.04 207.464 238.026C207.419 238.012 207.338 238.021 207.077 238.24C206.345 238.856 205.879 239.361 205.815 239.348C205.67 239.318 205.922 238.561 206.085 237.728C206.145 237.424 206.141 237.361 205.778 237.638C205.415 237.915 204.688 238.534 204.292 238.861C203.895 239.189 203.85 239.207 203.818 239.167C203.726 239.052 203.75 238.702 203.763 238.251C203.777 237.797 203.831 237.433 203.804 237.248C203.726 236.708 202.663 238.174 202.568 238.197C202.318 238.258 202.616 237.364 202.703 237.106C202.775 236.896 202.213 238.015 201.92 238.505C201.884 238.591 201.866 238.673 201.852 238.866C201.847 239.015 201.847 239.266 201.847 239.524" stroke="#20F4FF" stroke-width="3" stroke-linecap="round"/>
<path d="M201.657 241.535C201.657 241.616 201.657 241.697 201.523 242.101C201.388 242.506 201.119 243.233 200.927 243.714C200.646 244.419 200.48 244.732 200.354 245.025C199.98 245.893 199.846 246.091 199.719 246.313C199.7 246.346 199.665 245.986 199.683 245.434C199.7 244.894 199.891 244.499 199.986 244.245C200.066 244.032 200.126 243.819 200.163 243.696C200.19 243.604 199.83 244.186 199.499 244.796C199.136 245.468 199.086 245.925 198.931 246.235C198.77 246.558 198.669 246.743 198.506 246.911C198.463 246.955 198.416 246.987 198.375 247.024C198.333 247.06 198.298 247.096 198.736 247.124C199.175 247.151 200.09 247.169 200.673 247.151C201.257 247.134 201.481 247.08 201.641 247.03C201.801 246.98 201.891 246.935 202.287 246.656C202.683 246.377 203.382 245.866 203.774 245.572C204.166 245.277 204.229 245.214 204.283 245.164C204.338 245.114 204.383 245.078 204.168 244.965C203.954 244.852 203.479 244.664 203.131 244.554C202.586 244.381 202.265 244.389 202.004 244.433C201.6 244.503 201.323 244.696 201.161 244.804C200.915 244.968 200.707 245.194 200.589 245.375C200.54 245.45 200.561 245.52 200.579 245.565C200.648 245.738 200.976 245.828 201.794 245.901C202.493 245.963 203.033 246.181 203.286 246.276C203.602 246.395 203.857 246.716 204.246 247.064C204.435 247.232 204.564 247.341 204.686 247.368C204.993 247.437 205.378 247.152 205.62 247.083C205.764 247.042 205.95 247.052 206.118 247.079C206.204 247.097 206.286 247.124 206.371 247.151C206.421 247.16 206.484 247.16 206.549 247.133" stroke="#20F4FF" stroke-width="3" stroke-linecap="round"/>
<path d="M261.363 229.061C261.389 229.19 261.505 229.807 261.685 230.716C261.78 231.195 261.968 231.69 262.169 232.376C262.37 233.062 262.6 233.92 263.071 234.887C263.542 235.854 264.246 236.904 264.628 237.49C265.167 238.316 265.269 238.592 265.392 238.8C265.423 238.852 265.45 238.903 265.482 238.955C265.515 239.007 265.553 239.058 265.496 237.574C265.439 236.089 265.285 233.067 265.296 232.138C265.3 231.761 265.798 234.115 265.999 234.088C266.387 234.037 266.084 232.564 266.039 231.637C265.995 230.711 265.892 230.032 265.948 229.945C266.228 229.511 266.613 231.193 266.91 231.658C267.115 231.979 267.286 232.216 267.434 232.474C267.877 233.244 268.424 234.116 268.573 234.531C268.671 234.932 268.85 235.678 269.026 236.625C269.046 236.795 269.046 236.884 269.085 237.054" stroke="#20F4FF" stroke-width="3" stroke-linecap="round"/>
<path d="M268.774 236.628C268.774 236.884 268.774 237.272 268.838 237.922C268.877 238.32 269.03 238.842 269.243 239.579C269.457 240.317 269.751 241.252 269.935 241.797C270.257 242.754 270.442 243.183 270.584 243.61C270.706 243.975 270.972 244.694 271.095 245.047C271.166 245.247 271.269 245.614 271.419 245.907C271.483 246.032 271.606 246.172 271.697 246.218C271.853 246.297 271.543 245.773 271.222 245.265C270.564 244.226 270.003 243.573 269.9 243.489C269.847 243.446 269.797 243.393 269.265 242.131C268.733 240.869 267.721 238.398 267.194 237.099C266.666 235.8 266.653 235.749 266.653 235.838C266.653 235.927 266.666 236.157 266.756 236.967C266.845 237.778 267.012 239.16 267.098 240.065C267.22 241.351 267.171 241.839 267.151 242.077C267.139 242.225 267.145 242.431 266.613 241.166C266.082 239.902 265.019 237.161 264.452 235.673C263.886 234.185 263.847 234.031 264.052 234.682C264.256 235.332 264.704 236.792 265.383 238.331C266.062 239.871 266.958 241.446 267.478 242.424C267.997 243.401 268.112 243.734 267.941 243.483C267.77 243.232 267.309 242.387 266.425 240.934C265.541 239.481 264.248 237.445 263.351 235.762C262.454 234.08 261.993 232.812 261.782 232.293C261.57 231.775 261.621 232.044 261.814 232.726C262.007 233.409 262.339 234.497 262.53 234.597C262.721 234.697 262.759 233.775 262.83 233.102C262.944 232.023 263.225 231.353 263.463 230.869C263.792 230.202 264.207 229.904 264.66 229.663C264.746 229.618 264.803 229.618 264.816 229.586C264.83 229.553 264.804 229.502 264.727 229.463C264.357 229.275 264.016 229.307 263.473 229.294C263.1 229.285 264.362 229.217 264.955 229.184C265.314 229.178 265.967 229.178 266.336 229.171C266.704 229.165 266.768 229.152 266.951 229.139" stroke="#20F4FF" stroke-width="3" stroke-linecap="round"/>
<path d="M265.398 229.217C265.322 229.217 264.642 229.357 263.64 229.571C263.09 229.688 262.8 229.708 262.064 229.727C261.468 229.743 260.821 229.734 260.588 229.676C260.381 229.592 260.225 229.527 260.116 229.463C260.057 229.437 259.993 229.424 259.927 229.411" stroke="#20F4FF" stroke-width="3" stroke-linecap="round"/>
<path d="M259.927 229.527C259.966 229.861 260.198 230.765 260.489 231.632C260.652 232.117 260.832 232.424 260.948 232.604C261.119 232.87 261.4 233.391 261.832 234.126C262.308 234.934 262.398 235.515 262.449 235.631C262.51 235.768 262.591 236.12 262.695 236.605C262.772 236.969 262.901 237.567 263.121 238.265C263.278 238.766 263.354 239.289 263.548 239.839C263.788 240.522 264.039 241.217 264.233 241.611C264.493 242.14 264.841 242.834 265.184 243.692C265.482 244.439 265.696 245.136 265.78 245.434C265.816 245.562 265.851 245.693 265.934 245.803C266.212 246.167 266.962 245.514 267.356 245.41C267.677 245.325 267.971 245.358 268.429 245.287C268.54 245.267 268.617 245.255 268.855 245.248C269.093 245.241 269.49 245.241 269.899 245.241" stroke="#20F4FF" stroke-width="3" stroke-linecap="round"/>
<path d="M267.688 245.668C267.688 245.681 267.688 245.694 267.72 245.713C267.81 245.768 268.676 245.785 269.904 245.778C270.725 245.774 271.399 245.771 271.702 245.791C271.774 245.797 271.825 245.81 271.922 245.817C272.019 245.823 272.16 245.823 272.305 245.823" stroke="#20F4FF" stroke-width="3" stroke-linecap="round"/>
<path d="M272.771 245.707C272.771 245.604 272.719 245.372 272.455 244.073C272.306 243.337 272.013 242.136 271.836 241.432C271.558 240.329 271.413 240.134 271.213 239.67C270.714 238.513 270.508 237.974 270.378 237.573C270.153 236.875 269.757 235.918 269.66 235.633C269.539 235.275 269.254 234.78 269.149 234.52C269.029 234.219 268.839 233.875 268.703 233.602C268.602 233.397 268.529 233.188 268.367 232.852C268.247 232.603 268.064 232.181 267.927 231.747C267.756 231.202 267.546 230.835 267.365 230.35C267.145 229.877 267.028 229.579 266.97 229.45C266.95 229.385 266.95 229.321 266.912 229.178" stroke="#20F4FF" stroke-width="3" stroke-linecap="round"/>
<path d="M266.989 228.441C266.989 228.466 267.002 228.543 267.028 228.666C267.041 228.725 267.054 228.776 267.067 228.828C267.08 228.88 267.092 228.931 267.106 228.984" stroke="#20F4FF" stroke-width="3" stroke-linecap="round"/>
<path d="M267.106 228.829V237.559" stroke="#20F4FF" stroke-width="3" stroke-linecap="round"/>
<path d="M270.365 245.319C270.597 245.59 270.829 245.822 271.14 246.197C271.392 246.501 271.683 246.547 272 246.593C272.315 246.638 272.524 246.664 272.828 246.703C272.88 246.709 272.861 246.779 272.746 246.851C272.181 247.199 271.969 247.155 271.258 247.175C270.61 247.192 269.381 247.181 268.709 247.188C267.728 247.197 267.211 247.271 266.855 247.304C266.512 247.336 266.021 247.362 265.71 247.35C265.501 247.341 265.451 246.86 265.251 246.459C264.806 245.571 264.843 245.23 264.778 244.926C264.639 244.275 264.506 244.091 264.384 243.788C264.145 243.195 263.924 242.527 263.815 242.293C263.718 242.086 263.614 241.828 263.459 241.324C263.357 240.995 263.291 240.768 263.142 240.361C262.968 239.883 262.8 239.423 262.747 239.17C262.68 238.847 262.554 238.518 262.45 238.207C262.316 237.803 262.178 237.418 262.036 237.107C261.92 236.853 261.804 236.539 261.706 236.241C261.58 235.855 261.352 235.233 261.228 234.934C261.062 234.535 260.963 234.197 260.853 233.887C260.757 233.616 260.524 233.114 260.368 232.716C260.282 232.5 260.187 232.231 259.896 231.477C259.745 231.083 259.696 230.809 259.514 230.286C259.419 230.011 259.294 229.761 259.249 229.451C259.191 229.296 259.139 229.165 259.107 229.062C259.087 229.01 259.062 228.959 259.035 228.906" stroke="#20F4FF" stroke-width="3" stroke-linecap="round"/>
<path d="M272.266 245.474C272.382 245.577 272.563 245.887 272.667 246.088C272.861 246.275 273.067 246.482 273.454 246.856C273.559 246.961 273.648 247.05 273.818 247.065" stroke="#20F4FF" stroke-width="3" stroke-linecap="round"/>
<path d="M272.941 242.829C272.95 242.845 273.098 243.049 273.324 243.358C273.428 243.5 273.454 243.563 273.477 243.624C273.568 243.863 273.556 244.262 273.586 244.403C273.624 244.58 273.654 244.664 273.661 244.747C273.664 244.784 273.684 244.831 273.708 244.867C273.715 244.878 273.727 244.857 273.733 244.833C273.748 244.781 273.748 244.543 273.751 244.21C273.751 244.084 273.757 244.046 273.759 243.967C273.761 243.889 273.761 243.77 273.837 243.895C273.913 244.02 274.066 244.392 274.148 244.599C274.242 244.834 274.256 244.882 274.269 244.887C274.321 244.905 274.252 244.683 274.176 244.394C274.127 244.208 274.032 243.952 273.982 243.841C273.932 243.729 273.924 243.771 273.924 243.816C273.923 244.016 273.987 244.296 274.005 244.406C274.01 244.441 273.971 244.217 273.877 243.915C273.821 243.735 273.733 243.504 273.681 243.367C273.616 243.195 273.557 243.018 273.497 242.792C273.471 242.692 273.433 242.438 273.377 242.071C273.349 241.886 273.309 241.77 273.249 241.546C273.205 241.382 273.176 241.267 273.161 241.195C273.139 241.089 273.185 241.483 273.219 241.624C273.24 241.711 273.27 241.786 273.315 241.878C273.371 241.994 273.419 242.136 273.469 242.249C273.534 242.401 273.564 242.575 273.605 242.687C273.632 242.76 273.684 242.854 273.735 242.977C273.806 243.147 273.91 243.441 273.962 243.605C274.002 243.733 274.064 243.908 274.094 244.026C274.122 244.133 274.141 244.22 274.152 244.337C274.163 244.456 274.205 244.536 274.233 244.636C274.266 244.757 274.346 245.047 274.402 245.243C274.439 245.372 274.461 245.45 274.493 245.527C274.543 245.647 274.568 245.778 274.615 245.932C274.688 246.142 274.705 246.206 274.718 246.246C274.722 246.266 274.722 246.282 274.748 246.325" stroke="#20F4FF" stroke-width="0.5" stroke-linecap="round"/>
<path d="M274.696 246.159C274.692 246.151 274.688 246.142 274.631 245.99C274.574 245.837 274.464 245.542 274.405 245.376C274.346 245.211 274.342 245.186 274.308 245.046C274.274 244.906 274.211 244.653 274.176 244.482C274.125 244.233 274.128 244.131 274.126 244.118C274.114 244.044 274.171 244.301 274.222 244.423C274.358 244.746 274.453 245.031 274.493 245.134C274.535 245.238 274.564 245.322 274.666 245.55C274.712 245.652 274.73 245.74 274.758 245.813C274.785 245.884 274.807 245.979 274.826 246.056C274.851 246.154 274.897 246.27 274.918 246.353C274.943 246.449 274.991 246.513 275.019 246.592C275.044 246.664 275.08 246.731 275.108 246.812C275.137 246.895 275.174 246.961 275.234 247.121C275.296 247.288 275.324 247.409 275.362 247.527C275.391 247.615 275.435 247.784 275.484 247.914C275.515 247.995 275.525 248.076 275.542 248.155C275.584 248.28 275.653 248.443 275.668 248.479C275.674 248.499 275.678 248.52 275.708 248.58" stroke="#20F4FF" stroke-width="0.5" stroke-linecap="round"/>
<path d="M274.056 244.148C274.06 244.182 274.128 244.419 274.248 244.689C274.301 244.81 274.346 244.912 274.391 245.031C274.438 245.158 274.479 245.219 274.504 245.288C274.535 245.37 274.572 245.471 274.604 245.544C274.641 245.626 274.683 245.749 274.709 245.826C274.732 245.894 274.765 245.979 274.801 246.058C274.839 246.141 274.897 246.223 274.929 246.302C274.967 246.395 275.012 246.487 275.042 246.577C275.073 246.67 275.106 246.778 275.138 246.884C275.183 247.036 275.234 247.14 275.264 247.241C275.306 247.381 275.354 247.516 275.388 247.6C275.44 247.726 275.482 247.875 275.525 248.052C275.591 248.329 275.623 248.422 275.674 248.554C275.683 248.584 275.683 248.601 275.687 248.618C275.691 248.635 275.7 248.652 275.708 248.682" stroke="#20F4FF" stroke-width="0.5" stroke-linecap="round"/>
<path d="M264.59 248.593H275.631" stroke="#20F4FF" stroke-width="0.5" stroke-linecap="round"/>
<path d="M264.676 248.638H266.444" stroke="#20F4FF" stroke-width="0.5" stroke-linecap="round"/>
<path d="M264.638 248.74H275.872" stroke="#20F4FF" stroke-width="0.5" stroke-linecap="round"/>
<path d="M275.692 248.445C275.658 248.433 275.59 248.382 275.496 248.307C275.33 248.175 275.202 247.994 275.097 247.899C275.075 247.88 275.056 247.869 275.037 247.865C275.018 247.86 274.997 247.865 274.975 247.88C274.927 247.913 274.886 248.001 274.858 248.078C274.826 248.164 275.017 247.874 275.035 247.824C275.049 247.784 274.916 248.026 274.799 248.199C274.763 248.252 274.787 248.241 274.806 248.226C274.885 248.165 274.974 248.066 275.115 247.88C275.201 247.797 275.252 247.711 275.295 247.596C275.308 247.57 275.321 247.553 275.334 247.536" stroke="#20F4FF" stroke-width="0.5" stroke-linecap="round"/>
<path d="M275.257 247.331C275.261 247.369 275.303 247.488 275.367 247.617C275.405 247.692 275.436 247.787 275.493 247.892C275.593 248.074 275.611 248.159 275.632 248.23C275.658 248.316 275.705 248.356 275.724 248.364C275.81 248.403 275.641 248.126 275.615 248.038C275.591 247.954 275.547 247.861 275.5 247.769C275.452 247.675 275.389 247.541 275.319 247.415C275.308 247.391 275.308 247.374 275.301 247.357C275.295 247.34 275.282 247.323 275.269 247.293" stroke="#20F4FF" stroke-width="0.5" stroke-linecap="round"/>
<path d="M262.844 243.386C262.844 243.415 262.853 243.509 262.87 243.59C262.889 243.68 262.925 243.791 263.002 244.032C263.041 244.155 263.07 244.248 263.102 244.331C263.134 244.414 263.169 244.521 263.201 244.607C263.236 244.702 263.28 244.832 263.31 244.944C263.344 245.07 263.369 245.136 263.393 245.236C263.423 245.367 263.476 245.546 263.514 245.676C263.552 245.801 263.57 245.866 263.613 245.969C263.66 246.054 263.685 246.105 263.707 246.15C263.719 246.178 263.736 246.216 263.754 246.293" stroke="#20F4FF" stroke-width="0.5" stroke-linecap="round"/>
<path d="M264.596 248.292C264.596 248.249 264.579 248.155 264.545 248.076C264.512 247.999 264.456 247.933 264.425 247.871C264.393 247.804 264.349 247.733 264.314 247.662C264.275 247.581 264.255 247.494 264.244 247.408C264.232 247.316 264.182 247.246 264.156 247.178C264.127 247.099 264.08 247.028 264.054 246.945C264.025 246.85 263.998 246.768 263.981 246.689C263.973 246.648 263.964 246.61 263.958 246.571C263.956 246.55 263.956 246.525 263.943 246.498" stroke="#20F4FF" stroke-width="0.5" stroke-linecap="round"/>
<path d="M264.173 247.229C264.199 247.279 264.241 247.399 264.261 247.486C264.294 247.637 264.344 247.698 264.389 247.815C264.429 247.921 264.438 248.001 264.455 248.076C264.459 248.095 264.464 248.116 264.466 248.159C264.468 248.201 264.468 248.265 264.481 248.343" stroke="#20F4FF" stroke-width="0.5" stroke-linecap="round"/>
<path d="M263.081 243.334C263.005 243.275 262.902 243.156 262.84 243.025C262.801 242.943 262.761 242.878 262.708 242.81C262.623 242.7 262.595 242.617 262.567 242.551C262.533 242.471 262.471 242.37 262.43 242.284C262.399 242.219 262.347 242.072 262.309 241.932C262.267 241.784 262.223 241.64 262.185 241.495C262.152 241.37 262.125 241.26 262.099 241.161C262.077 241.077 262.048 240.974 261.978 240.803C261.958 240.743 261.941 240.683 261.92 240.617C261.911 240.589 261.907 240.572 261.903 240.555" stroke="#20F4FF" stroke-width="0.5" stroke-linecap="round"/>
<path d="M257.51 227.789L265 249" stroke="#20F4FF"/>
<line x1="268.471" y1="228.832" x2="273.471" y2="242.832" stroke="#20F4FF"/>
<line x1="118.553" y1="247.776" x2="129.553" y2="225.776" stroke="#20F4FF"/>
<path d="M124.77 238.654C124.77 238.585 124.801 238.338 125.106 237.398C125.235 237.001 125.467 236.78 125.499 236.615C125.522 236.497 125.067 237.092 124.66 237.639C124.512 237.838 124.491 237.886 124.479 237.883C124.423 237.868 124.583 237.433 124.792 236.852C124.88 236.607 124.955 236.471 125.09 236.165C125.431 235.395 125.653 234.879 125.688 234.898C125.847 234.983 125.623 235.473 125.511 235.834C125.479 235.935 125.483 235.865 125.748 235.349C126.013 234.834 126.535 233.875 126.811 233.346C127.088 232.817 127.103 232.748 127.111 232.736C127.129 232.707 127.027 233.07 126.826 233.557C126.636 234.018 126.429 234.25 126.379 234.274C126.361 234.282 126.382 234.19 126.532 233.756C126.682 233.321 126.966 232.523 127.116 232.085C127.266 231.647 127.274 231.593 127.278 231.588C127.406 231.437 127.004 232.417 126.94 232.578C126.876 232.737 127.139 232.041 127.341 231.587C127.542 231.132 127.803 230.61 127.946 230.318C128.088 230.026 128.103 229.98 128.115 229.972C128.235 229.886 128.073 230.551 128.061 230.712C128.021 231.238 128.382 229.64 128.463 229.461C128.486 229.411 128.491 229.451 128.479 229.51C128.452 229.646 128.406 229.754 128.382 229.785C128.413 229.478 128.522 228.887 128.603 228.574C128.623 228.507 128.638 228.476 128.654 228.421" stroke="#20F4FF" stroke-width="0.5" stroke-linecap="round"/>
<path d="M128.723 228.886C128.708 229.103 128.669 229.289 128.37 230.126C128.095 230.894 127.502 232.33 127.16 233.242C126.817 234.154 126.725 234.492 126.674 234.624C126.623 234.756 126.615 234.671 126.615 234.574C126.615 234.369 126.669 234.059 126.846 233.427C126.968 232.989 127.222 232.334 127.349 231.979C127.475 231.623 127.483 231.592 127.18 232.302C126.877 233.011 126.263 234.462 125.943 235.098C125.623 235.734 125.615 235.511 125.653 235.197C125.691 234.883 125.776 234.484 125.873 234.128C125.97 233.773 126.078 233.474 126.129 233.358C126.181 233.242 126.173 233.319 126 233.834C125.828 234.35 125.49 235.301 125.324 235.734C125.157 236.167 125.173 236.052 125.384 235.593C125.595 235.135 126.002 234.337 126.219 233.899C126.436 233.461 126.452 233.407 126.46 233.398C126.468 233.39 126.468 233.428 126.18 234.035C125.892 234.642 125.316 235.816 124.92 236.579C124.524 237.341 124.324 237.655 124.21 237.844C124.096 238.033 124.073 238.087 124.08 238.046C124.087 238.004 124.126 237.866 124.379 237.269C124.633 236.672 125.101 235.621 125.381 235.022C125.718 234.298 125.839 234.127 125.867 234.1C125.89 234.075 125.855 234.264 125.529 235.118C125.203 235.971 124.566 237.545 124.249 238.309C123.932 239.074 123.955 238.982 123.998 238.869C124.041 238.756 124.102 238.626 124.302 238.321C124.503 238.015 124.841 237.54 124.942 237.475C125.043 237.41 124.897 237.771 124.588 238.336C124.278 238.902 123.81 239.662 123.577 239.992C123.343 240.322 123.359 240.199 123.436 239.867C123.513 239.535 123.651 238.998 123.825 238.468C124 237.938 124.207 237.432 124.368 237.083C124.614 236.546 124.816 236.298 124.932 236.232C125.045 236.167 124.987 236.667 124.845 237.265C124.754 237.645 124.572 238.163 124.396 238.627C124.221 239.092 124.045 239.483 123.946 239.716C123.847 239.948 123.832 240.009 124.124 239.393C124.415 238.776 125.014 237.479 125.168 237.248C125.323 237.017 125.016 237.892 124.827 238.408C124.589 239.059 124.499 239.258 124.475 239.305C124.465 239.326 124.467 239.168 124.567 238.736C124.667 238.305 124.867 237.561 124.919 237.331C124.972 237.101 124.873 237.408 124.606 238.003C124.34 238.599 123.91 239.474 123.75 239.786C123.59 240.099 123.713 239.822 124.198 239.047C124.684 238.271 125.528 237.005 125.974 236.341C126.421 235.677 126.444 235.654 126.468 235.631" stroke="#20F4FF" stroke-width="0.5" stroke-linecap="round"/>
<path d="M126.328 235.538C126.313 235.538 126.228 235.545 126.077 235.584C125.999 235.604 125.934 235.668 125.722 235.93C125.51 236.192 125.157 236.66 124.963 236.92C124.77 237.181 124.747 237.219 124.739 237.22C124.701 237.222 124.785 237.066 125.016 236.681C125.203 236.369 125.554 235.835 125.739 235.585C125.925 235.336 125.94 235.389 125.933 235.494C125.925 235.598 125.894 235.752 125.771 236.149C125.648 236.547 125.433 237.184 125.165 237.834C124.897 238.485 124.582 239.129 124.363 239.55C124.143 239.97 124.028 240.147 123.888 240.326C123.748 240.505 123.587 240.682 123.504 240.726C123.42 240.772 123.567 240.147 123.83 239.392C124.008 238.881 124.172 238.524 124.227 238.337C124.23 238.327 124.174 238.488 123.851 239.139C123.528 239.79 122.937 240.926 122.625 241.534C122.313 242.142 122.297 242.188 122.293 242.196C122.289 242.205 122.297 242.174 122.447 241.824C122.596 241.475 122.888 240.807 123.103 240.367C123.319 239.927 123.449 239.735 123.455 239.805C123.461 239.875 123.338 240.213 123.079 240.713C122.82 241.213 122.429 241.866 122.304 241.972C122.032 242.202 122.567 240.974 122.73 240.66C122.807 240.511 122.907 240.401 122.951 240.399C122.995 240.397 122.987 240.512 122.853 240.932C122.718 241.352 122.457 242.074 122.315 242.461C122.173 242.848 122.158 242.878 122.142 242.933" stroke="#20F4FF" stroke-width="0.5" stroke-linecap="round"/>
<path d="M122.898 241.736C122.89 241.751 122.882 241.766 122.656 242.204C122.429 242.642 121.984 243.501 121.724 244.04C121.464 244.579 121.403 244.77 121.379 244.812C121.355 244.853 121.37 244.738 121.555 244.276C121.739 243.813 122.092 243.008 122.324 242.512C122.635 241.845 122.85 241.489 122.951 241.314C122.964 241.292 122.884 241.591 122.744 241.921C122.605 242.251 122.406 242.65 122.257 242.917C122.034 243.317 121.898 243.487 121.913 243.515C121.935 243.555 122.051 243.381 122.359 242.892C122.668 242.403 123.182 241.536 123.458 241.078C123.735 240.619 123.758 240.596 123.762 240.604C123.785 240.645 123.535 241.019 123.018 241.807C122.712 242.273 122.271 242.84 121.996 243.194C121.72 243.548 121.613 243.663 121.562 243.665C121.44 243.669 121.556 243.272 121.664 242.867C121.73 242.619 121.864 242.3 121.989 242.038C122.114 241.776 122.236 241.584 122.3 241.501C122.363 241.417 122.363 241.448 122.098 242.016C121.833 242.585 121.304 243.69 121.035 244.229C120.766 244.767 120.773 244.706 120.816 244.544C120.858 244.382 120.935 244.121 121.043 243.852C121.265 243.304 121.525 242.907 121.66 242.756C121.693 242.72 121.696 242.827 121.527 243.304C121.358 243.781 121.028 244.641 120.839 245.114C120.65 245.588 120.612 245.649 120.596 245.642C120.518 245.61 120.703 245.173 120.95 244.535C121.08 244.2 121.259 243.859 121.338 243.704C121.417 243.549 121.402 243.595 121.206 243.968C121.01 244.341 120.634 245.039 120.379 245.484C120.124 245.928 120.001 246.097 119.961 246.141C119.934 246.171 120.068 245.946 120.291 245.703C120.724 245.233 121.099 244.93 121.184 244.922C121.314 244.909 121.138 245.262 120.992 245.593C120.891 245.821 120.707 246.155 120.628 246.295C120.444 246.618 121.161 245.101 121.162 245.061C121.164 244.943 120.947 245.527 120.795 245.805C120.643 246.083 120.505 246.267 120.403 246.392C120.301 246.518 120.24 246.579 120.177 246.643" stroke="#20F4FF" stroke-width="0.5" stroke-linecap="round"/>
<path d="M120.293 246.154C120.255 246.208 119.931 246.516 119.739 246.674C119.684 246.719 119.881 246.373 120.032 246.125C120.078 246.049 120.084 246.091 120.064 246.176C119.953 246.672 119.727 246.952 119.7 246.949C119.561 246.932 119.804 246.689 119.839 246.67C119.971 246.596 119.697 247.076 119.604 247.177C119.579 247.203 119.572 247.14 119.568 247.131C119.564 247.123 119.557 247.161 119.537 247.2C119.518 247.239 119.487 247.278 119.409 247.34" stroke="#20F4FF" stroke-width="0.5" stroke-linecap="round"/>
<path d="M118.758 247.666H127.433" stroke="#20F4FF" stroke-width="0.5" stroke-linecap="round"/>
<path d="M129.09 227.206V229.206" stroke="#20F4FF" stroke-width="0.5" stroke-linecap="round"/>
<path d="M129.09 227.439C129.09 227.638 129.09 228.079 129.09 228.341C129.09 228.265 129.09 227.767 129.09 227.713C129.09 227.659 129.09 228.066 129.09 228.485" stroke="#20F4FF" stroke-width="0.5" stroke-linecap="round"/>
<path d="M129.28 227.691C129.26 227.573 129.218 227.233 129.218 227.133C129.218 227.372 129.213 227.628 129.205 227.765C129.203 227.855 129.203 227.988 129.203 228.125" stroke="#20F4FF" stroke-width="0.5" stroke-linecap="round"/>
<line x1="32.5489" y1="247.784" x2="43.5489" y2="224.784" stroke="#20F4FF"/>
<path d="M35.8016 244.916C35.8016 244.891 35.8515 244.716 36.332 243.835C36.7334 243.099 37.5729 241.845 38.0338 241.096C38.4947 240.348 38.582 240.161 38.0723 240.732C37.5627 241.302 36.4535 242.636 35.9007 243.254C35.348 243.872 35.3854 243.735 35.9531 242.636C36.5207 241.538 37.6174 239.481 38.1886 238.391C38.7598 237.3 38.7723 237.238 38.4796 237.985C38.1869 238.732 37.5887 240.289 37.2058 241.242C36.8228 242.194 36.6733 242.493 36.8579 241.862C37.0426 241.231 37.5661 239.66 38.0351 238.459C38.5042 237.257 38.903 236.472 39.1084 236.093C39.3139 235.713 39.3139 235.763 39.0709 236.393C38.8278 237.023 38.3418 238.232 38.2908 238.35C38.2398 238.468 38.6386 237.459 39.0559 236.515C39.4732 235.571 39.897 234.724 40.1153 234.312C40.3336 233.9 40.3336 233.95 40.1404 234.424C39.9472 234.899 39.5609 235.796 39.3868 236.165C39.2927 236.364 39.6878 235.381 40.2729 234.142C40.4917 233.679 40.5216 233.538 40.5409 233.493C40.5486 233.475 40.5228 233.735 40.2044 234.579C39.9522 235.248 39.4 236.358 39.3858 236.537C39.2348 238.446 40.6353 234.631 40.6857 234.581C40.6949 234.571 40.6863 234.63 40.0131 235.802C39.3399 236.974 38.0064 239.268 37.2945 240.536C36.496 241.959 36.4689 242.209 36.4438 242.328C36.4187 242.484 36.3934 242.624 36.3745 242.731C36.3681 242.788 36.3681 242.85 36.3681 242.914" stroke="#20F4FF" stroke-width="0.5" stroke-linecap="round"/>
<path d="M35.8394 244.916C35.8144 244.941 35.677 245.053 35.3947 245.292C35.0389 245.592 34.5957 246.096 34.1743 246.624C33.851 247.156 33.6995 247.42 33.6618 247.496C33.6489 247.485 33.6489 247.373 33.6489 247.257" stroke="#20F4FF" stroke-width="0.5" stroke-linecap="round"/>
<path d="M32.516 247.711H35.4995" stroke="#20F4FF" stroke-width="0.5" stroke-linecap="round"/>
<path d="M33.7245 246.993C33.9122 246.566 34.3019 246.076 34.9213 245.35C35.356 244.84 36.1264 244.125 36.4182 243.902C36.5272 243.819 36.1185 244.573 35.6105 245.157C34.9764 245.885 34.4058 246.337 34.1917 246.432C34.1325 246.459 34.152 246.315 34.439 245.753C34.726 245.19 35.2744 244.181 35.5756 243.592C35.9404 242.879 35.9776 242.676 36.0154 242.625C36.0457 242.584 35.9784 242.875 35.691 243.457C35.4725 243.899 35.0297 244.599 34.8426 244.891C34.4925 245.435 35.9146 243.079 35.9525 243.009C36.4752 242.044 34.8318 245.256 34.9634 245.087C35.1373 244.863 35.6717 244.167 36.2822 243.298C36.4798 243.016 36.5064 243.102 36.4006 243.389C36.2949 243.677 36.0705 244.176 35.9924 244.283C35.6403 244.766 36.1918 243.444 36.1982 243.362C36.2031 243.299 35.5807 244.253 34.9491 244.969C34.889 245.037 35.3144 244.003 35.5018 243.609C35.6173 243.366 35.0263 244.279 34.5076 244.994C34.481 245.031 35.0108 244.077 35.3239 243.578C35.637 243.079 35.7367 242.979 35.7818 242.971C36.3341 242.877 34.973 244.56 34.7759 244.934C34.7711 244.943 34.794 244.855 35.0063 244.392C35.2185 243.93 35.6173 243.095 35.9786 242.397C36.6245 241.148 37.0721 240.374 37.0362 240.302C36.6369 239.499 36.0294 241.879 35.9965 241.833C35.819 241.584 36.35 240.691 36.6221 239.98C36.8942 239.269 37.1559 238.721 37.2783 238.494C37.3497 238.362 36.9762 239.343 36.6527 240.228C36.6311 240.287 37.1892 239.468 37.614 238.821C38.0389 238.173 38.3879 237.699 38.5552 237.499C38.7225 237.299 38.6975 237.386 38.6162 237.531C38.4163 237.886 38.1069 238.354 37.7681 238.919C37.5897 239.217 37.3546 239.509 37.8061 238.81C38.2576 238.11 39.3917 236.403 39.9946 235.473C40.5976 234.544 40.635 234.444 40.6106 234.499C40.4929 234.762 40.2596 235.245 39.8523 235.878C39.6076 236.259 39.2331 236.724 39.0531 236.918C38.9224 237.059 39.2723 236.087 39.8762 234.784C40.1001 234.302 40.181 234.192 40.2133 234.16C40.2456 234.127 40.2331 234.177 39.9961 234.601C39.7592 235.026 39.298 235.823 38.9234 236.415C38.5487 237.006 38.2746 237.368 38.1707 237.467C38.0669 237.566 38.1416 237.391 38.5416 236.734C38.9415 236.077 39.6644 234.943 40.0492 234.328C40.434 233.712 40.459 233.65 40.4656 233.655C40.5283 233.706 40.1353 234.461 39.6321 235.492C39.4441 235.878 39.3781 235.976 39.346 235.965C39.2141 235.92 39.5881 235.078 39.9038 234.277C39.9742 234.098 39.366 234.843 39.1266 235.033C38.7577 235.324 39.8275 233.778 40.2239 233.25C40.371 233.058 40.4084 233.02 40.303 233.269C40.1976 233.518 39.9484 234.054 39.616 234.681" stroke="#20F4FF" stroke-width="0.5" stroke-linecap="round"/>
<path d="M35.575 241.479C35.3624 241.991 34.9096 243.15 34.7821 243.486C34.7695 243.543 34.757 243.605 34.7319 243.706C34.7068 243.807 34.6694 243.944 34.6309 244.198" stroke="#20F4FF" stroke-width="0.5" stroke-linecap="round"/>
<path d="M34.3287 245.52C34.2033 245.808 34.0897 246.149 34.1206 246.2C34.3683 246.606 34.8559 245.384 35.0763 245.063C35.1335 244.979 35.1347 245.102 35.1095 245.204C34.9587 245.57 34.8325 245.834 34.7885 246.004C34.7695 246.086 34.757 246.161 34.7441 246.2" stroke="#20F4FF" stroke-width="0.5" stroke-linecap="round"/>
<path d="M38.7474 238.911C38.7474 238.861 38.7474 238.138 38.7537 237.024C38.7566 236.496 38.7977 236.331 38.7979 236.305C38.7981 236.278 38.7482 236.429 38.4298 236.923C38.1115 237.417 37.5132 238.301 37.2362 238.707C36.9592 239.113 37.0215 239.014 37.0972 238.913C37.4517 238.439 38.0639 237.694 38.5369 237.146C38.636 237.021 38.4491 237.208 38.3341 237.323C38.2191 237.438 38.1817 237.475 38.1432 237.514" stroke="#20F4FF" stroke-width="0.5" stroke-linecap="round"/>
<path d="M40.7963 232.698C40.8839 232.586 41.0848 232.16 41.7943 230.69C41.9446 230.378 42.0161 230.296 42.0358 230.276C42.057 230.254 41.9051 230.507 41.5546 231.063C41.2999 231.468 40.9051 232.131 40.656 232.528C40.3316 233.044 40.18 233.251 40.1107 233.377C40.0989 233.399 40.2162 233.191 40.629 232.634C40.9528 232.198 41.4655 231.417 41.7165 231.094C41.8853 230.877 41.5301 231.947 40.9949 233.206C40.7439 233.797 41.8285 231.025 41.8286 231.011C41.831 230.843 41.404 231.912 40.9003 232.781C40.746 233.047 40.7457 232.927 40.8394 232.639C41.0853 231.882 41.4991 230.953 41.7267 230.479C42.1838 229.526 41.1868 231.666 41.1677 231.698C41.0856 231.836 41.5486 230.716 42.0018 229.721C42.1406 229.417 42.1559 229.549 42.1434 229.706C42.131 229.864 42.106 230.051 42.087 230.172C42.0679 230.293 42.0554 230.343 42.0426 230.395" stroke="#20F4FF" stroke-width="0.5" stroke-linecap="round"/>
<path d="M42.6846 230.244C42.6846 230.144 42.6846 230.044 42.6846 229.463C42.6846 228.882 42.6846 227.823 42.6846 227.857C42.6846 227.89 42.6846 229.05 42.6846 230.244Z" stroke="#20F4FF" stroke-width="0.5" stroke-linecap="round"/>
<path d="M42.4957 229.828C42.4202 229.539 42.3953 229.288 42.3575 229.042C42.313 228.752 42.0682 229.576 41.9927 229.627C41.967 229.429 41.9795 229.212 41.9984 229.111C42.0048 229.061 42.0048 229.011 42.0048 228.96" stroke="#20F4FF" stroke-width="0.5" stroke-linecap="round"/>
<path d="M42.9111 226.618V229.375" stroke="#20F4FF" stroke-width="0.5" stroke-linecap="round"/>
<path d="M43.2133 226.052V231.037" stroke="#20F4FF" stroke-width="0.5" stroke-linecap="round"/>
<path d="M42.458 228.657C42.458 228.633 42.458 228.608 42.458 228.551C42.458 228.033 41.6146 230.419 41.5895 230.464C41.3162 230.949 41.7899 228.85 41.9221 228.358C41.9548 228.237 41.967 228.39 41.7115 229.234C41.456 230.077 40.945 231.61 40.7005 232.325C40.456 233.04 40.4934 232.89 40.7245 232.309C40.9556 231.727 41.3794 230.717 41.5914 230.272C41.8035 229.827 41.791 229.976 41.554 230.701C41.317 231.426 40.8559 232.723 40.5934 233.434C40.331 234.145 40.2811 234.233 40.3801 234.066C41.0644 232.911 41.2113 232.573 41.2742 232.585C41.3397 232.597 41.3121 232.821 41.1503 233.602C40.9885 234.384 40.652 235.767 40.4163 236.63C40.0957 237.802 39.803 238.311 39.583 238.713C39.3978 239.051 39.3237 239.282 39.2796 239.301C39.251 239.314 39.2977 239.159 39.5349 238.652C39.772 238.146 40.2207 237.249 40.4518 236.811C40.683 236.374 40.6829 236.424 40.6705 236.555C40.658 236.687 40.6331 236.899 40.4707 237.65C40.3083 238.401 40.0092 239.684 39.8489 240.439C39.6886 241.194 39.6761 241.381 39.7382 241.415C39.9302 241.52 40.2407 241.009 40.6981 240.333C41.0182 239.86 41.4171 239.059 41.6728 238.605C41.9285 238.15 42.0033 238.051 42.0418 238.087C42.0803 238.122 42.0803 238.297 41.9806 238.898C41.8809 239.499 41.6815 240.521 41.5725 241.016C41.4636 241.511 41.4511 241.449 41.4447 241.336C41.4383 241.223 41.4383 241.061 41.4383 240.894" stroke="#20F4FF" stroke-width="0.5" stroke-linecap="round"/>
<path d="M44.3357 225.613C44.3357 225.587 44.3181 225.338 44.2692 225.217C44.188 225.016 44.1399 225.515 44.1221 225.542C43.9898 225.743 44.0864 225.008 44.0687 224.959C44.0568 224.926 44.0242 225.078 43.993 225.181C43.9782 225.229 43.9707 225.274 43.9662 225.186C43.9616 225.099 43.9616 224.878 43.9616 224.827C43.9616 224.755 43.9705 225.061 43.9838 225.079C44.0997 225.236 43.9616 224.759 43.9572 224.718C43.944 224.81 43.9349 224.945 43.9305 225.051C43.9261 225.105 43.9173 225.158 43.9082 225.239" stroke="white" stroke-width="0.5" stroke-linecap="round"/>
<path d="M43.9082 225.106C43.9082 225.37 43.9082 225.78 43.9082 225.921C43.9082 226.053 43.9082 225.241 43.9082 225.162C43.9082 225.084 43.9082 225.489 43.9082 225.495C43.9082 225.502 43.9082 225.096 43.9082 225.063C43.9082 225.031 43.9082 225.383 43.9082 225.402C43.9082 225.421 43.9082 225.094 43.9082 225.037C43.9082 224.979 43.9082 225.199 43.9082 225.189C43.9082 225.179 43.9082 224.932 43.9082 225.017C43.9082 225.101 43.9082 225.525 43.9082 225.961" stroke="white" stroke-width="0.5" stroke-linecap="round"/>
<path d="M43.8414 242.661V244.826" stroke="white" stroke-width="0.5" stroke-linecap="round"/>
<path d="M43.7612 243.089V248.861" stroke="white" stroke-width="0.5" stroke-linecap="round"/>
<path d="M129.937 225.025V228.259" stroke="white" stroke-width="0.5" stroke-linecap="round"/>
<path d="M44.0952 224.678V226.014" stroke="white" stroke-width="0.5" stroke-linecap="round"/>
<path d="M43.8815 224.758V225.934" stroke="white" stroke-width="0.5" stroke-linecap="round"/>
<path d="M43.8815 224.812V226.255" stroke="white" stroke-width="0.5" stroke-linecap="round"/>
<path d="M43.8547 224.865C43.8547 225.041 43.8547 225.538 43.8547 225.897C43.8547 225.85 43.8547 225.339 43.8547 225.313C43.8547 225.288 43.8547 225.764 43.8547 226.201" stroke="white" stroke-width="0.5" stroke-linecap="round"/>
<path d="M43.828 225.025C43.828 225.184 43.828 225.53 43.828 225.72C43.828 225.795 43.828 225.221 43.828 225.201C43.828 225.182 43.828 225.579 43.828 225.536C43.828 225.494 43.828 225 43.828 225.006C43.828 225.011 43.828 225.532 43.828 226.014" stroke="white" stroke-width="0.5" stroke-linecap="round"/>
<path d="M44.0685 231.579V233.209" stroke="white" stroke-width="0.5" stroke-linecap="round"/>
<path d="M43.7745 231.98V243.229" stroke="white" stroke-width="0.5" stroke-linecap="round"/>
<path d="M129.83 225.533C129.83 225.639 129.83 225.745 129.83 226.258C129.83 226.771 129.83 227.688 129.83 227.609C129.83 227.531 129.83 226.428 129.83 226.447C129.83 226.465 129.83 227.638 129.83 227.682C129.83 227.727 129.83 226.607 129.83 227.176C129.83 227.746 129.83 230.038 129.83 230.69C129.83 231.342 129.83 230.284 129.83 230.427C129.83 230.57 129.83 231.945 129.83 232.076C129.83 232.207 129.83 231.052 129.83 231.184C129.83 231.317 129.83 232.772 129.83 232.851C129.83 232.931 129.83 231.59 129.83 231.68C129.83 231.77 129.83 233.331 129.83 234.06C129.83 234.789 129.83 234.639 129.83 234.485" stroke="white" stroke-width="0.5" stroke-linecap="round"/>
<path d="M129.77 230.998V240.27" stroke="white" stroke-width="0.5" stroke-linecap="round"/>
<path d="M129.997 239.889V242.721" stroke="white" stroke-width="0.5" stroke-linecap="round"/>
<path d="M130.024 240.183C130.024 240.298 130.024 240.412 130.024 240.917C130.024 241.421 130.024 242.312 130.024 242.175C130.024 242.039 130.024 240.848 130.024 240.354C130.024 239.86 130.024 240.098 130.024 240.343" stroke="white" stroke-width="0.5" stroke-linecap="round"/>
<path d="M129.81 240.049C129.81 240.146 129.81 240.243 129.81 240.827C129.81 241.41 129.81 242.477 129.81 242.445C129.81 242.413 129.81 241.249 129.81 240.98C129.81 240.711 129.81 241.372 129.81 241.66C129.81 241.948 129.81 241.842 129.81 241.733" stroke="white" stroke-width="0.5" stroke-linecap="round"/>
<path d="M129.89 240.317C129.89 240.405 129.89 240.493 129.89 241.006C129.89 241.518 129.89 242.453 129.89 242.414C129.89 242.376 129.89 241.335 129.89 240.343" stroke="white" stroke-width="0.5" stroke-linecap="round"/>
<path d="M129.81 240.049V244.966" stroke="white" stroke-width="0.5" stroke-linecap="round"/>
<path d="M129.783 239.942V248.6" stroke="white" stroke-width="0.5" stroke-linecap="round"/>
<path d="M256.964 227.153H267.589" stroke="#20F4FF" stroke-width="0.5" stroke-linecap="round"/>
<path d="M257.136 226.78H267.761" stroke="#20F4FF" stroke-width="0.5" stroke-linecap="round"/>
<path d="M267.79 226.952C267.79 227.076 267.96 227.589 268.062 227.937C268.129 228.166 268.211 228.311 268.239 228.34C268.387 228.489 268.116 227.73 268.053 227.536C268.017 227.427 268.143 227.879 268.291 228.143C268.383 228.306 268.449 228.464 268.541 228.67C268.593 228.77 268.641 228.866 268.684 228.952C268.708 228.991 268.737 229.019 268.766 229.048" stroke="#20F4FF" stroke-width="0.5" stroke-linecap="round"/>
<path d="M268.421 228.589C268.459 228.656 268.574 228.789 268.631 228.852C268.725 228.953 268.574 228.485 268.512 228.264C268.469 228.034 268.412 227.881 268.354 227.719C268.335 227.671 268.307 227.614 268.249 227.527" stroke="#20F4FF" stroke-width="0.5" stroke-linecap="round"/>
<path d="M256.993 226.866H257.481" stroke="#20F4FF" stroke-width="0.5" stroke-linecap="round"/>
<path d="M256.935 226.981H257.825" stroke="#20F4FF" stroke-width="0.5" stroke-linecap="round"/>
<path d="M256.103 226.751C256.179 226.932 256.217 227.162 256.298 227.473C256.354 227.684 256.428 227.832 256.519 228.071C256.612 228.315 256.61 228.54 256.648 228.703C256.657 228.742 256.667 228.78 256.677 228.761C256.915 228.305 256.467 227.442 256.428 227.311C256.345 227.033 256.657 228.033 256.715 228.22C256.75 228.334 256.82 228.473 256.858 228.574C256.987 228.912 256.543 227.595 256.433 227.293C256.41 227.23 256.399 227.192 256.395 227.192C256.212 227.17 256.542 227.774 256.843 228.514C257.174 229.363 257.328 229.689 257.361 229.77C257.375 229.814 257.385 229.861 257.395 229.939" stroke="white" stroke-width="0.5" stroke-linecap="round"/>
<path d="M22.892 277H19.8977C19.7206 276.139 19.4107 275.382 18.968 274.73C18.5334 274.078 18.0021 273.531 17.3743 273.088C16.7545 272.637 16.0663 272.299 15.3097 272.074C14.553 271.848 13.7642 271.736 12.9432 271.736C11.446 271.736 10.0897 272.114 8.87429 272.871C7.6669 273.627 6.70502 274.742 5.98864 276.215C5.2803 277.688 4.92614 279.495 4.92614 281.636C4.92614 283.777 5.2803 285.585 5.98864 287.058C6.70502 288.531 7.6669 289.645 8.87429 290.402C10.0897 291.159 11.446 291.537 12.9432 291.537C13.7642 291.537 14.553 291.424 15.3097 291.199C16.0663 290.973 16.7545 290.639 17.3743 290.197C18.0021 289.746 18.5334 289.195 18.968 288.543C19.4107 287.883 19.7206 287.126 19.8977 286.273H22.892C22.6667 287.536 22.2562 288.667 21.6605 289.665C21.0649 290.664 20.3243 291.513 19.4389 292.213C18.5535 292.905 17.5594 293.433 16.4567 293.795C15.362 294.157 14.1908 294.338 12.9432 294.338C10.8343 294.338 8.95881 293.823 7.31676 292.793C5.67472 291.762 4.38281 290.297 3.44105 288.398C2.49929 286.498 2.02841 284.244 2.02841 281.636C2.02841 279.028 2.49929 276.775 3.44105 274.875C4.38281 272.975 5.67472 271.51 7.31676 270.48C8.95881 269.45 10.8343 268.935 12.9432 268.935C14.1908 268.935 15.362 269.116 16.4567 269.478C17.5594 269.84 18.5535 270.371 19.4389 271.072C20.3243 271.764 21.0649 272.609 21.6605 273.607C22.2562 274.597 22.6667 275.728 22.892 277ZM58.1568 281.636C58.1568 284.244 57.6859 286.498 56.7441 288.398C55.8024 290.297 54.5105 291.762 52.8684 292.793C51.2264 293.823 49.3509 294.338 47.242 294.338C45.1331 294.338 43.2576 293.823 41.6156 292.793C39.9735 291.762 38.6816 290.297 37.7399 288.398C36.7981 286.498 36.3272 284.244 36.3272 281.636C36.3272 279.028 36.7981 276.775 37.7399 274.875C38.6816 272.975 39.9735 271.51 41.6156 270.48C43.2576 269.45 45.1331 268.935 47.242 268.935C49.3509 268.935 51.2264 269.45 52.8684 270.48C54.5105 271.51 55.8024 272.975 56.7441 274.875C57.6859 276.775 58.1568 279.028 58.1568 281.636ZM55.2591 281.636C55.2591 279.495 54.9009 277.688 54.1845 276.215C53.4761 274.742 52.5143 273.627 51.2988 272.871C50.0914 272.114 48.7392 271.736 47.242 271.736C45.7449 271.736 44.3886 272.114 43.1731 272.871C41.9657 273.627 41.0038 274.742 40.2875 276.215C39.5791 277.688 39.225 279.495 39.225 281.636C39.225 283.777 39.5791 285.585 40.2875 287.058C41.0038 288.531 41.9657 289.645 43.1731 290.402C44.3886 291.159 45.7449 291.537 47.242 291.537C48.7392 291.537 50.0914 291.159 51.2988 290.402C52.5143 289.645 53.4761 288.531 54.1845 287.058C54.9009 285.585 55.2591 283.777 55.2591 281.636ZM92.362 269.273V294H89.4643L75.9899 274.585H75.7484V294H72.7541V269.273H75.6518L89.1745 288.736H89.416V269.273H92.362ZM121.439 275.455C121.294 274.231 120.706 273.281 119.676 272.605C118.646 271.929 117.382 271.591 115.885 271.591C114.79 271.591 113.832 271.768 113.011 272.122C112.198 272.476 111.563 272.963 111.104 273.583C110.653 274.203 110.428 274.907 110.428 275.696C110.428 276.356 110.585 276.924 110.898 277.398C111.22 277.865 111.631 278.256 112.13 278.57C112.629 278.875 113.152 279.129 113.7 279.33C114.247 279.523 114.75 279.68 115.209 279.801L117.72 280.477C118.364 280.646 119.08 280.88 119.869 281.178C120.666 281.475 121.427 281.882 122.151 282.397C122.884 282.904 123.487 283.556 123.962 284.353C124.437 285.15 124.675 286.128 124.675 287.287C124.675 288.623 124.325 289.83 123.624 290.909C122.932 291.988 121.918 292.845 120.582 293.481C119.254 294.117 117.64 294.435 115.74 294.435C113.969 294.435 112.436 294.149 111.14 293.577C109.852 293.006 108.838 292.209 108.097 291.187C107.365 290.165 106.95 288.977 106.854 287.625H109.945C110.025 288.559 110.339 289.331 110.886 289.943C111.442 290.547 112.142 290.998 112.987 291.295C113.84 291.585 114.758 291.73 115.74 291.73C116.883 291.73 117.909 291.545 118.819 291.175C119.728 290.796 120.449 290.273 120.98 289.605C121.511 288.929 121.777 288.14 121.777 287.239C121.777 286.418 121.548 285.75 121.089 285.234C120.63 284.719 120.026 284.301 119.278 283.979C118.529 283.657 117.72 283.375 116.851 283.134L113.808 282.264C111.876 281.709 110.347 280.916 109.22 279.886C108.093 278.855 107.53 277.507 107.53 275.841C107.53 274.456 107.904 273.249 108.653 272.219C109.409 271.18 110.424 270.375 111.695 269.804C112.975 269.224 114.404 268.935 115.982 268.935C117.575 268.935 118.992 269.22 120.232 269.792C121.471 270.355 122.453 271.128 123.178 272.11C123.91 273.092 124.296 274.207 124.337 275.455H121.439ZM155.388 269.273H158.382V285.645C158.382 287.335 157.983 288.844 157.187 290.173C156.398 291.493 155.283 292.535 153.842 293.3C152.401 294.056 150.711 294.435 148.771 294.435C146.831 294.435 145.141 294.056 143.7 293.3C142.259 292.535 141.14 291.493 140.344 290.173C139.555 288.844 139.16 287.335 139.16 285.645V269.273H142.155V285.403C142.155 286.611 142.42 287.685 142.952 288.627C143.483 289.561 144.239 290.297 145.221 290.837C146.211 291.368 147.395 291.634 148.771 291.634C150.148 291.634 151.331 291.368 152.321 290.837C153.311 290.297 154.068 289.561 154.591 288.627C155.122 287.685 155.388 286.611 155.388 285.403V269.273ZM173.924 294V269.273H176.918V291.344H188.413V294H173.924ZM201.259 271.929V269.273H219.805V271.929H212.029V294H209.035V271.929H201.259ZM236.983 269.273V294H233.988V269.273H236.983ZM272.157 269.273V294H269.259L255.785 274.585H255.543V294H252.549V269.273H255.447L268.969 288.736H269.211V269.273H272.157ZM304.615 277C304.349 276.187 303.999 275.459 303.564 274.815C303.137 274.163 302.626 273.607 302.031 273.148C301.443 272.69 300.775 272.339 300.026 272.098C299.278 271.857 298.457 271.736 297.563 271.736C296.098 271.736 294.766 272.114 293.567 272.871C292.368 273.627 291.414 274.742 290.705 276.215C289.997 277.688 289.643 279.495 289.643 281.636C289.643 283.777 290.001 285.585 290.718 287.058C291.434 288.531 292.404 289.645 293.627 290.402C294.851 291.159 296.227 291.537 297.757 291.537C299.173 291.537 300.421 291.235 301.499 290.631C302.586 290.02 303.431 289.158 304.035 288.048C304.647 286.929 304.953 285.613 304.953 284.099L305.87 284.293H298.433V281.636H307.85V284.293C307.85 286.329 307.416 288.1 306.546 289.605C305.685 291.11 304.494 292.277 302.972 293.107C301.459 293.928 299.721 294.338 297.757 294.338C295.567 294.338 293.643 293.823 291.985 292.793C290.335 291.762 289.047 290.297 288.122 288.398C287.204 286.498 286.745 284.244 286.745 281.636C286.745 279.68 287.007 277.922 287.53 276.36C288.061 274.79 288.81 273.454 289.776 272.352C290.742 271.249 291.885 270.404 293.205 269.816C294.525 269.228 295.978 268.935 297.563 268.935C298.867 268.935 300.083 269.132 301.21 269.526C302.345 269.913 303.355 270.464 304.24 271.18C305.134 271.889 305.878 272.738 306.474 273.728C307.07 274.71 307.48 275.801 307.705 277H304.615Z" fill="white"/>
<path d="M149.5 76L186.306 132.25H112.694L149.5 76Z" fill="#3064A0"/>
</svg>
