<svg width="297" height="352" viewBox="0 0 297 352" fill="none" xmlns="http://www.w3.org/2000/svg">
<path d="M39.26 211.276V214.1" stroke="white" stroke-width="0.5" stroke-linecap="round"/>
<path d="M128.834 0L205.611 116.605H52.0562L128.834 0Z" fill="white"/>
<path d="M129.271 34.938L182.977 116.169H75.564L129.271 34.938Z" fill="#448BBD"/>
<path d="M30.4885 232.308V139.217H61.9431C69.2461 139.217 75.2158 140.535 79.8522 143.171C84.5189 145.777 87.9734 149.308 90.2158 153.762C92.4582 158.217 93.5795 163.186 93.5795 168.671C93.5795 174.156 92.4582 179.141 90.2158 183.626C88.0037 188.111 84.5795 191.686 79.9431 194.353C75.3067 196.989 69.3673 198.308 62.1249 198.308H39.5795V188.308H61.7613C66.7613 188.308 70.7764 187.444 73.8067 185.717C76.837 183.989 79.034 181.656 80.3976 178.717C81.7916 175.747 82.4885 172.399 82.4885 168.671C82.4885 164.944 81.7916 161.611 80.3976 158.671C79.034 155.732 76.8219 153.429 73.7613 151.762C70.7007 150.065 66.6401 149.217 61.5795 149.217H41.7613V232.308H30.4885Z" fill="white"/>
<line x1="31.8658" y1="214.654" x2="39.7268" y2="198.059" stroke="#20F4FF"/>
<path d="M33.1195 214.468H39.4963" stroke="#20F4FF" stroke-linecap="round"/>
<path d="M39.2811 199.938V214.333" stroke="#20F4FF" stroke-linecap="round"/>
<path d="M32.7159 214.441C32.7337 214.441 32.7784 214.45 32.8588 214.45C33.0637 214.45 33.1637 214.191 33.3073 214.06C33.4555 213.926 33.5317 213.716 33.6527 213.527C33.7696 213.344 33.8904 213.142 34.1219 212.656C34.3005 212.282 34.6376 211.664 34.8335 211.277C35.0293 210.891 35.0826 210.757 35.2344 210.44C35.3861 210.123 35.6347 209.626 35.8072 209.232C35.9797 208.838 36.0685 208.563 36.0654 208.55C36.0623 208.537 35.9646 208.794 35.719 209.278C35.4733 209.761 35.0826 210.463 34.8458 210.877C34.5457 211.403 34.456 211.553 34.4425 211.593C34.4245 211.648 34.5356 211.073 34.7857 210.161C34.9248 209.654 35.1424 209.072 35.2564 208.752C35.3705 208.432 35.3883 208.397 35.2909 208.734C35.1935 209.07 34.9804 209.781 34.8528 210.24C34.7253 210.699 34.6898 210.886 34.6848 210.924C34.6798 210.962 34.7065 210.847 34.9599 210.197C35.2134 209.547 35.6929 208.366 35.9621 207.678C36.2313 206.99 36.2757 206.83 36.2985 207.098C36.3214 207.366 36.3214 208.068 36.3835 208.301C36.4457 208.533 36.57 208.276 36.8072 207.61C37.0444 206.945 37.3907 205.879 37.5779 205.313C37.7652 204.746 37.7829 204.711 37.7211 205.043C37.6592 205.375 37.5171 206.077 37.5016 205.941C37.4862 205.805 37.6016 204.811 37.6877 204.187C37.7738 203.564 37.8271 203.342 37.8501 203.33C37.8731 203.318 37.8642 203.522 37.8507 203.671C37.8284 203.92 38.0612 202.19 38.1014 202.127C38.1436 202.061 38.2046 202.412 38.2582 202.632C38.2739 202.696 38.3119 202.648 38.3301 202.598C38.3482 202.549 38.3571 202.496 38.3883 202.384C38.4195 202.272 38.4728 202.103 38.5136 202.332C38.5543 202.56 38.581 203.19 38.5947 203.422C38.6084 203.653 38.6084 203.467 38.6173 203.429C38.6262 203.39 38.6439 203.506 38.6487 204.28C38.6534 205.054 38.6445 206.484 38.6266 207.14C38.6087 207.797 38.5821 207.637 38.5639 207.222C38.5457 206.806 38.5369 206.14 38.5367 205.753C38.5366 205.365 38.5455 205.277 38.4968 205.937C38.4481 206.597 38.3415 208.009 38.3044 208.456C38.2951 208.568 38.4193 207.28 38.527 207.317C39.0246 207.488 38.5283 209.396 38.5323 209.668C38.5363 209.94 38.5718 208.884 38.5457 209.076C38.5196 209.269 38.4308 210.743 38.394 211.311C38.3818 211.499 38.4109 211.149 38.4734 211.62C38.5297 212.046 38.5891 212.855 38.6257 213.138C38.6622 213.421 38.6622 213.155 38.6578 213.089C38.6362 212.767 38.5549 213.678 38.4968 213.714C38.4573 213.739 38.4298 213.538 38.296 212.635C38.1623 211.731 37.9315 210.071 37.7548 209.912C37.5782 209.754 37.4628 211.148 37.4344 211.334C37.406 211.519 37.4681 210.453 37.5179 209.807C37.5677 209.16 37.6032 208.965 37.6304 208.718C37.6576 208.471 37.6753 208.178 37.6845 208.053C37.6936 207.929 37.6936 207.982 37.5959 208.569C37.4983 209.156 37.3029 210.275 37.1979 210.927C37.0928 211.578 37.0839 211.729 37.0882 211.554C37.0925 211.379 37.1103 210.873 37.2038 209.928C37.2973 208.984 37.466 207.616 37.4108 207.613C37.3557 207.611 37.0715 209.013 37.0362 209.012C37.0008 209.012 37.2228 207.564 37.1506 207.378C37.0785 207.192 36.7056 208.311 36.5135 208.909C36.3214 209.508 36.3214 209.552 36.3214 209.513C36.3214 209.474 36.3214 209.349 36.4812 208.557C36.641 207.765 36.9607 206.309 37.1209 205.59C37.2811 204.871 37.2723 204.933 37.0768 205.498C36.8813 206.062 36.4995 207.128 36.3028 207.628C36.1061 208.128 36.1061 208.03 36.1417 207.856C36.1772 207.681 36.2482 207.432 36.4579 206.891C36.6677 206.35 37.014 205.525 37.1302 205.637C37.2464 205.748 37.1221 206.823 37.0536 207.394C36.9852 207.965 36.9763 208.001 37.1493 207.539C37.3223 207.078 37.6775 206.119 37.8604 205.727C38.0434 205.336 38.0434 205.54 37.9724 205.987C37.9013 206.434 37.7593 207.118 37.6905 207.359C37.6733 207.419 37.7641 206.625 37.9525 205.814C38.0191 205.527 38.0165 205.491 37.9943 205.672C37.9721 205.854 37.9277 206.253 37.8338 206.752C37.7399 207.251 37.5978 207.837 37.5424 207.966C37.487 208.095 37.5225 207.748 37.6518 207.099C37.7811 206.45 38.003 205.509 38.1307 204.904C38.2584 204.3 38.285 204.06 38.3032 203.83C38.3381 203.387 38.366 203.07 38.4241 202.824C38.5626 202.239 38.5815 202.074 38.6351 201.881C38.7179 201.583 38.743 201.392 38.7474 201.293C38.7483 201.274 38.7607 201.319 38.5744 202.185C38.3881 203.052 38.0063 204.739 37.8051 205.661C37.604 206.583 37.5951 206.69 37.5861 206.722C37.5771 206.755 37.5682 206.711 37.5681 207.523C37.568 208.334 37.5768 210.004 37.5859 210.881C37.5949 211.759 37.6037 211.794 37.6838 211.418C37.7638 211.041 37.9148 210.251 37.997 209.897C38.0792 209.543 38.0881 209.649 38.066 209.949C38.0439 210.248 37.9907 210.736 37.9632 210.481C37.9358 210.227 37.9358 209.215 37.9003 209.341C37.8647 209.468 37.7937 210.764 37.7571 211.348C37.7205 211.931 37.7205 211.763 37.756 211.441C37.7916 211.118 37.8626 210.648 37.9081 210.858C37.9535 211.069 37.9713 211.974 37.976 212.476C37.9814 213.049 37.9627 213.194 37.9449 213.306C37.9168 213.483 37.2755 213.303 36.5956 213.2C35.9208 213.097 35.4703 213.131 35.3046 213.149C35.2363 213.157 35.201 213.167 35.2449 213.198C35.3982 213.308 35.8341 213.391 36.3358 213.476C36.8755 213.568 37.1192 213.643 37.1332 213.661C37.2182 213.769 36.6644 213.679 36.1283 213.634C35.4105 213.575 34.9763 213.508 34.9671 213.575C34.9536 213.673 35.2882 213.714 35.9391 213.821C36.4091 213.899 37.1759 213.929 37.5471 213.969C37.9183 214.01 37.8739 214.037 37.7533 214.059C37.6328 214.082 37.4375 214.1 36.9506 214.082C36.4637 214.065 35.6912 214.012 35.4398 213.98C35.1884 213.948 35.4814 213.939 35.6634 213.925C35.8454 213.912 35.9076 213.894 35.6022 213.881C34.6227 213.837 33.9356 213.805 33.989 213.702C34.0718 213.543 34.3645 213.304 34.7 212.879C35.3397 212.069 35.3883 211.688 35.3444 211.736C35.0199 212.09 34.8152 212.521 34.7256 212.691C34.6656 212.805 34.7953 212.454 35.0594 211.746C35.1752 211.436 35.279 211.234 35.4759 210.912C35.6727 210.589 35.9657 210.154 36.1078 209.992C36.1934 209.894 36.0362 210.695 35.7938 211.57C35.752 211.72 36.0413 211.03 36.3507 210.164C36.4513 209.883 36.4559 209.929 36.3893 210.369C36.3227 210.809 36.1896 211.644 36.1609 212.016C36.1322 212.388 36.2122 212.273 36.3865 211.845C36.5609 211.417 36.8272 210.68 36.9645 210.318C37.1017 209.956 37.1017 209.992 37.0484 210.405C36.9951 210.819 36.8886 211.609 36.8559 211.994C36.8232 212.379 36.8676 212.334 36.9215 212.262C37.045 212.098 37.1905 211.771 37.3339 211.461C37.3773 211.367 37.4063 211.426 37.4154 211.503C37.4693 211.952 37.2906 212.475 37.2408 212.638C37.1807 212.835 37.2631 212.226 37.2631 212.212C37.2631 212.004 37.2187 212.691 37.1515 212.87C37.1247 212.941 37.1286 212.978 37.0664 212.926C36.8608 212.751 36.6897 212.531 36.5689 212.433C36.462 212.345 36.3133 212.315 36.1122 212.333C35.8619 212.355 35.5785 212.503 35.3631 212.606C35.3273 212.623 35.5126 212.3 35.7503 211.954C35.939 211.68 35.5322 212.817 35.5188 212.84C35.3661 213.1 35.6485 212.209 35.6711 212.047C35.7001 211.839 35.4607 212.36 35.4203 212.374C35.3888 212.385 35.4066 212.237 35.3888 212.231C35.075 212.124 34.9061 212.879 34.5914 213.207C34.5271 213.274 34.4837 213.319 34.4608 213.24C34.282 212.62 34.5897 212.075 34.6264 211.898C34.6636 211.719 34.35 212.563 34.081 213.145C33.9769 213.371 33.9542 213.462 33.9316 213.525C33.909 213.589 33.8912 213.624 33.8865 213.505C33.8709 213.11 33.9531 212.551 34.0427 212.108C34.1077 211.786 33.4696 213.615 33.5003 213.487C33.6315 212.939 33.917 212.354 33.9181 212.252C33.9254 211.565 33.38 213.454 33.3351 213.495C33.0829 213.724 33.5048 212.748 33.5678 212.5C33.6106 212.331 33.4252 213.112 33.3309 213.408C33.3021 213.498 33.3343 213.473 33.3657 213.433C33.4365 213.342 33.5404 213.213 33.7456 212.981C34.0941 212.587 34.3564 212.182 34.5308 211.852C34.7628 211.412 34.8415 211.167 34.8993 210.959C34.9662 210.718 35.0724 210.191 35.2251 209.682C35.3778 209.172 35.5642 208.693 35.6647 208.428C35.8177 208.025 35.9533 207.796 36.3188 207.132C36.5531 206.706 36.9236 205.927 37.1824 205.361C37.4412 204.794 37.5655 204.457 37.6473 204.252C37.7291 204.047 37.7646 203.985 37.8281 203.867" stroke="#20F4FF" stroke-linecap="round"/>
<path d="M34.7878 211.078C34.7878 210.979 34.8056 210.783 34.8683 210.554C34.8927 210.465 34.5938 210.991 34.0872 211.861C33.907 212.17 33.8913 212.216 33.891 212.199C33.8895 212.1 33.9623 211.922 34.0428 211.725C34.126 211.521 34.4267 210.921 34.6611 210.434C34.4337 211.013 34.1426 211.687 34.053 211.861C34.0167 211.938 33.9989 211.991 33.9806 211.966" stroke="#20F4FF" stroke-linecap="round"/>
<path d="M36.9133 208.548C37.0737 208.29 37.3788 207.823 37.8306 207.144C37.9898 206.904 38.1123 206.582 38.2565 206.177C38.4007 205.773 38.5428 205.285 38.6248 204.971C38.7385 204.536 38.743 204.076 38.7474 203.548C38.7518 203.347 38.7607 203.285 38.7653 203.2C38.7699 203.114 38.7699 203.008 38.7699 202.898" stroke="#20F4FF" stroke-linecap="round"/>
<path d="M39.1466 199.32V201.714" stroke="#20F4FF" stroke-linecap="round"/>
<path d="M39.4156 199.293V200.799" stroke="#20F4FF" stroke-linecap="round"/>
<path d="M40.3238 197.462C40.1758 198.195 40.0936 198.637 40.0972 198.793C40.2003 197.941 40.2085 197.735 40.2208 197.587C40.225 197.513 40.225 197.439 40.225 197.364" stroke="white" stroke-linecap="round"/>
<path d="M40.1015 197.685C40.1015 197.734 40.0933 198.199 40.0891 198.936C40.0855 199.571 40.1751 199.979 40.2003 200.316C40.2102 200.448 40.1758 199.869 40.1347 199.385C40.0757 198.691 40.0933 198.212 40.081 198.077C40.0447 197.679 40.0026 197.282 39.9904 197.273C39.8992 197.208 39.9041 197.87 39.8629 198.512C39.8448 198.796 39.8297 199.042 39.8093 199.2C39.7889 199.162 39.7482 198.884 39.7272 198.579C39.7062 198.273 39.7062 197.947 39.7062 197.611" stroke="white" stroke-linecap="round"/>
<path d="M40.1263 197.234V201.459" stroke="white" stroke-linecap="round"/>
<path d="M39.6321 198.074V200.421" stroke="white" stroke-linecap="round"/>
<path d="M39.6816 198.593V201.508" stroke="white" stroke-linecap="round"/>
<path d="M39.7062 201.508V212.181" stroke="white" stroke-linecap="round"/>
<path d="M39.6074 212.045C39.6074 212.241 39.6074 212.437 39.6074 213.08C39.6074 213.723 39.6074 214.807 39.6074 214.501C39.6074 214.196 39.6074 212.467 39.6074 212.168C39.6074 211.869 39.6074 213.051 39.6074 214.269" stroke="white" stroke-linecap="round"/>
<path d="M39.7062 213.256V216.072" stroke="white" stroke-linecap="round"/>
<path d="M39.4592 202.188V215.208" stroke="white" stroke-linecap="round"/>
<path d="M39.3109 197.178V202.367" stroke="white" stroke-linecap="round"/>
<path d="M39.3604 202.379V215.671" stroke="white" stroke-linecap="round"/>
<path d="M31.9646 214.671V214.889" stroke="#20F4FF" stroke-linecap="round"/>
<path d="M32.2859 215.325H38.4471" stroke="#20F4FF" stroke-linecap="round"/>
<path d="M32.2628 216.106H38.4929" stroke="#20F4FF" stroke-linecap="round"/>
<path d="M38.2291 214.213V215.922" stroke="#20F4FF" stroke-linecap="round"/>
<path d="M38.4355 214.706V216.197" stroke="#20F4FF" stroke-linecap="round"/>
<path d="M33.1464 213.65C33.0631 213.809 32.9798 213.968 32.8914 214.122C32.7184 214.424 32.6034 214.61 32.5634 214.753C32.5354 214.853 32.5045 215.012 32.4908 215.072C32.477 215.131 32.4846 215.085 32.5301 214.933C32.5757 214.781 32.659 214.524 32.7038 214.38C32.7486 214.236 32.7524 214.213 32.6748 214.317C32.5972 214.421 32.4382 214.652 32.3525 214.78C32.2262 214.969 32.1713 215.08 32.1006 215.212C32.0378 215.329 31.9801 215.471 31.9533 215.484C31.8689 215.527 32.052 215.223 32.1041 215.085C32.1141 215.058 32.125 215.032 32.1308 215.035C32.2266 215.09 32.0871 215.313 31.9822 215.674C31.945 215.802 31.9416 215.948 31.9207 216.052C31.9149 216.071 31.9111 216.094 31.9054 216.113C31.8997 216.132 31.8921 216.147 31.8728 216.186" stroke="#20F4FF" stroke-linecap="round"/>
<path d="M30.9204 216.06H32.2054" stroke="#20F4FF" stroke-linecap="round"/>
<path d="M30.7828 216.094H34.6035" stroke="#20F4FF" stroke-linecap="round"/>
<path d="M32.0102 214.379C32.0019 214.384 31.9935 214.39 31.8833 214.536C31.773 214.683 31.5612 214.97 31.4465 215.129C31.2934 215.341 31.2307 215.428 31.1505 215.552C30.9572 215.829 30.9236 215.896 30.8869 215.958C30.8784 215.972 30.8701 215.986 30.8615 216.017" stroke="#20F4FF" stroke-linecap="round"/>
<path d="M30.9882 216.119H37.6274" stroke="#20F4FF" stroke-linecap="round"/>
<path d="M30.6588 216.245H38.5819" stroke="#20F4FF" stroke-linecap="round"/>
<path d="M105.605 232.308V139.217H137.06C144.363 139.217 150.333 140.535 154.969 143.171C159.636 145.777 163.09 149.308 165.333 153.762C167.575 158.217 168.696 163.186 168.696 168.671C168.696 174.156 167.575 179.141 165.333 183.626C163.12 188.111 159.696 191.686 155.06 194.353C150.423 196.989 144.484 198.308 137.242 198.308H114.696V188.308H136.878C141.878 188.308 145.893 187.444 148.923 185.717C151.954 183.989 154.151 181.656 155.514 178.717C156.908 175.747 157.605 172.399 157.605 168.671C157.605 164.944 156.908 161.611 155.514 158.671C154.151 155.732 151.939 153.429 148.878 151.762C145.817 150.065 141.757 149.217 136.696 149.217H116.878V232.308H105.605Z" fill="white"/>
<line x1="106.982" y1="214.654" x2="114.843" y2="198.059" stroke="#20F4FF"/>
<path d="M108.236 214.468H114.613" stroke="#20F4FF" stroke-linecap="round"/>
<path d="M114.398 199.938V214.333" stroke="#20F4FF" stroke-linecap="round"/>
<path d="M107.833 214.441C107.85 214.441 107.895 214.45 107.975 214.45C108.18 214.45 108.28 214.191 108.424 214.06C108.572 213.926 108.648 213.716 108.769 213.527C108.886 213.344 109.007 213.142 109.239 212.656C109.417 212.282 109.754 211.664 109.95 211.277C110.146 210.891 110.199 210.757 110.351 210.44C110.503 210.123 110.751 209.626 110.924 209.232C111.096 208.838 111.185 208.563 111.182 208.55C111.179 208.537 111.081 208.794 110.836 209.278C110.59 209.761 110.199 210.463 109.962 210.877C109.662 211.403 109.573 211.553 109.559 211.593C109.541 211.648 109.652 211.073 109.902 210.161C110.041 209.654 110.259 209.072 110.373 208.752C110.487 208.432 110.505 208.397 110.407 208.734C110.31 209.07 110.097 209.781 109.969 210.24C109.842 210.699 109.806 210.886 109.801 210.924C109.796 210.962 109.823 210.847 110.077 210.197C110.33 209.547 110.809 208.366 111.079 207.678C111.348 206.99 111.392 206.83 111.415 207.098C111.438 207.366 111.438 208.068 111.5 208.301C111.562 208.533 111.687 208.276 111.924 207.61C112.161 206.945 112.507 205.879 112.694 205.313C112.882 204.746 112.9 204.711 112.838 205.043C112.776 205.375 112.634 206.077 112.618 205.941C112.603 205.805 112.718 204.811 112.804 204.187C112.89 203.564 112.944 203.342 112.967 203.33C112.99 203.318 112.981 203.522 112.967 203.671C112.945 203.92 113.178 202.19 113.218 202.127C113.26 202.061 113.321 202.412 113.375 202.632C113.39 202.696 113.429 202.648 113.447 202.598C113.465 202.549 113.474 202.496 113.505 202.384C113.536 202.272 113.589 202.103 113.63 202.332C113.671 202.56 113.698 203.19 113.711 203.422C113.725 203.653 113.725 203.467 113.734 203.429C113.743 203.39 113.761 203.506 113.765 204.28C113.77 205.054 113.761 206.484 113.743 207.14C113.725 207.797 113.699 207.637 113.68 207.222C113.662 206.806 113.653 206.14 113.653 205.753C113.653 205.365 113.662 205.277 113.613 205.937C113.565 206.597 113.458 208.009 113.421 208.456C113.412 208.568 113.536 207.28 113.644 207.317C114.141 207.488 113.645 209.396 113.649 209.668C113.653 209.94 113.688 208.884 113.662 209.076C113.636 209.269 113.547 210.743 113.511 211.311C113.498 211.499 113.528 211.149 113.59 211.62C113.646 212.046 113.706 212.855 113.742 213.138C113.779 213.421 113.779 213.155 113.774 213.089C113.753 212.767 113.671 213.678 113.613 213.714C113.574 213.739 113.546 213.538 113.413 212.635C113.279 211.731 113.048 210.071 112.871 209.912C112.695 209.754 112.579 211.148 112.551 211.334C112.523 211.519 112.585 210.453 112.634 209.807C112.684 209.16 112.72 208.965 112.747 208.718C112.774 208.471 112.792 208.178 112.801 208.053C112.81 207.929 112.81 207.982 112.713 208.569C112.615 209.156 112.42 210.275 112.314 210.927C112.209 211.578 112.2 211.729 112.205 211.554C112.209 211.379 112.227 210.873 112.32 209.928C112.414 208.984 112.583 207.616 112.527 207.613C112.472 207.611 112.188 209.013 112.153 209.012C112.117 209.012 112.339 207.564 112.267 207.378C112.195 207.192 111.822 208.311 111.63 208.909C111.438 209.508 111.438 209.552 111.438 209.513C111.438 209.474 111.438 209.349 111.598 208.557C111.758 207.765 112.077 206.309 112.237 205.59C112.398 204.871 112.389 204.933 112.193 205.498C111.998 206.062 111.616 207.128 111.419 207.628C111.223 208.128 111.223 208.03 111.258 207.856C111.294 207.681 111.365 207.432 111.575 206.891C111.784 206.35 112.131 205.525 112.247 205.637C112.363 205.748 112.239 206.823 112.17 207.394C112.102 207.965 112.093 208.001 112.266 207.539C112.439 207.078 112.794 206.119 112.977 205.727C113.16 205.336 113.16 205.54 113.089 205.987C113.018 206.434 112.876 207.118 112.807 207.359C112.79 207.419 112.881 206.625 113.069 205.814C113.136 205.527 113.133 205.491 113.111 205.672C113.089 205.854 113.044 206.253 112.95 206.752C112.856 207.251 112.714 207.837 112.659 207.966C112.604 208.095 112.639 207.748 112.768 207.099C112.898 206.45 113.12 205.509 113.247 204.904C113.375 204.3 113.402 204.06 113.42 203.83C113.455 203.387 113.483 203.07 113.541 202.824C113.679 202.239 113.698 202.074 113.752 201.881C113.834 201.583 113.86 201.392 113.864 201.293C113.865 201.274 113.877 201.319 113.691 202.185C113.505 203.052 113.123 204.739 112.922 205.661C112.721 206.583 112.712 206.69 112.703 206.722C112.694 206.755 112.685 206.711 112.685 207.523C112.685 208.334 112.693 210.004 112.702 210.881C112.711 211.759 112.72 211.794 112.8 211.418C112.88 211.041 113.031 210.251 113.114 209.897C113.196 209.543 113.205 209.649 113.183 209.949C113.161 210.248 113.107 210.736 113.08 210.481C113.052 210.227 113.052 209.215 113.017 209.341C112.981 209.468 112.91 210.764 112.874 211.348C112.837 211.931 112.837 211.763 112.873 211.441C112.908 211.118 112.979 210.648 113.025 210.858C113.07 211.069 113.088 211.974 113.093 212.476C113.098 213.049 113.079 213.194 113.061 213.306C113.033 213.483 112.392 213.303 111.712 213.2C111.037 213.097 110.587 213.131 110.421 213.149C110.353 213.157 110.318 213.167 110.361 213.198C110.515 213.308 110.951 213.391 111.452 213.476C111.992 213.568 112.236 213.643 112.25 213.661C112.335 213.769 111.781 213.679 111.245 213.634C110.527 213.575 110.093 213.508 110.084 213.575C110.07 213.673 110.405 213.714 111.056 213.821C111.526 213.899 112.293 213.929 112.664 213.969C113.035 214.01 112.99 214.037 112.87 214.059C112.749 214.082 112.554 214.1 112.067 214.082C111.58 214.065 110.808 214.012 110.556 213.98C110.305 213.948 110.598 213.939 110.78 213.925C110.962 213.912 111.024 213.894 110.719 213.881C109.739 213.837 109.052 213.805 109.106 213.702C109.188 213.543 109.481 213.304 109.817 212.879C110.456 212.069 110.505 211.688 110.461 211.736C110.137 212.09 109.932 212.521 109.842 212.691C109.782 212.805 109.912 212.454 110.176 211.746C110.292 211.436 110.396 211.234 110.592 210.912C110.789 210.589 111.082 210.154 111.224 209.992C111.31 209.894 111.153 210.695 110.91 211.57C110.869 211.72 111.158 211.03 111.467 210.164C111.568 209.883 111.573 209.929 111.506 210.369C111.439 210.809 111.306 211.644 111.277 212.016C111.249 212.388 111.329 212.273 111.503 211.845C111.677 211.417 111.944 210.68 112.081 210.318C112.218 209.956 112.218 209.992 112.165 210.405C112.112 210.819 112.005 211.609 111.972 211.994C111.94 212.379 111.984 212.334 112.038 212.262C112.162 212.098 112.307 211.771 112.45 211.461C112.494 211.367 112.523 211.426 112.532 211.503C112.586 211.952 112.407 212.475 112.357 212.638C112.297 212.835 112.38 212.226 112.38 212.212C112.38 212.004 112.335 212.691 112.268 212.87C112.241 212.941 112.245 212.978 112.183 212.926C111.977 212.751 111.806 212.531 111.686 212.433C111.579 212.345 111.43 212.315 111.229 212.333C110.979 212.355 110.695 212.503 110.48 212.606C110.444 212.623 110.629 212.3 110.867 211.954C111.056 211.68 110.649 212.817 110.635 212.84C110.483 213.1 110.765 212.209 110.788 212.047C110.817 211.839 110.577 212.36 110.537 212.374C110.505 212.385 110.523 212.237 110.505 212.231C110.192 212.124 110.023 212.879 109.708 213.207C109.644 213.274 109.6 213.319 109.577 213.24C109.399 212.62 109.706 212.075 109.743 211.898C109.78 211.719 109.467 212.563 109.198 213.145C109.093 213.371 109.071 213.462 109.048 213.525C109.026 213.589 109.008 213.624 109.003 213.505C108.988 213.11 109.07 212.551 109.159 212.108C109.224 211.786 108.586 213.615 108.617 213.487C108.748 212.939 109.034 212.354 109.035 212.252C109.042 211.565 108.497 213.454 108.452 213.495C108.199 213.724 108.621 212.748 108.684 212.5C108.727 212.331 108.542 213.112 108.447 213.408C108.419 213.498 108.451 213.473 108.482 213.433C108.553 213.342 108.657 213.213 108.862 212.981C109.211 212.587 109.473 212.182 109.647 211.852C109.879 211.412 109.958 211.167 110.016 210.959C110.083 210.718 110.189 210.191 110.342 209.682C110.494 209.172 110.681 208.693 110.781 208.428C110.934 208.025 111.07 207.796 111.435 207.132C111.67 206.706 112.04 205.927 112.299 205.361C112.558 204.794 112.682 204.457 112.764 204.252C112.846 204.047 112.881 203.985 112.945 203.867" stroke="#20F4FF" stroke-linecap="round"/>
<path d="M109.904 211.078C109.904 210.979 109.922 210.783 109.985 210.554C110.009 210.465 109.71 210.991 109.204 211.861C109.024 212.17 109.008 212.216 109.008 212.199C109.006 212.1 109.079 211.922 109.159 211.725C109.243 211.521 109.543 210.921 109.778 210.434C109.55 211.013 109.259 211.687 109.17 211.861C109.133 211.938 109.115 211.991 109.097 211.966" stroke="#20F4FF" stroke-linecap="round"/>
<path d="M112.03 208.548C112.19 208.29 112.496 207.823 112.947 207.144C113.107 206.904 113.229 206.582 113.373 206.177C113.517 205.773 113.659 205.285 113.742 204.971C113.855 204.536 113.86 204.076 113.864 203.548C113.869 203.347 113.877 203.285 113.882 203.2C113.887 203.114 113.887 203.008 113.887 202.898" stroke="#20F4FF" stroke-linecap="round"/>
<path d="M114.263 199.32V201.714" stroke="#20F4FF" stroke-linecap="round"/>
<path d="M114.532 199.293V200.799" stroke="#20F4FF" stroke-linecap="round"/>
<path d="M115.441 197.462C115.293 198.195 115.21 198.637 115.214 198.793C115.317 197.941 115.325 197.735 115.338 197.587C115.342 197.513 115.342 197.439 115.342 197.364" stroke="white" stroke-linecap="round"/>
<path d="M115.218 197.685C115.218 197.734 115.21 198.199 115.206 198.936C115.202 199.571 115.292 199.979 115.317 200.316C115.327 200.448 115.292 199.869 115.251 199.385C115.192 198.691 115.21 198.212 115.198 198.077C115.161 197.679 115.119 197.282 115.107 197.273C115.016 197.208 115.021 197.87 114.98 198.512C114.961 198.796 114.946 199.042 114.926 199.2C114.906 199.162 114.865 198.884 114.844 198.579C114.823 198.273 114.823 197.947 114.823 197.611" stroke="white" stroke-linecap="round"/>
<path d="M115.243 197.234V201.459" stroke="white" stroke-linecap="round"/>
<path d="M114.749 198.074V200.421" stroke="white" stroke-linecap="round"/>
<path d="M114.798 198.593V201.508" stroke="white" stroke-linecap="round"/>
<path d="M114.823 201.508V212.181" stroke="white" stroke-linecap="round"/>
<path d="M114.724 212.045C114.724 212.241 114.724 212.437 114.724 213.08C114.724 213.723 114.724 214.807 114.724 214.501C114.724 214.196 114.724 212.467 114.724 212.168C114.724 211.869 114.724 213.051 114.724 214.269" stroke="white" stroke-linecap="round"/>
<path d="M114.823 213.256V216.072" stroke="white" stroke-linecap="round"/>
<path d="M114.576 202.188V215.208" stroke="white" stroke-linecap="round"/>
<path d="M114.427 197.178V202.367" stroke="white" stroke-linecap="round"/>
<path d="M114.477 202.379V215.671" stroke="white" stroke-linecap="round"/>
<path d="M107.081 214.671V214.889" stroke="#20F4FF" stroke-linecap="round"/>
<path d="M107.403 215.325H113.564" stroke="#20F4FF" stroke-linecap="round"/>
<path d="M107.379 216.106H113.609" stroke="#20F4FF" stroke-linecap="round"/>
<path d="M113.346 214.213V215.922" stroke="#20F4FF" stroke-linecap="round"/>
<path d="M113.552 214.706V216.197" stroke="#20F4FF" stroke-linecap="round"/>
<path d="M108.263 213.65C108.18 213.809 108.096 213.968 108.008 214.122C107.835 214.424 107.72 214.61 107.68 214.753C107.652 214.853 107.621 215.012 107.607 215.072C107.594 215.131 107.601 215.085 107.647 214.933C107.692 214.781 107.776 214.524 107.82 214.38C107.865 214.236 107.869 214.213 107.791 214.317C107.714 214.421 107.555 214.652 107.469 214.78C107.343 214.969 107.288 215.08 107.217 215.212C107.154 215.329 107.097 215.471 107.07 215.484C106.986 215.527 107.169 215.223 107.221 215.085C107.231 215.058 107.242 215.032 107.248 215.035C107.343 215.09 107.204 215.313 107.099 215.674C107.062 215.802 107.058 215.948 107.037 216.052C107.032 216.071 107.028 216.094 107.022 216.113C107.016 216.132 107.009 216.147 106.99 216.186" stroke="#20F4FF" stroke-linecap="round"/>
<path d="M106.037 216.06H107.322" stroke="#20F4FF" stroke-linecap="round"/>
<path d="M105.899 216.094H109.72" stroke="#20F4FF" stroke-linecap="round"/>
<path d="M107.127 214.379C107.119 214.384 107.11 214.39 107 214.536C106.89 214.683 106.678 214.97 106.563 215.129C106.41 215.341 106.348 215.428 106.267 215.552C106.074 215.829 106.04 215.896 106.004 215.958C105.995 215.972 105.987 215.986 105.978 216.017" stroke="#20F4FF" stroke-linecap="round"/>
<path d="M106.105 216.119H112.744" stroke="#20F4FF" stroke-linecap="round"/>
<path d="M105.775 216.245H113.698" stroke="#20F4FF" stroke-linecap="round"/>
<path d="M184.54 233.181H172.722L206.904 140.09H218.54L252.722 233.181H240.904L213.086 154.818H212.358L184.54 233.181ZM188.904 196.818H236.54V206.818H188.904V196.818Z" fill="white"/>
<path d="M179.652 198.15H188.955" stroke="#20F4FF" stroke-linecap="round"/>
<path d="M225.324 198.752H234.978" stroke="#20F4FF" stroke-linecap="round"/>
<path d="M172.535 217.333L179.93 198.273" stroke="#20F4FF"/>
<line x1="172.943" y1="216.989" x2="182.551" y2="216.989" stroke="#20F4FF"/>
<line x1="182.081" y1="217.318" x2="189.068" y2="198.102" stroke="#20F4FF"/>
<path d="M181.639 205.148C181.623 205.163 181.608 205.179 181.302 205.387C180.996 205.595 180.401 205.994 180.043 206.223C179.686 206.453 179.584 206.5 179.571 206.473C179.557 206.446 179.636 206.344 180.044 205.552C180.453 204.759 181.189 203.279 181.58 202.446C181.971 201.613 181.995 201.472 181.995 201.415C181.995 201.358 181.972 201.389 181.623 202.169C181.274 202.949 180.6 204.476 180.187 205.482C179.773 206.488 179.64 206.927 179.56 207.306C179.479 207.684 179.456 207.99 179.475 208.108C179.494 208.226 179.557 208.148 180.196 206.843C180.836 205.537 182.05 203.007 182.695 201.649C183.34 200.291 183.379 200.181 183.356 200.195C183.333 200.209 183.247 200.35 182.658 201.621C182.069 202.892 180.981 205.289 180.392 206.641C179.804 207.994 179.749 208.229 180.512 207.324C181.275 206.419 182.857 204.366 183.167 204.5C183.477 204.633 182.466 207.014 181.958 208.225C181.449 209.436 181.472 209.405 182.064 208.042C182.656 206.678 183.815 203.984 184.408 202.694C185.002 201.404 184.994 201.599 184.962 201.884C184.931 202.169 184.876 202.537 184.625 203.549C184.373 204.561 183.927 206.206 183.685 207.14C183.443 208.073 183.42 208.246 183.415 208.315C183.411 208.384 183.427 208.345 183.49 208.227C183.553 208.109 183.662 207.913 184.149 206.751C184.637 205.589 185.498 203.466 185.637 203.301C185.775 203.135 185.164 204.992 184.849 205.838C184.535 206.685 184.535 206.466 184.546 206.274C184.558 206.083 184.582 205.926 184.621 205.748C184.661 205.569 184.716 205.373 184.772 205.171" stroke="#20F4FF" stroke-linecap="round"/>
<path d="M179.907 201.896C179.93 201.99 180.009 202.196 180.12 202.307C180.145 202.332 180.183 202.323 180.254 202.288C180.325 202.253 180.434 202.182 180.64 201.958C180.845 201.734 181.143 201.358 181.406 201.054C181.872 200.517 182.177 200.267 182.272 200.235C182.303 200.224 182.304 200.297 182.171 200.678C182.037 201.058 181.771 201.763 181.63 202.142C181.489 202.521 181.481 202.552 181.505 202.525C181.528 202.498 181.583 202.412 181.728 202.117C181.874 201.822 182.109 201.321 182.273 200.922C182.549 200.25 182.612 199.895 182.565 199.812C182.495 199.687 181.983 199.846 181.41 199.941C181.082 199.995 180.896 199.958 180.762 199.93C180.706 199.919 180.675 199.91 180.733 199.895C180.791 199.879 180.94 199.855 181.788 199.847C182.636 199.839 184.179 199.847 184.99 199.847C185.888 199.847 186.029 199.76 186.353 199.638C186.54 199.567 186.718 199.515 186.896 199.514C187.029 199.514 186.727 199.799 186.533 200.032C186.469 200.11 186.38 200.193 185.944 200.821C185.508 201.449 184.725 202.616 183.988 203.965C183.252 205.315 182.586 206.811 182.404 207.154C182.221 207.498 182.543 206.644 182.786 206.056C183.03 205.467 183.187 205.17 183.44 204.766C183.693 204.362 184.037 203.86 184.305 203.5C184.573 203.14 184.753 202.937 184.861 202.883C184.97 202.829 185.001 202.93 185.017 203.089C185.033 203.247 185.033 203.458 185.006 203.728C184.978 203.997 184.924 204.318 184.747 204.911C184.57 205.503 184.272 206.357 184.111 206.812C183.95 207.268 183.934 207.299 184.157 206.661C184.38 206.023 184.842 204.715 185.162 203.877C185.483 203.039 185.647 202.71 185.724 202.587C185.76 202.53 185.597 203.094 185.25 203.896C184.961 204.562 184.709 204.855 184.685 204.898C184.672 204.923 184.724 204.73 184.882 204.289C184.999 203.961 185.164 203.41 185.386 202.846C185.608 202.282 185.874 201.718 185.738 201.846C185.601 201.975 185.052 202.813 184.703 203.323C184.354 203.833 184.221 203.989 184.102 204.113C183.982 204.237 183.88 204.323 184.176 203.929C184.472 203.535 185.17 202.657 185.587 202.112C186.005 201.566 186.123 201.378 186.156 201.363C186.294 201.302 186.078 201.753 186.16 201.797C186.415 201.934 186.67 201.407 186.801 201.272C186.976 201.091 186.411 201.934 186.051 202.243C185.959 202.323 185.85 202.377 185.837 202.304C185.824 202.23 185.902 202.019 186.044 201.667C186.186 201.316 186.39 200.83 186.507 200.537C186.728 199.981 186.837 199.721 186.951 199.515C187.046 199.347 187.24 199.246 187.335 199.123C187.423 199.01 187.533 198.945 187.565 198.921C187.571 198.917 187.534 198.976 186.75 199.83C185.967 200.685 184.431 202.345 183.449 203.483C182.466 204.62 182.082 205.184 181.877 205.49C181.671 205.796 181.655 205.828 181.992 205.174C182.328 204.52 183.018 203.181 183.381 202.46C183.744 201.738 183.759 201.676 183.297 202.364C182.835 203.052 181.896 204.494 181.321 205.338C180.747 206.182 180.567 206.386 180.615 205.884C180.663 205.382 180.945 204.168 181.094 203.476C181.244 202.784 181.251 202.65 181.107 202.781C180.962 202.913 180.664 203.312 180.26 203.96C179.856 204.609 179.355 205.494 179.105 205.777C178.854 206.061 178.87 205.716 179.031 205.022C179.191 204.327 179.497 203.294 179.603 202.953C179.71 202.612 179.608 202.996 179.368 203.648C179.127 204.3 178.751 205.209 178.542 205.7C178.332 206.192 178.301 206.239 178.285 206.247C178.26 206.26 178.465 205.738 178.832 204.932C179.107 204.327 179.407 203.97 179.593 203.831C179.648 203.79 179.677 203.951 179.681 204.133C179.685 204.315 179.677 204.55 179.501 205.317C179.325 206.084 178.98 207.376 178.814 208.03C178.648 208.685 178.672 208.661 178.884 208.14C179.096 207.619 179.495 206.6 179.771 205.962C180.048 205.324 180.189 205.097 180.261 205.003C180.334 204.91 180.334 204.957 180.299 205.099C180.263 205.24 180.193 205.475 179.961 206.023C179.729 206.571 179.337 207.425 178.861 208.284C178.385 209.143 177.837 209.981 177.543 210.44C177.248 210.899 177.225 210.954 177.389 210.352C177.553 209.749 177.906 208.488 177.872 208.446C177.838 208.403 177.407 209.617 177.134 210.336C176.862 211.056 176.76 211.244 176.68 211.411C176.6 211.579 176.545 211.72 176.725 211.213C176.904 210.706 177.319 209.546 177.533 208.969C177.747 208.391 177.747 208.43 177.426 209.187C177.104 209.943 176.462 211.416 176.742 211.281C177.022 211.147 178.244 209.361 178.889 208.402C179.534 207.443 179.566 207.365 179.351 207.931C179.136 208.498 178.674 209.712 178.385 210.557C178.096 211.401 177.994 211.84 177.942 212.086C177.889 212.331 177.889 212.37 177.952 212.359C178.014 212.348 178.14 212.285 178.776 211.717C179.412 211.148 180.556 210.075 181.208 209.475C181.859 208.875 181.985 208.781 182.042 208.803C182.098 208.825 182.083 208.966 182.028 209.184C181.972 209.401 181.878 209.691 181.568 210.361C181.257 211.031 180.732 212.073 180.466 212.59C180.199 213.107 180.207 213.068 180.454 212.523C180.701 211.978 181.186 210.929 181.691 210.032C182.196 209.135 182.705 208.422 183.112 207.914C183.519 207.405 183.809 207.123 183.943 207.037C184.076 206.95 184.045 207.068 183.618 207.986C183.19 208.904 182.368 210.62 181.932 211.519C181.497 212.418 181.474 212.45 181.83 211.984C182.186 211.518 182.922 210.555 183.317 210.031C183.712 209.508 183.743 209.453 183.775 209.373" stroke="#20F4FF" stroke-width="3" stroke-linecap="round"/>
<path d="M183.111 210.708C182.993 210.888 182.876 211.068 182.455 211.866C182.034 212.663 181.314 214.073 180.958 214.757C180.602 215.44 180.634 215.354 180.673 215.266C180.713 215.179 180.76 215.092 180.949 214.672C181.137 214.252 181.466 213.5 181.663 213.066C181.905 212.532 181.987 212.378 181.999 212.334C182.004 212.315 181.972 212.454 181.815 212.875C181.658 213.295 181.368 214.032 181.215 214.434C181.062 214.837 181.054 214.884 181.062 214.92C181.094 215.073 181.228 215.209 181.275 215.3C181.31 215.368 181.433 215.139 181.586 214.875C181.854 214.416 182.034 213.929 182.133 213.684C182.156 213.628 181.997 214.137 181.701 214.856C181.594 215.115 181.568 215.153 181.56 214.766C181.552 214.379 181.56 213.564 181.654 212.569C181.748 211.574 181.928 210.422 182.025 209.622C182.122 208.821 182.13 208.406 182.13 208.176C182.13 207.947 182.122 207.915 182.083 207.903C182.043 207.891 181.973 207.899 181.745 208.091C181.106 208.628 180.698 209.07 180.643 209.058C180.516 209.032 180.736 208.37 180.879 207.643C180.931 207.378 180.927 207.323 180.61 207.565C180.293 207.807 179.658 208.347 179.312 208.633C178.965 208.919 178.926 208.935 178.898 208.9C178.818 208.8 178.838 208.494 178.85 208.1C178.862 207.704 178.91 207.386 178.886 207.224C178.818 206.752 177.89 208.033 177.807 208.053C177.588 208.106 177.848 207.325 177.925 207.1C177.987 206.917 177.496 207.894 177.241 208.322C177.209 208.397 177.193 208.468 177.181 208.637C177.177 208.767 177.177 208.986 177.177 209.212" stroke="#20F4FF" stroke-width="3" stroke-linecap="round"/>
<path d="M177.011 210.969C177.011 211.039 177.011 211.11 176.894 211.463C176.776 211.817 176.541 212.451 176.373 212.872C176.127 213.488 175.983 213.761 175.873 214.017C175.546 214.775 175.429 214.948 175.318 215.142C175.302 215.171 175.271 214.856 175.286 214.374C175.301 213.902 175.468 213.557 175.551 213.336C175.621 213.15 175.674 212.963 175.705 212.856C175.73 212.775 175.415 213.284 175.126 213.817C174.809 214.404 174.765 214.803 174.63 215.074C174.489 215.356 174.401 215.517 174.258 215.664C174.221 215.702 174.179 215.731 174.144 215.763C174.108 215.795 174.076 215.826 174.46 215.85C174.843 215.874 175.642 215.89 176.151 215.874C176.661 215.859 176.857 215.812 176.997 215.768C177.137 215.724 177.215 215.685 177.561 215.442C177.907 215.198 178.518 214.752 178.86 214.494C179.202 214.237 179.257 214.182 179.305 214.138C179.352 214.094 179.392 214.063 179.204 213.964C179.017 213.866 178.602 213.702 178.298 213.605C177.822 213.454 177.542 213.461 177.314 213.5C176.961 213.561 176.719 213.73 176.577 213.824C176.362 213.967 176.181 214.164 176.078 214.322C176.035 214.388 176.054 214.449 176.069 214.489C176.129 214.64 176.416 214.718 177.13 214.782C177.741 214.836 178.212 215.027 178.434 215.11C178.709 215.213 178.933 215.494 179.272 215.798C179.437 215.945 179.55 216.04 179.657 216.064C179.925 216.124 180.261 215.875 180.472 215.815C180.598 215.779 180.76 215.787 180.907 215.811C180.982 215.826 181.054 215.85 181.128 215.874C181.172 215.882 181.227 215.882 181.283 215.858" stroke="#20F4FF" stroke-width="3" stroke-linecap="round"/>
<path d="M229.161 200.073C229.183 200.186 229.285 200.725 229.442 201.519C229.525 201.937 229.689 202.369 229.864 202.969C230.04 203.568 230.241 204.317 230.653 205.162C231.064 206.006 231.679 206.923 232.013 207.435C232.484 208.157 232.572 208.398 232.679 208.579C232.707 208.625 232.73 208.669 232.759 208.715C232.787 208.76 232.82 208.805 232.771 207.508C232.721 206.212 232.587 203.572 232.596 202.761C232.599 202.432 233.035 204.487 233.21 204.464C233.549 204.419 233.284 203.132 233.245 202.323C233.206 201.514 233.117 200.921 233.166 200.845C233.41 200.466 233.746 201.935 234.005 202.341C234.185 202.622 234.334 202.829 234.464 203.054C234.85 203.727 235.328 204.489 235.458 204.851C235.543 205.201 235.7 205.852 235.854 206.68C235.871 206.828 235.871 206.906 235.905 207.055" stroke="#20F4FF" stroke-width="3" stroke-linecap="round"/>
<path d="M235.634 206.682C235.634 206.906 235.634 207.245 235.69 207.813C235.724 208.16 235.858 208.616 236.044 209.26C236.23 209.905 236.487 210.721 236.648 211.198C236.929 212.034 237.091 212.408 237.215 212.781C237.322 213.099 237.554 213.728 237.662 214.036C237.723 214.211 237.813 214.531 237.944 214.787C238 214.897 238.107 215.019 238.187 215.059C238.324 215.128 238.052 214.67 237.772 214.227C237.198 213.319 236.708 212.749 236.618 212.676C236.571 212.638 236.527 212.591 236.063 211.489C235.598 210.387 234.714 208.228 234.254 207.094C233.793 205.96 233.782 205.915 233.781 205.992C233.781 206.07 233.793 206.271 233.871 206.979C233.949 207.687 234.095 208.895 234.17 209.684C234.276 210.807 234.233 211.234 234.216 211.442C234.206 211.572 234.211 211.751 233.747 210.646C233.282 209.542 232.354 207.148 231.859 205.848C231.364 204.548 231.331 204.414 231.509 204.983C231.688 205.551 232.079 206.826 232.672 208.17C233.265 209.515 234.048 210.891 234.502 211.745C234.955 212.599 235.056 212.89 234.906 212.67C234.757 212.451 234.354 211.713 233.582 210.443C232.81 209.174 231.68 207.396 230.897 205.926C230.114 204.457 229.711 203.349 229.526 202.896C229.341 202.443 229.386 202.678 229.555 203.275C229.723 203.871 230.014 204.822 230.18 204.909C230.347 204.996 230.38 204.191 230.442 203.602C230.542 202.661 230.787 202.075 230.995 201.652C231.283 201.069 231.645 200.81 232.04 200.599C232.115 200.559 232.165 200.56 232.177 200.531C232.189 200.503 232.166 200.459 232.099 200.424C231.776 200.26 231.478 200.288 231.004 200.277C230.678 200.269 231.78 200.209 232.298 200.181C232.612 200.175 233.182 200.175 233.504 200.17C233.826 200.164 233.882 200.153 234.041 200.141" stroke="#20F4FF" stroke-width="3" stroke-linecap="round"/>
<path d="M232.686 200.209C232.618 200.209 232.025 200.332 231.149 200.518C230.669 200.621 230.416 200.638 229.773 200.655C229.253 200.669 228.688 200.661 228.484 200.61C228.303 200.537 228.167 200.481 228.072 200.424C228.021 200.401 227.965 200.39 227.907 200.378" stroke="#20F4FF" stroke-width="3" stroke-linecap="round"/>
<path d="M227.907 200.48C227.941 200.772 228.143 201.561 228.397 202.319C228.54 202.743 228.697 203.01 228.799 203.168C228.948 203.4 229.193 203.855 229.57 204.497C229.986 205.203 230.064 205.71 230.11 205.811C230.163 205.932 230.234 206.239 230.324 206.662C230.392 206.98 230.504 207.503 230.696 208.113C230.834 208.55 230.9 209.006 231.069 209.487C231.279 210.083 231.498 210.69 231.668 211.035C231.895 211.497 232.199 212.103 232.498 212.853C232.758 213.505 232.945 214.114 233.019 214.374C233.05 214.486 233.081 214.601 233.154 214.697C233.396 215.015 234.051 214.444 234.396 214.353C234.676 214.279 234.932 214.307 235.333 214.246C235.43 214.229 235.497 214.217 235.705 214.212C235.913 214.206 236.26 214.206 236.617 214.206" stroke="#20F4FF" stroke-width="3" stroke-linecap="round"/>
<path d="M234.685 214.579C234.685 214.59 234.685 214.601 234.713 214.618C234.792 214.666 235.548 214.68 236.621 214.675C237.338 214.671 237.926 214.669 238.192 214.686C238.254 214.691 238.299 214.703 238.384 214.708C238.468 214.714 238.591 214.714 238.718 214.714" stroke="#20F4FF" stroke-width="3" stroke-linecap="round"/>
<path d="M239.125 214.612C239.125 214.523 239.08 214.32 238.849 213.185C238.719 212.542 238.463 211.493 238.308 210.879C238.065 209.915 237.939 209.744 237.764 209.339C237.328 208.329 237.148 207.858 237.035 207.508C236.838 206.899 236.493 206.062 236.408 205.813C236.302 205.5 236.053 205.068 235.962 204.842C235.856 204.579 235.691 204.278 235.572 204.039C235.483 203.86 235.42 203.678 235.278 203.385C235.174 203.167 235.014 202.798 234.894 202.419C234.745 201.943 234.562 201.623 234.403 201.199C234.211 200.786 234.109 200.526 234.058 200.413C234.041 200.356 234.041 200.301 234.007 200.175" stroke="#20F4FF" stroke-width="3" stroke-linecap="round"/>
<path d="M234.075 199.531C234.075 199.554 234.086 199.621 234.109 199.728C234.12 199.779 234.131 199.824 234.143 199.869C234.154 199.915 234.165 199.96 234.177 200.006" stroke="#20F4FF" stroke-width="3" stroke-linecap="round"/>
<path d="M234.177 199.87V207.495" stroke="#20F4FF" stroke-width="3" stroke-linecap="round"/>
<path d="M237.023 214.274C237.226 214.51 237.429 214.713 237.7 215.041C237.92 215.306 238.174 215.347 238.451 215.386C238.727 215.426 238.909 215.448 239.175 215.482C239.221 215.488 239.204 215.549 239.103 215.611C238.609 215.916 238.425 215.878 237.803 215.895C237.238 215.91 236.164 215.9 235.577 215.906C234.72 215.914 234.269 215.979 233.957 216.008C233.658 216.035 233.229 216.058 232.957 216.047C232.775 216.04 232.732 215.62 232.556 215.27C232.168 214.494 232.2 214.196 232.144 213.93C232.022 213.362 231.906 213.201 231.799 212.936C231.591 212.418 231.398 211.835 231.302 211.631C231.217 211.45 231.127 211.225 230.991 210.785C230.903 210.496 230.845 210.298 230.715 209.943C230.563 209.526 230.415 209.124 230.37 208.903C230.311 208.621 230.201 208.333 230.11 208.061C229.993 207.709 229.873 207.372 229.749 207.101C229.647 206.879 229.546 206.605 229.46 206.344C229.35 206.007 229.151 205.464 229.043 205.203C228.898 204.854 228.811 204.559 228.715 204.288C228.631 204.052 228.428 203.613 228.291 203.266C228.217 203.077 228.133 202.842 227.88 202.183C227.747 201.839 227.704 201.6 227.546 201.143C227.463 200.903 227.354 200.685 227.314 200.413C227.264 200.278 227.218 200.164 227.19 200.074C227.173 200.029 227.15 199.984 227.127 199.938" stroke="#20F4FF" stroke-width="3" stroke-linecap="round"/>
<path d="M238.684 214.409C238.785 214.499 238.944 214.77 239.034 214.945C239.203 215.109 239.384 215.29 239.722 215.617C239.813 215.708 239.891 215.786 240.04 215.799" stroke="#20F4FF" stroke-width="3" stroke-linecap="round"/>
<path d="M239.274 212.098C239.281 212.113 239.411 212.291 239.608 212.561C239.699 212.685 239.721 212.74 239.742 212.793C239.821 213.002 239.811 213.351 239.837 213.474C239.87 213.628 239.897 213.702 239.902 213.774C239.905 213.807 239.923 213.847 239.943 213.879C239.949 213.888 239.96 213.87 239.966 213.85C239.978 213.804 239.979 213.596 239.981 213.305C239.981 213.195 239.986 213.162 239.988 213.093C239.99 213.024 239.99 212.921 240.056 213.03C240.123 213.139 240.256 213.464 240.328 213.645C240.41 213.85 240.423 213.892 240.434 213.896C240.479 213.912 240.419 213.718 240.352 213.465C240.31 213.304 240.227 213.08 240.183 212.982C240.139 212.885 240.132 212.922 240.132 212.961C240.131 213.136 240.187 213.38 240.203 213.476C240.207 213.507 240.173 213.312 240.091 213.048C240.043 212.89 239.965 212.688 239.92 212.569C239.863 212.418 239.811 212.264 239.759 212.066C239.736 211.979 239.703 211.757 239.655 211.437C239.63 211.275 239.595 211.174 239.543 210.978C239.504 210.835 239.479 210.734 239.466 210.672C239.447 210.579 239.487 210.923 239.516 211.046C239.535 211.122 239.561 211.188 239.6 211.268C239.649 211.369 239.691 211.494 239.734 211.593C239.792 211.725 239.818 211.877 239.854 211.975C239.877 212.039 239.923 212.12 239.967 212.228C240.029 212.377 240.12 212.634 240.165 212.777C240.201 212.888 240.254 213.041 240.281 213.144C240.305 213.238 240.322 213.314 240.331 213.416C240.341 213.52 240.378 213.59 240.402 213.677C240.431 213.783 240.5 214.036 240.549 214.207C240.582 214.32 240.602 214.388 240.629 214.455C240.673 214.56 240.695 214.675 240.736 214.809C240.799 214.992 240.814 215.048 240.825 215.084C240.829 215.1 240.829 215.115 240.851 215.153" stroke="#20F4FF" stroke-width="0.5" stroke-linecap="round"/>
<path d="M240.807 215.007C240.803 215 240.799 214.993 240.749 214.86C240.7 214.726 240.604 214.468 240.552 214.324C240.501 214.18 240.497 214.157 240.468 214.035C240.438 213.913 240.383 213.692 240.352 213.542C240.308 213.325 240.311 213.236 240.309 213.225C240.298 213.16 240.348 213.384 240.393 213.491C240.511 213.773 240.594 214.022 240.629 214.112C240.666 214.203 240.691 214.276 240.78 214.475C240.82 214.565 240.837 214.641 240.861 214.705C240.884 214.767 240.904 214.85 240.92 214.918C240.942 215.003 240.982 215.104 241.001 215.177C241.022 215.261 241.064 215.317 241.088 215.386C241.11 215.448 241.142 215.507 241.167 215.578C241.191 215.65 241.224 215.708 241.276 215.848C241.331 215.993 241.355 216.099 241.388 216.202C241.414 216.279 241.452 216.427 241.495 216.54C241.522 216.611 241.53 216.682 241.545 216.751C241.582 216.86 241.642 217.002 241.655 217.034C241.661 217.051 241.664 217.069 241.691 217.122" stroke="#20F4FF" stroke-width="0.5" stroke-linecap="round"/>
<path d="M240.247 213.251C240.251 213.28 240.31 213.488 240.415 213.724C240.462 213.829 240.501 213.918 240.54 214.022C240.581 214.133 240.617 214.187 240.639 214.246C240.666 214.318 240.698 214.407 240.726 214.47C240.758 214.542 240.795 214.649 240.818 214.716C240.838 214.776 240.866 214.85 240.898 214.919C240.931 214.992 240.982 215.063 241.01 215.132C241.043 215.213 241.083 215.294 241.109 215.373C241.136 215.453 241.165 215.548 241.193 215.641C241.232 215.773 241.276 215.865 241.303 215.952C241.339 216.075 241.381 216.193 241.411 216.266C241.456 216.376 241.493 216.506 241.53 216.661C241.589 216.903 241.616 216.984 241.661 217.099C241.668 217.126 241.668 217.14 241.672 217.155C241.676 217.17 241.683 217.185 241.691 217.211" stroke="#20F4FF" stroke-width="0.5" stroke-linecap="round"/>
<path d="M231.979 217.133H241.623" stroke="#20F4FF" stroke-width="0.5" stroke-linecap="round"/>
<path d="M232.054 217.172H233.598" stroke="#20F4FF" stroke-width="0.5" stroke-linecap="round"/>
<path d="M232.021 217.262H241.833" stroke="#20F4FF" stroke-width="0.5" stroke-linecap="round"/>
<path d="M241.677 217.004C241.647 216.993 241.587 216.949 241.506 216.884C241.36 216.768 241.248 216.61 241.157 216.527C241.138 216.51 241.121 216.501 241.104 216.497C241.088 216.493 241.069 216.497 241.05 216.51C241.008 216.539 240.972 216.616 240.948 216.683C240.92 216.759 241.087 216.505 241.102 216.462C241.115 216.427 240.999 216.638 240.896 216.789C240.865 216.835 240.886 216.826 240.903 216.813C240.972 216.759 241.05 216.673 241.173 216.511C241.248 216.438 241.292 216.363 241.33 216.263C241.341 216.24 241.352 216.225 241.363 216.21" stroke="#20F4FF" stroke-width="0.5" stroke-linecap="round"/>
<path d="M241.296 216.031C241.3 216.064 241.337 216.168 241.393 216.281C241.426 216.347 241.453 216.43 241.503 216.521C241.59 216.68 241.606 216.754 241.624 216.816C241.647 216.891 241.688 216.926 241.704 216.934C241.78 216.967 241.632 216.725 241.609 216.649C241.588 216.576 241.55 216.494 241.509 216.414C241.467 216.332 241.412 216.215 241.35 216.104C241.341 216.083 241.341 216.069 241.335 216.054C241.33 216.039 241.319 216.024 241.307 215.997" stroke="#20F4FF" stroke-width="0.5" stroke-linecap="round"/>
<path d="M230.455 212.585C230.455 212.611 230.462 212.693 230.477 212.764C230.493 212.842 230.525 212.939 230.592 213.149C230.627 213.257 230.652 213.338 230.68 213.411C230.708 213.483 230.738 213.577 230.766 213.651C230.797 213.735 230.835 213.849 230.861 213.946C230.891 214.057 230.913 214.114 230.934 214.201C230.96 214.315 231.006 214.472 231.04 214.585C231.072 214.695 231.089 214.752 231.126 214.841C231.167 214.916 231.189 214.961 231.208 215C231.219 215.024 231.234 215.057 231.249 215.125" stroke="#20F4FF" stroke-width="0.5" stroke-linecap="round"/>
<path d="M231.985 216.87C231.985 216.833 231.97 216.751 231.94 216.682C231.911 216.615 231.862 216.557 231.836 216.503C231.807 216.444 231.769 216.382 231.739 216.32C231.704 216.25 231.686 216.173 231.677 216.098C231.667 216.018 231.623 215.957 231.601 215.897C231.575 215.828 231.534 215.767 231.511 215.694C231.485 215.611 231.463 215.539 231.448 215.47C231.44 215.435 231.433 215.401 231.427 215.367C231.425 215.349 231.425 215.327 231.414 215.304" stroke="#20F4FF" stroke-width="0.5" stroke-linecap="round"/>
<path d="M231.615 215.942C231.638 215.986 231.675 216.09 231.692 216.167C231.721 216.299 231.765 216.352 231.804 216.454C231.839 216.547 231.847 216.616 231.862 216.682C231.865 216.698 231.869 216.717 231.871 216.754C231.873 216.791 231.873 216.847 231.884 216.915" stroke="#20F4FF" stroke-width="0.5" stroke-linecap="round"/>
<path d="M230.662 212.54C230.595 212.488 230.505 212.384 230.451 212.27C230.417 212.198 230.382 212.142 230.336 212.082C230.261 211.987 230.237 211.914 230.212 211.856C230.183 211.786 230.129 211.698 230.093 211.623C230.066 211.566 230.021 211.437 229.987 211.316C229.951 211.186 229.912 211.06 229.879 210.933C229.85 210.825 229.826 210.728 229.804 210.642C229.785 210.569 229.759 210.478 229.698 210.329C229.681 210.277 229.666 210.225 229.647 210.167C229.64 210.142 229.636 210.128 229.632 210.112" stroke="#20F4FF" stroke-width="0.5" stroke-linecap="round"/>
<path d="M225.795 198.962L232.337 217.489" stroke="#20F4FF"/>
<line x1="235.429" y1="199.852" x2="239.796" y2="212.08" stroke="#20F4FF"/>
<line x1="104.367" y1="216.392" x2="113.975" y2="197.176" stroke="#20F4FF"/>
<path d="M109.853 208.452C109.853 208.392 109.88 208.176 110.147 207.355C110.26 207.008 110.462 206.815 110.49 206.672C110.511 206.568 110.113 207.088 109.758 207.565C109.628 207.739 109.61 207.781 109.6 207.778C109.551 207.765 109.69 207.385 109.872 206.878C109.95 206.664 110.015 206.545 110.133 206.279C110.431 205.606 110.625 205.155 110.656 205.171C110.794 205.246 110.599 205.674 110.501 205.989C110.473 206.077 110.476 206.016 110.708 205.566C110.939 205.116 111.395 204.278 111.636 203.816C111.878 203.354 111.891 203.294 111.898 203.283C111.914 203.257 111.825 203.575 111.649 204C111.483 204.403 111.303 204.606 111.259 204.626C111.244 204.634 111.262 204.553 111.393 204.174C111.523 203.794 111.771 203.097 111.903 202.714C112.034 202.332 112.04 202.285 112.044 202.281C112.156 202.149 111.805 203.005 111.749 203.145C111.693 203.284 111.923 202.676 112.099 202.279C112.275 201.882 112.503 201.426 112.627 201.171C112.751 200.916 112.765 200.876 112.775 200.869C112.88 200.794 112.738 201.374 112.728 201.515C112.693 201.975 113.008 200.579 113.079 200.423C113.1 200.379 113.104 200.414 113.094 200.465C113.07 200.584 113.029 200.679 113.009 200.706C113.036 200.437 113.13 199.921 113.202 199.647C113.219 199.589 113.232 199.562 113.246 199.514" stroke="#20F4FF" stroke-width="0.5" stroke-linecap="round"/>
<path d="M113.307 199.921C113.293 200.11 113.259 200.272 112.998 201.004C112.758 201.674 112.24 202.929 111.941 203.725C111.642 204.522 111.562 204.817 111.517 204.932C111.472 205.047 111.465 204.973 111.465 204.888C111.465 204.71 111.512 204.439 111.667 203.886C111.774 203.504 111.996 202.932 112.106 202.621C112.217 202.311 112.223 202.284 111.959 202.904C111.694 203.524 111.158 204.79 110.878 205.346C110.598 205.901 110.592 205.707 110.625 205.433C110.659 205.158 110.732 204.81 110.817 204.499C110.902 204.189 110.996 203.928 111.041 203.826C111.086 203.725 111.079 203.792 110.928 204.242C110.777 204.693 110.482 205.524 110.337 205.902C110.192 206.28 110.205 206.179 110.39 205.779C110.574 205.378 110.93 204.681 111.119 204.299C111.309 203.916 111.323 203.869 111.33 203.862C111.336 203.854 111.336 203.888 111.085 204.418C110.834 204.948 110.331 205.974 109.985 206.639C109.639 207.305 109.464 207.58 109.365 207.745C109.265 207.91 109.245 207.957 109.251 207.921C109.257 207.885 109.291 207.764 109.513 207.243C109.734 206.721 110.143 205.803 110.387 205.28C110.682 204.648 110.788 204.498 110.812 204.474C110.832 204.453 110.802 204.617 110.517 205.363C110.232 206.109 109.675 207.483 109.399 208.151C109.122 208.819 109.142 208.738 109.179 208.64C109.217 208.541 109.27 208.427 109.445 208.161C109.62 207.894 109.915 207.479 110.004 207.422C110.092 207.366 109.964 207.681 109.694 208.175C109.424 208.669 109.015 209.333 108.812 209.621C108.608 209.909 108.621 209.802 108.688 209.512C108.755 209.222 108.876 208.753 109.029 208.29C109.181 207.827 109.362 207.384 109.503 207.079C109.718 206.611 109.894 206.394 109.995 206.336C110.094 206.28 110.044 206.717 109.919 207.239C109.84 207.57 109.681 208.023 109.527 208.429C109.374 208.835 109.22 209.177 109.134 209.379C109.048 209.582 109.035 209.636 109.289 209.097C109.544 208.558 110.066 207.426 110.202 207.224C110.337 207.023 110.069 207.787 109.904 208.237C109.696 208.806 109.617 208.98 109.596 209.021C109.587 209.039 109.59 208.901 109.677 208.524C109.764 208.147 109.938 207.497 109.984 207.296C110.031 207.095 109.943 207.363 109.711 207.884C109.478 208.404 109.103 209.168 108.963 209.441C108.823 209.714 108.931 209.473 109.354 208.795C109.778 208.118 110.516 207.012 110.906 206.432C111.296 205.852 111.316 205.832 111.336 205.811" stroke="#20F4FF" stroke-width="0.5" stroke-linecap="round"/>
<path d="M111.214 205.73C111.201 205.73 111.127 205.737 110.995 205.771C110.928 205.788 110.87 205.844 110.685 206.073C110.5 206.302 110.192 206.711 110.023 206.938C109.854 207.165 109.834 207.199 109.827 207.199C109.794 207.202 109.867 207.065 110.068 206.729C110.232 206.456 110.538 205.99 110.7 205.772C110.862 205.554 110.876 205.601 110.869 205.692C110.863 205.783 110.836 205.917 110.728 206.264C110.621 206.612 110.433 207.168 110.199 207.736C109.965 208.304 109.69 208.867 109.498 209.235C109.306 209.602 109.206 209.756 109.083 209.912C108.961 210.069 108.82 210.223 108.748 210.262C108.674 210.302 108.803 209.756 109.033 209.097C109.188 208.651 109.332 208.339 109.379 208.175C109.382 208.167 109.333 208.307 109.051 208.876C108.769 209.444 108.252 210.436 107.98 210.968C107.707 211.499 107.694 211.539 107.69 211.546C107.687 211.554 107.693 211.527 107.824 211.221C107.955 210.916 108.21 210.333 108.398 209.949C108.586 209.564 108.7 209.397 108.705 209.458C108.71 209.519 108.603 209.814 108.377 210.251C108.151 210.688 107.809 211.257 107.7 211.35C107.463 211.551 107.93 210.478 108.072 210.204C108.139 210.074 108.227 209.978 108.265 209.976C108.303 209.975 108.296 210.075 108.179 210.442C108.061 210.809 107.834 211.439 107.709 211.777C107.585 212.115 107.572 212.142 107.558 212.19" stroke="#20F4FF" stroke-width="0.5" stroke-linecap="round"/>
<path d="M108.218 211.144C108.212 211.157 108.205 211.17 108.007 211.553C107.809 211.935 107.42 212.686 107.193 213.156C106.966 213.627 106.912 213.795 106.892 213.831C106.871 213.867 106.884 213.766 107.045 213.362C107.206 212.959 107.515 212.255 107.717 211.822C107.989 211.24 108.177 210.929 108.265 210.775C108.276 210.756 108.206 211.017 108.084 211.306C107.963 211.594 107.788 211.942 107.658 212.176C107.464 212.525 107.345 212.673 107.358 212.698C107.377 212.733 107.478 212.581 107.748 212.154C108.017 211.727 108.466 210.969 108.708 210.569C108.949 210.169 108.969 210.149 108.973 210.155C108.993 210.191 108.775 210.518 108.323 211.206C108.056 211.613 107.671 212.109 107.43 212.418C107.19 212.727 107.096 212.828 107.051 212.829C106.945 212.833 107.047 212.486 107.141 212.132C107.198 211.916 107.316 211.637 107.424 211.408C107.533 211.179 107.641 211.012 107.696 210.939C107.751 210.866 107.751 210.893 107.52 211.389C107.288 211.886 106.826 212.851 106.591 213.321C106.356 213.792 106.363 213.738 106.4 213.597C106.437 213.455 106.504 213.227 106.599 212.992C106.792 212.513 107.019 212.167 107.137 212.035C107.166 212.003 107.169 212.097 107.021 212.514C106.874 212.93 106.585 213.681 106.42 214.095C106.255 214.508 106.221 214.562 106.208 214.556C106.14 214.528 106.301 214.146 106.517 213.589C106.63 213.296 106.787 212.998 106.856 212.863C106.925 212.728 106.912 212.768 106.741 213.094C106.569 213.419 106.241 214.029 106.018 214.417C105.795 214.805 105.688 214.953 105.653 214.992C105.629 215.018 105.746 214.821 105.941 214.609C106.319 214.198 106.647 213.934 106.721 213.927C106.835 213.916 106.682 214.224 106.554 214.513C106.466 214.712 106.305 215.004 106.236 215.126C106.075 215.408 106.701 214.084 106.702 214.048C106.704 213.945 106.515 214.455 106.382 214.698C106.249 214.941 106.128 215.102 106.039 215.211C105.95 215.321 105.897 215.375 105.842 215.43" stroke="#20F4FF" stroke-width="0.5" stroke-linecap="round"/>
<path d="M105.943 215.003C105.91 215.05 105.627 215.319 105.459 215.457C105.411 215.496 105.584 215.194 105.716 214.978C105.756 214.912 105.76 214.948 105.744 215.023C105.646 215.456 105.449 215.7 105.425 215.697C105.304 215.682 105.517 215.471 105.547 215.454C105.662 215.389 105.422 215.808 105.341 215.896C105.32 215.919 105.314 215.864 105.31 215.857C105.307 215.849 105.3 215.883 105.283 215.917C105.266 215.951 105.24 215.984 105.171 216.039" stroke="#20F4FF" stroke-width="0.5" stroke-linecap="round"/>
<path d="M104.603 216.324H112.179" stroke="#20F4FF" stroke-width="0.5" stroke-linecap="round"/>
<path d="M113.627 198.453V200.2" stroke="#20F4FF" stroke-width="0.5" stroke-linecap="round"/>
<path d="M113.627 198.656C113.627 198.83 113.627 199.215 113.627 199.444C113.627 199.378 113.627 198.943 113.627 198.896C113.627 198.849 113.627 199.204 113.627 199.57" stroke="#20F4FF" stroke-width="0.5" stroke-linecap="round"/>
<path d="M113.793 198.876C113.775 198.774 113.739 198.476 113.739 198.389C113.739 198.598 113.734 198.822 113.728 198.941C113.725 199.02 113.725 199.136 113.725 199.255" stroke="#20F4FF" stroke-width="0.5" stroke-linecap="round"/>
<line x1="29.2462" y1="216.4" x2="38.8541" y2="196.31" stroke="#20F4FF"/>
<path d="M32.1443 213.922C32.1443 213.9 32.1879 213.747 32.6076 212.977C32.9582 212.335 33.6914 211.239 34.094 210.585C34.4966 209.932 34.5728 209.769 34.1277 210.267C33.6825 210.765 32.7137 211.93 32.2309 212.47C31.7482 213.01 31.7808 212.89 32.2766 211.931C32.7724 210.971 33.7304 209.175 34.2293 208.222C34.7282 207.27 34.7391 207.215 34.4834 207.868C34.2278 208.52 33.7053 209.881 33.3708 210.712C33.0363 211.544 32.9057 211.805 33.067 211.254C33.2283 210.703 33.6855 209.331 34.0952 208.282C34.5049 207.232 34.8532 206.546 35.0327 206.215C35.2121 205.883 35.2121 205.927 34.9999 206.477C34.7876 207.028 34.363 208.084 34.3185 208.187C34.274 208.29 34.6223 207.408 34.9868 206.584C35.3513 205.759 35.7214 205.019 35.9121 204.659C36.1028 204.3 36.1028 204.343 35.934 204.758C35.7653 205.172 35.4279 205.956 35.2758 206.278C35.1937 206.452 35.5387 205.594 36.0498 204.511C36.2409 204.107 36.267 203.984 36.2839 203.944C36.2906 203.928 36.268 204.156 35.99 204.893C35.7697 205.477 35.2873 206.447 35.275 206.603C35.143 208.27 36.3663 204.939 36.4104 204.894C36.4184 204.886 36.4109 204.937 35.8229 205.961C35.2349 206.985 34.0701 208.988 33.4483 210.096C32.7508 211.339 32.7272 211.557 32.7053 211.661C32.6833 211.798 32.6612 211.92 32.6448 212.013C32.6391 212.063 32.6391 212.117 32.6391 212.173" stroke="#20F4FF" stroke-width="0.5" stroke-linecap="round"/>
<path d="M32.1773 213.922C32.1555 213.943 32.0354 214.042 31.7889 214.25C31.4781 214.512 31.091 214.952 30.7229 215.414C30.4405 215.878 30.3082 216.109 30.2753 216.175C30.264 216.166 30.264 216.068 30.264 215.967" stroke="#20F4FF" stroke-width="0.5" stroke-linecap="round"/>
<path d="M29.2745 216.363H31.8805" stroke="#20F4FF" stroke-width="0.5" stroke-linecap="round"/>
<path d="M30.3301 215.736C30.494 215.363 30.8344 214.935 31.3754 214.301C31.7551 213.855 32.428 213.231 32.6829 213.036C32.7781 212.963 32.4211 213.622 31.9774 214.132C31.4235 214.768 30.9252 215.163 30.7381 215.246C30.6864 215.269 30.7035 215.144 30.9542 214.653C31.2049 214.161 31.6839 213.28 31.9469 212.766C32.2655 212.143 32.2981 211.965 32.3311 211.921C32.3576 211.885 32.2987 212.139 32.0477 212.647C31.8569 213.033 31.4701 213.645 31.3067 213.899C31.0009 214.375 32.243 212.317 32.2761 212.256C32.7327 211.413 31.2973 214.219 31.4122 214.071C31.5641 213.876 32.0309 213.267 32.5641 212.508C32.7367 212.262 32.7599 212.337 32.6675 212.588C32.5752 212.84 32.3792 213.275 32.3109 213.369C32.0035 213.791 32.4851 212.636 32.4907 212.564C32.495 212.509 31.9514 213.343 31.3997 213.968C31.3472 214.028 31.7188 213.124 31.8824 212.78C31.9834 212.568 31.4671 213.365 31.0141 213.99C30.9909 214.022 31.4536 213.189 31.7271 212.753C32.0005 212.317 32.0876 212.23 32.127 212.223C32.6094 212.14 31.4206 213.611 31.2484 213.938C31.2442 213.945 31.2643 213.868 31.4497 213.464C31.635 213.06 31.9834 212.331 32.2989 211.721C32.8631 210.631 33.254 209.954 33.2227 209.891C32.8739 209.19 32.3433 211.269 32.3146 211.229C32.1595 211.012 32.6233 210.231 32.861 209.61C33.0987 208.989 33.3273 208.51 33.4341 208.313C33.4965 208.197 33.1702 209.054 32.8877 209.827C32.8688 209.879 33.3563 209.163 33.7274 208.598C34.0985 208.032 34.4033 207.618 34.5494 207.443C34.6956 207.268 34.6738 207.345 34.6027 207.471C34.4281 207.781 34.1579 208.19 33.862 208.684C33.7062 208.944 33.5008 209.199 33.8951 208.588C34.2895 207.977 35.2801 206.486 35.8067 205.674C36.3334 204.862 36.366 204.775 36.3447 204.823C36.2419 205.053 36.0381 205.475 35.6824 206.028C35.4687 206.36 35.1415 206.766 34.9844 206.936C34.8702 207.059 35.1759 206.21 35.7033 205.072C35.8988 204.651 35.9695 204.555 35.9977 204.527C36.0259 204.498 36.015 204.541 35.808 204.912C35.6011 205.283 35.1983 205.98 34.8711 206.496C34.5438 207.013 34.3043 207.329 34.2136 207.415C34.1229 207.502 34.1882 207.349 34.5376 206.775C34.8869 206.202 35.5183 205.211 35.8544 204.673C36.1905 204.136 36.2123 204.082 36.2181 204.086C36.2728 204.13 35.9296 204.789 35.4901 205.691C35.3258 206.027 35.2682 206.113 35.2402 206.103C35.125 206.064 35.4516 205.328 35.7274 204.629C35.7888 204.473 35.2577 205.124 35.0485 205.289C34.7264 205.544 35.6608 204.193 36.007 203.732C36.1354 203.564 36.1681 203.531 36.0761 203.749C35.984 203.966 35.7663 204.434 35.476 204.982" stroke="#20F4FF" stroke-width="0.5" stroke-linecap="round"/>
<path d="M31.9464 210.92C31.7607 211.367 31.3651 212.379 31.2538 212.673C31.2428 212.722 31.2319 212.777 31.2099 212.865C31.188 212.953 31.1554 213.072 31.1217 213.295" stroke="#20F4FF" stroke-width="0.5" stroke-linecap="round"/>
<path d="M30.8579 214.449C30.7484 214.701 30.6491 214.999 30.6761 215.043C30.8924 215.398 31.3184 214.331 31.5109 214.05C31.5608 213.977 31.5618 214.084 31.5399 214.173C31.4081 214.493 31.2979 214.723 31.2595 214.872C31.2428 214.943 31.232 215.009 31.2207 215.043" stroke="#20F4FF" stroke-width="0.5" stroke-linecap="round"/>
<path d="M34.7173 208.677C34.7173 208.633 34.7173 208.001 34.7228 207.028C34.7254 206.567 34.7612 206.423 34.7614 206.401C34.7616 206.377 34.718 206.509 34.4399 206.94C34.1618 207.371 33.6393 208.144 33.3974 208.499C33.1554 208.853 33.2098 208.766 33.276 208.678C33.5856 208.264 34.1203 207.614 34.5334 207.135C34.62 207.026 34.4567 207.189 34.3563 207.289C34.2559 207.39 34.2232 207.422 34.1896 207.456" stroke="#20F4FF" stroke-width="0.5" stroke-linecap="round"/>
<path d="M36.5069 203.25C36.5834 203.152 36.7589 202.78 37.3786 201.496C37.5099 201.224 37.5724 201.152 37.5895 201.134C37.6081 201.115 37.4754 201.336 37.1693 201.822C36.9468 202.176 36.6019 202.755 36.3844 203.101C36.101 203.552 35.9686 203.733 35.908 203.843C35.8978 203.862 36.0002 203.68 36.3608 203.194C36.6436 202.813 37.0914 202.131 37.3106 201.849C37.4581 201.659 37.1479 202.594 36.6804 203.694C36.4611 204.21 37.4084 201.788 37.4086 201.777C37.4107 201.629 37.0377 202.563 36.5978 203.322C36.463 203.555 36.4627 203.45 36.5445 203.198C36.7593 202.537 37.1208 201.726 37.3195 201.312C37.7188 200.479 36.848 202.348 36.8313 202.376C36.7596 202.497 37.164 201.519 37.5599 200.65C37.6811 200.384 37.6944 200.499 37.6836 200.637C37.6727 200.775 37.6509 200.938 37.6342 201.044C37.6176 201.15 37.6067 201.193 37.5955 201.238" stroke="#20F4FF" stroke-width="0.5" stroke-linecap="round"/>
<path d="M38.1562 201.106C38.1562 201.019 38.1562 200.932 38.1562 200.424C38.1562 199.917 38.1562 198.992 38.1562 199.021C38.1562 199.051 38.1562 200.063 38.1562 201.106Z" stroke="#20F4FF" stroke-width="0.5" stroke-linecap="round"/>
<path d="M37.9913 200.743C37.9253 200.491 37.9035 200.272 37.8705 200.056C37.8316 199.803 37.6179 200.523 37.5519 200.567C37.5295 200.394 37.5403 200.205 37.5568 200.117C37.5624 200.073 37.5624 200.029 37.5624 199.985" stroke="#20F4FF" stroke-width="0.5" stroke-linecap="round"/>
<path d="M38.3541 197.939V200.347" stroke="#20F4FF" stroke-width="0.5" stroke-linecap="round"/>
<path d="M38.618 197.445V201.799" stroke="#20F4FF" stroke-width="0.5" stroke-linecap="round"/>
<path d="M37.9584 199.721C37.9584 199.699 37.9584 199.677 37.9584 199.628C37.9584 199.175 37.2218 201.26 37.1998 201.298C36.961 201.722 37.3748 199.889 37.4903 199.459C37.5189 199.353 37.5295 199.487 37.3064 200.224C37.0832 200.961 36.6369 202.3 36.4233 202.924C36.2097 203.548 36.2424 203.418 36.4443 202.91C36.6461 202.402 37.0162 201.52 37.2015 201.131C37.3867 200.742 37.3758 200.873 37.1688 201.506C36.9618 202.139 36.559 203.271 36.3298 203.893C36.1005 204.514 36.057 204.59 36.1434 204.444C36.7411 203.436 36.8695 203.141 36.9244 203.151C36.9816 203.162 36.9575 203.357 36.8162 204.04C36.6748 204.722 36.3809 205.931 36.1751 206.684C35.8951 207.708 35.6394 208.152 35.4472 208.504C35.2854 208.799 35.2208 209.001 35.1822 209.018C35.1573 209.029 35.198 208.893 35.4052 208.451C35.6123 208.008 36.0042 207.225 36.2061 206.843C36.408 206.461 36.408 206.504 36.3971 206.619C36.3862 206.734 36.3644 206.919 36.2226 207.575C36.0807 208.231 35.8195 209.352 35.6795 210.011C35.5394 210.671 35.5285 210.834 35.5828 210.864C35.7505 210.955 36.0217 210.509 36.4212 209.919C36.7008 209.506 37.0492 208.806 37.2726 208.409C37.4959 208.012 37.5612 207.925 37.5948 207.957C37.6285 207.988 37.6285 208.14 37.5414 208.665C37.4543 209.19 37.2801 210.083 37.185 210.515C37.0898 210.948 37.0789 210.893 37.0733 210.795C37.0677 210.696 37.0677 210.554 37.0677 210.408" stroke="#20F4FF" stroke-width="0.5" stroke-linecap="round"/>
<path d="M39.5984 197.062C39.5984 197.039 39.583 196.821 39.5403 196.716C39.4693 196.54 39.4273 196.976 39.4118 196.999C39.2962 197.175 39.3807 196.533 39.3651 196.49C39.3547 196.461 39.3263 196.594 39.2991 196.684C39.2861 196.726 39.2796 196.765 39.2756 196.689C39.2717 196.612 39.2717 196.42 39.2717 196.375C39.2717 196.312 39.2794 196.579 39.291 196.595C39.3923 196.733 39.2717 196.315 39.2678 196.28C39.2563 196.36 39.2483 196.478 39.2445 196.571C39.2406 196.618 39.2329 196.664 39.225 196.735" stroke="white" stroke-width="0.5" stroke-linecap="round"/>
<path d="M39.225 196.618C39.225 196.849 39.225 197.207 39.225 197.33C39.225 197.446 39.225 196.737 39.225 196.668C39.225 196.599 39.225 196.953 39.225 196.959C39.225 196.964 39.225 196.61 39.225 196.581C39.225 196.553 39.225 196.861 39.225 196.877C39.225 196.893 39.225 196.608 39.225 196.558C39.225 196.507 39.225 196.7 39.225 196.691C39.225 196.683 39.225 196.467 39.225 196.541C39.225 196.615 39.225 196.984 39.225 197.365" stroke="white" stroke-width="0.5" stroke-linecap="round"/>
<path d="M39.1667 211.952V213.843" stroke="white" stroke-width="0.5" stroke-linecap="round"/>
<path d="M39.0967 212.326V217.367" stroke="white" stroke-width="0.5" stroke-linecap="round"/>
<path d="M114.367 196.548V199.372" stroke="white" stroke-width="0.5" stroke-linecap="round"/>
<path d="M39.3884 196.245V197.412" stroke="white" stroke-width="0.5" stroke-linecap="round"/>
<path d="M39.2017 196.315V197.342" stroke="white" stroke-width="0.5" stroke-linecap="round"/>
<path d="M39.2017 196.362V197.622" stroke="white" stroke-width="0.5" stroke-linecap="round"/>
<path d="M39.1783 196.408C39.1783 196.562 39.1783 196.996 39.1783 197.309C39.1783 197.268 39.1783 196.822 39.1783 196.8C39.1783 196.777 39.1783 197.193 39.1783 197.575" stroke="white" stroke-width="0.5" stroke-linecap="round"/>
<path d="M39.155 196.548C39.155 196.687 39.155 196.989 39.155 197.155C39.155 197.22 39.155 196.719 39.155 196.702C39.155 196.685 39.155 197.031 39.155 196.994C39.155 196.957 39.155 196.526 39.155 196.531C39.155 196.536 39.155 196.99 39.155 197.412" stroke="white" stroke-width="0.5" stroke-linecap="round"/>
<path d="M39.365 202.272V203.696" stroke="white" stroke-width="0.5" stroke-linecap="round"/>
<path d="M39.1083 202.622V212.448" stroke="white" stroke-width="0.5" stroke-linecap="round"/>
<path d="M114.273 196.992C114.273 197.084 114.273 197.177 114.273 197.625C114.273 198.073 114.273 198.874 114.273 198.805C114.273 198.736 114.273 197.774 114.273 197.79C114.273 197.806 114.273 198.83 114.273 198.869C114.273 198.908 114.273 197.929 114.273 198.427C114.273 198.924 114.273 200.927 114.273 201.496C114.273 202.066 114.273 201.141 114.273 201.266C114.273 201.391 114.273 202.592 114.273 202.707C114.273 202.821 114.273 201.812 114.273 201.928C114.273 202.044 114.273 203.314 114.273 203.384C114.273 203.453 114.273 202.282 114.273 202.361C114.273 202.439 114.273 203.803 114.273 204.439C114.273 205.076 114.273 204.945 114.273 204.81" stroke="white" stroke-width="0.5" stroke-linecap="round"/>
<path d="M114.221 201.765V209.863" stroke="white" stroke-width="0.5" stroke-linecap="round"/>
<path d="M114.419 209.531V212.005" stroke="white" stroke-width="0.5" stroke-linecap="round"/>
<path d="M114.443 209.788C114.443 209.888 114.443 209.988 114.443 210.428C114.443 210.869 114.443 211.647 114.443 211.528C114.443 211.409 114.443 210.369 114.443 209.937C114.443 209.505 114.443 209.713 114.443 209.928" stroke="white" stroke-width="0.5" stroke-linecap="round"/>
<path d="M114.256 209.671C114.256 209.756 114.256 209.84 114.256 210.35C114.256 210.86 114.256 211.792 114.256 211.763C114.256 211.735 114.256 210.718 114.256 210.483C114.256 210.249 114.256 210.826 114.256 211.078C114.256 211.329 114.256 211.237 114.256 211.141" stroke="white" stroke-width="0.5" stroke-linecap="round"/>
<path d="M114.326 209.904C114.326 209.981 114.326 210.058 114.326 210.506C114.326 210.954 114.326 211.771 114.326 211.737C114.326 211.703 114.326 210.794 114.326 209.928" stroke="white" stroke-width="0.5" stroke-linecap="round"/>
<path d="M114.256 209.671V213.965" stroke="white" stroke-width="0.5" stroke-linecap="round"/>
<path d="M114.232 209.578V217.14" stroke="white" stroke-width="0.5" stroke-linecap="round"/>
<path d="M225.319 198.407H234.599" stroke="#20F4FF" stroke-width="0.5" stroke-linecap="round"/>
<path d="M225.469 198.081H234.749" stroke="#20F4FF" stroke-width="0.5" stroke-linecap="round"/>
<path d="M234.774 198.231C234.774 198.34 234.923 198.788 235.012 199.092C235.071 199.291 235.142 199.418 235.167 199.443C235.296 199.574 235.059 198.91 235.004 198.741C234.973 198.646 235.083 199.041 235.212 199.271C235.292 199.414 235.35 199.552 235.43 199.731C235.476 199.819 235.518 199.903 235.555 199.978C235.576 200.012 235.601 200.037 235.627 200.062" stroke="#20F4FF" stroke-width="0.5" stroke-linecap="round"/>
<path d="M235.326 199.661C235.359 199.719 235.459 199.836 235.509 199.891C235.591 199.979 235.459 199.57 235.405 199.377C235.367 199.176 235.318 199.043 235.267 198.901C235.251 198.859 235.226 198.809 235.175 198.733" stroke="#20F4FF" stroke-width="0.5" stroke-linecap="round"/>
<path d="M225.344 198.156H225.77" stroke="#20F4FF" stroke-width="0.5" stroke-linecap="round"/>
<path d="M225.293 198.256H226.071" stroke="#20F4FF" stroke-width="0.5" stroke-linecap="round"/>
<path d="M224.566 198.056C224.633 198.214 224.666 198.414 224.737 198.686C224.785 198.871 224.85 199 224.929 199.209C225.01 199.422 225.009 199.618 225.042 199.761C225.05 199.794 225.059 199.827 225.067 199.811C225.276 199.413 224.884 198.659 224.85 198.545C224.778 198.302 225.05 199.175 225.101 199.338C225.132 199.438 225.193 199.56 225.226 199.648C225.338 199.943 224.951 198.793 224.855 198.529C224.835 198.474 224.825 198.441 224.821 198.44C224.662 198.422 224.95 198.949 225.213 199.595C225.502 200.337 225.636 200.622 225.665 200.693C225.678 200.731 225.686 200.772 225.695 200.84" stroke="white" stroke-width="0.5" stroke-linecap="round"/>
<path d="M22.892 257.945H19.8977C19.7206 257.084 19.4107 256.328 18.968 255.676C18.5334 255.024 18.0021 254.476 17.3743 254.033C16.7545 253.583 16.0663 253.245 15.3097 253.019C14.553 252.794 13.7642 252.681 12.9432 252.681C11.446 252.681 10.0897 253.06 8.87429 253.816C7.6669 254.573 6.70502 255.688 5.98864 257.161C5.2803 258.634 4.92614 260.441 4.92614 262.582C4.92614 264.723 5.2803 266.53 5.98864 268.003C6.70502 269.476 7.6669 270.591 8.87429 271.347C10.0897 272.104 11.446 272.482 12.9432 272.482C13.7642 272.482 14.553 272.37 15.3097 272.144C16.0663 271.919 16.7545 271.585 17.3743 271.142C18.0021 270.691 18.5334 270.14 18.968 269.488C19.4107 268.828 19.7206 268.071 19.8977 267.218H22.892C22.6667 268.482 22.2562 269.613 21.6605 270.611C21.0649 271.609 20.3243 272.458 19.4389 273.158C18.5535 273.851 17.5594 274.378 16.4567 274.74C15.362 275.102 14.1908 275.283 12.9432 275.283C10.8343 275.283 8.95881 274.768 7.31676 273.738C5.67472 272.708 4.38281 271.243 3.44105 269.343C2.49929 267.444 2.02841 265.19 2.02841 262.582C2.02841 259.974 2.49929 257.72 3.44105 255.82C4.38281 253.921 5.67472 252.456 7.31676 251.426C8.95881 250.395 10.8343 249.88 12.9432 249.88C14.1908 249.88 15.362 250.061 16.4567 250.423C17.5594 250.786 18.5535 251.317 19.4389 252.017C20.3243 252.709 21.0649 253.555 21.6605 254.553C22.2562 255.543 22.6667 256.674 22.892 257.945ZM58.1568 262.582C58.1568 265.19 57.6859 267.444 56.7441 269.343C55.8024 271.243 54.5105 272.708 52.8684 273.738C51.2264 274.768 49.3509 275.283 47.242 275.283C45.1331 275.283 43.2576 274.768 41.6156 273.738C39.9735 272.708 38.6816 271.243 37.7399 269.343C36.7981 267.444 36.3272 265.19 36.3272 262.582C36.3272 259.974 36.7981 257.72 37.7399 255.82C38.6816 253.921 39.9735 252.456 41.6156 251.426C43.2576 250.395 45.1331 249.88 47.242 249.88C49.3509 249.88 51.2264 250.395 52.8684 251.426C54.5105 252.456 55.8024 253.921 56.7441 255.82C57.6859 257.72 58.1568 259.974 58.1568 262.582ZM55.2591 262.582C55.2591 260.441 54.9009 258.634 54.1845 257.161C53.4761 255.688 52.5143 254.573 51.2988 253.816C50.0914 253.06 48.7392 252.681 47.242 252.681C45.7449 252.681 44.3886 253.06 43.1731 253.816C41.9657 254.573 41.0038 255.688 40.2875 257.161C39.5791 258.634 39.225 260.441 39.225 262.582C39.225 264.723 39.5791 266.53 40.2875 268.003C41.0038 269.476 41.9657 270.591 43.1731 271.347C44.3886 272.104 45.7449 272.482 47.242 272.482C48.7392 272.482 50.0914 272.104 51.2988 271.347C52.5143 270.591 53.4761 269.476 54.1845 268.003C54.9009 266.53 55.2591 264.723 55.2591 262.582ZM92.362 250.218V274.945H89.4643L75.9899 255.531H75.7484V274.945H72.7541V250.218H75.6518L89.1745 269.681H89.416V250.218H92.362ZM121.439 256.4C121.294 255.176 120.706 254.227 119.676 253.551C118.646 252.874 117.382 252.536 115.885 252.536C114.79 252.536 113.832 252.713 113.011 253.068C112.198 253.422 111.563 253.909 111.104 254.528C110.653 255.148 110.428 255.853 110.428 256.641C110.428 257.301 110.585 257.869 110.898 258.344C111.22 258.811 111.631 259.201 112.13 259.515C112.629 259.821 113.152 260.074 113.7 260.276C114.247 260.469 114.75 260.626 115.209 260.747L117.72 261.423C118.364 261.592 119.08 261.825 119.869 262.123C120.666 262.421 121.427 262.827 122.151 263.342C122.884 263.85 123.487 264.502 123.962 265.298C124.437 266.095 124.675 267.073 124.675 268.232C124.675 269.569 124.325 270.776 123.624 271.854C122.932 272.933 121.918 273.79 120.582 274.426C119.254 275.062 117.64 275.38 115.74 275.38C113.969 275.38 112.436 275.094 111.14 274.523C109.852 273.951 108.838 273.154 108.097 272.132C107.365 271.11 106.95 269.923 106.854 268.57H109.945C110.025 269.504 110.339 270.277 110.886 270.889C111.442 271.492 112.142 271.943 112.987 272.241C113.84 272.531 114.758 272.676 115.74 272.676C116.883 272.676 117.909 272.49 118.819 272.12C119.728 271.742 120.449 271.219 120.98 270.551C121.511 269.874 121.777 269.086 121.777 268.184C121.777 267.363 121.548 266.695 121.089 266.18C120.63 265.665 120.026 265.246 119.278 264.924C118.529 264.602 117.72 264.32 116.851 264.079L113.808 263.21C111.876 262.654 110.347 261.861 109.22 260.831C108.093 259.801 107.53 258.453 107.53 256.786C107.53 255.402 107.904 254.194 108.653 253.164C109.409 252.126 110.424 251.321 111.695 250.749C112.975 250.17 114.404 249.88 115.982 249.88C117.575 249.88 118.992 250.166 120.232 250.737C121.471 251.301 122.453 252.073 123.178 253.055C123.91 254.037 124.296 255.152 124.337 256.4H121.439ZM155.388 250.218H158.382V266.59C158.382 268.281 157.983 269.79 157.187 271.118C156.398 272.438 155.283 273.48 153.842 274.245C152.401 275.002 150.711 275.38 148.771 275.38C146.831 275.38 145.141 275.002 143.7 274.245C142.259 273.48 141.14 272.438 140.344 271.118C139.555 269.79 139.16 268.281 139.16 266.59V250.218H142.155V266.349C142.155 267.556 142.42 268.631 142.952 269.573C143.483 270.506 144.239 271.243 145.221 271.782C146.211 272.313 147.395 272.579 148.771 272.579C150.148 272.579 151.331 272.313 152.321 271.782C153.311 271.243 154.068 270.506 154.591 269.573C155.122 268.631 155.388 267.556 155.388 266.349V250.218ZM173.924 274.945V250.218H176.918V272.289H188.413V274.945H173.924ZM201.259 252.874V250.218H219.805V252.874H212.029V274.945H209.035V252.874H201.259ZM236.983 250.218V274.945H233.988V250.218H236.983ZM272.157 250.218V274.945H269.259L255.785 255.531H255.543V274.945H252.549V250.218H255.447L268.969 269.681H269.211V250.218H272.157ZM19.8977 298.945C19.6321 298.132 19.282 297.404 18.8473 296.76C18.4207 296.108 17.9096 295.553 17.3139 295.094C16.7263 294.635 16.0582 294.285 15.3097 294.043C14.5611 293.802 13.7401 293.681 12.8466 293.681C11.3816 293.681 10.0495 294.06 8.85014 294.816C7.65081 295.573 6.69697 296.688 5.98864 298.161C5.2803 299.634 4.92614 301.441 4.92614 303.582C4.92614 305.723 5.28433 307.53 6.00071 309.003C6.71709 310.476 7.68703 311.591 8.91051 312.347C10.134 313.104 11.5104 313.482 13.0398 313.482C14.4564 313.482 15.7041 313.18 16.7827 312.577C17.8693 311.965 18.7145 311.104 19.3182 309.993C19.9299 308.874 20.2358 307.558 20.2358 306.045L21.1534 306.238H13.7159V303.582H23.1335V306.238C23.1335 308.274 22.6989 310.045 21.8295 311.551C20.9683 313.056 19.777 314.223 18.2557 315.052C16.7424 315.873 15.0038 316.283 13.0398 316.283C10.8504 316.283 8.92661 315.768 7.26847 314.738C5.61837 313.708 4.33049 312.243 3.40483 310.343C2.48722 308.444 2.02841 306.19 2.02841 303.582C2.02841 301.626 2.29001 299.867 2.81321 298.305C3.34446 296.736 4.09304 295.4 5.05895 294.297C6.02486 293.194 7.16785 292.349 8.48793 291.761C9.808 291.174 11.2609 290.88 12.8466 290.88C14.1506 290.88 15.366 291.077 16.4929 291.472C17.6278 291.858 18.638 292.409 19.5234 293.126C20.4169 293.834 21.1615 294.683 21.7571 295.673C22.3527 296.655 22.7633 297.746 22.9886 298.945H19.8977Z" fill="white"/>
<path d="M131.454 66.3821L163.602 115.514H99.3059L131.454 66.3821Z" fill="#3064A0"/>
</svg>
