<svg xmlns="http://www.w3.org/2000/svg" xmlns:xlink="http://www.w3.org/1999/xlink" width="500" zoomAndPan="magnify" viewBox="0 0 375 374.999991" height="500" preserveAspectRatio="xMidYMid meet" version="1.0"><defs><g/><clipPath id="e5d8bda9f3"><path d="M 101.816406 56.042969 L 273.433594 56.042969 L 273.433594 205.988281 L 101.816406 205.988281 Z M 101.816406 56.042969 " clip-rule="nonzero"/></clipPath><clipPath id="c308cbb21d"><path d="M 187.5 56.042969 L 273.183594 205.988281 L 101.816406 205.988281 Z M 187.5 56.042969 " clip-rule="nonzero"/></clipPath><clipPath id="b15b993308"><path d="M 0.816406 0.0429688 L 172.359375 0.0429688 L 172.359375 149.988281 L 0.816406 149.988281 Z M 0.816406 0.0429688 " clip-rule="nonzero"/></clipPath><clipPath id="6adc6c904e"><path d="M 86.5 0.0429688 L 172.183594 149.988281 L 0.816406 149.988281 Z M 86.5 0.0429688 " clip-rule="nonzero"/></clipPath><clipPath id="0db3d8aa80"><rect x="0" width="173" y="0" height="150"/></clipPath><clipPath id="9a9981bfa9"><path d="M 101.816406 56.042969 L 272.816406 56.042969 L 272.816406 205.984375 L 101.816406 205.984375 Z M 101.816406 56.042969 " clip-rule="nonzero"/></clipPath><clipPath id="7e343a8a26"><path d="M 187.5 56.042969 L 273.179688 205.984375 L 101.816406 205.984375 Z M 187.5 56.042969 " clip-rule="nonzero"/></clipPath><clipPath id="042c96d4f2"><path d="M 110.953125 153.511719 L 171 153.511719 L 171 205.988281 L 110.953125 205.988281 Z M 110.953125 153.511719 " clip-rule="nonzero"/></clipPath><clipPath id="3ba8ab0607"><path d="M 140.941406 153.511719 L 170.925781 205.988281 L 110.953125 205.988281 Z M 140.941406 153.511719 " clip-rule="nonzero"/></clipPath><clipPath id="d82b70c0b7"><path d="M 0.953125 0.511719 L 61 0.511719 L 61 52.988281 L 0.953125 52.988281 Z M 0.953125 0.511719 " clip-rule="nonzero"/></clipPath><clipPath id="d8057e3406"><path d="M 30.941406 0.511719 L 60.925781 52.988281 L 0.953125 52.988281 Z M 30.941406 0.511719 " clip-rule="nonzero"/></clipPath><clipPath id="e37aadca26"><rect x="0" width="61" y="0" height="53"/></clipPath><clipPath id="9d3ad72cd4"><path d="M 124.457031 95.667969 L 250.726562 95.667969 L 250.726562 205.988281 L 124.457031 205.988281 Z M 124.457031 95.667969 " clip-rule="nonzero"/></clipPath><clipPath id="9f3e96211f"><path d="M 187.5 95.667969 L 250.542969 205.988281 L 124.457031 205.988281 Z M 187.5 95.667969 " clip-rule="nonzero"/></clipPath><clipPath id="10865a45ca"><path d="M 0.457031 0.667969 L 126.558594 0.667969 L 126.558594 110.988281 L 0.457031 110.988281 Z M 0.457031 0.667969 " clip-rule="nonzero"/></clipPath><clipPath id="6d027e40dd"><path d="M 63.5 0.667969 L 126.542969 110.988281 L 0.457031 110.988281 Z M 63.5 0.667969 " clip-rule="nonzero"/></clipPath><clipPath id="ca67b9c175"><rect x="0" width="127" y="0" height="111"/></clipPath><clipPath id="e2307db0cf"><path d="M 140.941406 124.507812 L 234.195312 124.507812 L 234.195312 205.988281 L 140.941406 205.988281 Z M 140.941406 124.507812 " clip-rule="nonzero"/></clipPath><clipPath id="a755fc550d"><path d="M 187.5 124.507812 L 234.058594 205.988281 L 140.941406 205.988281 Z M 187.5 124.507812 " clip-rule="nonzero"/></clipPath><clipPath id="3988d51062"><path d="M 0.941406 0.507812 L 94.195312 0.507812 L 94.195312 81.988281 L 0.941406 81.988281 Z M 0.941406 0.507812 " clip-rule="nonzero"/></clipPath><clipPath id="bdf6c2a919"><path d="M 47.5 0.507812 L 94.058594 81.988281 L 0.941406 81.988281 Z M 47.5 0.507812 " clip-rule="nonzero"/></clipPath><clipPath id="52688bd5d1"><rect x="0" width="95" y="0" height="82"/></clipPath><clipPath id="ab6f9e3145"><rect x="0" width="172" y="0" height="57"/></clipPath><clipPath id="eae6d90227"><rect x="0" width="173" y="0" height="30"/></clipPath></defs><g clip-path="url(#e5d8bda9f3)"><g clip-path="url(#c308cbb21d)"><g transform="matrix(1, 0, 0, 1, 101, 56)"><g clip-path="url(#0db3d8aa80)"><g clip-path="url(#b15b993308)"><g clip-path="url(#6adc6c904e)"><path fill="#ffffff" d="M 0.816406 0.0429688 L 172.433594 0.0429688 L 172.433594 149.988281 L 0.816406 149.988281 Z M 0.816406 0.0429688 " fill-opacity="1" fill-rule="nonzero"/></g></g></g></g></g></g><g clip-path="url(#9a9981bfa9)"><g clip-path="url(#7e343a8a26)"><path stroke-linecap="butt" transform="matrix(0.75, 0, 0, 0.75, 101.81766, 56.042934)" fill="none" stroke-linejoin="miter" d="M 114.243127 0.0000464402 L 228.482718 199.921935 L -0.00167195 199.921935 Z M 114.243127 0.0000464402 " stroke="#1c2335" stroke-width="2" stroke-opacity="1" stroke-miterlimit="4"/></g></g><g clip-path="url(#042c96d4f2)"><g clip-path="url(#3ba8ab0607)"><g transform="matrix(1, 0, 0, 1, 110, 153)"><g clip-path="url(#e37aadca26)"><g clip-path="url(#d82b70c0b7)"><g clip-path="url(#d8057e3406)"><path fill="#1c2335" d="M 0.953125 0.511719 L 61.015625 0.511719 L 61.015625 52.988281 L 0.953125 52.988281 Z M 0.953125 0.511719 " fill-opacity="1" fill-rule="nonzero"/></g></g></g></g></g></g><g clip-path="url(#9d3ad72cd4)"><g clip-path="url(#9f3e96211f)"><g transform="matrix(1, 0, 0, 1, 124, 95)"><g clip-path="url(#ca67b9c175)"><g clip-path="url(#10865a45ca)"><g clip-path="url(#6d027e40dd)"><path fill="#2183b9" d="M 0.457031 0.667969 L 126.726562 0.667969 L 126.726562 110.988281 L 0.457031 110.988281 Z M 0.457031 0.667969 " fill-opacity="1" fill-rule="nonzero"/></g></g></g></g></g></g><g clip-path="url(#e2307db0cf)"><g clip-path="url(#a755fc550d)"><g transform="matrix(1, 0, 0, 1, 140, 124)"><g clip-path="url(#52688bd5d1)"><g clip-path="url(#3988d51062)"><g clip-path="url(#bdf6c2a919)"><path fill="#155890" d="M 0.941406 0.507812 L 94.195312 0.507812 L 94.195312 81.988281 L 0.941406 81.988281 Z M 0.941406 0.507812 " fill-opacity="1" fill-rule="nonzero"/></g></g></g></g></g></g><g transform="matrix(1, 0, 0, 1, 105, 228)"><g clip-path="url(#ab6f9e3145)"><g fill="#ffffff" fill-opacity="1"><g transform="translate(0.486963, 42.037551)"><g><path d="M 2.78125 0 L 2.78125 -39.578125 L 33.25 -39.578125 C 38.582031 -39.578125 42.675781 -38.410156 45.53125 -36.078125 C 48.382812 -33.742188 49.8125 -30.425781 49.8125 -26.125 C 49.8125 -21.9375 48.375 -18.691406 45.5 -16.390625 C 42.625 -14.097656 38.519531 -12.953125 33.1875 -12.953125 L 13.953125 -12.953125 L 13.953125 0 Z M 13.953125 -19.6875 L 29.796875 -19.6875 C 32.648438 -19.6875 34.835938 -20.257812 36.359375 -21.40625 C 37.878906 -22.550781 38.640625 -24.179688 38.640625 -26.296875 C 38.640625 -28.367188 37.878906 -29.976562 36.359375 -31.125 C 34.835938 -32.28125 32.648438 -32.859375 29.796875 -32.859375 L 13.953125 -32.859375 Z M 13.953125 -19.6875 "/></g></g></g><g fill="#ffffff" fill-opacity="1"><g transform="translate(58.640073, 42.037551)"><g><path d="M 2.78125 0 L 2.78125 -39.578125 L 33.25 -39.578125 C 38.582031 -39.578125 42.675781 -38.410156 45.53125 -36.078125 C 48.382812 -33.742188 49.8125 -30.425781 49.8125 -26.125 C 49.8125 -21.9375 48.375 -18.691406 45.5 -16.390625 C 42.625 -14.097656 38.519531 -12.953125 33.1875 -12.953125 L 13.953125 -12.953125 L 13.953125 0 Z M 13.953125 -19.6875 L 29.796875 -19.6875 C 32.648438 -19.6875 34.835938 -20.257812 36.359375 -21.40625 C 37.878906 -22.550781 38.640625 -24.179688 38.640625 -26.296875 C 38.640625 -28.367188 37.878906 -29.976562 36.359375 -31.125 C 34.835938 -32.28125 32.648438 -32.859375 29.796875 -32.859375 L 13.953125 -32.859375 Z M 13.953125 -19.6875 "/></g></g></g><g fill="#ffffff" fill-opacity="1"><g transform="translate(111.177678, 42.037551)"><g><path d="M 0.109375 0 L 20.34375 -39.578125 L 33.296875 -39.578125 L 53.140625 0 L 41.53125 0 L 37.75 -7.78125 L 15.515625 -7.78125 L 11.734375 0 Z M 18.015625 -14.515625 L 35.25 -14.515625 L 26.734375 -32.359375 L 26.625 -32.359375 Z M 18.015625 -14.515625 "/></g></g></g></g></g><g transform="matrix(1, 0, 0, 1, 103, 283)"><g clip-path="url(#eae6d90227)"><g fill="#ffffff" fill-opacity="1"><g transform="translate(0.456763, 23.02892)"><g><path d="M 17.203125 -5.125 C 16.578125 -3.507812 15.5625 -2.21875 14.15625 -1.25 C 12.726562 -0.25 11.160156 0.25 9.453125 0.25 C 7.140625 0.25 5.160156 -0.601562 3.515625 -2.3125 C 1.910156 -3.988281 1.109375 -6 1.109375 -8.34375 C 1.109375 -9.507812 1.320312 -10.617188 1.75 -11.671875 C 2.175781 -12.703125 2.765625 -13.609375 3.515625 -14.390625 C 5.160156 -16.097656 7.140625 -16.953125 9.453125 -16.953125 C 11.160156 -16.953125 12.71875 -16.46875 14.125 -15.5 C 15.53125 -14.519531 16.546875 -13.234375 17.171875 -11.640625 L 15.28125 -11.640625 C 14.375 -13.296875 13.03125 -14.394531 11.25 -14.9375 C 10.65625 -15.101562 9.972656 -15.1875 9.203125 -15.1875 C 8.429688 -15.1875 7.644531 -15.003906 6.84375 -14.640625 C 6.039062 -14.265625 5.34375 -13.765625 4.75 -13.140625 C 3.46875 -11.804688 2.828125 -10.207031 2.828125 -8.34375 C 2.828125 -6.488281 3.46875 -4.894531 4.75 -3.5625 C 6.039062 -2.207031 7.609375 -1.53125 9.453125 -1.53125 C 10.691406 -1.53125 11.835938 -1.859375 12.890625 -2.515625 C 13.929688 -3.171875 14.738281 -4.039062 15.3125 -5.125 Z M 17.203125 -5.125 "/></g></g></g><g fill="#ffffff" fill-opacity="1"><g transform="translate(21.637483, 23.02892)"><g><path d="M 16.59375 -8.421875 C 16.59375 -10.304688 15.914062 -11.921875 14.5625 -13.265625 C 13.21875 -14.609375 11.597656 -15.28125 9.703125 -15.28125 C 7.804688 -15.28125 6.1875 -14.609375 4.84375 -13.265625 C 3.5 -11.921875 2.828125 -10.304688 2.828125 -8.421875 C 2.828125 -6.515625 3.5 -4.890625 4.84375 -3.546875 C 6.1875 -2.203125 7.804688 -1.53125 9.703125 -1.53125 C 11.597656 -1.53125 13.21875 -2.203125 14.5625 -3.546875 C 15.914062 -4.890625 16.59375 -6.515625 16.59375 -8.421875 Z M 18.3125 -8.421875 C 18.3125 -7.234375 18.085938 -6.113281 17.640625 -5.0625 C 17.179688 -4.019531 16.566406 -3.113281 15.796875 -2.34375 C 15.015625 -1.550781 14.097656 -0.929688 13.046875 -0.484375 C 11.992188 -0.0234375 10.878906 0.203125 9.703125 0.203125 C 8.515625 0.203125 7.40625 -0.0234375 6.375 -0.484375 C 5.320312 -0.929688 4.410156 -1.550781 3.640625 -2.34375 C 2.847656 -3.113281 2.234375 -4.019531 1.796875 -5.0625 C 1.335938 -6.113281 1.109375 -7.234375 1.109375 -8.421875 C 1.109375 -9.597656 1.335938 -10.710938 1.796875 -11.765625 C 2.234375 -12.816406 2.847656 -13.726562 3.640625 -14.5 C 4.410156 -15.269531 5.320312 -15.882812 6.375 -16.34375 C 7.40625 -16.78125 8.515625 -17 9.703125 -17 C 10.878906 -17 11.992188 -16.78125 13.046875 -16.34375 C 14.097656 -15.882812 15.015625 -15.269531 15.796875 -14.5 C 16.566406 -13.726562 17.179688 -12.816406 17.640625 -11.765625 C 18.085938 -10.710938 18.3125 -9.597656 18.3125 -8.421875 Z M 18.3125 -8.421875 "/></g></g></g><g fill="#ffffff" fill-opacity="1"><g transform="translate(44.294125, 23.02892)"><g><path d="M 3.5625 -12.328125 L 3.5625 0 L 1.84375 0 L 1.84375 -17.796875 L 11.25 -4.421875 L 11.25 -16.734375 L 12.96875 -16.734375 L 12.96875 1.03125 Z M 3.5625 -12.328125 "/></g></g></g><g fill="#ffffff" fill-opacity="1"><g transform="translate(62.350811, 23.02892)"><g><path d="M 6.5 -7.90625 C 3.082031 -8.6875 1.375 -10.144531 1.375 -12.28125 C 1.375 -13.851562 1.925781 -15.035156 3.03125 -15.828125 C 4.125 -16.597656 5.410156 -16.984375 6.890625 -16.984375 C 10.148438 -16.984375 12.085938 -15.769531 12.703125 -13.34375 L 10.828125 -13.34375 C 10.492188 -14.78125 9.179688 -15.5 6.890625 -15.5 C 5.285156 -15.5 4.160156 -15.023438 3.515625 -14.078125 C 3.273438 -13.710938 3.15625 -13.257812 3.15625 -12.71875 C 3.15625 -11.6875 3.710938 -10.890625 4.828125 -10.328125 C 5.347656 -10.054688 6.460938 -9.695312 8.171875 -9.25 C 9.878906 -8.8125 11.117188 -8.320312 11.890625 -7.78125 C 12.953125 -7.019531 13.484375 -5.960938 13.484375 -4.609375 C 13.484375 -2.910156 12.820312 -1.628906 11.5 -0.765625 C 10.375 -0.046875 8.992188 0.3125 7.359375 0.3125 C 3.648438 0.3125 1.5 -1.09375 0.90625 -3.90625 L 2.953125 -3.90625 C 3.265625 -2.132812 4.734375 -1.25 7.359375 -1.25 C 9.222656 -1.25 10.523438 -1.769531 11.265625 -2.8125 C 11.566406 -3.21875 11.71875 -3.773438 11.71875 -4.484375 C 11.71875 -5.171875 11.445312 -5.734375 10.90625 -6.171875 C 10.132812 -6.796875 8.664062 -7.375 6.5 -7.90625 Z M 6.5 -7.90625 "/></g></g></g><g fill="#ffffff" fill-opacity="1"><g transform="translate(79.718738, 23.02892)"><g><path d="M 13.953125 -5.53125 C 13.953125 -3.726562 13.363281 -2.300781 12.1875 -1.25 C 11.070312 -0.269531 9.585938 0.21875 7.734375 0.21875 C 5.859375 0.21875 4.363281 -0.269531 3.25 -1.25 C 2.0625 -2.300781 1.46875 -3.726562 1.46875 -5.53125 L 1.46875 -16.734375 L 3.203125 -16.734375 L 3.203125 -5.296875 C 3.203125 -4.023438 3.660156 -3.054688 4.578125 -2.390625 C 5.367188 -1.796875 6.421875 -1.5 7.734375 -1.5 C 9.773438 -1.5 11.148438 -2.1875 11.859375 -3.5625 C 12.109375 -4.039062 12.234375 -4.617188 12.234375 -5.296875 L 12.234375 -16.734375 L 13.953125 -16.734375 Z M 13.953125 -5.53125 "/></g></g></g><g fill="#ffffff" fill-opacity="1"><g transform="translate(98.390389, 23.02892)"><g><path d="M 3.5625 -1.71875 L 9.546875 -1.71875 L 9.546875 0 L 1.84375 0 L 1.84375 -16.734375 L 3.5625 -16.734375 Z M 3.5625 -1.71875 "/></g></g></g><g fill="#ffffff" fill-opacity="1"><g transform="translate(108.279346, 23.02892)"><g><path d="M 0.484375 -15.1875 L 0.484375 -16.78125 L 10.328125 -16.78125 L 10.328125 -15.1875 L 6.28125 -15.1875 L 6.28125 -0.046875 L 4.546875 -0.046875 L 4.546875 -15.1875 Z M 0.484375 -15.1875 "/></g></g></g><g fill="#ffffff" fill-opacity="1"><g transform="translate(122.351041, 23.02892)"><g><path d="M 3.5625 0 L 1.84375 0 L 1.84375 -16.734375 L 3.5625 -16.734375 Z M 3.5625 0 "/></g></g></g><g fill="#ffffff" fill-opacity="1"><g transform="translate(131.011017, 23.02892)"><g><path d="M 3.5625 -12.328125 L 3.5625 0 L 1.84375 0 L 1.84375 -17.796875 L 11.25 -4.421875 L 11.25 -16.734375 L 12.96875 -16.734375 L 12.96875 1.03125 Z M 3.5625 -12.328125 "/></g></g></g><g fill="#ffffff" fill-opacity="1"><g transform="translate(149.06771, 23.02892)"><g><path d="M 18.359375 -7.828125 L 18.1875 -6.796875 C 17.820312 -4.753906 16.828125 -3.078125 15.203125 -1.765625 C 13.578125 -0.453125 11.75 0.203125 9.71875 0.203125 C 8.539062 0.203125 7.425781 -0.0234375 6.375 -0.484375 C 5.320312 -0.929688 4.410156 -1.550781 3.640625 -2.34375 C 2.847656 -3.113281 2.234375 -4.019531 1.796875 -5.0625 C 1.335938 -6.113281 1.109375 -7.238281 1.109375 -8.4375 C 1.109375 -9.625 1.335938 -10.738281 1.796875 -11.78125 C 2.234375 -12.832031 2.847656 -13.753906 3.640625 -14.546875 C 4.410156 -15.316406 5.320312 -15.929688 6.375 -16.390625 C 7.425781 -16.828125 8.484375 -17.046875 9.546875 -17.046875 C 11.546875 -17.046875 13.3125 -16.484375 14.84375 -15.359375 C 16.382812 -14.222656 17.429688 -12.726562 17.984375 -10.875 L 16.171875 -10.875 C 15.640625 -12.238281 14.796875 -13.320312 13.640625 -14.125 C 12.453125 -14.925781 11.144531 -15.328125 9.71875 -15.328125 C 7.8125 -15.328125 6.1875 -14.65625 4.84375 -13.3125 C 3.5 -11.96875 2.828125 -10.34375 2.828125 -8.4375 C 2.828125 -6.550781 3.5 -4.925781 4.84375 -3.5625 C 6.175781 -2.207031 7.800781 -1.53125 9.71875 -1.53125 C 11.226562 -1.53125 12.609375 -1.960938 13.859375 -2.828125 C 15.085938 -3.710938 15.945312 -4.878906 16.4375 -6.328125 L 9.640625 -6.328125 L 9.640625 -7.828125 Z M 18.359375 -7.828125 "/></g></g></g></g></g></svg>